<?xml version="1.0" encoding="UTF-8"?>
<!-- Generator: Adobe Illustrator 25.3.0, SVG Export Plug-In . SVG Version: 6.00 Build 0)  -->
<svg version="1.1" id="Layer_1" xmlns="http://www.w3.org/2000/svg" xmlns:xlink="http://www.w3.org/1999/xlink" x="0px" y="0px" viewBox="0 0 1920 1080" style="enable-background:new 0 0 1920 1080;" xml:space="preserve">
<style type="text/css">
	.st0{opacity:0.32;fill:url(#SVGID_1_);}
	.st1{opacity:0.32;fill:url(#SVGID_2_);}
	.st2{opacity:0.32;fill:url(#SVGID_3_);}
	.st3{opacity:0.32;fill:url(#SVGID_4_);}
	.st4{opacity:0.32;fill:url(#SVGID_5_);}
	.st5{opacity:0.32;fill:url(#SVGID_6_);}
	.st6{opacity:0.5;fill:url(#SVGID_7_);}
	.st7{opacity:0.5;fill:url(#SVGID_8_);}
	.st8{opacity:0.5;fill:url(#SVGID_9_);}
	.st9{opacity:0.5;fill:url(#SVGID_10_);}
	.st10{opacity:0.5;fill:url(#SVGID_11_);}
	.st11{opacity:0.5;fill:url(#SVGID_12_);}
	.st12{fill:url(#SVGID_13_);}
	.st13{fill:url(#SVGID_14_);}
	.st14{opacity:0.32;fill:url(#SVGID_15_);}
	.st15{opacity:0.32;fill:url(#SVGID_16_);}
	.st16{opacity:0.32;fill:url(#SVGID_17_);}
	.st17{opacity:0.32;fill:url(#SVGID_18_);}
	.st18{fill:url(#SVGID_19_);}
	.st19{fill:url(#SVGID_20_);}
	.st20{opacity:0.5;fill:url(#SVGID_21_);}
	.st21{opacity:0.5;fill:url(#SVGID_22_);}
	.st22{opacity:0.5;fill:url(#SVGID_23_);}
	.st23{opacity:0.5;fill:url(#SVGID_24_);}
	.st24{opacity:0.5;fill:url(#SVGID_25_);}
	.st25{opacity:0.5;fill:url(#SVGID_26_);}
	.st26{fill:url(#SVGID_27_);}
	.st27{fill:url(#SVGID_28_);}
	.st28{opacity:0.32;fill:url(#SVGID_29_);}
	.st29{opacity:0.32;fill:url(#SVGID_30_);}
	.st30{opacity:0.32;fill:url(#SVGID_31_);}
	.st31{opacity:0.32;fill:url(#SVGID_32_);}
	.st32{fill:url(#SVGID_33_);}
	.st33{fill:url(#SVGID_34_);}
	.st34{opacity:0.5;fill:url(#SVGID_35_);}
	.st35{opacity:0.5;fill:url(#SVGID_36_);}
	.st36{opacity:0.5;fill:url(#SVGID_37_);}
	.st37{opacity:0.5;fill:url(#SVGID_38_);}
	.st38{opacity:0.5;fill:url(#SVGID_39_);}
	.st39{opacity:0.5;fill:url(#SVGID_40_);}
	.st40{fill:url(#SVGID_41_);}
	.st41{fill:url(#SVGID_42_);}
	.st42{opacity:0.32;fill:url(#SVGID_43_);}
	.st43{opacity:0.32;fill:url(#SVGID_44_);}
	.st44{opacity:0.32;fill:url(#SVGID_45_);}
	.st45{fill:url(#SVGID_46_);}
	.st46{opacity:0.32;fill:url(#SVGID_47_);}
	.st47{fill:url(#SVGID_48_);}
	.st48{opacity:0.5;fill:url(#SVGID_49_);}
	.st49{opacity:0.5;fill:url(#SVGID_50_);}
	.st50{opacity:0.5;fill:url(#SVGID_51_);}
	.st51{opacity:0.5;fill:url(#SVGID_52_);}
	.st52{opacity:0.5;fill:url(#SVGID_53_);}
	.st53{opacity:0.5;fill:url(#SVGID_54_);}
	.st54{fill:url(#SVGID_55_);}
	.st55{opacity:0.32;fill:url(#SVGID_56_);}
	.st56{opacity:0.32;fill:url(#SVGID_57_);}
	.st57{opacity:0.5;fill:url(#SVGID_58_);}
	.st58{fill:url(#SVGID_59_);}
	.st59{opacity:0.5;fill:url(#SVGID_60_);}
	.st60{fill:url(#SVGID_61_);}
	.st61{opacity:0.5;fill:url(#SVGID_62_);}
	.st62{fill:url(#SVGID_63_);}
	.st63{opacity:0.5;fill:url(#SVGID_64_);}
	.st64{fill:url(#SVGID_65_);}
	.st65{fill:url(#SVGID_66_);}
	.st66{opacity:0.32;fill:url(#SVGID_67_);}
	.st67{opacity:0.32;fill:url(#SVGID_68_);}
	.st68{fill:url(#SVGID_69_);}
	.st69{opacity:0.5;fill:url(#SVGID_70_);}
	.st70{opacity:0.5;fill:url(#SVGID_71_);}
	.st71{opacity:0.5;fill:url(#SVGID_72_);}
	.st72{fill:url(#SVGID_73_);}
	.st73{opacity:0.5;fill:url(#SVGID_74_);}
	.st74{fill:url(#SVGID_75_);}
	.st75{opacity:0.32;fill:url(#SVGID_76_);}
	.st76{opacity:0.32;fill:url(#SVGID_77_);}
	.st77{fill:url(#SVGID_78_);}
	.st78{opacity:0.32;fill:url(#SVGID_79_);}
	.st79{opacity:0.32;fill:url(#SVGID_80_);}
	.st80{opacity:0.32;fill:url(#SVGID_81_);}
	.st81{opacity:0.5;fill:url(#SVGID_82_);}
	.st82{opacity:0.5;fill:url(#SVGID_83_);}
	.st83{opacity:0.5;fill:url(#SVGID_84_);}
	.st84{opacity:0.5;fill:url(#SVGID_85_);}
	.st85{opacity:0.5;fill:url(#SVGID_86_);}
	.st86{opacity:0.5;fill:url(#SVGID_87_);}
	.st87{fill:url(#SVGID_88_);}
	.st88{opacity:0.32;fill:url(#SVGID_89_);}
	.st89{fill:url(#SVGID_90_);}
	.st90{opacity:0.32;fill:url(#SVGID_91_);}
	.st91{opacity:0.5;fill:url(#SVGID_92_);}
	.st92{opacity:0.5;fill:url(#SVGID_93_);}
	.st93{fill:url(#SVGID_94_);}
	.st94{opacity:0.32;fill:url(#SVGID_95_);}
	.st95{opacity:0.32;fill:url(#SVGID_96_);}
	.st96{fill:url(#SVGID_97_);}
	.st97{opacity:0.5;fill:url(#SVGID_98_);}
	.st98{opacity:0.5;fill:url(#SVGID_99_);}
	.st99{fill:url(#SVGID_100_);}
	.st100{opacity:0.32;fill:url(#SVGID_101_);}
	.st101{opacity:0.32;fill:url(#SVGID_102_);}
	.st102{fill:url(#SVGID_103_);}
	.st103{opacity:0.5;fill:url(#SVGID_104_);}
	.st104{opacity:0.5;fill:url(#SVGID_105_);}
	.st105{fill:url(#SVGID_106_);}
	.st106{fill:url(#SVGID_107_);}
	.st107{opacity:0.32;fill:url(#SVGID_108_);}
	.st108{fill:url(#SVGID_109_);}
	.st109{fill:url(#SVGID_110_);}
	.st110{opacity:0.5;fill:url(#SVGID_111_);}
	.st111{fill:url(#SVGID_112_);}
	.st112{fill:url(#SVGID_113_);}
	.st113{opacity:0.5;fill:url(#SVGID_114_);}
	.st114{fill:url(#SVGID_115_);}
	.st115{opacity:0.32;fill:url(#SVGID_116_);}
	.st116{fill:url(#SVGID_117_);}
	.st117{fill:url(#SVGID_118_);}
	.st118{opacity:0.32;fill:url(#SVGID_119_);}
	.st119{opacity:0.32;fill:url(#SVGID_120_);}
	.st120{opacity:0.32;fill:url(#SVGID_121_);}
	.st121{opacity:0.32;fill:url(#SVGID_122_);}
	.st122{opacity:0.32;fill:url(#SVGID_123_);}
	.st123{opacity:0.32;fill:url(#SVGID_124_);}
	.st124{opacity:0.5;fill:url(#SVGID_125_);}
	.st125{opacity:0.5;fill:url(#SVGID_126_);}
	.st126{opacity:0.5;fill:url(#SVGID_127_);}
	.st127{opacity:0.5;fill:url(#SVGID_128_);}
	.st128{opacity:0.5;fill:url(#SVGID_129_);}
	.st129{opacity:0.5;fill:url(#SVGID_130_);}
	.st130{fill:url(#SVGID_131_);}
	.st131{fill:url(#SVGID_132_);}
	.st132{fill:url(#SVGID_133_);}
	.st133{opacity:0.32;fill:url(#SVGID_134_);}
	.st134{opacity:0.5;fill:url(#SVGID_135_);}
	.st135{fill:url(#SVGID_136_);}
	.st136{opacity:0.5;fill:url(#SVGID_137_);}
	.st137{opacity:0.5;fill:url(#SVGID_138_);}
	.st138{opacity:0.5;fill:url(#SVGID_139_);}
	.st139{opacity:0.5;fill:url(#SVGID_140_);}
	.st140{fill:url(#SVGID_141_);}
	.st141{opacity:0.32;fill:url(#SVGID_142_);}
	.st142{fill:url(#SVGID_143_);}
	.st143{opacity:0.5;fill:url(#SVGID_144_);}
	.st144{opacity:0.5;fill:url(#SVGID_145_);}
	.st145{opacity:0.5;fill:url(#SVGID_146_);}
	.st146{fill:url(#SVGID_147_);}
</style>
<g>
	<g>
		<radialGradient id="SVGID_1_" cx="1402.0031" cy="791.8376" r="7.9535" gradientUnits="userSpaceOnUse">
			<stop offset="0.0593" style="stop-color:#FF7F9A"/>
			<stop offset="0.5259" style="stop-color:#FF3B9C"/>
			<stop offset="0.9926" style="stop-color:#D10059"/>
		</radialGradient>
		<path class="st0" d="M1402,799.79c0,0-1.78-4.11-2.81-5.14c-1.04-1.04-5.14-2.81-5.14-2.81s4.11-1.78,5.14-2.81    c1.04-1.04,2.81-5.14,2.81-5.14s1.78,4.11,2.81,5.14c1.04,1.04,5.14,2.81,5.14,2.81s-4.11,1.78-5.14,2.81    C1403.78,795.69,1402,799.79,1402,799.79z"/>
		<radialGradient id="SVGID_2_" cx="1379.8997" cy="978.3911" r="7.9536" gradientUnits="userSpaceOnUse">
			<stop offset="0.0593" style="stop-color:#FF7F9A"/>
			<stop offset="0.5259" style="stop-color:#FF3B9C"/>
			<stop offset="0.9926" style="stop-color:#D10059"/>
		</radialGradient>
		<path class="st1" d="M1379.9,986.34c0,0-1.78-4.11-2.81-5.14c-1.04-1.04-5.14-2.81-5.14-2.81s4.11-1.78,5.14-2.81    c1.04-1.04,2.81-5.14,2.81-5.14s1.78,4.11,2.81,5.14c1.04,1.04,5.14,2.81,5.14,2.81s-4.11,1.78-5.14,2.81    C1381.68,982.24,1379.9,986.34,1379.9,986.34z"/>
		<radialGradient id="SVGID_3_" cx="1139.4453" cy="820.4255" r="7.9536" gradientUnits="userSpaceOnUse">
			<stop offset="0.0593" style="stop-color:#FF7F9A"/>
			<stop offset="0.5259" style="stop-color:#FF3B9C"/>
			<stop offset="0.9926" style="stop-color:#D10059"/>
		</radialGradient>
		<path class="st2" d="M1139.45,828.38c0,0-1.78-4.11-2.81-5.14c-1.04-1.04-5.14-2.81-5.14-2.81s4.11-1.78,5.14-2.81    c1.04-1.04,2.81-5.14,2.81-5.14s1.78,4.11,2.81,5.14s5.14,2.81,5.14,2.81s-4.11,1.78-5.14,2.81    C1141.22,824.27,1139.45,828.38,1139.45,828.38z"/>
		<radialGradient id="SVGID_4_" cx="1120.8467" cy="904.1234" r="13.2585" gradientUnits="userSpaceOnUse">
			<stop offset="0.0593" style="stop-color:#FF7F9A"/>
			<stop offset="0.5259" style="stop-color:#FF3B9C"/>
			<stop offset="0.9926" style="stop-color:#D10059"/>
		</radialGradient>
		<path class="st3" d="M1120.85,917.38c0,0-2.96-6.84-4.69-8.57c-1.73-1.73-8.57-4.69-8.57-4.69s6.84-2.96,8.57-4.69    c1.73-1.73,4.69-8.57,4.69-8.57s2.96,6.84,4.69,8.57c1.73,1.73,8.57,4.69,8.57,4.69s-6.84,2.96-8.57,4.69    C1123.81,910.54,1120.85,917.38,1120.85,917.38z"/>
		<radialGradient id="SVGID_5_" cx="1111.1211" cy="746.7464" r="13.2584" gradientUnits="userSpaceOnUse">
			<stop offset="0.0593" style="stop-color:#FF7F9A"/>
			<stop offset="0.5259" style="stop-color:#FF3B9C"/>
			<stop offset="0.9926" style="stop-color:#D10059"/>
		</radialGradient>
		<path class="st4" d="M1111.12,760c0,0-2.96-6.84-4.69-8.57c-1.73-1.73-8.57-4.69-8.57-4.69s6.84-2.96,8.57-4.69    c1.73-1.73,4.69-8.57,4.69-8.57s2.96,6.84,4.69,8.57c1.73,1.73,8.57,4.69,8.57,4.69s-6.84,2.96-8.57,4.69    C1114.08,753.16,1111.12,760,1111.12,760z"/>
		<radialGradient id="SVGID_6_" cx="1450.6307" cy="920.0378" r="13.2584" gradientUnits="userSpaceOnUse">
			<stop offset="0.0593" style="stop-color:#FF7F9A"/>
			<stop offset="0.5259" style="stop-color:#FF3B9C"/>
			<stop offset="0.9926" style="stop-color:#D10059"/>
		</radialGradient>
		<path class="st5" d="M1450.63,933.3c0,0-2.96-6.84-4.69-8.57c-1.73-1.73-8.57-4.69-8.57-4.69s6.84-2.96,8.57-4.69    c1.73-1.73,4.69-8.57,4.69-8.57s2.96,6.84,4.69,8.57c1.73,1.73,8.57,4.69,8.57,4.69s-6.84,2.96-8.57,4.69    C1453.59,926.45,1450.63,933.3,1450.63,933.3z"/>
		
			<radialGradient id="SVGID_7_" cx="661.7316" cy="370.9139" r="346.9359" gradientTransform="matrix(-1 0 0 -1 1935.0522 1067.0367)" gradientUnits="userSpaceOnUse">
			<stop offset="0.0593" style="stop-color:#000E57"/>
			<stop offset="0.8889" style="stop-color:#0279AF"/>
		</radialGradient>
		<path class="st6" d="M1151.62,769.81c-2.45,0-4.44,1.99-4.44,4.44s1.99,4.44,4.44,4.44c2.45,0,4.44-1.99,4.44-4.44    S1154.07,769.81,1151.62,769.81z"/>
		
			<radialGradient id="SVGID_8_" cx="661.7335" cy="370.9117" r="346.9292" gradientTransform="matrix(-1 0 0 -1 1935.0522 1067.0367)" gradientUnits="userSpaceOnUse">
			<stop offset="0.0593" style="stop-color:#000E57"/>
			<stop offset="0.8889" style="stop-color:#0279AF"/>
		</radialGradient>
		<path class="st7" d="M1223.77,1012.92c0,0-0.99,2.28-1.56,2.86c-0.58,0.58-2.86,1.56-2.86,1.56s2.28,0.99,2.86,1.56    c0.58,0.58,1.56,2.86,1.56,2.86s0.99-2.28,1.56-2.86c0.58-0.58,2.86-1.56,2.86-1.56s-2.28-0.99-2.86-1.56    C1224.76,1015.2,1223.77,1012.92,1223.77,1012.92z"/>
		
			<radialGradient id="SVGID_9_" cx="661.7325" cy="370.9114" r="346.9313" gradientTransform="matrix(-1 0 0 -1 1935.0522 1067.0367)" gradientUnits="userSpaceOnUse">
			<stop offset="0.0593" style="stop-color:#000E57"/>
			<stop offset="0.8889" style="stop-color:#0279AF"/>
		</radialGradient>
		<path class="st8" d="M1101.76,928.05c0,0-0.99,2.28-1.56,2.86c-0.58,0.58-2.86,1.56-2.86,1.56s2.28,0.99,2.86,1.56    c0.58,0.58,1.56,2.86,1.56,2.86s0.99-2.28,1.56-2.86c0.58-0.58,2.86-1.56,2.86-1.56s-2.28-0.99-2.86-1.56    C1102.75,930.33,1101.76,928.05,1101.76,928.05z"/>
		
			<radialGradient id="SVGID_10_" cx="661.7339" cy="370.9171" r="346.9362" gradientTransform="matrix(-1 0 0 -1 1935.0522 1067.0367)" gradientUnits="userSpaceOnUse">
			<stop offset="0.0593" style="stop-color:#000E57"/>
			<stop offset="0.8889" style="stop-color:#0279AF"/>
		</radialGradient>
		<path class="st9" d="M1162.56,867.71c0,0-0.99,2.28-1.56,2.86c-0.58,0.58-2.86,1.56-2.86,1.56s2.28,0.99,2.86,1.56    c0.58,0.58,1.56,2.86,1.56,2.86s0.99-2.28,1.56-2.86c0.58-0.58,2.86-1.56,2.86-1.56s-2.28-0.99-2.86-1.56    C1163.55,869.99,1162.56,867.71,1162.56,867.71z"/>
		
			<radialGradient id="SVGID_11_" cx="661.7324" cy="370.9142" r="346.931" gradientTransform="matrix(-1 0 0 -1 1935.0522 1067.0367)" gradientUnits="userSpaceOnUse">
			<stop offset="0.0593" style="stop-color:#000E57"/>
			<stop offset="0.8889" style="stop-color:#0279AF"/>
		</radialGradient>
		<path class="st10" d="M1438.21,732.65c0,0-0.99,2.28-1.56,2.86c-0.58,0.58-2.86,1.56-2.86,1.56s2.28,0.99,2.86,1.56    c0.58,0.58,1.56,2.86,1.56,2.86s0.99-2.28,1.56-2.86c0.58-0.58,2.86-1.56,2.86-1.56s-2.28-0.99-2.86-1.56    C1439.19,734.93,1438.21,732.65,1438.21,732.65z"/>
		
			<radialGradient id="SVGID_12_" cx="661.734" cy="370.9168" r="346.936" gradientTransform="matrix(-1 0 0 -1 1935.0522 1067.0367)" gradientUnits="userSpaceOnUse">
			<stop offset="0.0593" style="stop-color:#000E57"/>
			<stop offset="0.8889" style="stop-color:#0279AF"/>
		</radialGradient>
		<path class="st11" d="M1386.97,932.42c0,0-0.99,2.28-1.56,2.86c-0.58,0.58-2.86,1.56-2.86,1.56s2.28,0.99,2.86,1.56    c0.58,0.58,1.56,2.86,1.56,2.86s0.99-2.28,1.56-2.86c0.58-0.58,2.86-1.56,2.86-1.56s-2.28-0.99-2.86-1.56    C1387.96,934.7,1386.97,932.42,1386.97,932.42z"/>
		
			<radialGradient id="SVGID_13_" cx="515.3986" cy="197.2786" r="27.2257" gradientTransform="matrix(-1 0 0 -1 1935.0522 1067.0367)" gradientUnits="userSpaceOnUse">
			<stop offset="0.0593" style="stop-color:#000E57"/>
			<stop offset="0.8889" style="stop-color:#0279AF"/>
		</radialGradient>
		<path class="st12" d="M1413.26,866.81c0-0.82,0.66-1.48,1.48-1.48s1.48,0.66,1.48,1.48c0,0.82-0.66,1.48-1.48,1.48    S1413.26,867.62,1413.26,866.81z M1401.45,893.87c1.63,0,2.95-1.32,2.95-2.95c0-1.63-1.32-2.95-2.95-2.95    c-1.63,0-2.95,1.32-2.95,2.95C1398.49,892.55,1399.82,893.87,1401.45,893.87z M1395.54,858.44c3.26,0,5.91-2.64,5.91-5.91    c0-3.26-2.64-5.91-5.91-5.91s-5.91,2.64-5.91,5.91C1389.64,855.8,1392.28,858.44,1395.54,858.44z M1446.72,851.55    c1.63,0,2.95-1.32,2.95-2.95c0-1.63-1.32-2.95-2.95-2.95s-2.95,1.32-2.95,2.95C1443.77,850.23,1445.09,851.55,1446.72,851.55z"/>
		
			<radialGradient id="SVGID_14_" cx="785.3574" cy="96.4953" r="27.9225" gradientTransform="matrix(-1 0 0 -1 1935.0522 1067.0367)" gradientUnits="userSpaceOnUse">
			<stop offset="0.0593" style="stop-color:#000E57"/>
			<stop offset="0.8889" style="stop-color:#0279AF"/>
		</radialGradient>
		<path class="st13" d="M1154.69,972.56c0.07,0.81-0.53,1.53-1.35,1.6c-0.81,0.07-1.53-0.53-1.6-1.35c-0.07-0.81,0.53-1.53,1.35-1.6    C1153.9,971.15,1154.62,971.75,1154.69,972.56z M1164.16,944.6c-1.62,0.14-2.83,1.57-2.69,3.19c0.14,1.62,1.57,2.83,3.19,2.69    c1.62-0.14,2.83-1.57,2.69-3.19C1167.21,945.66,1165.78,944.46,1164.16,944.6z M1173.05,979.4c-3.25,0.28-5.66,3.14-5.38,6.38    c0.28,3.25,3.14,5.66,6.38,5.38c3.25-0.28,5.66-3.14,5.38-6.38C1179.16,981.53,1176.3,979.12,1173.05,979.4z M1122.64,990.6    c-1.63,0.14-2.83,1.57-2.69,3.19c0.14,1.62,1.57,2.83,3.19,2.69c1.62-0.14,2.83-1.57,2.69-3.19    C1125.69,991.67,1124.26,990.47,1122.64,990.6z"/>
	</g>
	<g>
		<radialGradient id="SVGID_15_" cx="1391.1237" cy="65.1443" r="7.9536" gradientUnits="userSpaceOnUse">
			<stop offset="0.0593" style="stop-color:#FF7F9A"/>
			<stop offset="0.5259" style="stop-color:#FF3B9C"/>
			<stop offset="0.9926" style="stop-color:#D10059"/>
		</radialGradient>
		<path class="st14" d="M1391.12,73.1c0,0-1.78-4.11-2.81-5.14c-1.04-1.04-5.14-2.81-5.14-2.81s4.11-1.78,5.14-2.81    c1.04-1.04,2.81-5.14,2.81-5.14s1.78,4.11,2.81,5.14s5.14,2.81,5.14,2.81s-4.11,1.78-5.14,2.81    C1392.9,68.99,1391.12,73.1,1391.12,73.1z"/>
		<radialGradient id="SVGID_16_" cx="1369.0201" cy="251.6977" r="7.9535" gradientUnits="userSpaceOnUse">
			<stop offset="0.0593" style="stop-color:#FF7F9A"/>
			<stop offset="0.5259" style="stop-color:#FF3B9C"/>
			<stop offset="0.9926" style="stop-color:#D10059"/>
		</radialGradient>
		<path class="st15" d="M1369.02,259.65c0,0-1.78-4.11-2.81-5.14c-1.04-1.04-5.14-2.81-5.14-2.81s4.11-1.78,5.14-2.81    c1.04-1.04,2.81-5.14,2.81-5.14s1.78,4.11,2.81,5.14c1.04,1.04,5.14,2.81,5.14,2.81s-4.11,1.78-5.14,2.81    C1370.8,255.55,1369.02,259.65,1369.02,259.65z"/>
		<radialGradient id="SVGID_17_" cx="1128.566" cy="93.732" r="7.9535" gradientUnits="userSpaceOnUse">
			<stop offset="0.0593" style="stop-color:#FF7F9A"/>
			<stop offset="0.5259" style="stop-color:#FF3B9C"/>
			<stop offset="0.9926" style="stop-color:#D10059"/>
		</radialGradient>
		<path class="st16" d="M1128.57,101.69c0,0-1.78-4.11-2.81-5.14c-1.04-1.04-5.14-2.81-5.14-2.81s4.11-1.78,5.14-2.81    c1.04-1.04,2.81-5.14,2.81-5.14s1.78,4.11,2.81,5.14c1.04,1.04,5.14,2.81,5.14,2.81s-4.11,1.78-5.14,2.81    C1130.34,97.58,1128.57,101.69,1128.57,101.69z"/>
		<radialGradient id="SVGID_18_" cx="1109.9672" cy="177.43" r="13.2584" gradientUnits="userSpaceOnUse">
			<stop offset="0.0593" style="stop-color:#FF7F9A"/>
			<stop offset="0.5259" style="stop-color:#FF3B9C"/>
			<stop offset="0.9926" style="stop-color:#D10059"/>
		</radialGradient>
		<path class="st17" d="M1109.97,190.69c0,0-2.96-6.84-4.69-8.57c-1.73-1.73-8.57-4.69-8.57-4.69s6.84-2.96,8.57-4.69    c1.73-1.73,4.69-8.57,4.69-8.57s2.96,6.84,4.69,8.57c1.73,1.73,8.57,4.69,8.57,4.69s-6.84,2.96-8.57,4.69    C1112.93,183.84,1109.97,190.69,1109.97,190.69z"/>
		<radialGradient id="SVGID_19_" cx="1100.2418" cy="20.0531" r="13.2583" gradientUnits="userSpaceOnUse">
			<stop offset="0.0593" style="stop-color:#FF7F9A"/>
			<stop offset="0.5259" style="stop-color:#FF3B9C"/>
			<stop offset="0.9926" style="stop-color:#D10059"/>
		</radialGradient>
		<path class="st18" d="M1100.24,33.31c0,0-2.96-6.84-4.69-8.57c-1.73-1.73-8.57-4.69-8.57-4.69s6.84-2.96,8.57-4.69    c1.73-1.73,4.69-8.57,4.69-8.57s2.96,6.84,4.69,8.57c1.73,1.73,8.57,4.69,8.57,4.69s-6.84,2.96-8.57,4.69    C1103.2,26.47,1100.24,33.31,1100.24,33.31z"/>
		<radialGradient id="SVGID_20_" cx="1439.7515" cy="193.3445" r="13.2584" gradientUnits="userSpaceOnUse">
			<stop offset="0.0593" style="stop-color:#FF7F9A"/>
			<stop offset="0.5259" style="stop-color:#FF3B9C"/>
			<stop offset="0.9926" style="stop-color:#D10059"/>
		</radialGradient>
		<path class="st19" d="M1439.75,206.6c0,0-2.96-6.84-4.69-8.57c-1.73-1.73-8.57-4.69-8.57-4.69s6.84-2.96,8.57-4.69    c1.73-1.73,4.69-8.57,4.69-8.57s2.96,6.84,4.69,8.57c1.73,1.73,8.57,4.69,8.57,4.69s-6.84,2.96-8.57,4.69    C1442.71,199.76,1439.75,206.6,1439.75,206.6z"/>
		
			<radialGradient id="SVGID_21_" cx="672.6141" cy="1097.6052" r="346.927" gradientTransform="matrix(-1 0 0 -1 1935.0522 1067.0367)" gradientUnits="userSpaceOnUse">
			<stop offset="0.0593" style="stop-color:#000E57"/>
			<stop offset="0.8889" style="stop-color:#0279AF"/>
		</radialGradient>
		<path class="st20" d="M1140.74,43.12c-2.45,0-4.44,1.99-4.44,4.44c0,2.45,1.99,4.44,4.44,4.44c2.45,0,4.44-1.99,4.44-4.44    C1145.18,45.11,1143.19,43.12,1140.74,43.12z"/>
		
			<radialGradient id="SVGID_22_" cx="672.6116" cy="1097.6051" r="346.9294" gradientTransform="matrix(-1 0 0 -1 1935.0522 1067.0367)" gradientUnits="userSpaceOnUse">
			<stop offset="0.0593" style="stop-color:#000E57"/>
			<stop offset="0.8889" style="stop-color:#0279AF"/>
		</radialGradient>
		<path class="st21" d="M1212.89,286.23c0,0-0.99,2.28-1.56,2.86c-0.58,0.58-2.86,1.56-2.86,1.56s2.28,0.99,2.86,1.56    c0.58,0.58,1.56,2.86,1.56,2.86s0.99-2.28,1.56-2.86c0.58-0.58,2.86-1.56,2.86-1.56s-2.28-0.99-2.86-1.56    C1213.88,288.51,1212.89,286.23,1212.89,286.23z"/>
		
			<radialGradient id="SVGID_23_" cx="672.6117" cy="1097.6049" r="346.9313" gradientTransform="matrix(-1 0 0 -1 1935.0522 1067.0367)" gradientUnits="userSpaceOnUse">
			<stop offset="0.0593" style="stop-color:#000E57"/>
			<stop offset="0.8889" style="stop-color:#0279AF"/>
		</radialGradient>
		<path class="st22" d="M1090.88,201.35c0,0-0.99,2.28-1.56,2.86c-0.58,0.58-2.86,1.56-2.86,1.56s2.28,0.99,2.86,1.56    c0.58,0.58,1.56,2.86,1.56,2.86s0.99-2.28,1.56-2.86c0.58-0.58,2.86-1.56,2.86-1.56s-2.28-0.99-2.86-1.56    C1091.87,203.63,1090.88,201.35,1090.88,201.35z"/>
		
			<radialGradient id="SVGID_24_" cx="672.6134" cy="1097.606" r="346.9301" gradientTransform="matrix(-1 0 0 -1 1935.0522 1067.0367)" gradientUnits="userSpaceOnUse">
			<stop offset="0.0593" style="stop-color:#000E57"/>
			<stop offset="0.8889" style="stop-color:#0279AF"/>
		</radialGradient>
		<path class="st23" d="M1151.68,141.02c0,0-0.99,2.28-1.56,2.86c-0.58,0.58-2.86,1.56-2.86,1.56s2.28,0.99,2.86,1.56    c0.58,0.58,1.56,2.86,1.56,2.86s0.99-2.28,1.56-2.86c0.58-0.58,2.86-1.56,2.86-1.56s-2.28-0.99-2.86-1.56    C1152.67,143.3,1151.68,141.02,1151.68,141.02z"/>
		
			<radialGradient id="SVGID_25_" cx="672.6119" cy="1097.6064" r="346.9306" gradientTransform="matrix(-1 0 0 -1 1935.0522 1067.0367)" gradientUnits="userSpaceOnUse">
			<stop offset="0.0593" style="stop-color:#000E57"/>
			<stop offset="0.8889" style="stop-color:#0279AF"/>
		</radialGradient>
		<path class="st24" d="M1427.33,5.96c0,0-0.99,2.28-1.56,2.86c-0.58,0.58-2.86,1.56-2.86,1.56s2.28,0.99,2.86,1.56    c0.58,0.58,1.56,2.86,1.56,2.86s0.99-2.28,1.56-2.86c0.58-0.58,2.86-1.56,2.86-1.56s-2.28-0.99-2.86-1.56    C1428.31,8.24,1427.33,5.96,1427.33,5.96z"/>
		
			<radialGradient id="SVGID_26_" cx="672.6135" cy="1097.604" r="346.9286" gradientTransform="matrix(-1 0 0 -1 1935.0522 1067.0367)" gradientUnits="userSpaceOnUse">
			<stop offset="0.0593" style="stop-color:#000E57"/>
			<stop offset="0.8889" style="stop-color:#0279AF"/>
		</radialGradient>
		<path class="st25" d="M1376.09,205.73c0,0-0.99,2.28-1.56,2.86c-0.58,0.58-2.86,1.56-2.86,1.56s2.28,0.99,2.86,1.56    c0.58,0.58,1.56,2.86,1.56,2.86s0.99-2.28,1.56-2.86c0.58-0.58,2.86-1.56,2.86-1.56s-2.28-0.99-2.86-1.56    C1377.08,208.01,1376.09,205.73,1376.09,205.73z"/>
		
			<radialGradient id="SVGID_27_" cx="526.2781" cy="923.972" r="27.2257" gradientTransform="matrix(-1 0 0 -1 1935.0522 1067.0367)" gradientUnits="userSpaceOnUse">
			<stop offset="0.0593" style="stop-color:#000E57"/>
			<stop offset="0.8889" style="stop-color:#0279AF"/>
		</radialGradient>
		<path class="st26" d="M1402.38,140.11c0-0.82,0.66-1.48,1.48-1.48c0.82,0,1.48,0.66,1.48,1.48c0,0.82-0.66,1.48-1.48,1.48    C1403.04,141.59,1402.38,140.93,1402.38,140.11z M1390.57,167.18c1.63,0,2.95-1.32,2.95-2.95c0-1.63-1.32-2.95-2.95-2.95    c-1.63,0-2.95,1.32-2.95,2.95C1387.61,165.86,1388.94,167.18,1390.57,167.18z M1384.66,131.75c3.26,0,5.9-2.64,5.9-5.91    s-2.64-5.91-5.9-5.91c-3.26,0-5.91,2.64-5.91,5.91S1381.4,131.75,1384.66,131.75z M1435.84,124.86c1.63,0,2.95-1.32,2.95-2.95    s-1.32-2.95-2.95-2.95c-1.63,0-2.95,1.32-2.95,2.95S1434.21,124.86,1435.84,124.86z"/>
		
			<radialGradient id="SVGID_28_" cx="796.2366" cy="823.1887" r="27.9225" gradientTransform="matrix(-1 0 0 -1 1935.0522 1067.0367)" gradientUnits="userSpaceOnUse">
			<stop offset="0.0593" style="stop-color:#000E57"/>
			<stop offset="0.8889" style="stop-color:#0279AF"/>
		</radialGradient>
		<path class="st27" d="M1143.81,245.87c0.07,0.81-0.53,1.53-1.35,1.6c-0.81,0.07-1.53-0.53-1.6-1.35c-0.07-0.81,0.53-1.53,1.35-1.6    C1143.02,244.46,1143.74,245.06,1143.81,245.87z M1153.28,217.9c-1.62,0.14-2.83,1.57-2.69,3.19c0.14,1.62,1.57,2.83,3.19,2.69    c1.63-0.14,2.83-1.57,2.69-3.19C1156.33,218.97,1154.9,217.76,1153.28,217.9z M1162.17,252.7c-3.25,0.28-5.66,3.14-5.38,6.38    c0.28,3.25,3.14,5.66,6.38,5.38c3.25-0.28,5.66-3.14,5.38-6.38C1168.28,254.84,1165.42,252.43,1162.17,252.7z M1111.76,263.91    c-1.62,0.14-2.83,1.57-2.69,3.19c0.14,1.62,1.57,2.83,3.19,2.69c1.62-0.14,2.83-1.57,2.69-3.19    C1114.81,264.98,1113.38,263.77,1111.76,263.91z"/>
	</g>
	<radialGradient id="SVGID_29_" cx="200.7113" cy="409.0724" r="7.9536" gradientUnits="userSpaceOnUse">
		<stop offset="0.0593" style="stop-color:#FF7F9A"/>
		<stop offset="0.5259" style="stop-color:#FF3B9C"/>
		<stop offset="0.9926" style="stop-color:#D10059"/>
	</radialGradient>
	<path class="st28" d="M200.71,417.03c0,0-1.78-4.11-2.81-5.14c-1.04-1.04-5.14-2.81-5.14-2.81s4.11-1.78,5.14-2.81   c1.04-1.04,2.81-5.14,2.81-5.14s1.78,4.11,2.81,5.14c1.04,1.04,5.14,2.81,5.14,2.81s-4.11,1.78-5.14,2.81   C202.49,412.92,200.71,417.03,200.71,417.03z"/>
	<radialGradient id="SVGID_30_" cx="178.6077" cy="595.6259" r="7.9535" gradientUnits="userSpaceOnUse">
		<stop offset="0.0593" style="stop-color:#FF7F9A"/>
		<stop offset="0.5259" style="stop-color:#FF3B9C"/>
		<stop offset="0.9926" style="stop-color:#D10059"/>
	</radialGradient>
	<path class="st29" d="M178.61,603.58c0,0-1.78-4.11-2.81-5.14c-1.04-1.04-5.14-2.81-5.14-2.81s4.11-1.78,5.14-2.81   c1.04-1.04,2.81-5.14,2.81-5.14s1.78,4.11,2.81,5.14c1.04,1.04,5.14,2.81,5.14,2.81s-4.11,1.78-5.14,2.81   C180.38,599.47,178.61,603.58,178.61,603.58z"/>
	<radialGradient id="SVGID_31_" cx="217.1883" cy="115.2645" r="7.9535" gradientUnits="userSpaceOnUse">
		<stop offset="0.0593" style="stop-color:#FF7F9A"/>
		<stop offset="0.5259" style="stop-color:#FF3B9C"/>
		<stop offset="0.9926" style="stop-color:#D10059"/>
	</radialGradient>
	<path class="st30" d="M217.19,123.22c0,0-1.78-4.11-2.81-5.14c-1.04-1.04-5.14-2.81-5.14-2.81s4.11-1.78,5.14-2.81   c1.04-1.04,2.81-5.14,2.81-5.14s1.78,4.11,2.81,5.14c1.04,1.04,5.14,2.81,5.14,2.81s-4.11,1.78-5.14,2.81   C218.96,119.11,217.19,123.22,217.19,123.22z"/>
	<radialGradient id="SVGID_32_" cx="198.5894" cy="198.9625" r="13.2584" gradientUnits="userSpaceOnUse">
		<stop offset="0.0593" style="stop-color:#FF7F9A"/>
		<stop offset="0.5259" style="stop-color:#FF3B9C"/>
		<stop offset="0.9926" style="stop-color:#D10059"/>
	</radialGradient>
	<path class="st31" d="M198.59,212.22c0,0-2.96-6.84-4.69-8.57c-1.73-1.73-8.57-4.69-8.57-4.69s6.84-2.96,8.57-4.69   c1.73-1.73,4.69-8.57,4.69-8.57s2.96,6.84,4.69,8.57c1.73,1.73,8.57,4.69,8.57,4.69s-6.84,2.96-8.57,4.69   C201.55,205.38,198.59,212.22,198.59,212.22z"/>
	<radialGradient id="SVGID_33_" cx="188.8641" cy="41.5855" r="13.2583" gradientUnits="userSpaceOnUse">
		<stop offset="0.0593" style="stop-color:#FF7F9A"/>
		<stop offset="0.5259" style="stop-color:#FF3B9C"/>
		<stop offset="0.9926" style="stop-color:#D10059"/>
	</radialGradient>
	<path class="st32" d="M188.86,54.84c0,0-2.96-6.84-4.69-8.57c-1.73-1.73-8.57-4.69-8.57-4.69s6.84-2.96,8.57-4.69   c1.73-1.73,4.69-8.57,4.69-8.57s2.96,6.84,4.69,8.57c1.73,1.73,8.57,4.69,8.57,4.69s-6.84,2.96-8.57,4.69   C191.82,48,188.86,54.84,188.86,54.84z"/>
	<radialGradient id="SVGID_34_" cx="249.339" cy="537.2727" r="13.2584" gradientUnits="userSpaceOnUse">
		<stop offset="0.0593" style="stop-color:#FF7F9A"/>
		<stop offset="0.5259" style="stop-color:#FF3B9C"/>
		<stop offset="0.9926" style="stop-color:#D10059"/>
	</radialGradient>
	<path class="st33" d="M249.34,550.53c0,0-2.96-6.84-4.69-8.57c-1.73-1.73-8.57-4.69-8.57-4.69s6.84-2.96,8.57-4.69   c1.73-1.73,4.69-8.57,4.69-8.57s2.96,6.84,4.69,8.57c1.73,1.73,8.57,4.69,8.57,4.69s-6.84,2.96-8.57,4.69   C252.3,543.69,249.34,550.53,249.34,550.53z"/>
	
		<radialGradient id="SVGID_35_" cx="1583.9918" cy="1076.0728" r="346.927" gradientTransform="matrix(-1 0 0 -1 1935.0522 1067.0367)" gradientUnits="userSpaceOnUse">
		<stop offset="0.0593" style="stop-color:#000E57"/>
		<stop offset="0.8889" style="stop-color:#0279AF"/>
	</radialGradient>
	<path class="st34" d="M229.36,64.65c-2.45,0-4.44,1.99-4.44,4.44c0,2.45,1.99,4.44,4.44,4.44c2.45,0,4.44-1.99,4.44-4.44   C233.8,66.64,231.81,64.65,229.36,64.65z"/>
	
		<radialGradient id="SVGID_36_" cx="1583.9894" cy="1076.0726" r="346.9294" gradientTransform="matrix(-1 0 0 -1 1935.0522 1067.0367)" gradientUnits="userSpaceOnUse">
		<stop offset="0.0593" style="stop-color:#000E57"/>
		<stop offset="0.8889" style="stop-color:#0279AF"/>
	</radialGradient>
	<path class="st35" d="M301.52,307.76c0,0-0.99,2.28-1.56,2.86c-0.58,0.58-2.86,1.56-2.86,1.56s2.28,0.99,2.86,1.56   c0.58,0.58,1.56,2.86,1.56,2.86s0.99-2.28,1.56-2.86c0.58-0.58,2.86-1.56,2.86-1.56s-2.28-0.99-2.86-1.56   C302.5,310.04,301.52,307.76,301.52,307.76z"/>
	
		<radialGradient id="SVGID_37_" cx="1583.9894" cy="1076.0724" r="346.9313" gradientTransform="matrix(-1 0 0 -1 1935.0522 1067.0367)" gradientUnits="userSpaceOnUse">
		<stop offset="0.0593" style="stop-color:#000E57"/>
		<stop offset="0.8889" style="stop-color:#0279AF"/>
	</radialGradient>
	<path class="st36" d="M179.5,222.89c0,0-0.99,2.28-1.56,2.86c-0.58,0.58-2.86,1.56-2.86,1.56s2.28,0.99,2.86,1.56   c0.58,0.58,1.56,2.86,1.56,2.86s0.99-2.28,1.56-2.86c0.58-0.58,2.86-1.56,2.86-1.56s-2.28-0.99-2.86-1.56   C180.49,225.17,179.5,222.89,179.5,222.89z"/>
	
		<radialGradient id="SVGID_38_" cx="1583.9911" cy="1076.0735" r="346.9301" gradientTransform="matrix(-1 0 0 -1 1935.0522 1067.0367)" gradientUnits="userSpaceOnUse">
		<stop offset="0.0593" style="stop-color:#000E57"/>
		<stop offset="0.8889" style="stop-color:#0279AF"/>
	</radialGradient>
	<path class="st37" d="M240.3,162.55c0,0-0.99,2.28-1.56,2.86c-0.58,0.58-2.86,1.56-2.86,1.56s2.28,0.99,2.86,1.56   c0.58,0.58,1.56,2.86,1.56,2.86s0.99-2.28,1.56-2.86c0.58-0.58,2.86-1.56,2.86-1.56s-2.28-0.99-2.86-1.56   C241.29,164.83,240.3,162.55,240.3,162.55z"/>
	
		<radialGradient id="SVGID_39_" cx="1863.0243" cy="753.6782" r="346.9306" gradientTransform="matrix(-1 0 0 -1 1935.0522 1067.0367)" gradientUnits="userSpaceOnUse">
		<stop offset="0.0593" style="stop-color:#000E57"/>
		<stop offset="0.8889" style="stop-color:#0279AF"/>
	</radialGradient>
	<path class="st38" d="M236.91,349.89c0,0-0.99,2.28-1.56,2.86c-0.58,0.58-2.86,1.56-2.86,1.56s2.28,0.99,2.86,1.56   c0.58,0.58,1.56,2.86,1.56,2.86s0.99-2.28,1.56-2.86c0.58-0.58,2.86-1.56,2.86-1.56s-2.28-0.99-2.86-1.56   C237.9,352.17,236.91,349.89,236.91,349.89z"/>
	
		<radialGradient id="SVGID_40_" cx="1863.0259" cy="753.6758" r="346.9286" gradientTransform="matrix(-1 0 0 -1 1935.0522 1067.0367)" gradientUnits="userSpaceOnUse">
		<stop offset="0.0593" style="stop-color:#000E57"/>
		<stop offset="0.8889" style="stop-color:#0279AF"/>
	</radialGradient>
	<path class="st39" d="M185.68,549.65c0,0-0.99,2.28-1.56,2.86c-0.58,0.58-2.86,1.56-2.86,1.56s2.28,0.99,2.86,1.56   c0.58,0.58,1.56,2.86,1.56,2.86s0.99-2.28,1.56-2.86c0.58-0.58,2.86-1.56,2.86-1.56s-2.28-0.99-2.86-1.56   C186.67,551.93,185.68,549.65,185.68,549.65z"/>
	
		<radialGradient id="SVGID_41_" cx="1716.6906" cy="580.0438" r="27.2257" gradientTransform="matrix(-1 0 0 -1 1935.0522 1067.0367)" gradientUnits="userSpaceOnUse">
		<stop offset="0.0593" style="stop-color:#000E57"/>
		<stop offset="0.8889" style="stop-color:#0279AF"/>
	</radialGradient>
	<path class="st40" d="M211.96,484.04c0-0.82,0.66-1.48,1.48-1.48s1.48,0.66,1.48,1.48s-0.66,1.48-1.48,1.48   S211.96,484.86,211.96,484.04z M200.15,511.11c1.63,0,2.95-1.32,2.95-2.95s-1.32-2.95-2.95-2.95c-1.63,0-2.95,1.32-2.95,2.95   S198.52,511.11,200.15,511.11z M194.25,475.67c3.26,0,5.9-2.64,5.9-5.91c0-3.26-2.64-5.91-5.9-5.91c-3.26,0-5.91,2.64-5.91,5.91   C188.34,473.03,190.99,475.67,194.25,475.67z M245.43,468.79c1.63,0,2.95-1.32,2.95-2.95c0-1.63-1.32-2.95-2.95-2.95   c-1.63,0-2.95,1.32-2.95,2.95C242.47,467.46,243.8,468.79,245.43,468.79z"/>
	
		<radialGradient id="SVGID_42_" cx="1707.6144" cy="801.6562" r="27.9225" gradientTransform="matrix(-1 0 0 -1 1935.0522 1067.0367)" gradientUnits="userSpaceOnUse">
		<stop offset="0.0593" style="stop-color:#000E57"/>
		<stop offset="0.8889" style="stop-color:#0279AF"/>
	</radialGradient>
	<path class="st41" d="M232.43,267.4c0.07,0.81-0.53,1.53-1.35,1.6c-0.81,0.07-1.53-0.53-1.6-1.35c-0.07-0.81,0.53-1.53,1.35-1.6   C231.65,265.99,232.36,266.59,232.43,267.4z M241.9,239.43c-1.62,0.14-2.83,1.57-2.69,3.19c0.14,1.62,1.57,2.83,3.19,2.69   c1.62-0.14,2.83-1.57,2.69-3.19C244.95,240.5,243.53,239.3,241.9,239.43z M250.79,274.24c-3.25,0.28-5.66,3.14-5.38,6.38   c0.28,3.25,3.14,5.66,6.38,5.38s5.66-3.14,5.38-6.38C256.9,276.37,254.04,273.96,250.79,274.24z M200.38,285.44   c-1.62,0.14-2.83,1.57-2.69,3.19c0.14,1.62,1.57,2.83,3.19,2.69c1.62-0.14,2.83-1.57,2.69-3.19   C203.44,286.51,202.01,285.3,200.38,285.44z"/>
	<g>
		<radialGradient id="SVGID_43_" cx="507.2443" cy="216.3109" r="7.6059" gradientUnits="userSpaceOnUse">
			<stop offset="0.0593" style="stop-color:#FF7F9A"/>
			<stop offset="0.5259" style="stop-color:#FF3B9C"/>
			<stop offset="0.9926" style="stop-color:#D10059"/>
		</radialGradient>
		<path class="st42" d="M509.57,208.7c0,0,0.5,4.45,1.19,5.74s4.09,4.19,4.09,4.19s-4.45,0.5-5.74,1.19    c-1.29,0.69-4.19,4.09-4.19,4.09s-0.5-4.45-1.19-5.74s-4.09-4.19-4.09-4.19s4.45-0.5,5.74-1.19    C506.67,212.11,509.57,208.7,509.57,208.7z"/>
		<radialGradient id="SVGID_44_" cx="582.9297" cy="44.3735" r="7.6059" gradientUnits="userSpaceOnUse">
			<stop offset="0.0593" style="stop-color:#FF7F9A"/>
			<stop offset="0.5259" style="stop-color:#FF3B9C"/>
			<stop offset="0.9926" style="stop-color:#D10059"/>
		</radialGradient>
		<path class="st43" d="M585.26,36.77c0,0,0.5,4.45,1.19,5.74c0.69,1.29,4.09,4.19,4.09,4.19s-4.45,0.5-5.74,1.19    c-1.29,0.69-4.19,4.09-4.19,4.09s-0.5-4.45-1.19-5.74c-0.69-1.29-4.09-4.19-4.09-4.19s4.45-0.5,5.74-1.19    C582.36,40.17,585.26,36.77,585.26,36.77z"/>
		<radialGradient id="SVGID_45_" cx="766.6863" cy="265.7439" r="7.606" gradientUnits="userSpaceOnUse">
			<stop offset="0.0593" style="stop-color:#FF7F9A"/>
			<stop offset="0.5259" style="stop-color:#FF3B9C"/>
			<stop offset="0.9926" style="stop-color:#D10059"/>
		</radialGradient>
		<path class="st44" d="M769.01,258.14c0,0,0.5,4.45,1.19,5.74c0.69,1.29,4.09,4.19,4.09,4.19s-4.45,0.5-5.74,1.19    c-1.29,0.69-4.19,4.09-4.19,4.09s-0.5-4.45-1.19-5.74c-0.69-1.29-4.09-4.19-4.09-4.19s4.45-0.5,5.74-1.19    C766.11,261.54,769.01,258.14,769.01,258.14z"/>
		<radialGradient id="SVGID_46_" cx="808.9455" cy="191.1421" r="12.6789" gradientUnits="userSpaceOnUse">
			<stop offset="0.0593" style="stop-color:#FF7F9A"/>
			<stop offset="0.5259" style="stop-color:#FF3B9C"/>
			<stop offset="0.9926" style="stop-color:#D10059"/>
		</radialGradient>
		<path class="st45" d="M812.82,178.46c0,0,0.83,7.41,1.98,9.57c1.15,2.16,6.83,6.99,6.83,6.99s-7.41,0.83-9.57,1.98    c-2.16,1.15-6.99,6.83-6.99,6.83s-0.83-7.41-1.98-9.57c-1.15-2.16-6.83-6.99-6.83-6.99s7.41-0.83,9.57-1.98    C807.99,184.14,812.82,178.46,812.82,178.46z"/>
		<radialGradient id="SVGID_47_" cx="772.229" cy="344.485" r="12.6789" gradientUnits="userSpaceOnUse">
			<stop offset="0.0593" style="stop-color:#FF7F9A"/>
			<stop offset="0.5259" style="stop-color:#FF3B9C"/>
			<stop offset="0.9926" style="stop-color:#D10059"/>
		</radialGradient>
		<path class="st46" d="M776.11,331.81c0,0,0.83,7.41,1.98,9.57c1.15,2.16,6.83,6.99,6.83,6.99s-7.41,0.83-9.57,1.98    c-2.16,1.15-6.99,6.83-6.99,6.83s-0.83-7.41-1.98-9.57c-1.15-2.16-6.83-6.99-6.83-6.99s7.41-0.83,9.57-1.98    C771.27,337.48,776.11,331.81,776.11,331.81z"/>
		<radialGradient id="SVGID_48_" cx="498.2274" cy="79.4949" r="12.6789" gradientUnits="userSpaceOnUse">
			<stop offset="0.0593" style="stop-color:#FF7F9A"/>
			<stop offset="0.5259" style="stop-color:#FF3B9C"/>
			<stop offset="0.9926" style="stop-color:#D10059"/>
		</radialGradient>
		<path class="st47" d="M502.1,66.82c0,0,0.83,7.41,1.98,9.57c1.15,2.16,6.83,6.99,6.83,6.99s-7.41,0.83-9.57,1.98    c-2.16,1.15-6.99,6.83-6.99,6.83s-0.83-7.41-1.98-9.57c-1.15-2.16-6.83-6.99-6.83-6.99s7.41-0.83,9.57-1.98    C497.27,72.5,502.1,66.82,502.1,66.82z"/>
		
			<radialGradient id="SVGID_49_" cx="845.8089" cy="749.841" r="346.9315" gradientTransform="matrix(0.9563 0.2924 -0.2924 0.9563 12.7239 -618.9171)" gradientUnits="userSpaceOnUse">
			<stop offset="0.0593" style="stop-color:#000E57"/>
			<stop offset="0.8889" style="stop-color:#0279AF"/>
		</radialGradient>
		<path class="st48" d="M740.24,310.59c2.34,0.72,4.82-0.6,5.54-2.95s-0.6-4.82-2.95-5.54c-2.34-0.72-4.82,0.6-5.54,2.95    C736.58,307.39,737.9,309.87,740.24,310.59z"/>
		
			<radialGradient id="SVGID_50_" cx="845.8094" cy="749.837" r="346.9268" gradientTransform="matrix(0.9563 0.2924 -0.2924 0.9563 12.7239 -618.9171)" gradientUnits="userSpaceOnUse">
			<stop offset="0.0593" style="stop-color:#000E57"/>
			<stop offset="0.8889" style="stop-color:#0279AF"/>
		</radialGradient>
		<path class="st49" d="M742.33,57c0,0,1.61-1.89,2.33-2.27c0.72-0.38,3.19-0.66,3.19-0.66s-1.89-1.61-2.27-2.33    c-0.38-0.72-0.66-3.19-0.66-3.19s-1.61,1.89-2.33,2.27c-0.72,0.38-3.19,0.66-3.19,0.66s1.89,1.61,2.27,2.33    C742.05,54.53,742.33,57,742.33,57z"/>
		
			<radialGradient id="SVGID_51_" cx="845.8105" cy="749.8414" r="346.9314" gradientTransform="matrix(0.9563 0.2924 -0.2924 0.9563 12.7239 -618.9171)" gradientUnits="userSpaceOnUse">
			<stop offset="0.0593" style="stop-color:#000E57"/>
			<stop offset="0.8889" style="stop-color:#0279AF"/>
		</radialGradient>
		<path class="st50" d="M834.19,173.85c0,0,1.61-1.89,2.33-2.27c0.72-0.38,3.19-0.66,3.19-0.66s-1.89-1.61-2.27-2.33    c-0.38-0.72-0.66-3.19-0.66-3.19s-1.61,1.89-2.33,2.27c-0.72,0.38-3.19,0.66-3.19,0.66s1.89,1.61,2.27,2.33    C833.91,171.38,834.19,173.85,834.19,173.85z"/>
		
			<radialGradient id="SVGID_52_" cx="845.8073" cy="749.8414" r="346.9342" gradientTransform="matrix(0.9563 0.2924 -0.2924 0.9563 12.7239 -618.9171)" gradientUnits="userSpaceOnUse">
			<stop offset="0.0593" style="stop-color:#000E57"/>
			<stop offset="0.8889" style="stop-color:#0279AF"/>
		</radialGradient>
		<path class="st51" d="M758.41,213.76c0,0,1.61-1.89,2.33-2.27c0.72-0.38,3.19-0.66,3.19-0.66s-1.89-1.61-2.27-2.33    c-0.38-0.72-0.66-3.19-0.66-3.19s-1.61,1.89-2.33,2.27c-0.72,0.38-3.19,0.66-3.19,0.66s1.89,1.61,2.27,2.33    C758.13,211.29,758.41,213.76,758.41,213.76z"/>
		
			<radialGradient id="SVGID_53_" cx="845.8062" cy="749.8401" r="346.926" gradientTransform="matrix(0.9563 0.2924 -0.2924 0.9563 12.7239 -618.9171)" gradientUnits="userSpaceOnUse">
			<stop offset="0.0593" style="stop-color:#000E57"/>
			<stop offset="0.8889" style="stop-color:#0279AF"/>
		</radialGradient>
		<path class="st52" d="M455.32,262.33c0,0,1.61-1.89,2.33-2.27c0.72-0.38,3.19-0.66,3.19-0.66s-1.89-1.61-2.27-2.33    c-0.38-0.72-0.66-3.19-0.66-3.19s-1.61,1.89-2.33,2.27c-0.72,0.38-3.19,0.66-3.19,0.66s1.89,1.61,2.27,2.33    C455.04,259.86,455.32,262.33,455.32,262.33z"/>
		
			<radialGradient id="SVGID_54_" cx="845.8082" cy="749.8406" r="346.9309" gradientTransform="matrix(0.9563 0.2924 -0.2924 0.9563 12.7239 -618.9171)" gradientUnits="userSpaceOnUse">
			<stop offset="0.0593" style="stop-color:#000E57"/>
			<stop offset="0.8889" style="stop-color:#0279AF"/>
		</radialGradient>
		<path class="st53" d="M562.72,86.27c0,0,1.61-1.89,2.33-2.27c0.72-0.38,3.19-0.66,3.19-0.66s-1.89-1.61-2.27-2.33    c-0.38-0.72-0.66-3.19-0.66-3.19s-1.61,1.89-2.33,2.27c-0.72,0.38-3.19,0.66-3.19,0.66s1.89,1.61,2.27,2.33    C562.45,83.8,562.72,86.27,562.72,86.27z"/>
		
			<radialGradient id="SVGID_55_" cx="1426.1385" cy="924.6204" r="27.4501" gradientTransform="matrix(-1 0 0 -1 1935.0522 1067.0367)" gradientUnits="userSpaceOnUse">
			<stop offset="0.0593" style="stop-color:#000E57"/>
			<stop offset="0.8889" style="stop-color:#0279AF"/>
		</radialGradient>
		<path class="st54" d="M518.4,141.33c-0.24,0.78-1.06,1.22-1.84,0.98c-0.78-0.24-1.22-1.06-0.98-1.84    c0.24-0.78,1.06-1.22,1.84-0.98C518.2,139.72,518.64,140.55,518.4,141.33z M537.61,118.9c-1.56-0.48-3.21,0.4-3.69,1.96    c-0.48,1.56,0.4,3.21,1.96,3.69c1.56,0.48,3.21-0.4,3.69-1.96C540.05,121.03,539.17,119.38,537.61,118.9z M532.9,154.51    c-3.12-0.95-6.42,0.8-7.37,3.92c-0.95,3.12,0.8,6.42,3.92,7.37c3.12,0.95,6.42-0.8,7.37-3.92    C537.77,158.76,536.02,155.46,532.9,154.51z M481.94,146.13c-1.56-0.48-3.21,0.4-3.69,1.96c-0.48,1.56,0.4,3.21,1.96,3.69    c1.56,0.48,3.21-0.4,3.69-1.96C484.38,148.26,483.5,146.61,481.94,146.13z"/>
		<radialGradient id="SVGID_56_" cx="874.3918" cy="58.3102" r="7.2278" gradientUnits="userSpaceOnUse">
			<stop offset="0.0593" style="stop-color:#FF7F9A"/>
			<stop offset="0.5259" style="stop-color:#FF3B9C"/>
			<stop offset="0.9926" style="stop-color:#D10059"/>
		</radialGradient>
		<path class="st55" d="M881.62,61.63c0,0-4.47-0.1-5.85,0.41c-1.37,0.51-4.7,3.5-4.7,3.5s0.1-4.47-0.41-5.85    c-0.51-1.37-3.5-4.7-3.5-4.7s4.47,0.1,5.85-0.41c1.37-0.51,4.7-3.5,4.7-3.5s-0.1,4.47,0.41,5.85    C878.63,58.3,881.62,61.63,881.62,61.63z"/>
		<radialGradient id="SVGID_57_" cx="1011.1877" cy="67.625" r="12.0485" gradientUnits="userSpaceOnUse">
			<stop offset="0.0593" style="stop-color:#FF7F9A"/>
			<stop offset="0.5259" style="stop-color:#FF3B9C"/>
			<stop offset="0.9926" style="stop-color:#D10059"/>
		</radialGradient>
		<path class="st56" d="M1023.24,73.16c0,0-7.45-0.17-9.74,0.68c-2.29,0.85-7.84,5.83-7.84,5.83s0.17-7.45-0.68-9.75    c-0.85-2.29-5.83-7.84-5.83-7.84s7.46,0.17,9.75-0.68c2.29-0.85,7.84-5.83,7.84-5.83s-0.17,7.46,0.68,9.75    C1018.25,67.61,1023.24,73.16,1023.24,73.16z"/>
		
			<radialGradient id="SVGID_58_" cx="1115.6627" cy="935.1475" r="346.9406" gradientTransform="matrix(-0.4174 0.9087 -0.9087 -0.4174 2049.1497 -488.1848)" gradientUnits="userSpaceOnUse">
			<stop offset="0.0593" style="stop-color:#000E57"/>
			<stop offset="0.8889" style="stop-color:#0279AF"/>
		</radialGradient>
		<path class="st57" d="M995.87,130.64c0,0,1.66,1.85,1.94,2.61c0.28,0.76,0.23,3.25,0.23,3.25s1.85-1.66,2.61-1.94    c0.76-0.28,3.25-0.23,3.25-0.23s-1.66-1.85-1.94-2.61c-0.28-0.76-0.23-3.25-0.23-3.25s-1.85,1.66-2.61,1.94    C998.36,130.7,995.87,130.64,995.87,130.64z"/>
		
			<radialGradient id="SVGID_59_" cx="1222.656" cy="668.1728" r="27.4491" gradientTransform="matrix(0.1334 -0.9911 0.9911 0.1334 122.0748 1192.4624)" gradientUnits="userSpaceOnUse">
			<stop offset="0.0593" style="stop-color:#000E57"/>
			<stop offset="0.8889" style="stop-color:#0279AF"/>
		</radialGradient>
		<path class="st58" d="M947.22,79.37c-0.74-0.34-1.07-1.22-0.73-1.96c0.34-0.74,1.22-1.07,1.96-0.73c0.74,0.34,1.07,1.22,0.73,1.96    C948.83,79.39,947.96,79.71,947.22,79.37z M966.88,101.4c0.68-1.48,0.03-3.23-1.45-3.92c-1.48-0.68-3.24-0.03-3.92,1.45    c-0.68,1.48-0.03,3.23,1.45,3.92C964.45,103.53,966.2,102.88,966.88,101.4z M932.22,91.98c1.36-2.96,0.06-6.47-2.9-7.83    c-2.96-1.36-6.47-0.06-7.83,2.9c-1.36,2.96-0.06,6.47,2.9,7.83C927.35,96.24,930.86,94.94,932.22,91.98z M947.32,42.6    c0.68-1.48,0.03-3.23-1.45-3.92c-1.48-0.68-3.23-0.03-3.92,1.45c-0.68,1.48-0.03,3.23,1.45,3.92    C944.88,44.73,946.64,44.08,947.32,42.6z"/>
		
			<radialGradient id="SVGID_60_" cx="1511.1365" cy="1114.0238" r="437.7022" gradientTransform="matrix(-0.9407 -0.3391 0.3391 -0.9407 1625.6136 1397.9728)" gradientUnits="userSpaceOnUse">
			<stop offset="0.0593" style="stop-color:#000E57"/>
			<stop offset="0.8889" style="stop-color:#0279AF"/>
		</radialGradient>
		<path class="st59" d="M615.65,166.65c0,0-2.15,2.28-3.08,2.72c-0.93,0.44-4.06,0.63-4.06,0.63s2.28,2.15,2.72,3.07    c0.44,0.93,0.63,4.06,0.63,4.06s2.15-2.28,3.07-2.72c0.93-0.44,4.06-0.63,4.06-0.63s-2.28-2.15-2.72-3.07    C615.84,169.78,615.65,166.65,615.65,166.65z"/>
		
			<radialGradient id="SVGID_61_" cx="920.8148" cy="435.5873" r="34.6304" gradientTransform="matrix(0.9988 0.0492 -0.0492 0.9988 -211.3433 -381.1285)" gradientUnits="userSpaceOnUse">
			<stop offset="0.0593" style="stop-color:#000E57"/>
			<stop offset="0.8889" style="stop-color:#0279AF"/>
		</radialGradient>
		<path class="st60" d="M674.91,100.02c0.35-0.97,1.42-1.47,2.38-1.12c0.97,0.35,1.47,1.42,1.12,2.38    c-0.35,0.97-1.42,1.47-2.38,1.12C675.06,102.06,674.56,100.99,674.91,100.02z M649.31,127.09c1.94,0.7,4.07-0.31,4.77-2.24    c0.7-1.94-0.31-4.07-2.24-4.77c-1.94-0.7-4.07,0.31-4.77,2.24C646.38,124.26,647.38,126.39,649.31,127.09z M657.46,82.51    c3.87,1.4,8.14-0.61,9.53-4.48c1.4-3.87-0.61-8.14-4.48-9.53c-3.87-1.4-8.14,0.61-9.53,4.48    C651.59,76.85,653.59,81.12,657.46,82.51z M721.15,96.23c1.94,0.7,4.07-0.31,4.77-2.24c0.7-1.94-0.31-4.07-2.24-4.77    c-1.94-0.7-4.07,0.31-4.77,2.24C718.21,93.4,719.22,95.54,721.15,96.23z"/>
		
			<radialGradient id="SVGID_62_" cx="1060.0154" cy="953.0753" r="437.7032" gradientTransform="matrix(0.9192 -0.3937 0.3937 0.9192 295.5693 319.9617)" gradientUnits="userSpaceOnUse">
			<stop offset="0.0593" style="stop-color:#000E57"/>
			<stop offset="0.8889" style="stop-color:#0279AF"/>
		</radialGradient>
		<path class="st61" d="M1395.99,561.12c0,0,0.01-3.13,0.39-4.09c0.38-0.95,2.54-3.23,2.54-3.23s-3.13-0.01-4.09-0.39    c-0.95-0.38-3.23-2.54-3.23-2.54s-0.01,3.13-0.39,4.09c-0.38,0.95-2.54,3.23-2.54,3.23s3.13,0.01,4.09,0.39    C1393.71,558.96,1395.99,561.12,1395.99,561.12z"/>
		
			<radialGradient id="SVGID_63_" cx="1305.4519" cy="721.5083" r="34.6316" gradientTransform="matrix(-0.7639 0.6453 -0.6453 -0.7639 2852.6636 367.7909)" gradientUnits="userSpaceOnUse">
			<stop offset="0.0593" style="stop-color:#000E57"/>
			<stop offset="0.8889" style="stop-color:#0279AF"/>
		</radialGradient>
		<path class="st62" d="M1398.1,650.27c0.4,0.95-0.03,2.04-0.98,2.44c-0.95,0.41-2.04-0.03-2.45-0.98c-0.4-0.95,0.03-2.04,0.98-2.45    C1396.6,648.88,1397.69,649.32,1398.1,650.27z M1398.35,613.01c-1.89,0.81-2.77,3-1.96,4.89c0.81,1.89,3,2.77,4.89,1.96    c1.89-0.81,2.77-3,1.96-4.89C1402.43,613.08,1400.24,612.2,1398.35,613.01z M1422.8,651.17c-3.78,1.62-5.53,6-3.91,9.78    c1.62,3.78,6,5.53,9.78,3.92c3.78-1.62,5.53-6,3.92-9.78C1430.96,651.3,1426.58,649.55,1422.8,651.17z M1366.87,684.58    c-1.89,0.81-2.77,3-1.96,4.89c0.81,1.89,3,2.77,4.89,1.96s2.77-3,1.96-4.89C1370.95,684.64,1368.76,683.77,1366.87,684.58z"/>
		
			<radialGradient id="SVGID_64_" cx="656.1296" cy="716.3873" r="437.6696" gradientTransform="matrix(-0.8133 0.5819 -0.5819 -0.8133 1907.7729 237.0585)" gradientUnits="userSpaceOnUse">
			<stop offset="0.0593" style="stop-color:#000E57"/>
			<stop offset="0.8889" style="stop-color:#0279AF"/>
		</radialGradient>
		<path class="st63" d="M1247.35,195.23c0,0,0.66,3.06,0.49,4.08c-0.17,1.01-1.78,3.7-1.78,3.7s3.06-0.66,4.08-0.49    c1.01,0.17,3.7,1.78,3.7,1.78s-0.66-3.06-0.49-4.08c0.17-1.01,1.78-3.7,1.78-3.7s-3.06,0.66-4.08,0.49    C1250.04,196.85,1247.35,195.23,1247.35,195.23z"/>
		
			<radialGradient id="SVGID_65_" cx="1622.1991" cy="1065.2039" r="34.6317" gradientTransform="matrix(0.6076 -0.7942 0.7942 0.6076 -599.2946 739.4086)" gradientUnits="userSpaceOnUse">
			<stop offset="0.0593" style="stop-color:#000E57"/>
			<stop offset="0.8889" style="stop-color:#0279AF"/>
		</radialGradient>
		<path class="st64" d="M1226.15,108.62c-0.6-0.84-0.41-2,0.43-2.6c0.84-0.6,2-0.41,2.6,0.43c0.6,0.84,0.41,2-0.43,2.6    C1227.92,109.65,1226.75,109.45,1226.15,108.62z M1233.9,145.06c1.67-1.2,2.06-3.52,0.86-5.2c-1.2-1.67-3.52-2.06-5.2-0.86    c-1.67,1.2-2.06,3.52-0.86,5.2C1229.9,145.87,1232.23,146.25,1233.9,145.06z M1201.84,113.04c3.35-2.39,4.12-7.05,1.72-10.39    c-2.39-3.35-7.05-4.12-10.39-1.72c-3.35,2.39-4.12,7.05-1.72,10.39C1193.84,114.66,1198.49,115.43,1201.84,113.04z M1249.29,68.4    c1.67-1.2,2.06-3.52,0.86-5.2c-1.2-1.67-3.52-2.06-5.2-0.86c-1.67,1.2-2.06,3.52-0.86,5.2    C1245.29,69.21,1247.62,69.6,1249.29,68.4z"/>
		
			<radialGradient id="SVGID_66_" cx="1128.8204" cy="951.0087" r="27.0067" gradientTransform="matrix(-1 0 0 -1 1935.0522 1067.0367)" gradientUnits="userSpaceOnUse">
			<stop offset="0.0593" style="stop-color:#000E57"/>
			<stop offset="0.8889" style="stop-color:#0279AF"/>
		</radialGradient>
		<path class="st65" d="M796.6,115.8c0.17-0.8,0.96-1.3,1.75-1.13c0.8,0.17,1.3,0.96,1.13,1.75c-0.17,0.8-0.96,1.3-1.75,1.13    C796.93,117.38,796.43,116.59,796.6,115.8z M779.36,139.77c1.59,0.34,3.16-0.67,3.51-2.27c0.34-1.59-0.67-3.16-2.27-3.51    c-1.59-0.34-3.16,0.67-3.51,2.27C776.75,137.86,777.77,139.43,779.36,139.77z M781.04,103.89c3.19,0.69,6.33-1.34,7.01-4.53    c0.69-3.19-1.34-6.33-4.53-7.01c-3.19-0.69-6.33,1.34-7.01,4.53C775.82,100.07,777.85,103.21,781.04,103.89z M832.52,107.92    c1.59,0.34,3.16-0.67,3.51-2.27c0.34-1.59-0.67-3.16-2.27-3.51c-1.59-0.34-3.16,0.67-3.51,2.27    C829.91,106,830.92,107.57,832.52,107.92z"/>
	</g>
	<g>
		
			<radialGradient id="SVGID_67_" cx="846.7136" cy="2049.1448" r="7.6059" gradientTransform="matrix(0.4971 0.8677 -0.8677 0.4971 1576.4364 -807.4749)" gradientUnits="userSpaceOnUse">
			<stop offset="0.0593" style="stop-color:#FF7F9A"/>
			<stop offset="0.5259" style="stop-color:#FF3B9C"/>
			<stop offset="0.9926" style="stop-color:#D10059"/>
		</radialGradient>
		<path class="st66" d="M227.05,944.09c0,0-3.61,2.64-4.39,3.88c-0.78,1.24-1.6,5.64-1.6,5.64s-2.64-3.61-3.88-4.39    c-1.24-0.78-5.64-1.6-5.64-1.6s3.61-2.64,4.39-3.88c0.78-1.24,1.6-5.64,1.6-5.64s2.64,3.61,3.88,4.39    C222.65,943.26,227.05,944.09,227.05,944.09z"/>
		
			<radialGradient id="SVGID_68_" cx="922.3951" cy="1877.2067" r="7.6059" gradientTransform="matrix(0.4971 0.8677 -0.8677 0.4971 1576.4364 -807.4749)" gradientUnits="userSpaceOnUse">
			<stop offset="0.0593" style="stop-color:#FF7F9A"/>
			<stop offset="0.5259" style="stop-color:#FF3B9C"/>
			<stop offset="0.9926" style="stop-color:#D10059"/>
		</radialGradient>
		<path class="st67" d="M413.86,924.28c0,0-3.61,2.64-4.39,3.88c-0.78,1.24-1.6,5.64-1.6,5.64s-2.64-3.61-3.88-4.39    c-1.24-0.78-5.64-1.6-5.64-1.6s3.61-2.64,4.39-3.88c0.78-1.24,1.6-5.64,1.6-5.64s2.64,3.61,3.88,4.39    C409.47,923.46,413.86,924.28,413.86,924.28z"/>
		
			<radialGradient id="SVGID_69_" cx="837.694" cy="1912.3296" r="12.6789" gradientTransform="matrix(0.4971 0.8677 -0.8677 0.4971 1576.4364 -807.4749)" gradientUnits="userSpaceOnUse">
			<stop offset="0.0593" style="stop-color:#FF7F9A"/>
			<stop offset="0.5259" style="stop-color:#FF3B9C"/>
			<stop offset="0.9926" style="stop-color:#D10059"/>
		</radialGradient>
		<path class="st68" d="M346.45,867.07c0,0-6.02,4.4-7.32,6.47c-1.3,2.07-2.67,9.4-2.67,9.4s-4.4-6.02-6.47-7.32    c-2.07-1.3-9.4-2.67-9.4-2.67s6.02-4.4,7.32-6.47c1.3-2.07,2.67-9.4,2.67-9.4s4.4,6.02,6.47,7.32    C339.12,865.7,346.45,867.07,346.45,867.07z"/>
		
			<radialGradient id="SVGID_70_" cx="1706.201" cy="2403.9631" r="346.9307" gradientTransform="matrix(0.2217 0.9751 -0.9751 0.2217 2120.334 -1104.118)" gradientUnits="userSpaceOnUse">
			<stop offset="0.0593" style="stop-color:#000E57"/>
			<stop offset="0.8889" style="stop-color:#0279AF"/>
		</radialGradient>
		<path class="st69" d="M474.39,1070.63c0,0,2.44,0.46,3.13,0.89c0.69,0.43,2.16,2.44,2.16,2.44s0.46-2.44,0.89-3.13    c0.43-0.69,2.44-2.16,2.44-2.16s-2.44-0.46-3.13-0.89c-0.69-0.43-2.16-2.44-2.16-2.44s-0.46,2.44-0.89,3.13    C476.39,1069.17,474.39,1070.63,474.39,1070.63z"/>
		
			<radialGradient id="SVGID_71_" cx="1706.1893" cy="2403.9631" r="346.9313" gradientTransform="matrix(0.2217 0.9751 -0.9751 0.2217 2120.334 -1104.118)" gradientUnits="userSpaceOnUse">
			<stop offset="0.0593" style="stop-color:#000E57"/>
			<stop offset="0.8889" style="stop-color:#0279AF"/>
		</radialGradient>
		<path class="st70" d="M153.56,923.67c0,0,2.44,0.46,3.13,0.89c0.69,0.43,2.16,2.44,2.16,2.44s0.46-2.44,0.89-3.13    c0.43-0.69,2.44-2.16,2.44-2.16s-2.44-0.46-3.13-0.89c-0.69-0.43-2.16-2.44-2.16-2.44s-0.46,2.44-0.89,3.13    C155.56,922.2,153.56,923.67,153.56,923.67z"/>
		
			<radialGradient id="SVGID_72_" cx="1706.197" cy="2403.9648" r="346.9377" gradientTransform="matrix(0.2217 0.9751 -0.9751 0.2217 2120.334 -1104.118)" gradientUnits="userSpaceOnUse">
			<stop offset="0.0593" style="stop-color:#000E57"/>
			<stop offset="0.8889" style="stop-color:#0279AF"/>
		</radialGradient>
		<path class="st71" d="M359.71,929.34c0,0,2.44,0.46,3.13,0.89c0.69,0.43,2.16,2.44,2.16,2.44s0.46-2.44,0.89-3.13    c0.43-0.69,2.44-2.16,2.44-2.16s-2.44-0.46-3.13-0.89c-0.69-0.43-2.16-2.44-2.16-2.44s-0.46,2.44-0.89,3.13    C361.72,927.87,359.71,929.34,359.71,929.34z"/>
		
			<radialGradient id="SVGID_73_" cx="1086.9058" cy="-908.6403" r="27.4498" gradientTransform="matrix(-0.4971 -0.8677 0.8677 -0.4971 1612.9705 1401.9854)" gradientUnits="userSpaceOnUse">
			<stop offset="0.0593" style="stop-color:#000E57"/>
			<stop offset="0.8889" style="stop-color:#0279AF"/>
		</radialGradient>
		<path class="st72" d="M289.9,918.26c-0.79,0.18-1.59-0.32-1.77-1.11c-0.18-0.8,0.32-1.59,1.11-1.77c0.79-0.18,1.59,0.32,1.77,1.11    C291.2,917.28,290.7,918.08,289.9,918.26z M318.91,923.77c-0.36-1.59-1.94-2.59-3.53-2.22c-1.59,0.36-2.59,1.94-2.22,3.53    c0.36,1.59,1.94,2.59,3.53,2.22C318.28,926.94,319.27,925.36,318.91,923.77z M285.67,937.39c-0.72-3.18-3.89-5.17-7.07-4.45    c-3.18,0.72-5.17,3.89-4.45,7.07c0.72,3.18,3.89,5.17,7.07,4.45C284.4,943.73,286.4,940.57,285.67,937.39z M267.61,889.01    c-0.36-1.59-1.94-2.59-3.53-2.22c-1.59,0.36-2.59,1.94-2.22,3.53c0.36,1.59,1.94,2.59,3.53,2.22    C266.98,892.18,267.97,890.6,267.61,889.01z"/>
		
			<radialGradient id="SVGID_74_" cx="569.66" cy="-496.2553" r="437.6633" gradientTransform="matrix(-0.1734 -0.9849 0.9849 -0.1734 1172.5458 1297.3263)" gradientUnits="userSpaceOnUse">
			<stop offset="0.0593" style="stop-color:#000E57"/>
			<stop offset="0.8889" style="stop-color:#0279AF"/>
		</radialGradient>
		<path class="st73" d="M316.27,1015.22c0,0-3.05-0.73-3.89-1.32c-0.84-0.59-2.56-3.21-2.56-3.21s-0.73,3.05-1.32,3.89    c-0.59,0.84-3.21,2.57-3.21,2.57s3.05,0.73,3.89,1.32c0.84,0.59,2.57,3.21,2.57,3.21s0.73-3.05,1.32-3.89    C313.66,1016.94,316.27,1015.22,316.27,1015.22z"/>
		
			<radialGradient id="SVGID_75_" cx="1350.2664" cy="2249.6409" r="34.6307" gradientTransform="matrix(0.4538 0.8911 -0.8911 0.4538 1802.106 -1180.5427)" gradientUnits="userSpaceOnUse">
			<stop offset="0.0593" style="stop-color:#000E57"/>
			<stop offset="0.8889" style="stop-color:#0279AF"/>
		</radialGradient>
		<path class="st74" d="M403.55,1033.52c1.01-0.18,1.98,0.5,2.16,1.51s-0.5,1.98-1.51,2.16c-1.01,0.18-1.98-0.5-2.16-1.51    C401.86,1034.67,402.53,1033.7,403.55,1033.52z M367.34,1024.77c0.36,2.03,2.29,3.38,4.31,3.02c2.03-0.36,3.38-2.29,3.02-4.31    c-0.36-2.03-2.29-3.38-4.31-3.02C368.33,1020.81,366.98,1022.74,367.34,1024.77z M410.06,1009.68c0.71,4.05,4.58,6.76,8.63,6.04    c4.05-0.71,6.76-4.58,6.05-8.63c-0.71-4.05-4.58-6.76-8.63-6.05C412.06,1001.76,409.35,1005.63,410.06,1009.68z M429.82,1071.76    c0.36,2.03,2.29,3.38,4.31,3.02c2.03-0.36,3.38-2.29,3.02-4.31c-0.36-2.03-2.29-3.38-4.31-3.02    C430.82,1067.8,429.46,1069.73,429.82,1071.76z"/>
	</g>
	<radialGradient id="SVGID_76_" cx="504.0689" cy="778.1656" r="7.606" gradientUnits="userSpaceOnUse">
		<stop offset="0.0593" style="stop-color:#FF7F9A"/>
		<stop offset="0.5259" style="stop-color:#FF3B9C"/>
		<stop offset="0.9926" style="stop-color:#D10059"/>
	</radialGradient>
	<path class="st75" d="M506.39,770.56c0,0,0.5,4.45,1.19,5.74c0.69,1.29,4.09,4.19,4.09,4.19s-4.45,0.5-5.74,1.19   c-1.29,0.69-4.19,4.09-4.19,4.09s-0.5-4.45-1.19-5.74c-0.69-1.29-4.09-4.19-4.09-4.19s4.45-0.5,5.74-1.19   C503.5,773.97,506.39,770.56,506.39,770.56z"/>
	<radialGradient id="SVGID_77_" cx="579.7545" cy="606.2283" r="7.606" gradientUnits="userSpaceOnUse">
		<stop offset="0.0593" style="stop-color:#FF7F9A"/>
		<stop offset="0.5259" style="stop-color:#FF3B9C"/>
		<stop offset="0.9926" style="stop-color:#D10059"/>
	</radialGradient>
	<path class="st76" d="M582.08,598.62c0,0,0.5,4.45,1.19,5.74c0.69,1.29,4.09,4.19,4.09,4.19s-4.45,0.5-5.74,1.19   c-1.29,0.69-4.19,4.09-4.19,4.09s-0.5-4.45-1.19-5.74c-0.69-1.29-4.09-4.19-4.09-4.19s4.45-0.5,5.74-1.19   C579.18,602.03,582.08,598.62,582.08,598.62z"/>
	<radialGradient id="SVGID_78_" cx="1256.6989" cy="902.3793" r="7.606" gradientUnits="userSpaceOnUse">
		<stop offset="0.0593" style="stop-color:#FF7F9A"/>
		<stop offset="0.5259" style="stop-color:#FF3B9C"/>
		<stop offset="0.9926" style="stop-color:#D10059"/>
	</radialGradient>
	<path class="st77" d="M1259.02,894.77c0,0,0.5,4.45,1.19,5.74c0.69,1.29,4.09,4.19,4.09,4.19s-4.45,0.5-5.74,1.19   c-1.29,0.69-4.19,4.09-4.19,4.09s-0.5-4.45-1.19-5.74c-0.69-1.29-4.09-4.19-4.09-4.19s4.45-0.5,5.74-1.19   C1256.13,898.18,1259.02,894.77,1259.02,894.77z"/>
	<radialGradient id="SVGID_79_" cx="1298.958" cy="827.7775" r="12.679" gradientUnits="userSpaceOnUse">
		<stop offset="0.0593" style="stop-color:#FF7F9A"/>
		<stop offset="0.5259" style="stop-color:#FF3B9C"/>
		<stop offset="0.9926" style="stop-color:#D10059"/>
	</radialGradient>
	<path class="st78" d="M1302.83,815.1c0,0,0.83,7.41,1.98,9.57c1.15,2.16,6.83,6.99,6.83,6.99s-7.41,0.83-9.57,1.98   c-2.16,1.15-6.99,6.83-6.99,6.83s-0.83-7.41-1.98-9.57c-1.15-2.16-6.83-6.99-6.83-6.99s7.41-0.83,9.57-1.98   C1298,820.78,1302.83,815.1,1302.83,815.1z"/>
	<radialGradient id="SVGID_80_" cx="769.0538" cy="906.3397" r="12.6789" gradientUnits="userSpaceOnUse">
		<stop offset="0.0593" style="stop-color:#FF7F9A"/>
		<stop offset="0.5259" style="stop-color:#FF3B9C"/>
		<stop offset="0.9926" style="stop-color:#D10059"/>
	</radialGradient>
	<path class="st79" d="M772.93,893.66c0,0,0.83,7.41,1.98,9.57c1.15,2.16,6.83,6.99,6.83,6.99s-7.41,0.83-9.57,1.98   c-2.16,1.15-6.99,6.83-6.99,6.83s-0.83-7.41-1.98-9.57c-1.15-2.16-6.83-6.99-6.83-6.99s7.41-0.83,9.57-1.98   C768.1,899.34,772.93,893.66,772.93,893.66z"/>
	<radialGradient id="SVGID_81_" cx="495.0521" cy="641.3495" r="12.6789" gradientUnits="userSpaceOnUse">
		<stop offset="0.0593" style="stop-color:#FF7F9A"/>
		<stop offset="0.5259" style="stop-color:#FF3B9C"/>
		<stop offset="0.9926" style="stop-color:#D10059"/>
	</radialGradient>
	<path class="st80" d="M498.93,628.67c0,0,0.83,7.41,1.98,9.57c1.15,2.16,6.83,6.99,6.83,6.99s-7.41,0.83-9.57,1.98   c-2.16,1.15-6.99,6.83-6.99,6.83s-0.83-7.41-1.98-9.57c-1.15-2.16-6.83-6.99-6.83-6.99s7.41-0.83,9.57-1.98   C494.1,634.35,498.93,628.67,498.93,628.67z"/>
	
		<radialGradient id="SVGID_82_" cx="1007.0544" cy="1288.0647" r="346.9351" gradientTransform="matrix(0.9563 0.2924 -0.2924 0.9563 12.7239 -618.9171)" gradientUnits="userSpaceOnUse">
		<stop offset="0.0593" style="stop-color:#000E57"/>
		<stop offset="0.8889" style="stop-color:#0279AF"/>
	</radialGradient>
	<path class="st81" d="M737.07,872.44c2.34,0.72,4.82-0.6,5.54-2.95c0.72-2.34-0.6-4.82-2.95-5.54c-2.34-0.72-4.82,0.6-5.54,2.95   C733.41,869.24,734.72,871.72,737.07,872.44z"/>
	
		<radialGradient id="SVGID_83_" cx="728.6276" cy="1208.5244" r="346.9329" gradientTransform="matrix(0.9563 0.2924 -0.2924 0.9563 12.7239 -618.9171)" gradientUnits="userSpaceOnUse">
		<stop offset="0.0593" style="stop-color:#000E57"/>
		<stop offset="0.8889" style="stop-color:#0279AF"/>
	</radialGradient>
	<path class="st82" d="M496.15,461.38c0,0,1.61-1.89,2.33-2.27c0.72-0.38,3.19-0.66,3.19-0.66s-1.89-1.61-2.27-2.33   c-0.38-0.72-0.66-3.19-0.66-3.19s-1.61,1.89-2.33,2.27c-0.72,0.38-3.19,0.66-3.19,0.66s1.89,1.61,2.27,2.33   C495.88,458.91,496.15,461.38,496.15,461.38z"/>
	
		<radialGradient id="SVGID_84_" cx="1007.054" cy="1288.0614" r="346.9294" gradientTransform="matrix(0.9563 0.2924 -0.2924 0.9563 12.7239 -618.9171)" gradientUnits="userSpaceOnUse">
		<stop offset="0.0593" style="stop-color:#000E57"/>
		<stop offset="0.8889" style="stop-color:#0279AF"/>
	</radialGradient>
	<path class="st83" d="M831.02,735.7c0,0,1.61-1.89,2.33-2.27c0.72-0.38,3.19-0.66,3.19-0.66s-1.89-1.61-2.27-2.33   c-0.38-0.72-0.66-3.19-0.66-3.19s-1.61,1.89-2.33,2.27c-0.72,0.38-3.19,0.66-3.19,0.66s1.89,1.61,2.27,2.33   C830.74,733.23,831.02,735.7,831.02,735.7z"/>
	
		<radialGradient id="SVGID_85_" cx="1500.557" cy="1215.374" r="346.9328" gradientTransform="matrix(0.9563 0.2924 -0.2924 0.9563 12.7239 -618.9171)" gradientUnits="userSpaceOnUse">
		<stop offset="0.0593" style="stop-color:#000E57"/>
		<stop offset="0.8889" style="stop-color:#0279AF"/>
	</radialGradient>
	<path class="st84" d="M1248.42,850.4c0,0,1.61-1.89,2.33-2.27c0.72-0.38,3.19-0.66,3.19-0.66s-1.89-1.61-2.27-2.33   c-0.38-0.72-0.66-3.19-0.66-3.19s-1.61,1.89-2.33,2.27c-0.72,0.38-3.19,0.66-3.19,0.66s1.89,1.61,2.27,2.33   C1248.14,847.93,1248.42,850.4,1248.42,850.4z"/>
	
		<radialGradient id="SVGID_86_" cx="1007.0608" cy="1288.0652" r="346.9376" gradientTransform="matrix(0.9563 0.2924 -0.2924 0.9563 12.7239 -618.9171)" gradientUnits="userSpaceOnUse">
		<stop offset="0.0593" style="stop-color:#000E57"/>
		<stop offset="0.8889" style="stop-color:#0279AF"/>
	</radialGradient>
	<path class="st85" d="M452.14,824.18c0,0,1.61-1.89,2.33-2.27c0.72-0.38,3.19-0.66,3.19-0.66s-1.89-1.61-2.27-2.33   c-0.38-0.72-0.66-3.19-0.66-3.19s-1.61,1.89-2.33,2.27c-0.72,0.38-3.19,0.66-3.19,0.66s1.89,1.61,2.27,2.33   C451.87,821.71,452.14,824.18,452.14,824.18z"/>
	
		<radialGradient id="SVGID_87_" cx="1007.0577" cy="1288.0669" r="346.9314" gradientTransform="matrix(0.9563 0.2924 -0.2924 0.9563 12.7239 -618.9171)" gradientUnits="userSpaceOnUse">
		<stop offset="0.0593" style="stop-color:#000E57"/>
		<stop offset="0.8889" style="stop-color:#0279AF"/>
	</radialGradient>
	<path class="st86" d="M559.55,648.12c0,0,1.61-1.89,2.33-2.27c0.72-0.38,3.19-0.66,3.19-0.66s-1.89-1.61-2.27-2.33   c-0.38-0.72-0.66-3.19-0.66-3.19s-1.61,1.89-2.33,2.27c-0.72,0.38-3.19,0.66-3.19,0.66s1.89,1.61,2.27,2.33   C559.27,645.65,559.55,648.12,559.55,648.12z"/>
	
		<radialGradient id="SVGID_88_" cx="1244.5265" cy="592.8765" r="27.4501" gradientTransform="matrix(-1 0 0 -1 1935.0522 1067.0367)" gradientUnits="userSpaceOnUse">
		<stop offset="0.0593" style="stop-color:#000E57"/>
		<stop offset="0.8889" style="stop-color:#0279AF"/>
	</radialGradient>
	<path class="st87" d="M700.02,473.07c-0.24,0.78-1.06,1.22-1.84,0.98c-0.78-0.24-1.22-1.06-0.98-1.84   c0.24-0.78,1.06-1.22,1.84-0.98C699.82,471.47,700.25,472.29,700.02,473.07z M719.22,450.64c-1.56-0.48-3.21,0.4-3.69,1.96   c-0.48,1.56,0.4,3.21,1.96,3.69c1.56,0.48,3.21-0.4,3.69-1.96C721.66,452.77,720.78,451.12,719.22,450.64z M714.51,486.25   c-3.12-0.95-6.42,0.8-7.37,3.92c-0.95,3.12,0.8,6.42,3.92,7.37c3.12,0.95,6.42-0.8,7.37-3.92   C719.38,490.51,717.63,487.21,714.51,486.25z M663.56,477.88c-1.56-0.48-3.21,0.4-3.69,1.96c-0.48,1.56,0.4,3.21,1.96,3.69   c1.56,0.48,3.21-0.4,3.69-1.96C665.99,480,665.11,478.35,663.56,477.88z"/>
	<radialGradient id="SVGID_89_" cx="936.1823" cy="843.6175" r="7.9006" gradientUnits="userSpaceOnUse">
		<stop offset="0.0593" style="stop-color:#FF7F9A"/>
		<stop offset="0.5259" style="stop-color:#FF3B9C"/>
		<stop offset="0.9926" style="stop-color:#D10059"/>
	</radialGradient>
	<path class="st88" d="M935.27,851.52c0,0-1.29-4.28-2.2-5.43c-0.91-1.15-4.78-3.39-4.78-3.39s4.28-1.29,5.43-2.2   c1.15-0.91,3.39-4.78,3.39-4.78s1.29,4.28,2.2,5.43c0.91,1.15,4.78,3.39,4.78,3.39s-4.28,1.29-5.43,2.2   C937.5,847.64,935.27,851.52,935.27,851.52z"/>
	<radialGradient id="SVGID_90_" cx="892.7288" cy="1026.3812" r="7.9005" gradientUnits="userSpaceOnUse">
		<stop offset="0.0593" style="stop-color:#FF7F9A"/>
		<stop offset="0.5259" style="stop-color:#FF3B9C"/>
		<stop offset="0.9926" style="stop-color:#D10059"/>
	</radialGradient>
	<path class="st89" d="M891.81,1034.28c0,0-1.29-4.28-2.2-5.43c-0.91-1.15-4.78-3.39-4.78-3.39s4.28-1.29,5.43-2.2   c1.15-0.91,3.39-4.78,3.39-4.78s1.29,4.28,2.2,5.43c0.91,1.15,4.78,3.39,4.78,3.39s-4.28,1.29-5.43,2.2   C894.05,1030.41,891.81,1034.28,891.81,1034.28z"/>
	<radialGradient id="SVGID_91_" cx="969.7131" cy="976.5673" r="13.1701" gradientUnits="userSpaceOnUse">
		<stop offset="0.0593" style="stop-color:#FF7F9A"/>
		<stop offset="0.5259" style="stop-color:#FF3B9C"/>
		<stop offset="0.9926" style="stop-color:#D10059"/>
	</radialGradient>
	<path class="st90" d="M968.19,989.74c0,0-2.15-7.14-3.67-9.05c-1.52-1.91-7.97-5.64-7.97-5.64s7.14-2.15,9.05-3.67   c1.91-1.52,5.64-7.97,5.64-7.97s2.15,7.14,3.67,9.05c1.52,1.91,7.97,5.64,7.97,5.64s-7.14,2.15-9.05,3.67   C971.91,983.28,968.19,989.74,968.19,989.74z"/>
	
		<radialGradient id="SVGID_92_" cx="1440.8888" cy="915.8177" r="346.9465" gradientTransform="matrix(-0.9933 -0.1152 0.1152 -0.9933 2145.1162 1809.3892)" gradientUnits="userSpaceOnUse">
		<stop offset="0.0593" style="stop-color:#000E57"/>
		<stop offset="0.8889" style="stop-color:#0279AF"/>
	</radialGradient>
	<path class="st91" d="M978.96,789c0,0-1.24,2.15-1.88,2.66c-0.64,0.51-3.02,1.22-3.02,1.22s2.15,1.24,2.66,1.88   c0.51,0.64,1.22,3.02,1.22,3.02s1.24-2.15,1.88-2.66c0.64-0.51,3.02-1.22,3.02-1.22s-2.15-1.24-2.66-1.88   C979.68,791.38,978.96,789,978.96,789z"/>
	
		<radialGradient id="SVGID_93_" cx="1440.8932" cy="915.8176" r="346.943" gradientTransform="matrix(-0.9933 -0.1152 0.1152 -0.9933 2145.1162 1809.3892)" gradientUnits="userSpaceOnUse">
		<stop offset="0.0593" style="stop-color:#000E57"/>
		<stop offset="0.8889" style="stop-color:#0279AF"/>
	</radialGradient>
	<path class="st92" d="M905.05,981.53c0,0-1.24,2.15-1.88,2.66c-0.64,0.51-3.02,1.22-3.02,1.22s2.15,1.24,2.66,1.88   c0.51,0.64,1.22,3.02,1.22,3.02s1.24-2.15,1.88-2.66c0.64-0.51,3.02-1.22,3.02-1.22s-2.15-1.24-2.66-1.88   C905.77,983.91,905.05,981.53,905.05,981.53z"/>
	
		<radialGradient id="SVGID_94_" cx="988.1146" cy="145.9433" r="27.1339" gradientTransform="matrix(-1 0 0 -1 1935.0522 1067.0367)" gradientUnits="userSpaceOnUse">
		<stop offset="0.0593" style="stop-color:#000E57"/>
		<stop offset="0.8889" style="stop-color:#0279AF"/>
	</radialGradient>
	<path class="st93" d="M938.72,919.38c0.09-0.81,0.83-1.39,1.64-1.3s1.39,0.83,1.3,1.64c-0.09,0.81-0.83,1.39-1.64,1.3   C939.21,920.93,938.63,920.19,938.72,919.38z M923.87,944.91c1.62,0.19,3.09-0.97,3.27-2.59c0.19-1.62-0.97-3.09-2.59-3.27   c-1.62-0.19-3.09,0.97-3.27,2.59C921.09,943.25,922.25,944.72,923.87,944.91z M922.09,909.03c3.24,0.38,6.17-1.95,6.55-5.19   c0.38-3.24-1.95-6.17-5.18-6.55c-3.24-0.38-6.17,1.95-6.55,5.19C916.53,905.72,918.85,908.66,922.09,909.03z M973.72,908.09   c1.62,0.19,3.09-0.97,3.27-2.59c0.19-1.62-0.97-3.09-2.59-3.27c-1.62-0.19-3.09,0.97-3.27,2.59   C970.94,906.43,972.1,907.9,973.72,908.09z"/>
	<radialGradient id="SVGID_95_" cx="421.8258" cy="322.8411" r="7.9006" gradientUnits="userSpaceOnUse">
		<stop offset="0.0593" style="stop-color:#FF7F9A"/>
		<stop offset="0.5259" style="stop-color:#FF3B9C"/>
		<stop offset="0.9926" style="stop-color:#D10059"/>
	</radialGradient>
	<path class="st94" d="M420.91,330.74c0,0-1.29-4.28-2.2-5.43c-0.91-1.15-4.78-3.39-4.78-3.39s4.28-1.29,5.43-2.2   c1.15-0.91,3.39-4.78,3.39-4.78s1.29,4.28,2.2,5.43c0.91,1.15,4.78,3.39,4.78,3.39s-4.28,1.29-5.43,2.2   C423.15,326.87,420.91,330.74,420.91,330.74z"/>
	<radialGradient id="SVGID_96_" cx="489.4435" cy="540.9399" r="7.9006" gradientUnits="userSpaceOnUse">
		<stop offset="0.0593" style="stop-color:#FF7F9A"/>
		<stop offset="0.5259" style="stop-color:#FF3B9C"/>
		<stop offset="0.9926" style="stop-color:#D10059"/>
	</radialGradient>
	<path class="st95" d="M488.53,548.84c0,0-1.29-4.28-2.2-5.43c-0.91-1.15-4.78-3.39-4.78-3.39s4.28-1.29,5.43-2.2   c1.15-0.91,3.39-4.78,3.39-4.78s1.29,4.28,2.2,5.43c0.91,1.15,4.78,3.39,4.78,3.39s-4.28,1.29-5.43,2.2   C490.76,544.97,488.53,548.84,488.53,548.84z"/>
	<radialGradient id="SVGID_97_" cx="500.4269" cy="459.3073" r="13.1701" gradientUnits="userSpaceOnUse">
		<stop offset="0.0593" style="stop-color:#FF7F9A"/>
		<stop offset="0.5259" style="stop-color:#FF3B9C"/>
		<stop offset="0.9926" style="stop-color:#D10059"/>
	</radialGradient>
	<path class="st96" d="M498.9,472.48c0,0-2.15-7.14-3.67-9.05c-1.52-1.91-7.97-5.64-7.97-5.64s7.14-2.15,9.05-3.67   c1.91-1.52,5.64-7.97,5.64-7.97s2.15,7.14,3.67,9.05c1.52,1.91,7.97,5.64,7.97,5.64s-7.14,2.15-9.05,3.67   C502.63,466.02,498.9,472.48,498.9,472.48z"/>
	
		<radialGradient id="SVGID_98_" cx="1897.4329" cy="1351.5858" r="346.9459" gradientTransform="matrix(-0.9933 -0.1152 0.1152 -0.9933 2145.1162 1809.3892)" gradientUnits="userSpaceOnUse">
		<stop offset="0.0593" style="stop-color:#000E57"/>
		<stop offset="0.8889" style="stop-color:#0279AF"/>
	</radialGradient>
	<path class="st97" d="M575.68,303.56c0,0-1.24,2.15-1.88,2.66c-0.64,0.51-3.02,1.22-3.02,1.22s2.15,1.24,2.66,1.88   c0.51,0.64,1.22,3.02,1.22,3.02s1.24-2.15,1.88-2.66c0.64-0.51,3.02-1.22,3.02-1.22s-2.15-1.24-2.66-1.88   C576.4,305.93,575.68,303.56,575.68,303.56z"/>
	
		<radialGradient id="SVGID_99_" cx="1966.6705" cy="1375.5889" r="346.9446" gradientTransform="matrix(-0.9933 -0.1152 0.1152 -0.9933 2145.1162 1809.3892)" gradientUnits="userSpaceOnUse">
		<stop offset="0.0593" style="stop-color:#000E57"/>
		<stop offset="0.8889" style="stop-color:#0279AF"/>
	</radialGradient>
	<path class="st98" d="M435.77,464.27c0,0-1.24,2.15-1.88,2.66c-0.64,0.51-3.02,1.22-3.02,1.22s2.15,1.24,2.66,1.88   c0.51,0.64,1.22,3.02,1.22,3.02s1.24-2.15,1.88-2.66c0.64-0.51,3.02-1.22,3.02-1.22s-2.15-1.24-2.66-1.88   C436.48,466.65,435.77,464.27,435.77,464.27z"/>
	
		<radialGradient id="SVGID_100_" cx="1502.4712" cy="666.7197" r="27.134" gradientTransform="matrix(-1 0 0 -1 1935.0522 1067.0367)" gradientUnits="userSpaceOnUse">
		<stop offset="0.0593" style="stop-color:#000E57"/>
		<stop offset="0.8889" style="stop-color:#0279AF"/>
	</radialGradient>
	<path class="st99" d="M424.37,398.61c0.09-0.81,0.83-1.39,1.64-1.3c0.81,0.09,1.39,0.83,1.3,1.64s-0.83,1.39-1.64,1.3   C424.85,400.15,424.27,399.42,424.37,398.61z M409.51,424.13c1.62,0.19,3.09-0.97,3.27-2.59c0.19-1.62-0.97-3.09-2.59-3.27   c-1.62-0.19-3.09,0.97-3.27,2.59C406.73,422.48,407.9,423.94,409.51,424.13z M407.73,388.26c3.24,0.38,6.17-1.95,6.55-5.19   c0.38-3.24-1.95-6.17-5.19-6.55c-3.24-0.38-6.17,1.95-6.55,5.19C402.17,384.95,404.49,387.88,407.73,388.26z M459.36,387.31   c1.62,0.19,3.09-0.97,3.27-2.59c0.19-1.62-0.97-3.09-2.59-3.27c-1.62-0.19-3.08,0.97-3.27,2.59   C456.58,385.66,457.74,387.12,459.36,387.31z"/>
	<radialGradient id="SVGID_101_" cx="998.3679" cy="193.4271" r="7.9006" gradientUnits="userSpaceOnUse">
		<stop offset="0.0593" style="stop-color:#FF7F9A"/>
		<stop offset="0.5259" style="stop-color:#FF3B9C"/>
		<stop offset="0.9926" style="stop-color:#D10059"/>
	</radialGradient>
	<path class="st100" d="M997.45,201.33c0,0-1.29-4.28-2.2-5.43c-0.91-1.15-4.78-3.39-4.78-3.39s4.28-1.29,5.43-2.2   c1.15-0.91,3.39-4.78,3.39-4.78s1.29,4.28,2.2,5.43c0.91,1.15,4.78,3.39,4.78,3.39s-4.28,1.29-5.43,2.2   C999.69,197.45,997.45,201.33,997.45,201.33z"/>
	<radialGradient id="SVGID_102_" cx="1115.8041" cy="467.2842" r="7.9005" gradientUnits="userSpaceOnUse">
		<stop offset="0.0593" style="stop-color:#FF7F9A"/>
		<stop offset="0.5259" style="stop-color:#FF3B9C"/>
		<stop offset="0.9926" style="stop-color:#D10059"/>
	</radialGradient>
	<path class="st101" d="M1114.89,475.18c0,0-1.29-4.28-2.2-5.43c-0.91-1.15-4.78-3.39-4.78-3.39s4.28-1.29,5.43-2.2   s3.39-4.78,3.39-4.78s1.29,4.28,2.2,5.43c0.91,1.15,4.78,3.39,4.78,3.39s-4.28,1.29-5.43,2.2   C1117.12,471.31,1114.89,475.18,1114.89,475.18z"/>
	
		<radialGradient id="SVGID_103_" cx="742.264" cy="649.5665" r="13.1701" gradientTransform="matrix(-1 0 0 -1 1935.0522 1067.0367)" gradientUnits="userSpaceOnUse">
		<stop offset="0.0593" style="stop-color:#1AB0DA"/>
		<stop offset="1" style="stop-color:#461980"/>
	</radialGradient>
	<path class="st102" d="M1191.26,430.64c0,0-2.15-7.14-3.67-9.05c-1.52-1.91-7.97-5.64-7.97-5.64s7.14-2.15,9.05-3.67   c1.91-1.52,5.64-7.97,5.64-7.97s2.15,7.14,3.67,9.05c1.52,1.91,7.97,5.64,7.97,5.64s-7.14,2.15-9.05,3.67   C1194.99,424.18,1191.26,430.64,1191.26,430.64z"/>
	
		<radialGradient id="SVGID_104_" cx="1477.7686" cy="1575.4144" r="346.9465" gradientTransform="matrix(-0.9933 -0.1152 0.1152 -0.9933 2145.1162 1809.3892)" gradientUnits="userSpaceOnUse">
		<stop offset="0.0593" style="stop-color:#000E57"/>
		<stop offset="0.8889" style="stop-color:#0279AF"/>
	</radialGradient>
	<path class="st103" d="M1018.32,129.57c0,0-1.24,2.15-1.88,2.66c-0.64,0.51-3.02,1.22-3.02,1.22s2.15,1.24,2.66,1.88   c0.51,0.64,1.22,3.02,1.22,3.02s1.24-2.15,1.88-2.66c0.64-0.51,3.02-1.22,3.02-1.22s-2.15-1.24-2.66-1.88   C1019.03,131.95,1018.32,129.57,1018.32,129.57z"/>
	
		<radialGradient id="SVGID_105_" cx="1283.7102" cy="1496.9221" r="346.9518" gradientTransform="matrix(-0.9933 -0.1152 0.1152 -0.9933 2145.1162 1809.3892)" gradientUnits="userSpaceOnUse">
		<stop offset="0.0593" style="stop-color:#000E57"/>
		<stop offset="0.8889" style="stop-color:#0279AF"/>
	</radialGradient>
	<path class="st104" d="M1128.13,422.43c0,0-1.24,2.15-1.88,2.66c-0.64,0.5-3.02,1.22-3.02,1.22s2.15,1.24,2.66,1.88   c0.51,0.64,1.22,3.02,1.22,3.02s1.24-2.15,1.88-2.66c0.64-0.51,3.02-1.22,3.02-1.22s-2.15-1.24-2.66-1.88   C1128.84,424.81,1128.13,422.43,1128.13,422.43z"/>
	
		<radialGradient id="SVGID_106_" cx="765.0394" cy="705.0403" r="27.134" gradientTransform="matrix(-1 0 0 -1 1935.0522 1067.0367)" gradientUnits="userSpaceOnUse">
		<stop offset="0.0593" style="stop-color:#000E57"/>
		<stop offset="0.8889" style="stop-color:#0279AF"/>
	</radialGradient>
	<path class="st105" d="M1161.8,360.29c0.09-0.81,0.83-1.39,1.64-1.3c0.81,0.09,1.39,0.83,1.3,1.64s-0.83,1.39-1.64,1.3   C1162.28,361.83,1161.7,361.1,1161.8,360.29z M1146.95,385.81c1.62,0.19,3.09-0.97,3.27-2.59c0.19-1.62-0.97-3.09-2.59-3.27   c-1.62-0.19-3.09,0.97-3.27,2.59C1144.17,384.16,1145.33,385.62,1146.95,385.81z M1145.16,349.93c3.24,0.38,6.17-1.95,6.55-5.19   c0.38-3.24-1.95-6.17-5.19-6.55c-3.24-0.38-6.17,1.95-6.55,5.19C1139.6,346.63,1141.92,349.56,1145.16,349.93z M1196.79,348.99   c1.62,0.19,3.09-0.97,3.27-2.59c0.19-1.62-0.97-3.09-2.59-3.27c-1.62-0.19-3.09,0.97-3.27,2.59   C1194.01,347.34,1195.17,348.8,1196.79,348.99z"/>
	
		<radialGradient id="SVGID_107_" cx="1308.9969" cy="514.8157" r="27.0067" gradientTransform="matrix(-1 0 0 -1 1935.0522 1067.0367)" gradientUnits="userSpaceOnUse">
		<stop offset="0.0593" style="stop-color:#000E57"/>
		<stop offset="0.8889" style="stop-color:#0279AF"/>
	</radialGradient>
	<path class="st106" d="M616.42,551.99c0.17-0.8,0.96-1.3,1.75-1.13c0.8,0.17,1.3,0.96,1.13,1.75c-0.17,0.8-0.96,1.3-1.75,1.13   C616.76,553.57,616.25,552.79,616.42,551.99z M599.18,575.97c1.59,0.34,3.16-0.67,3.51-2.27c0.34-1.59-0.67-3.16-2.27-3.51   c-1.59-0.34-3.16,0.67-3.51,2.27C596.58,574.05,597.59,575.62,599.18,575.97z M600.86,540.09c3.19,0.69,6.33-1.34,7.01-4.53   c0.69-3.19-1.34-6.33-4.53-7.01c-3.19-0.69-6.33,1.34-7.01,4.53C595.64,536.26,597.67,539.4,600.86,540.09z M652.34,544.11   c1.59,0.34,3.16-0.67,3.51-2.27s-0.67-3.16-2.27-3.51c-1.59-0.34-3.16,0.67-3.51,2.27C649.73,542.2,650.75,543.77,652.34,544.11z"/>
	<radialGradient id="SVGID_108_" cx="190.5874" cy="836.9958" r="7.606" gradientUnits="userSpaceOnUse">
		<stop offset="0.0593" style="stop-color:#FF7F9A"/>
		<stop offset="0.5259" style="stop-color:#FF3B9C"/>
		<stop offset="0.9926" style="stop-color:#D10059"/>
	</radialGradient>
	<path class="st107" d="M192.91,829.39c0,0,0.5,4.45,1.19,5.74c0.69,1.29,4.09,4.19,4.09,4.19s-4.45,0.5-5.74,1.19   c-1.29,0.69-4.19,4.09-4.19,4.09s-0.5-4.45-1.19-5.74c-0.69-1.29-4.09-4.19-4.09-4.19s4.45-0.5,5.74-1.19   C190.01,832.8,192.91,829.39,192.91,829.39z"/>
	
		<radialGradient id="SVGID_109_" cx="1633.6932" cy="362.1087" r="27.4501" gradientTransform="matrix(-1 0 0 -1 1935.0522 1067.0367)" gradientUnits="userSpaceOnUse">
		<stop offset="0.0593" style="stop-color:#000E57"/>
		<stop offset="0.8889" style="stop-color:#0279AF"/>
	</radialGradient>
	<path class="st108" d="M310.85,703.84c-0.24,0.78-1.06,1.22-1.84,0.98c-0.78-0.24-1.22-1.06-0.98-1.84   c0.24-0.78,1.06-1.22,1.84-0.98C310.65,702.24,311.09,703.06,310.85,703.84z M330.06,681.41c-1.56-0.48-3.21,0.4-3.69,1.96   c-0.48,1.56,0.4,3.21,1.96,3.69c1.56,0.48,3.21-0.4,3.69-1.96C332.49,683.54,331.62,681.89,330.06,681.41z M325.34,717.02   c-3.12-0.95-6.42,0.8-7.37,3.92c-0.95,3.12,0.8,6.42,3.92,7.37c3.12,0.95,6.42-0.8,7.37-3.92   C330.22,721.28,328.46,717.97,325.34,717.02z M274.39,708.64c-1.56-0.48-3.21,0.4-3.69,1.96c-0.48,1.56,0.4,3.21,1.96,3.69   c1.56,0.48,3.21-0.4,3.69-1.96C276.83,710.77,275.95,709.12,274.39,708.64z"/>
	
		<radialGradient id="SVGID_110_" cx="1698.1641" cy="284.0482" r="27.0067" gradientTransform="matrix(-1 0 0 -1 1935.0522 1067.0367)" gradientUnits="userSpaceOnUse">
		<stop offset="0.0593" style="stop-color:#000E57"/>
		<stop offset="0.8889" style="stop-color:#0279AF"/>
	</radialGradient>
	<path class="st109" d="M227.25,782.76c0.17-0.8,0.96-1.3,1.75-1.13c0.8,0.17,1.3,0.96,1.13,1.75c-0.17,0.8-0.96,1.3-1.75,1.13   C227.59,784.34,227.08,783.55,227.25,782.76z M210.02,806.74c1.59,0.34,3.16-0.67,3.51-2.27c0.34-1.59-0.67-3.16-2.27-3.51   c-1.59-0.34-3.16,0.67-3.51,2.27C207.41,804.82,208.42,806.39,210.02,806.74z M211.69,770.85c3.19,0.69,6.33-1.34,7.01-4.53   c0.69-3.19-1.34-6.33-4.53-7.01c-3.19-0.69-6.33,1.34-7.01,4.53C206.48,767.03,208.5,770.17,211.69,770.85z M263.17,774.88   c1.59,0.34,3.16-0.67,3.51-2.27c0.34-1.59-0.67-3.16-2.27-3.51c-1.59-0.34-3.16,0.67-3.51,2.27   C260.57,772.97,261.58,774.54,263.17,774.88z"/>
	
		<radialGradient id="SVGID_111_" cx="935.1293" cy="1636.7684" r="346.9317" gradientTransform="matrix(0.9563 0.2924 -0.2924 0.9563 12.7239 -618.9171)" gradientUnits="userSpaceOnUse">
		<stop offset="0.0593" style="stop-color:#000E57"/>
		<stop offset="0.8889" style="stop-color:#0279AF"/>
	</radialGradient>
	<path class="st110" d="M660.27,1048.13c0,0,1.61-1.89,2.33-2.27c0.72-0.38,3.19-0.66,3.19-0.66s-1.89-1.61-2.27-2.33   c-0.38-0.72-0.66-3.19-0.66-3.19s-1.61,1.89-2.33,2.27c-0.72,0.38-3.19,0.66-3.19,0.66s1.89,1.61,2.27,2.33   C659.99,1045.66,660.27,1048.13,660.27,1048.13z"/>
	<radialGradient id="SVGID_112_" cx="495.6989" cy="979.0325" r="7.9005" gradientUnits="userSpaceOnUse">
		<stop offset="0.0593" style="stop-color:#FF7F9A"/>
		<stop offset="0.5259" style="stop-color:#FF3B9C"/>
		<stop offset="0.9926" style="stop-color:#D10059"/>
	</radialGradient>
	<path class="st111" d="M494.78,986.93c0,0-1.29-4.28-2.2-5.43c-0.91-1.15-4.78-3.39-4.78-3.39s4.28-1.29,5.43-2.2   c1.15-0.91,3.39-4.78,3.39-4.78s1.29,4.28,2.2,5.43c0.91,1.15,4.78,3.39,4.78,3.39s-4.28,1.29-5.43,2.2   C497.02,983.06,494.78,986.93,494.78,986.93z"/>
	
		<radialGradient id="SVGID_113_" cx="1362.3693" cy="137.8181" r="13.1701" gradientTransform="matrix(-1 0 0 -1 1935.0522 1067.0367)" gradientUnits="userSpaceOnUse">
		<stop offset="0.0593" style="stop-color:#1AB0DA"/>
		<stop offset="1" style="stop-color:#461980"/>
	</radialGradient>
	<path class="st112" d="M571.16,942.39c0,0-2.15-7.14-3.67-9.05c-1.52-1.91-7.97-5.64-7.97-5.64s7.14-2.15,9.05-3.67   c1.91-1.52,5.64-7.97,5.64-7.97s2.15,7.14,3.67,9.05c1.52,1.91,7.97,5.64,7.97,5.64s-7.14,2.15-9.05,3.67   C574.88,935.93,571.16,942.39,571.16,942.39z"/>
	
		<radialGradient id="SVGID_114_" cx="1840.7511" cy="917.1113" r="346.943" gradientTransform="matrix(-0.9933 -0.1152 0.1152 -0.9933 2145.1162 1809.3892)" gradientUnits="userSpaceOnUse">
		<stop offset="0.0593" style="stop-color:#000E57"/>
		<stop offset="0.8889" style="stop-color:#0279AF"/>
	</radialGradient>
	<path class="st113" d="M508.02,934.18c0,0-1.24,2.15-1.88,2.66c-0.64,0.51-3.02,1.22-3.02,1.22s2.15,1.24,2.66,1.88   c0.51,0.64,1.22,3.02,1.22,3.02s1.24-2.15,1.88-2.66c0.64-0.51,3.02-1.22,3.02-1.22s-2.15-1.24-2.66-1.88   C508.74,936.56,508.02,934.18,508.02,934.18z"/>
	
		<radialGradient id="SVGID_115_" cx="1302.7417" cy="76.7231" r="27.0067" gradientTransform="matrix(-1 0 0 -1 1935.0522 1067.0367)" gradientUnits="userSpaceOnUse">
		<stop offset="0.0593" style="stop-color:#000E57"/>
		<stop offset="0.8889" style="stop-color:#0279AF"/>
	</radialGradient>
	<path class="st114" d="M622.68,990.08c0.17-0.8,0.96-1.3,1.75-1.13c0.8,0.17,1.3,0.96,1.13,1.75c-0.17,0.8-0.96,1.3-1.75,1.13   C623.01,991.66,622.5,990.88,622.68,990.08z M605.44,1014.06c1.59,0.34,3.16-0.67,3.51-2.27c0.34-1.59-0.67-3.16-2.27-3.51   c-1.59-0.34-3.16,0.67-3.51,2.27C602.83,1012.15,603.85,1013.72,605.44,1014.06z M607.11,978.18c3.19,0.69,6.33-1.34,7.01-4.53   c0.69-3.19-1.34-6.33-4.53-7.01c-3.19-0.69-6.33,1.34-7.01,4.53C601.9,974.35,603.93,977.49,607.11,978.18z M658.6,982.2   c1.59,0.34,3.16-0.67,3.51-2.27c0.34-1.59-0.67-3.16-2.27-3.51c-1.59-0.34-3.16,0.67-3.51,2.27   C655.99,980.29,657,981.86,658.6,982.2z"/>
	<radialGradient id="SVGID_116_" cx="1334.8593" cy="536.98" r="7.606" gradientUnits="userSpaceOnUse">
		<stop offset="0.0593" style="stop-color:#FF7F9A"/>
		<stop offset="0.5259" style="stop-color:#FF3B9C"/>
		<stop offset="0.9926" style="stop-color:#D10059"/>
	</radialGradient>
	<path class="st115" d="M1337.18,529.37c0,0,0.5,4.45,1.19,5.74c0.69,1.29,4.09,4.19,4.09,4.19s-4.45,0.5-5.74,1.19   c-1.29,0.69-4.19,4.09-4.19,4.09s-0.5-4.45-1.19-5.74c-0.69-1.29-4.09-4.19-4.09-4.19s4.45-0.5,5.74-1.19   C1334.29,532.78,1337.18,529.37,1337.18,529.37z"/>
	
		<radialGradient id="SVGID_117_" cx="557.9338" cy="604.6584" r="12.679" gradientTransform="matrix(-1 0 0 -1 1935.0522 1067.0367)" gradientUnits="userSpaceOnUse">
		<stop offset="0.0593" style="stop-color:#1AB0DA"/>
		<stop offset="1" style="stop-color:#461980"/>
	</radialGradient>
	<path class="st116" d="M1381,449.7c0,0,0.83,7.41,1.98,9.57c1.15,2.16,6.83,6.99,6.83,6.99s-7.41,0.83-9.57,1.98   c-2.16,1.15-6.99,6.83-6.99,6.83s-0.83-7.41-1.98-9.57c-1.15-2.16-6.83-6.99-6.83-6.99s7.41-0.83,9.57-1.98   C1376.16,455.38,1381,449.7,1381,449.7z"/>
	<radialGradient id="SVGID_118_" cx="1277.9291" cy="698.4545" r="12.6789" gradientUnits="userSpaceOnUse">
		<stop offset="0.0593" style="stop-color:#FF7F9A"/>
		<stop offset="0.5259" style="stop-color:#FF3B9C"/>
		<stop offset="0.9926" style="stop-color:#D10059"/>
	</radialGradient>
	<path class="st117" d="M1281.81,685.78c0,0,0.83,7.41,1.98,9.57c1.15,2.16,6.83,6.99,6.83,6.99s-7.41,0.83-9.57,1.98   c-2.16,1.15-6.99,6.83-6.99,6.83s-0.83-7.41-1.98-9.57c-1.15-2.16-6.83-6.99-6.83-6.99s7.41-0.83,9.57-1.98   C1276.97,691.45,1281.81,685.78,1281.81,685.78z"/>
	<radialGradient id="SVGID_119_" cx="1687.4229" cy="370.1687" r="7.9535" gradientUnits="userSpaceOnUse">
		<stop offset="0.0593" style="stop-color:#FF7F9A"/>
		<stop offset="0.5259" style="stop-color:#FF3B9C"/>
		<stop offset="0.9926" style="stop-color:#D10059"/>
	</radialGradient>
	<path class="st118" d="M1687.42,378.12c0,0-1.78-4.11-2.81-5.14c-1.04-1.04-5.14-2.81-5.14-2.81s4.11-1.78,5.14-2.81   c1.04-1.04,2.81-5.14,2.81-5.14s1.78,4.11,2.81,5.14c1.04,1.04,5.14,2.81,5.14,2.81s-4.11,1.78-5.14,2.81   C1689.2,374.02,1687.42,378.12,1687.42,378.12z"/>
	<radialGradient id="SVGID_120_" cx="1665.3193" cy="556.7222" r="7.9536" gradientUnits="userSpaceOnUse">
		<stop offset="0.0593" style="stop-color:#FF7F9A"/>
		<stop offset="0.5259" style="stop-color:#FF3B9C"/>
		<stop offset="0.9926" style="stop-color:#D10059"/>
	</radialGradient>
	<path class="st119" d="M1665.32,564.68c0,0-1.78-4.11-2.81-5.14c-1.04-1.04-5.14-2.81-5.14-2.81s4.11-1.78,5.14-2.81   c1.04-1.04,2.81-5.14,2.81-5.14s1.78,4.11,2.81,5.14c1.04,1.04,5.14,2.81,5.14,2.81s-4.11,1.78-5.14,2.81   C1667.1,560.57,1665.32,564.68,1665.32,564.68z"/>
	<radialGradient id="SVGID_121_" cx="1593.8304" cy="809.0829" r="7.9536" gradientUnits="userSpaceOnUse">
		<stop offset="0.0593" style="stop-color:#FF7F9A"/>
		<stop offset="0.5259" style="stop-color:#FF3B9C"/>
		<stop offset="0.9926" style="stop-color:#D10059"/>
	</radialGradient>
	<path class="st120" d="M1593.83,817.04c0,0-1.78-4.11-2.81-5.14c-1.04-1.04-5.14-2.81-5.14-2.81s4.11-1.78,5.14-2.81   c1.04-1.04,2.81-5.14,2.81-5.14s1.78,4.11,2.81,5.14s5.14,2.81,5.14,2.81s-4.11,1.78-5.14,2.81   C1595.61,812.93,1593.83,817.04,1593.83,817.04z"/>
	<radialGradient id="SVGID_122_" cx="1575.2317" cy="892.7808" r="13.2585" gradientUnits="userSpaceOnUse">
		<stop offset="0.0593" style="stop-color:#FF7F9A"/>
		<stop offset="0.5259" style="stop-color:#FF3B9C"/>
		<stop offset="0.9926" style="stop-color:#D10059"/>
	</radialGradient>
	<path class="st121" d="M1575.23,906.04c0,0-2.96-6.84-4.69-8.57c-1.73-1.73-8.57-4.69-8.57-4.69s6.84-2.96,8.57-4.69   c1.73-1.73,4.69-8.57,4.69-8.57s2.96,6.84,4.69,8.57c1.73,1.73,8.57,4.69,8.57,4.69s-6.84,2.96-8.57,4.69   C1578.19,899.2,1575.23,906.04,1575.23,906.04z"/>
	<radialGradient id="SVGID_123_" cx="1565.5062" cy="735.4039" r="13.2584" gradientUnits="userSpaceOnUse">
		<stop offset="0.0593" style="stop-color:#FF7F9A"/>
		<stop offset="0.5259" style="stop-color:#FF3B9C"/>
		<stop offset="0.9926" style="stop-color:#D10059"/>
	</radialGradient>
	<path class="st122" d="M1565.51,748.66c0,0-2.96-6.84-4.69-8.57c-1.73-1.73-8.57-4.69-8.57-4.69s6.84-2.96,8.57-4.69   c1.73-1.73,4.69-8.57,4.69-8.57s2.96,6.84,4.69,8.57c1.73,1.73,8.57,4.69,8.57,4.69s-6.84,2.96-8.57,4.69   C1568.47,741.82,1565.51,748.66,1565.51,748.66z"/>
	<radialGradient id="SVGID_124_" cx="1736.0505" cy="498.369" r="13.2584" gradientUnits="userSpaceOnUse">
		<stop offset="0.0593" style="stop-color:#FF7F9A"/>
		<stop offset="0.5259" style="stop-color:#FF3B9C"/>
		<stop offset="0.9926" style="stop-color:#D10059"/>
	</radialGradient>
	<path class="st123" d="M1736.05,511.63c0,0-2.96-6.84-4.69-8.57c-1.73-1.73-8.57-4.69-8.57-4.69s6.84-2.96,8.57-4.69   c1.73-1.73,4.69-8.57,4.69-8.57s2.96,6.84,4.69,8.57c1.73,1.73,8.57,4.69,8.57,4.69s-6.84,2.96-8.57,4.69   C1739.01,504.78,1736.05,511.63,1736.05,511.63z"/>
	
		<radialGradient id="SVGID_125_" cx="207.3465" cy="382.2564" r="346.9359" gradientTransform="matrix(-1 0 0 -1 1935.0522 1067.0367)" gradientUnits="userSpaceOnUse">
		<stop offset="0.0593" style="stop-color:#000E57"/>
		<stop offset="0.8889" style="stop-color:#0279AF"/>
	</radialGradient>
	<path class="st124" d="M1606.01,758.47c-2.45,0-4.44,1.99-4.44,4.44s1.99,4.44,4.44,4.44c2.45,0,4.44-1.99,4.44-4.44   S1608.46,758.47,1606.01,758.47z"/>
	
		<radialGradient id="SVGID_126_" cx="207.3485" cy="382.2542" r="346.9292" gradientTransform="matrix(-1 0 0 -1 1935.0522 1067.0367)" gradientUnits="userSpaceOnUse">
		<stop offset="0.0593" style="stop-color:#000E57"/>
		<stop offset="0.8889" style="stop-color:#0279AF"/>
	</radialGradient>
	<path class="st125" d="M1678.16,1001.58c0,0-0.99,2.28-1.56,2.86c-0.58,0.58-2.86,1.56-2.86,1.56s2.28,0.99,2.86,1.56   c0.58,0.58,1.56,2.86,1.56,2.86s0.99-2.28,1.56-2.86c0.58-0.58,2.86-1.56,2.86-1.56s-2.28-0.99-2.86-1.56   S1678.16,1001.58,1678.16,1001.58z"/>
	
		<radialGradient id="SVGID_127_" cx="207.3474" cy="382.2539" r="346.9313" gradientTransform="matrix(-1 0 0 -1 1935.0522 1067.0367)" gradientUnits="userSpaceOnUse">
		<stop offset="0.0593" style="stop-color:#000E57"/>
		<stop offset="0.8889" style="stop-color:#0279AF"/>
	</radialGradient>
	<path class="st126" d="M1556.15,916.7c0,0-0.99,2.28-1.56,2.86c-0.58,0.58-2.86,1.56-2.86,1.56s2.28,0.99,2.86,1.56   c0.58,0.58,1.56,2.86,1.56,2.86s0.99-2.28,1.56-2.86c0.58-0.58,2.86-1.56,2.86-1.56s-2.28-0.99-2.86-1.56   C1557.13,918.98,1556.15,916.7,1556.15,916.7z"/>
	
		<radialGradient id="SVGID_128_" cx="207.3488" cy="382.2596" r="346.9362" gradientTransform="matrix(-1 0 0 -1 1935.0522 1067.0367)" gradientUnits="userSpaceOnUse">
		<stop offset="0.0593" style="stop-color:#000E57"/>
		<stop offset="0.8889" style="stop-color:#0279AF"/>
	</radialGradient>
	<path class="st127" d="M1616.95,856.37c0,0-0.99,2.28-1.56,2.86c-0.58,0.58-2.86,1.56-2.86,1.56s2.28,0.99,2.86,1.56   c0.58,0.58,1.56,2.86,1.56,2.86s0.99-2.28,1.56-2.86c0.58-0.58,2.86-1.56,2.86-1.56s-2.28-0.99-2.86-1.56   C1617.93,858.65,1616.95,856.37,1616.95,856.37z"/>
	
		<radialGradient id="SVGID_129_" cx="376.3127" cy="792.583" r="346.931" gradientTransform="matrix(-1 0 0 -1 1935.0522 1067.0367)" gradientUnits="userSpaceOnUse">
		<stop offset="0.0593" style="stop-color:#000E57"/>
		<stop offset="0.8889" style="stop-color:#0279AF"/>
	</radialGradient>
	<path class="st128" d="M1723.63,310.98c0,0-0.99,2.28-1.56,2.86c-0.58,0.58-2.86,1.56-2.86,1.56s2.28,0.99,2.86,1.56   c0.58,0.58,1.56,2.86,1.56,2.86s0.99-2.28,1.56-2.86c0.58-0.58,2.86-1.56,2.86-1.56s-2.28-0.99-2.86-1.56   C1724.61,313.26,1723.63,310.98,1723.63,310.98z"/>
	
		<radialGradient id="SVGID_130_" cx="376.3142" cy="792.5857" r="346.936" gradientTransform="matrix(-1 0 0 -1 1935.0522 1067.0367)" gradientUnits="userSpaceOnUse">
		<stop offset="0.0593" style="stop-color:#000E57"/>
		<stop offset="0.8889" style="stop-color:#0279AF"/>
	</radialGradient>
	<path class="st129" d="M1672.39,510.75c0,0-0.99,2.28-1.56,2.86c-0.58,0.58-2.86,1.56-2.86,1.56s2.28,0.99,2.86,1.56   c0.58,0.58,1.56,2.86,1.56,2.86s0.99-2.28,1.56-2.86c0.58-0.58,2.86-1.56,2.86-1.56s-2.28-0.99-2.86-1.56   C1673.38,513.03,1672.39,510.75,1672.39,510.75z"/>
	
		<radialGradient id="SVGID_131_" cx="229.9789" cy="618.9474" r="27.2257" gradientTransform="matrix(-1 0 0 -1 1935.0522 1067.0367)" gradientUnits="userSpaceOnUse">
		<stop offset="0.0593" style="stop-color:#000E57"/>
		<stop offset="0.8889" style="stop-color:#0279AF"/>
	</radialGradient>
	<path class="st130" d="M1698.68,445.14c0-0.82,0.66-1.48,1.48-1.48s1.48,0.66,1.48,1.48c0,0.82-0.66,1.48-1.48,1.48   S1698.68,445.95,1698.68,445.14z M1686.87,472.2c1.63,0,2.95-1.32,2.95-2.95c0-1.63-1.32-2.95-2.95-2.95s-2.95,1.32-2.95,2.95   C1683.91,470.88,1685.24,472.2,1686.87,472.2z M1680.96,436.77c3.26,0,5.91-2.64,5.91-5.91c0-3.26-2.64-5.91-5.91-5.91   s-5.91,2.64-5.91,5.91C1675.06,434.13,1677.7,436.77,1680.96,436.77z M1732.14,429.88c1.63,0,2.95-1.32,2.95-2.95   c0-1.63-1.32-2.95-2.95-2.95c-1.63,0-2.95,1.32-2.95,2.95C1729.19,428.56,1730.51,429.88,1732.14,429.88z"/>
	
		<radialGradient id="SVGID_132_" cx="330.9723" cy="107.8378" r="27.9225" gradientTransform="matrix(-1 0 0 -1 1935.0522 1067.0367)" gradientUnits="userSpaceOnUse">
		<stop offset="0.0593" style="stop-color:#000E57"/>
		<stop offset="0.8889" style="stop-color:#0279AF"/>
	</radialGradient>
	<path class="st131" d="M1609.07,961.22c0.07,0.81-0.53,1.53-1.35,1.6c-0.81,0.07-1.53-0.53-1.6-1.35c-0.07-0.81,0.53-1.53,1.35-1.6   C1608.29,959.81,1609,960.41,1609.07,961.22z M1618.54,933.25c-1.62,0.14-2.83,1.57-2.69,3.19c0.14,1.62,1.57,2.83,3.19,2.69   c1.62-0.14,2.83-1.57,2.69-3.19C1621.6,934.32,1620.17,933.11,1618.54,933.25z M1627.43,968.06c-3.25,0.28-5.66,3.14-5.38,6.38   c0.28,3.25,3.14,5.66,6.38,5.38c3.25-0.28,5.66-3.14,5.38-6.38C1633.54,970.19,1630.68,967.78,1627.43,968.06z M1577.02,979.26   c-1.63,0.14-2.83,1.57-2.69,3.19c0.14,1.62,1.57,2.83,3.19,2.69c1.62-0.14,2.83-1.57,2.69-3.19   C1580.08,980.33,1578.65,979.12,1577.02,979.26z"/>
	<radialGradient id="SVGID_133_" cx="1711.084" cy="891.0367" r="7.606" gradientUnits="userSpaceOnUse">
		<stop offset="0.0593" style="stop-color:#FF7F9A"/>
		<stop offset="0.5259" style="stop-color:#FF3B9C"/>
		<stop offset="0.9926" style="stop-color:#D10059"/>
	</radialGradient>
	<path class="st132" d="M1713.41,883.43c0,0,0.5,4.45,1.19,5.74c0.69,1.29,4.09,4.19,4.09,4.19s-4.45,0.5-5.74,1.19   c-1.29,0.69-4.19,4.09-4.19,4.09s-0.5-4.45-1.19-5.74c-0.69-1.29-4.09-4.19-4.09-4.19s4.45-0.5,5.74-1.19   C1710.51,886.84,1713.41,883.43,1713.41,883.43z"/>
	<radialGradient id="SVGID_134_" cx="1753.343" cy="816.4349" r="12.679" gradientUnits="userSpaceOnUse">
		<stop offset="0.0593" style="stop-color:#FF7F9A"/>
		<stop offset="0.5259" style="stop-color:#FF3B9C"/>
		<stop offset="0.9926" style="stop-color:#D10059"/>
	</radialGradient>
	<path class="st133" d="M1757.22,803.76c0,0,0.83,7.41,1.98,9.57c1.15,2.16,6.83,6.99,6.83,6.99s-7.41,0.83-9.57,1.98   c-2.16,1.15-6.99,6.83-6.99,6.83s-0.83-7.41-1.98-9.57c-1.15-2.16-6.83-6.99-6.83-6.99s7.41-0.83,9.57-1.98   C1752.39,809.44,1757.22,803.76,1757.22,803.76z"/>
	
		<radialGradient id="SVGID_135_" cx="1931.7656" cy="1071.666" r="346.9328" gradientTransform="matrix(0.9563 0.2924 -0.2924 0.9563 12.7239 -618.9171)" gradientUnits="userSpaceOnUse">
		<stop offset="0.0593" style="stop-color:#000E57"/>
		<stop offset="0.8889" style="stop-color:#0279AF"/>
	</radialGradient>
	<path class="st134" d="M1702.81,839.06c0,0,1.61-1.89,2.33-2.27c0.72-0.38,3.19-0.66,3.19-0.66s-1.89-1.61-2.27-2.33   c-0.38-0.72-0.66-3.19-0.66-3.19s-1.61,1.89-2.33,2.27c-0.72,0.38-3.19,0.66-3.19,0.66s1.89,1.61,2.27,2.33   C1702.53,836.59,1702.81,839.06,1702.81,839.06z"/>
	<radialGradient id="SVGID_136_" cx="1732.3142" cy="687.1119" r="12.6789" gradientUnits="userSpaceOnUse">
		<stop offset="0.0593" style="stop-color:#FF7F9A"/>
		<stop offset="0.5259" style="stop-color:#FF3B9C"/>
		<stop offset="0.9926" style="stop-color:#D10059"/>
	</radialGradient>
	<path class="st135" d="M1736.19,674.43c0,0,0.83,7.41,1.98,9.57c1.15,2.16,6.83,6.99,6.83,6.99s-7.41,0.83-9.57,1.98   c-2.16,1.15-6.99,6.83-6.99,6.83s-0.83-7.41-1.98-9.57c-1.15-2.16-6.83-6.99-6.83-6.99s7.41-0.83,9.57-1.98   S1736.19,674.43,1736.19,674.43z"/>
	
		<radialGradient id="SVGID_137_" cx="1468.4554" cy="843.0878" r="346.9338" gradientTransform="matrix(0.9563 0.2924 -0.2924 0.9563 12.7239 -618.9171)" gradientUnits="userSpaceOnUse">
		<stop offset="0.0593" style="stop-color:#000E57"/>
		<stop offset="0.8889" style="stop-color:#0279AF"/>
	</radialGradient>
	<path class="st136" d="M1308.42,581.82c2.34,0.72,4.82-0.6,5.54-2.95c0.72-2.34-0.6-4.82-2.95-5.54c-2.34-0.72-4.82,0.6-5.54,2.95   C1304.75,578.62,1306.07,581.1,1308.42,581.82z"/>
	
		<radialGradient id="SVGID_138_" cx="1432.9054" cy="940.4755" r="346.9327" gradientTransform="matrix(0.9563 0.2924 -0.2924 0.9563 12.7239 -618.9171)" gradientUnits="userSpaceOnUse">
		<stop offset="0.0593" style="stop-color:#000E57"/>
		<stop offset="0.8889" style="stop-color:#0279AF"/>
	</radialGradient>
	<path class="st137" d="M1248.03,410.97c0,0,1.61-1.89,2.33-2.27c0.72-0.38,3.19-0.66,3.19-0.66s-1.89-1.61-2.27-2.33   c-0.38-0.72-0.66-3.19-0.66-3.19s-1.61,1.89-2.33,2.27c-0.72,0.38-3.19,0.66-3.19,0.66s1.89,1.61,2.27,2.33   C1247.75,408.5,1248.03,410.97,1248.03,410.97z"/>
	
		<radialGradient id="SVGID_139_" cx="1468.4583" cy="843.0897" r="346.9317" gradientTransform="matrix(0.9563 0.2924 -0.2924 0.9563 12.7239 -618.9171)" gradientUnits="userSpaceOnUse">
		<stop offset="0.0593" style="stop-color:#000E57"/>
		<stop offset="0.8889" style="stop-color:#0279AF"/>
	</radialGradient>
	<path class="st138" d="M1402.36,445.08c0,0,1.61-1.89,2.33-2.27c0.72-0.38,3.19-0.66,3.19-0.66s-1.89-1.61-2.27-2.33   c-0.38-0.72-0.66-3.19-0.66-3.19s-1.61,1.89-2.33,2.27c-0.72,0.38-3.19,0.66-3.19,0.66s1.89,1.61,2.27,2.33   C1402.09,442.61,1402.36,445.08,1402.36,445.08z"/>
	
		<radialGradient id="SVGID_140_" cx="1468.4557" cy="843.0857" r="346.9286" gradientTransform="matrix(0.9563 0.2924 -0.2924 0.9563 12.7239 -618.9171)" gradientUnits="userSpaceOnUse">
		<stop offset="0.0593" style="stop-color:#000E57"/>
		<stop offset="0.8889" style="stop-color:#0279AF"/>
	</radialGradient>
	<path class="st139" d="M1326.58,485c0,0,1.61-1.89,2.33-2.27c0.72-0.38,3.19-0.66,3.19-0.66s-1.89-1.61-2.27-2.33   c-0.38-0.72-0.66-3.19-0.66-3.19s-1.61,1.89-2.33,2.27c-0.72,0.38-3.19,0.66-3.19,0.66s1.89,1.61,2.27,2.33   C1326.3,482.53,1326.58,485,1326.58,485z"/>
	
		<radialGradient id="SVGID_141_" cx="560.6475" cy="679.7725" r="27.0067" gradientTransform="matrix(-1 0 0 -1 1935.0522 1067.0367)" gradientUnits="userSpaceOnUse">
		<stop offset="0.0593" style="stop-color:#000E57"/>
		<stop offset="0.8889" style="stop-color:#0279AF"/>
	</radialGradient>
	<path class="st140" d="M1364.77,387.03c0.17-0.8,0.96-1.3,1.75-1.13c0.8,0.17,1.3,0.96,1.13,1.75c-0.17,0.8-0.96,1.3-1.75,1.13   C1365.11,388.62,1364.6,387.83,1364.77,387.03z M1347.53,411.01c1.59,0.34,3.16-0.67,3.51-2.27c0.34-1.59-0.67-3.16-2.27-3.51   c-1.59-0.34-3.16,0.67-3.51,2.27C1344.93,409.1,1345.94,410.67,1347.53,411.01z M1349.21,375.13c3.19,0.69,6.33-1.34,7.01-4.53   c0.69-3.19-1.34-6.33-4.53-7.01c-3.19-0.69-6.33,1.34-7.01,4.53C1343.99,371.3,1346.02,374.44,1349.21,375.13z M1400.69,379.15   c1.59,0.34,3.16-0.67,3.51-2.27c0.34-1.59-0.67-3.16-2.27-3.51c-1.59-0.34-3.16,0.67-3.51,2.27   C1398.08,377.24,1399.1,378.81,1400.69,379.15z"/>
	<radialGradient id="SVGID_142_" cx="1589.536" cy="241.4138" r="9.9211" gradientUnits="userSpaceOnUse">
		<stop offset="0.0593" style="stop-color:#FF7F9A"/>
		<stop offset="0.5259" style="stop-color:#FF3B9C"/>
		<stop offset="0.9926" style="stop-color:#D10059"/>
	</radialGradient>
	<path class="st141" d="M1592.57,231.49c0,0,0.65,5.8,1.55,7.49c0.9,1.69,5.34,5.47,5.34,5.47s-5.8,0.65-7.49,1.55   c-1.69,0.9-5.47,5.34-5.47,5.34s-0.65-5.8-1.55-7.49c-0.9-1.69-5.34-5.47-5.34-5.47s5.8-0.65,7.49-1.55   C1588.79,235.94,1592.57,231.49,1592.57,231.49z"/>
	
		<radialGradient id="SVGID_143_" cx="290.3939" cy="922.9327" r="16.5383" gradientTransform="matrix(-1 0 0 -1 1935.0522 1067.0367)" gradientUnits="userSpaceOnUse">
		<stop offset="0.0593" style="stop-color:#1AB0DA"/>
		<stop offset="1" style="stop-color:#461980"/>
	</radialGradient>
	<path class="st142" d="M1649.72,127.57c0,0,1.08,9.67,2.58,12.48c1.5,2.81,8.9,9.12,8.9,9.12s-9.67,1.08-12.48,2.58   c-2.81,1.5-9.12,8.9-9.12,8.9s-1.08-9.67-2.58-12.48c-1.5-2.81-8.9-9.12-8.9-9.12s9.67-1.08,12.48-2.58   C1643.41,134.97,1649.72,127.57,1649.72,127.57z"/>
	
		<radialGradient id="SVGID_144_" cx="1584.8295" cy="523.8093" r="452.5337" gradientTransform="matrix(0.9563 0.2924 -0.2924 0.9563 12.7239 -618.9171)" gradientUnits="userSpaceOnUse">
		<stop offset="0.0593" style="stop-color:#000E57"/>
		<stop offset="0.8889" style="stop-color:#0279AF"/>
	</radialGradient>
	<path class="st143" d="M1555.04,299.9c3.06,0.93,6.29-0.79,7.23-3.84c0.93-3.06-0.79-6.29-3.84-7.23   c-3.06-0.93-6.29,0.79-7.23,3.84C1550.27,295.73,1551.99,298.97,1555.04,299.9z"/>
	
		<radialGradient id="SVGID_145_" cx="1584.8313" cy="523.8097" r="452.5327" gradientTransform="matrix(0.9563 0.2924 -0.2924 0.9563 12.7239 -618.9171)" gradientUnits="userSpaceOnUse">
		<stop offset="0.0593" style="stop-color:#000E57"/>
		<stop offset="0.8889" style="stop-color:#0279AF"/>
	</radialGradient>
	<path class="st144" d="M1677.59,121.54c0,0,2.1-2.47,3.04-2.97c0.94-0.5,4.16-0.86,4.16-0.86s-2.47-2.1-2.97-3.04   c-0.5-0.94-0.86-4.16-0.86-4.16s-2.1,2.47-3.04,2.97c-0.94,0.5-4.16,0.86-4.16,0.86s2.47,2.1,2.97,3.04   C1677.23,118.32,1677.59,121.54,1677.59,121.54z"/>
	
		<radialGradient id="SVGID_146_" cx="1584.8284" cy="523.8019" r="452.5241" gradientTransform="matrix(0.9563 0.2924 -0.2924 0.9563 12.7239 -618.9171)" gradientUnits="userSpaceOnUse">
		<stop offset="0.0593" style="stop-color:#000E57"/>
		<stop offset="0.8889" style="stop-color:#0279AF"/>
	</radialGradient>
	<path class="st145" d="M1578.74,173.61c0,0,2.1-2.47,3.04-2.97c0.94-0.5,4.16-0.86,4.16-0.86s-2.47-2.1-2.97-3.04   c-0.5-0.94-0.86-4.16-0.86-4.16s-2.1,2.47-3.04,2.97c-0.94,0.5-4.16,0.86-4.16,0.86s2.47,2.1,2.97,3.04   C1578.38,170.39,1578.74,173.61,1578.74,173.61z"/>
	
		<radialGradient id="SVGID_147_" cx="293.9337" cy="1020.9109" r="35.2273" gradientTransform="matrix(-1 0 0 -1 1935.0522 1067.0367)" gradientUnits="userSpaceOnUse">
		<stop offset="0.0593" style="stop-color:#000E57"/>
		<stop offset="0.8889" style="stop-color:#0279AF"/>
	</radialGradient>
	<path class="st146" d="M1628.55,45.82c0.22-1.04,1.25-1.7,2.29-1.48c1.04,0.22,1.7,1.25,1.48,2.29c-0.22,1.04-1.25,1.7-2.29,1.48   C1628.99,47.89,1628.33,46.86,1628.55,45.82z M1606.07,77.1c2.08,0.45,4.13-0.88,4.57-2.96c0.45-2.08-0.88-4.13-2.96-4.57   c-2.08-0.45-4.13,0.88-4.58,2.96C1602.67,74.61,1603.99,76.65,1606.07,77.1z M1608.25,30.3c4.16,0.89,8.26-1.75,9.15-5.91   c0.89-4.16-1.75-8.26-5.91-9.15c-4.16-0.89-8.26,1.75-9.15,5.91C1601.45,25.31,1604.09,29.4,1608.25,30.3z M1675.41,35.55   c2.08,0.45,4.13-0.88,4.57-2.96c0.45-2.08-0.88-4.13-2.96-4.58c-2.08-0.45-4.13,0.88-4.57,2.96   C1672,33.05,1673.33,35.1,1675.41,35.55z"/>
</g>
</svg>