<svg xmlns="http://www.w3.org/2000/svg" xmlns:xlink="http://www.w3.org/1999/xlink" width="259.665" height="259.665" viewBox="0 0 259.665 259.665"><defs><style>.a{fill:#0059ff;}.a,.b,.c,.d,.e,.f,.g{fill-rule:evenodd;}.b,.d{mix-blend-mode:multiply;}.b,.d,.h{isolation:isolate;}.b{fill:url(#a);}.c{fill:#00c5ff;opacity:0.55;}.d{fill:#12908b;}.e,.g{fill:#5cf4ff;}.e{opacity:0.75;}.f{fill:#fff;}.h{mix-blend-mode:screen;fill:url(#c);}</style><linearGradient id="a" x1="0.5" y1="1" x2="0.5" gradientUnits="objectBoundingBox"><stop offset="0" stop-color="#fff"/><stop offset="1" stop-color="#9579a7"/></linearGradient><radialGradient id="c" cx="0.5" cy="0.5" r="0.5" gradientTransform="translate(-1.189 0.129) rotate(50.702)" gradientUnits="objectBoundingBox"><stop offset="0" stop-color="#0036ff"/><stop offset="0.091" stop-color="#002dd5"/><stop offset="0.227" stop-color="#00219d"/><stop offset="0.365" stop-color="#00176d"/><stop offset="0.5" stop-color="#000e46"/><stop offset="0.633" stop-color="#000827"/><stop offset="0.762" stop-color="#000311"/><stop offset="0.886" stop-color="#000004"/><stop offset="1"/></radialGradient></defs><g transform="matrix(0.719, 0.695, -0.695, 0.719, 92.487, -473.823)"><path class="a" d="M390.331,425.133l-40.885-89.925,23.27-25.964,109.783,1.59,14.657,62.219L429.07,434.679Z" transform="translate(12.742 7.518)"/><path class="b" d="M358.307,328.194l11.839,53.775,38.739,9.545,68.086-61.625Z" transform="translate(32.926 50.683)"/><path class="c" d="M373.737,433.573l6.685-27.665,46.743-96.179,14.657,62.219Z" transform="translate(68.075 8.624)"/><path class="d" d="M400.658,373.506l6.685-27.665L366.592,336.1l-4.673,27.861Z" transform="translate(41.154 68.691)"/><path class="b" d="M395,397.272l-22.288-88.027-23.27,25.964,40.885,89.925Z" transform="translate(12.742 7.518)"/><path class="e" d="M349.446,335.208l29.046,36.15,118.664,1.7L482.5,310.835l-109.783-1.59Z" transform="translate(12.742 7.518)"/><path class="f" d="M387.026,329.683l-5.718,15.3H392l10.086-15.3Z" transform="translate(85.321 54.075)"/><path class="g" d="M378.491,353.315l11.839,53.775-40.885-89.925Z" transform="translate(12.742 25.561)"/><circle class="h" cx="92.257" cy="92.257" r="92.257" transform="matrix(0.116, -0.993, 0.993, 0.116, 343.852, 489.209)"/></g></svg>