<svg xmlns="http://www.w3.org/2000/svg" width="466.618" height="330.917" viewBox="0 0 466.618 330.917"><defs><style>.a{fill:#faaf5e;}.b{fill:#fce9c8;}.c{fill:#fff;}.d{fill:#c1272d;}.e{fill:red;}.f{fill:#f78c8b;}</style></defs><g transform="translate(-5.618 67.521) rotate(-11)"><g transform="translate(328.961 16.444)"><path class="a" d="M657.86,639.744s35.523-95.521,2.426-79.585-44.043,71.869-44.043,71.869Z" transform="translate(-613.742 -555.865)"/><path d="M657.925,642.245a2.5,2.5,0,0,0,2.341-1.63c2.5-6.73,24.152-66.178,13.876-80.961a8.561,8.561,0,0,0-7.321-3.789,17.621,17.621,0,0,0-7.557,2.041c-33.835,16.291-44.955,71.307-45.412,73.642a2.5,2.5,0,0,0,2,2.938l41.617,7.716A2.457,2.457,0,0,0,657.925,642.245Zm8.9-81.38a3.578,3.578,0,0,1,3.216,1.642c7.184,10.336-6.858,55.419-13.734,74.394l-36.993-6.859c2.569-10.845,14.43-54.3,42.123-67.631A13.083,13.083,0,0,1,666.821,560.865Z" transform="translate(-613.806 -555.865)"/></g><g transform="translate(339.897 16.904)"><path class="b" d="M658.313,558.826c16.308,6.452-11.38,80.918-11.38,80.918l-30.681-5.689C625.759,589.229,646.678,567.685,658.313,558.826Z" transform="translate(-613.752 -556.326)"/><path d="M646.967,642.245a2.5,2.5,0,0,0,2.341-1.63c.07-.187,7.026-18.968,11.887-38.3,6.932-27.571,6.3-42.556-1.931-45.812a2.5,2.5,0,0,0-2.434.335c-11.9,9.063-33.316,31.079-42.992,76.7a2.5,2.5,0,0,0,1.99,2.976l30.681,5.689A2.457,2.457,0,0,0,646.967,642.245Zm11.522-80.36c2.216,2.248,5.118,10.315-2.135,39.177-3.881,15.446-9.127,30.555-11.017,35.838l-26.058-4.832C628.469,591.417,647.159,570.955,658.489,561.885Z" transform="translate(-613.784 -556.326)"/></g><path class="a" d="M956.479,688.879s-16.882-9.963-16.251-14.665-26.666-4.95-21.035,9.661c0,0-17.454,12.651,13.935,32.616Z" transform="translate(-864.98 -539.421)"/><path d="M933.127,718.991a2.5,2.5,0,0,0,1.911-.885l23.35-27.613a2.5,2.5,0,0,0-.639-3.767c-7.783-4.6-14.811-10.33-15.04-12.271a3.69,3.69,0,0,0-.95-2.921c-2.118-2.422-7.125-2.683-9.179-2.683-5.272,0-11.992,1.583-15.04,6.025a9.713,9.713,0,0,0-1.22,8.221,14.994,14.994,0,0,0-4.459,10.965c.243,8.028,6.947,16.284,19.926,24.539A2.491,2.491,0,0,0,933.127,718.991ZM952.681,689.5l-20.037,23.693c-12.765-8.533-15.661-15.16-15.786-19.282a10.162,10.162,0,0,1,3.8-8.01,2.5,2.5,0,0,0,.866-2.924c-.843-2.185-.8-3.91.137-5.271,1.827-2.662,6.8-3.854,10.917-3.854a12.962,12.962,0,0,1,5.144.819C938.021,679.446,946.263,685.492,952.681,689.5Z" transform="translate(-864.979 -539.421)"/><g transform="translate(34.425 212.892)"><path class="c" d="M908.916,754.812s-36.506,30.255-25.667,43.457,35.375-9.893,52.233-4.664c14.932,4.633,27.5,1.558,32.894-11.7C975.7,763.916,908.916,754.812,908.916,754.812Z" transform="translate(-878.747 -752.313)"/><path d="M892.554,804.905c5.6,0,11.8-2.288,18.357-4.71,6.491-2.4,13.2-4.875,19.037-4.875a15.97,15.97,0,0,1,4.791.673,43.9,43.9,0,0,0,12.909,2.138c11.006,0,18.973-5.284,23.04-15.281a9.455,9.455,0,0,0-.63-8.569c-8.335-14.409-55.462-21.216-60.807-21.946a2.512,2.512,0,0,0-1.934.553c-3.933,3.259-38.073,32.267-26,46.969A13.837,13.837,0,0,0,892.554,804.905Zm37.394-14.585c-6.728,0-13.866,2.636-20.77,5.185-6.129,2.263-11.919,4.4-16.624,4.4a8.83,8.83,0,0,1-7.375-3.222c-7.328-8.924,14.962-31.13,24.49-39.24,14.624,2.1,50.188,9.188,56.061,19.342a4.445,4.445,0,0,1,.327,4.18c-3.285,8.073-9.478,12.166-18.409,12.166a38.96,38.96,0,0,1-11.429-1.913A21.144,21.144,0,0,0,929.948,790.32Z" transform="translate(-878.743 -752.313)"/></g><g transform="translate(291.896 223.913)"><path class="c" d="M674.182,765.835s41.312,12.177,36.953,24.5-9.576,25.832-78.022,7.712" transform="translate(-630.613 -763.335)"/><path d="M684.5,809.329a50.218,50.218,0,0,0,12.275-1.3c11.818-3.014,14.534-10.692,16.717-16.861a8.468,8.468,0,0,0-.587-6.8c-5.676-11.119-34.723-19.954-38.016-20.924a2.5,2.5,0,1,0-1.414,4.8c8.378,2.471,30.993,10.6,34.978,18.4a3.39,3.39,0,0,1,.325,2.862c-3.941,11.141-8.408,23.767-75.025,6.13a2.5,2.5,0,0,0-1.279,4.834C654.876,806.391,672.069,809.328,684.5,809.329Z" transform="translate(-630.617 -763.335)"/></g><path class="a" d="M848.131,684.4s-166.222-61.613-173.256,55.3c0,0,55.94,125.361,279.669,52.006Z" transform="translate(-623.566 -539.421)"/><g transform="translate(51.309 157.191)"><path class="c" d="M941.646,739.688c-.785,1.125-1.533,2.141-2.254,3.076-1.085-1.952-1.581-3.064-1.581-3.064,1.115-18.531,6.233-32.571,14.051-43.088C954.4,700.691,959.547,714.025,941.646,739.688Z" transform="translate(-937.811 -696.612)"/></g><g transform="translate(97.433 248.14)"><path class="c" d="M904.126,804.228l4.294,8.3c-68.181,7.928-113.545-6.75-142.672-24.964h20.045S841.793,816.894,904.126,804.228Z" transform="translate(-765.748 -787.561)"/></g><path d="M827.113,817.234c38.22,0,81.356-7.791,128.21-23.152a2.5,2.5,0,0,0,1-4.137l-106.413-107.3a2.509,2.509,0,0,0-.906-.584c-.442-.163-44.7-16.38-88.209-16.38-54.932,0-85.5,25.544-88.412,73.87a2.514,2.514,0,0,0,.212,1.17c.353.788,8.888,19.523,32.3,38.441C726.389,796.529,765.042,817.234,827.113,817.234Zm122.794-26.653c-44.857,14.368-86.153,21.653-122.794,21.653-60.61,0-98.209-20.1-119.077-36.961-20.344-16.438-29.083-32.931-30.625-36.063,2.982-45.476,31.031-68.53,83.38-68.53,40.1,0,80.954,14.1,85.961,15.885Z" transform="translate(-623.566 -539.421)"/><g transform="translate(202.917 138.332)"><path class="c" d="M731.507,682.845,789.6,747.951l13.334,30.277s-46,5.333-77.334-70.667c-5.515-13.379-9.083-23.006-11.227-29.808C721.815,679.736,727.746,681.6,731.507,682.845Z" transform="translate(-714.375 -677.753)"/></g><path class="a" d="M1003.356,787.938s-38.733,30.956-77.423-14.908c0,0-42.879,23.216-45.5,1.053s35.812-50.843,42.442-39.925c0,0,12.36-20.415,22.7-18.1" transform="translate(-877.811 -539.421)"/><g transform="translate(2.497 196.61)"><path class="c" d="M965.78,774.083c-1.644-13.925,12.914-30.419,25.609-38.052,5.444,5.315,9.564,13.012,11.339,24.049a42.091,42.091,0,0,1-.553,17.268C989.435,782.793,967.624,789.691,965.78,774.083Z" transform="translate(-965.652 -736.031)"/></g><path d="M972.481,800.643a51.289,51.289,0,0,0,7.012-.483,56.142,56.142,0,0,0,25.42-10.268,2.5,2.5,0,0,0-3.118-3.908h0a52.056,52.056,0,0,1-23.2,9.252c-18.286,2.44-35.36-5.571-50.753-23.818a2.5,2.5,0,0,0-3.1-.586c-7.579,4.1-29.182,13.732-38.043,9.135-2.188-1.135-3.424-3.155-3.782-6.177-1.728-14.638,17.661-34.169,30.755-38.678,1.706-.587,5.812-1.73,7.069.343a2.5,2.5,0,0,0,2.136,1.2h0a2.5,2.5,0,0,0,2.137-1.2c2.971-4.9,13.015-18.517,20.012-16.956a2.5,2.5,0,0,0,1.092-4.879c-9.69-2.176-19.755,10.827-23.734,16.693-2.053-1.151-5.291-1.665-10.341.074-14.85,5.114-36.18,26.308-34.092,43.991.55,4.66,2.78,8.128,6.446,10.03,11.4,5.914,34-4.7,40.933-8.239C942.368,795.613,959.415,800.643,972.481,800.643Z" transform="translate(-877.809 -539.421)"/><path class="a" d="M683.306,805.249s47.025,31.4,89.219,14.364-49.583-46.706-49.583-46.706" transform="translate(-461.069 -539.421)"/><g transform="translate(252.502 240.222)"><path class="c" d="M711.036,779.643c24.325,9.764,60.89,27.987,31.223,39.97-20.492,8.276-42.123,5.125-58.953-.3C686.942,804.751,693.84,786.089,711.036,779.643Z" transform="translate(-683.306 -779.643)"/></g><path d="M745.159,827.232a75.094,75.094,0,0,0,28.3-5.3c8.584-3.467,12.84-7.925,12.65-13.251-.283-7.952-10.754-16.549-32.012-26.28a320.619,320.619,0,0,0-30.388-11.873,2.5,2.5,0,0,0-1.538,4.758c22.586,7.3,58.561,22.876,58.942,33.574.133,3.738-5.107,6.651-9.526,8.435-40.5,16.358-86.436-13.817-86.895-14.124a2.5,2.5,0,0,0-2.777,4.158C683.451,808.353,712.205,827.232,745.159,827.232Z" transform="translate(-461.07 -539.421)"/><path class="a" d="M679.03,616.013s135.748,8.48,86.087,108.4c0,0,5.986,44.088-11.164,42.868s-58.7,18.093-114.532-37.554-33.948-49.4-33.948-49.4S606.132,623,679.03,616.013Z" transform="translate(-371.435 -539.421)"/><g transform="translate(282.458 87.328)"><path class="c" d="M602.708,741.505c-16.473-26.134,111.722-51.3,111.722-51.3,2.163-38.688-26.83-44.311-38.163-54.311-4.868-4.295-4.066-7.212-1.573-9.145,33.191,12.663,66.5,39.866,37.777,97.666,0,0,5.986,44.088-11.164,42.868-5.6-.4-36.374,10.624-83.232-13.954C600.759,740.177,605.685,746.228,602.708,741.505Z" transform="translate(-601.246 -626.749)"/></g><path d="M722.624,772.064a159.72,159.72,0,0,0,19.639-1.456c4.7-.566,8.6-1.044,11.61-.831a10.343,10.343,0,0,0,8.941-3.712c8.4-9.622,5.674-35.644,4.977-41.221,13.064-26.627,14.332-49.4,3.766-67.705-22.416-38.826-89.432-43.443-92.274-43.621a2.605,2.605,0,0,0-.4.007c-38.685,3.709-57.249,21.6-66.01,35.963a68.375,68.375,0,0,0-9.636,28.165,4.63,4.63,0,0,0-4.018,2.8c-1.108,2.681-3.7,8.96,38.529,51.049C665.141,758.795,692.9,772.064,722.624,772.064Zm29.7-7.338a94.761,94.761,0,0,0-10.658.917,153.146,153.146,0,0,1-19.042,1.421c-28.331,0-54.938-12.791-81.342-39.106-35.045-34.929-37.43-43.655-37.453-45.338.043,0,.093-.005.148-.005a4.1,4.1,0,0,1,.924.119,2.513,2.513,0,0,0,3.169-2.38,62.169,62.169,0,0,1,9.2-28.467c11.878-19.3,32.7-30.524,61.889-33.365,3.965.294,67.564,5.586,88.072,41.127,9.761,16.915,8.329,38.331-4.257,63.654a2.5,2.5,0,0,0-.238,1.448c1.1,8.141,2.587,30.84-3.69,38.025a5.422,5.422,0,0,1-4.819,2.013C753.636,764.747,753,764.726,752.324,764.726Z" transform="translate(-371.532 -539.421)"/><g transform="translate(349.436 175.462)"><path d="M656.417,748.951s-17.122,38.268-51.142,5.035c0,0-16.207-24.448-5.282-39.1Z" transform="translate(-596.209 -714.883)"/></g><g transform="translate(277.729)"><path class="a" d="M719.019,629.653s20.637-97.325-11.052-86.97-53.438,83.725-53.438,83.725" transform="translate(-652.028 -539.421)"/><path d="M718.978,632.153a2.5,2.5,0,0,0,2.443-1.982c1.58-7.452,14.971-73.229-1.2-87.759-2.374-2.134-6.57-4.229-13.072-2.1-32.562,10.64-54.156,82.343-55.06,85.39a2.5,2.5,0,0,0,4.794,1.422c.214-.721,21.741-72.23,51.819-82.059,3.447-1.127,6.121-.776,8.177,1.071,11.884,10.676,3.778,63.536-.348,83a2.5,2.5,0,0,0,1.928,2.965A2.575,2.575,0,0,0,718.978,632.153Z" transform="translate(-651.983 -539.421)"/></g><g transform="translate(301.373 0.03)"><path class="b" d="M696.2,627.35s-23.168-19.3-36.318-7.545,2.828-43.337,19.574-74.671a30.088,30.088,0,0,1,5.467-2.451C711.684,533.94,700.136,605.962,696.2,627.35Z" transform="translate(-652.632 -539.452)"/><path d="M696.082,629.85a2.5,2.5,0,0,0,2.459-2.048c4.69-25.511,10.858-70.349-.524-84.014-3.439-4.129-8.254-5.355-13.988-3.481a32.653,32.653,0,0,0-5.923,2.652,2.509,2.509,0,0,0-.973,1c-12.495,23.38-28.62,69.82-23.725,77.982a3.913,3.913,0,0,0,3.4,1.985h0c1.434,0,2.9-.717,4.623-2.254a12.547,12.547,0,0,1,8.758-3.161c11.214,0,24.165,10.656,24.294,10.764A2.5,2.5,0,0,0,696.082,629.85ZM689,544.451a6.363,6.363,0,0,1,5.176,2.537c7.017,8.424,7.051,36.665.165,75.924-4.994-3.505-14.789-9.4-24.151-9.4a17.573,17.573,0,0,0-12.091,4.433c-.242.216-.45.386-.628.52-.307-2.593.337-10.346,5.72-27.426A281.039,281.039,0,0,1,681.2,546.963a26.991,26.991,0,0,1,4.385-1.9A11.125,11.125,0,0,1,689,544.451Z" transform="translate(-652.509 -539.452)"/></g><g transform="translate(43.016 44.474)"><path class="d" d="M868.4,599.277s15.585-2.232,18.775,15.518,11.461,20.877,44.1,18.455,28.912,7.41,28.912,7.41l-22.174-21.846-20.554-25.7L888.389,586.4Z" transform="translate(-865.88 -583.896)"/><path d="M960.205,643.16a2.472,2.472,0,0,0,.533-.058,2.5,2.5,0,0,0,1.8-1.554,5.786,5.786,0,0,0-.394-4.571c-1.14-2.239-3.567-3.927-7.217-5.023l-15.039-14.818L919.43,591.552a2.5,2.5,0,0,0-1.39-.874l-29.072-6.718a2.5,2.5,0,0,0-1.917.335l-19.8,12.76a2.5,2.5,0,0,0,1.135,4.721,2.673,2.673,0,0,0,.388-.025h0a11.2,11.2,0,0,1,1.306-.065c4.563,0,12.534,1.761,14.654,13.552,2.887,16.071,10.307,21.229,30.533,21.23,4.4,0,9.553-.231,16.215-.725,9.1-.675,16.2-.436,20.878.693l6.094,6.005A2.505,2.505,0,0,0,960.205,643.16Zm-19.432-12.794c-2.918,0-6.17.132-9.665.391-6.536.485-11.571.711-15.845.711-19.132,0-23.343-4.485-25.612-17.114-2.017-11.227-8.648-15.363-13.863-16.854l13.083-8.43,27.2,6.284,20.011,25.021a2.416,2.416,0,0,0,.2.219l10.106,9.957Q943.778,630.366,940.773,630.366Z" transform="translate(-865.896 -583.896)"/></g><g transform="translate(1.133 23.614)"><path class="e" d="M1002.155,668.8s-12.907,7.469-41.881-29.121-45.71-47.263-61.791-47.09c0,0-8.29,2.216-11.981-1.8,0,0-52.542-50.3-91.266-8.937C768.94,611.509,781.107,643,781.107,643s9.594-32.053,47.031-42.6,50.952,25.628,87.474,50.594,61.83,36.4,86.005,35.915Z" transform="translate(-775.73 -563.035)"/><path d="M1000.192,689.421c.515,0,1.027-.005,1.541-.016a2.5,2.5,0,0,0,2.448-2.425l.538-18.1a2.512,2.512,0,0,0-1.22-2.317,2.36,2.36,0,0,0-2.526.075h0a6.124,6.124,0,0,1-2.084.3c-4.145,0-16.006-2.806-36.59-28.8-27.375-34.571-45.143-48.04-63.369-48.04l-.41,0a2.479,2.479,0,0,0-.618.085,19.336,19.336,0,0,1-4.342.525c-1.679,0-3.937-.277-5.153-1.6-.035-.039-.073-.076-.111-.114-1.107-1.059-27.453-25.952-57.269-25.952-14.286,0-26.921,5.758-37.552,17.114C766.434,610.64,778.32,642.558,778.84,643.9a2.5,2.5,0,0,0,4.726-.184c.093-.3,9.725-30.884,45.315-40.914a44.056,44.056,0,0,1,12.054-1.786c16.824,0,28.393,11.4,43.041,25.832,8.544,8.419,18.229,17.961,30.29,26.206C952.051,678.885,976.945,689.421,1000.192,689.421Zm-.566-17.511-.371,12.505c-21.893-.287-45.809-10.633-82.166-35.488-11.694-7.993-21.208-17.368-29.6-25.639-14.851-14.634-27.678-27.271-46.55-27.271a49.641,49.641,0,0,0-13.41,1.974c-27.731,7.815-40.642,26.8-45.814,37.216-1.911-10.51-2.531-31.4,15.46-51.691,9.6-10.256,21.009-15.481,33.856-15.481,27.221,0,52.51,23.344,53.766,24.521,1.962,2.087,4.911,3.144,8.767,3.144a24.5,24.5,0,0,0,5.294-.612h.076c13.75,0,29.123,7.847,59.449,46.144,20.091,25.372,33.118,30.7,40.51,30.7C999.145,671.929,999.391,671.922,999.626,671.91Z" transform="translate(-775.796 -563.035)"/></g><g transform="translate(110.297 49.661)"><path d="M893.053,665.256a2.5,2.5,0,0,0,1.358-4.6c-28.166-18.17-76.058-70.239-76.538-70.763a2.5,2.5,0,0,0-3.686,3.38c1.98,2.158,48.807,53.066,77.513,71.584A2.482,2.482,0,0,0,893.053,665.256Z" transform="translate(-813.53 -589.082)"/></g><g transform="translate(206.2 125.228)"><path class="e" d="M679.135,667.571s-9.948-2.823-12.773,6.131l-14.729.457s34.051,91.409,105.678,120.1c0,0,25.458,6.777,39.842-24.744,0,0-47.22-5.267-76.734-32.96S677.2,683.677,677.2,683.677Z" transform="translate(-649.133 -664.649)"/><path d="M763.225,797.366c8.951,0,25.555-3.484,36.2-26.817a2.5,2.5,0,0,0-2-3.523c-.464-.051-46.756-5.515-75.3-32.3-26.225-24.607-39.945-47.39-42.352-51.566l1.84-15.292a2.5,2.5,0,0,0-1.8-2.7,16.415,16.415,0,0,0-4.158-.516c-5.194,0-9.049,2.328-11.028,6.606l-13.075.4a2.5,2.5,0,0,0-2.266,3.372,277.907,277.907,0,0,0,26.236,49.8c16.133,24.419,43.256,56.689,80.856,71.747a2.578,2.578,0,0,0,.286.1A27.776,27.776,0,0,0,763.225,797.366Zm30.167-25.851c-9.452,18.054-22.812,20.851-30.167,20.851a24.341,24.341,0,0,1-5.151-.5c-62.092-24.973-95.915-98.877-102.785-115.318l11.151-.347a2.5,2.5,0,0,0,2.306-1.746c1.02-3.234,3.282-4.8,6.913-4.8q.369,0,.706.021l-1.65,13.709a2.5,2.5,0,0,0,.286,1.494c.568,1.042,14.238,25.85,43.707,53.5C744.159,762.254,781.772,769.714,793.392,771.515Z" transform="translate(-649.133 -664.649)"/></g><g transform="translate(220.887 131.793)"><path d="M782.468,691.4a2.5,2.5,0,0,0,2.209-3.667c-4.413-8.369-3.864-13.662-3.858-13.715a2.5,2.5,0,0,0-4.958-.647c-.037.272-.841,6.767,4.393,16.694A2.5,2.5,0,0,0,782.468,691.4Z" transform="translate(-775.796 -671.214)"/></g><g transform="translate(368.596 126.267)"><path d="M623.473,677.035c-.906,6.751,1.4,12.632,5.153,13.136s7.528-4.561,8.434-11.312-1.4-12.633-5.152-13.136S624.38,670.284,623.473,677.035Z" transform="translate(-623.276 -665.688)"/></g><g transform="translate(300.79 178.603)"><path class="f" d="M696.431,721.976s-64.073-12.19-55.263,34.035,43.645-29.1,61.4-28.342Z" transform="translate(-637.838 -718.024)"/><path d="M651.134,773.526c8.311,0,17.86-11.114,27.969-22.88,8.249-9.6,17.6-20.483,23.191-20.483l.163,0a2.5,2.5,0,0,0,1.807-4.331l-6.134-5.692a2.5,2.5,0,0,0-1.233-.623,104.493,104.493,0,0,0-17.749-1.5c-11.6,0-27.179,2.111-35.5,12.172-5.362,6.481-7.022,15.324-4.934,26.283.8,4.215,3.249,17.046,12.423,17.047Zm46.331-47.178c-6.744,3.1-14.275,11.868-22.154,21.04-8.513,9.908-18.162,21.138-24.176,21.138h0c-4.164,0-6.383-7.061-7.512-12.983-1.8-9.426-.493-16.881,3.875-22.159,7.085-8.564,21.123-10.36,31.651-10.36a103.968,103.968,0,0,1,16.124,1.289Z" transform="translate(-637.836 -718.024)"/></g><g transform="translate(320.825 183.803)"><path d="M645.756,745.2a2.5,2.5,0,0,0,2.269-1.447c7.211-15.517,34.232-15.547,34.487-15.532h.015a2.5,2.5,0,0,0,.02-5c-1.227,0-30.489-.01-39.056,18.425a2.5,2.5,0,0,0,2.265,3.554Z" transform="translate(-643.257 -723.224)"/></g><g transform="translate(346.895 146.775)"><path class="c" d="M613.884,688.7s21.054,16.471,39.735,18.378c0,0,13.552,32.058-18.564,45.6s-65.383-36.91-65.383-36.91" transform="translate(-567.172 -686.196)"/><path d="M623.566,757.515a31.744,31.744,0,0,0,12.46-2.535c17.768-7.494,22.232-20.462,22.85-30.023a45.548,45.548,0,0,0-2.954-18.857,2.5,2.5,0,0,0-2.049-1.514c-17.758-1.811-38.245-17.7-38.449-17.859a2.5,2.5,0,1,0-3.081,3.938c.859.672,20.73,16.075,39.471,18.707,2.064,5.969,8.441,29.963-17.73,41-29.83,12.579-62-35.495-62.326-35.982a2.5,2.5,0,1,0-4.173,2.753C568.815,719.009,594.585,757.511,623.566,757.515Z" transform="translate(-567.171 -686.196)"/></g><g transform="translate(422.439 164.49)"><path d="M562.339,711.32c-.645,4.807,5.535,16.335,11.337,17.114s9.028-9.487,9.673-14.294-3.535-9.336-9.337-10.114S562.984,706.513,562.339,711.32Z" transform="translate(-562.292 -703.911)"/></g><g transform="translate(323.978 239.639)"><path d="M677.416,788.905c1.078,0,1.849-.046,2.14-.068a2.5,2.5,0,1,0-.362-4.986c-2.78.19-11.22-.055-13.545-3.649a2.5,2.5,0,0,0-4.2,2.717C664.887,788.231,673.341,788.905,677.416,788.905Z" transform="translate(-661.049 -779.06)"/></g></g></svg>