<svg xmlns="http://www.w3.org/2000/svg" width="174.547" height="117.524" viewBox="0 0 174.547 117.524"><defs><style>.a{fill:#ffb900;}</style></defs><g transform="translate(0 -75.473)"><g transform="translate(72.587 163.758)"><g transform="translate(0 0)"><path class="a" d="M209.41,310.344v-.68c-3.475-.038-6.8-.227-10.011-.491a45.616,45.616,0,0,1-7.253,12.429,118.01,118.01,0,0,0,17.491,1.549Z" transform="translate(-192.146 -309.173)"/></g></g><g transform="translate(0 109.888)"><g transform="translate(0)"><path class="a" d="M74.551,196.606a37.927,37.927,0,0,0-25.764-28.37,38.476,38.476,0,0,0-11.144-1.662A37.641,37.641,0,1,0,62.991,232.04,37.431,37.431,0,0,0,75.307,204.2,39.508,39.508,0,0,0,74.551,196.606Zm-36.908,2.531A14.258,14.258,0,0,1,41.5,227.129v3.324a3.778,3.778,0,0,1-7.555,0v-3.287a14.35,14.35,0,0,1-10.578-13.789,3.778,3.778,0,0,1,7.555,0,6.705,6.705,0,1,0,6.687-6.724,14.252,14.252,0,0,1-3.627-28.031V177a3.778,3.778,0,1,1,7.555,0v1.7A14.28,14.28,0,0,1,51.923,192.45a3.778,3.778,0,0,1-7.555,0,6.724,6.724,0,1,0-6.724,6.687Z" transform="translate(0 -166.573)"/></g></g><g transform="translate(81.993 143.018)"><g transform="translate(0 0)"><path class="a" d="M224.79,267.91l-.227-13.373c-2.342-.038-4.647-.113-6.838-.264.113,1.511.189,2.984.189,4.458a46.438,46.438,0,0,1-.869,8.84C219.539,267.8,222.146,267.91,224.79,267.91Z" transform="translate(-217.046 -254.273)"/></g></g><g transform="translate(53.509 94.135)"><g transform="translate(0 0)"><path class="a" d="M219.24,124.873a45.308,45.308,0,0,1-8.2,3.287c-8.5,2.569-19.644,3.967-31.279,3.967-11.144,0-21.76-1.284-29.957-3.664a41.857,41.857,0,0,1-8.16-3.136l.264,10.653a43.585,43.585,0,0,1,11.824,6.687c.113.038.189.038.3.076a108.08,108.08,0,0,0,25.726,2.833c10.8,0,21.42-1.36,29.088-3.664,8.2-2.493,10.011-5.1,10.011-5.591a2.17,2.17,0,0,1,.378-1.549Z" transform="translate(-141.646 -124.873)"/></g></g><g transform="translate(53.132 75.473)"><path class="a" d="M208.191,79.137c-7.669-2.342-18.284-3.664-29.088-3.664-10.88,0-21.08,1.322-28.71,3.664-7.971,2.418-9.709,4.8-9.746,5.553,0,0,.038,0,.038.076.189.831,2.455,3.4,10.578,5.742,7.518,2.191,17.415,3.4,27.842,3.4,10.8,0,21.382-1.322,29.05-3.627,8.2-2.455,10.049-5.062,10.049-5.591C218.2,84.2,216.389,81.631,208.191,79.137Z" transform="translate(-140.646 -75.473)"/></g><g transform="translate(97.557 172.333)"><path class="a" d="M335.16,343.206V331.873a48.423,48.423,0,0,1-7.933,3.211c-8.462,2.569-19.531,3.967-31.2,3.967a116.259,116.259,0,0,1-28.371-3.249,49.224,49.224,0,0,1-9.406-3.438l.189,10.955v.076c0,.567,1.662,3.1,9.633,5.553,7.555,2.3,17.755,3.589,28.673,3.589,10.88,0,21.117-1.322,28.748-3.7,7.971-2.493,9.709-5.1,9.709-5.629Z" transform="translate(-258.246 -331.873)"/></g><g transform="translate(74.438 115.214)"><path class="a" d="M253.636,180.673a47.711,47.711,0,0,1-8.16,3.249c-8.5,2.569-19.644,3.967-31.317,3.967a136.06,136.06,0,0,1-17.113-1.1,44.785,44.785,0,0,1,6.762,14.053c3.249.227,6.762.378,10.389.378h.378c6.2-6.8,22.855-10.2,39.061-10.653v-9.9Z" transform="translate(-197.046 -180.673)"/></g><g transform="translate(97.217 151.443)"><path class="a" d="M326.4,279.784c-8.424,2.493-19.38,3.853-30.864,3.853-11.144,0-21.76-1.284-29.957-3.664a46.352,46.352,0,0,1-8.235-3.173l.151,8.689.038,3.173c2.947,3.664,17.037,8.387,37.966,8.387,10.918,0,21.231-1.284,28.975-3.627,8.16-2.493,9.935-5.062,9.935-5.591,0-.416.227-.869.227-1.247h.038V276.573A43.135,43.135,0,0,1,326.4,279.784Z" transform="translate(-257.346 -276.573)"/></g><g transform="translate(96.953 132.743)"><g transform="translate(0 0)"><path class="a" d="M324.191,230.662c-7.706-2.342-18.284-3.589-29.088-3.589h-.642c-10.049,0-19.606,1.133-26.935,3.211-7.82,2.191-10.5,4.684-10.842,5.7a.286.286,0,0,0-.038.151l.076.151c.227.793,2.456,3.362,10.578,5.742,7.518,2.153,17.415,3.362,27.842,3.362,10.766,0,20.966-1.247,28.711-3.551,8.386-2.493,10.275-5.1,10.313-5.667v-.038C334.127,235.573,332.238,233.08,324.191,230.662Z" transform="translate(-256.646 -227.073)"/></g></g></g></svg>