<svg xmlns="http://www.w3.org/2000/svg" xmlns:xlink="http://www.w3.org/1999/xlink" width="681.5" height="629.176" viewBox="0 0 681.5 629.176"><defs><style>.a{fill:url(#a);}.b{fill:url(#b);}.bg,.bh,.c,.e,.f,.g,.h{mix-blend-mode:screen;}.aa,.ab,.ac,.ad,.ae,.af,.ag,.ah,.ai,.aj,.ak,.al,.am,.an,.ao,.ap,.aq,.ar,.as,.at,.au,.av,.aw,.ax,.ay,.az,.ba,.bb,.bc,.bd,.be,.bf,.bg,.bh,.bk,.bw,.by,.bz,.c,.co,.cq,.e,.f,.g,.h,.i,.j,.k,.l,.m,.n,.o,.p,.q,.r,.s,.t,.u,.v,.w,.x,.y,.z{isolation:isolate;}.c{fill:url(#c);}.d{opacity:0.7;}.e{fill:url(#d);}.f{fill:url(#e);}.g{fill:url(#f);}.h{fill:url(#g);}.aa,.ab,.ac,.ad,.ae,.af,.ag,.ah,.ai,.aj,.ak,.al,.am,.an,.ao,.ap,.aq,.ar,.as,.at,.au,.av,.aw,.ax,.ay,.az,.ba,.bb,.bc,.bd,.be,.bf,.bg,.bk,.bu,.co,.i,.j,.k,.l,.m,.n,.o,.p,.q,.r,.s,.t,.u,.v,.w,.x,.y,.z{opacity:0.5;}.aa,.ab,.ac,.ad,.ae,.af,.ag,.ah,.ai,.aj,.ak,.al,.am,.an,.ao,.ap,.aq,.ar,.as,.at,.au,.av,.aw,.ax,.ay,.az,.ba,.bb,.bc,.bd,.be,.bf,.bk,.bw,.by,.bz,.cq,.i,.j,.k,.l,.m,.n,.o,.p,.q,.r,.s,.t,.u,.v,.w,.x,.y,.z{mix-blend-mode:multiply;}.i{fill:url(#h);}.j{fill:url(#i);}.k{fill:url(#j);}.l{fill:url(#k);}.m{fill:url(#l);}.n{fill:url(#m);}.o{fill:url(#n);}.p{fill:url(#o);}.q{fill:url(#p);}.r{fill:url(#q);}.s{fill:url(#r);}.t{fill:url(#s);}.u{fill:url(#t);}.v{fill:url(#u);}.w{fill:url(#v);}.x{fill:url(#w);}.y{fill:url(#x);}.z{fill:url(#y);}.aa{fill:url(#z);}.ab{fill:url(#aa);}.ac{fill:url(#ab);}.ad{fill:url(#ac);}.ae{fill:url(#ad);}.af{fill:url(#ae);}.ag{fill:url(#af);}.ah{fill:url(#ag);}.ai{fill:url(#ah);}.aj{fill:url(#ai);}.ak{fill:url(#aj);}.al{fill:url(#ak);}.am{fill:url(#al);}.an{fill:url(#am);}.ao{fill:url(#an);}.ap{fill:url(#ao);}.aq{fill:url(#ap);}.ar{fill:url(#aq);}.as{fill:url(#ar);}.at{fill:url(#as);}.au{fill:url(#at);}.av{fill:url(#au);}.aw{fill:url(#av);}.ax{fill:url(#aw);}.ay{fill:url(#ax);}.az{fill:url(#ay);}.ba{fill:url(#az);}.bb{fill:url(#ba);}.bc{fill:url(#bb);}.bd{fill:url(#bc);}.be{fill:url(#bd);}.bf{fill:url(#be);}.bg{fill:url(#bf);}.bh{opacity:0.35;}.bi{fill:url(#bg);}.bj{fill:url(#bh);}.bk{fill:url(#bi);}.bl{fill:#fa9b27;}.bm{fill:#f8fafa;}.bn{fill:#000072;}.bo{opacity:0.3;}.bp,.co,.cr{fill:#fff;}.bq{opacity:0.6;}.br{fill:#f4de3d;}.bs{fill:#ff699f;}.bt{fill:#f70673;}.bv{fill:#006ea5;}.bw{fill:#e0d181;}.bx{fill:#ffa61d;}.by{fill:#80c0dd;}.bz{fill:#f1eff2;}.ca{fill:#321255;}.ca,.cb,.cc,.cd,.ce,.cf,.cg,.ch,.ci,.cj,.ck,.cl,.co,.cq,.cr{fill-rule:evenodd;}.cb,.cn{fill:#5a4d9c;}.cc{fill:#4f2f5b;}.cd{fill:url(#bj);}.ce{fill:#766bd5;}.cf{fill:url(#bk);}.cg{fill:url(#bl);}.ch{fill:url(#bm);}.ci{fill:url(#bn);}.cj{fill:url(#bo);}.ck{fill:#ff4c4f;}.cl,.cm{fill:#bebdff;}.co{mix-blend-mode:soft-light;}.cp{fill:#53345f;}.cq{fill:url(#bq);}</style><radialGradient id="a" cx="0.495" cy="0.498" r="0.506" gradientUnits="objectBoundingBox"><stop offset="0" stop-color="#f20074"/><stop offset="0.377" stop-color="#f10074" stop-opacity="0.992"/><stop offset="0.512" stop-color="#ed0276" stop-opacity="0.965"/><stop offset="0.609" stop-color="#e70578" stop-opacity="0.914"/><stop offset="0.687" stop-color="#de0a7c" stop-opacity="0.847"/><stop offset="0.754" stop-color="#d31181" stop-opacity="0.753"/><stop offset="0.813" stop-color="#c41988" stop-opacity="0.643"/><stop offset="0.867" stop-color="#b4228f" stop-opacity="0.51"/><stop offset="0.917" stop-color="#a02d98" stop-opacity="0.353"/><stop offset="0.96" stop-color="#8a39a1" stop-opacity="0.18"/><stop offset="1" stop-color="#7446ac" stop-opacity="0"/></radialGradient><radialGradient id="b" cx="0.548" cy="0.062" r="0.984" gradientTransform="translate(0)" gradientUnits="objectBoundingBox"><stop offset="0" stop-color="#f20074"/><stop offset="0.141" stop-color="#ed0276"/><stop offset="0.307" stop-color="#de0a7c"/><stop offset="0.486" stop-color="#c61787"/><stop offset="0.674" stop-color="#a52a95"/><stop offset="0.868" stop-color="#7b41a8"/><stop offset="0.898" stop-color="#7446ac"/></radialGradient><radialGradient id="c" cx="0.187" cy="-1.26" r="2.81" gradientTransform="matrix(0.591, 0.261, -0.14, 0.847, -0.367, 0.16)" gradientUnits="objectBoundingBox"><stop offset="0.052" stop-color="#e0a326"/><stop offset="0.414" stop-color="#dfa227" stop-opacity="0.992"/><stop offset="0.545" stop-color="#df9e2b" stop-opacity="0.961"/><stop offset="0.638" stop-color="#de9832" stop-opacity="0.91"/><stop offset="0.714" stop-color="#dc8f3d" stop-opacity="0.831"/><stop offset="0.778" stop-color="#da834b" stop-opacity="0.733"/><stop offset="0.835" stop-color="#d8755c" stop-opacity="0.612"/><stop offset="0.887" stop-color="#d56471" stop-opacity="0.467"/><stop offset="0.934" stop-color="#d25089" stop-opacity="0.302"/><stop offset="0.977" stop-color="#ce3aa3" stop-opacity="0.118"/><stop offset="1" stop-color="#cc2db4" stop-opacity="0"/></radialGradient><radialGradient id="d" cx="2.943" cy="-0.16" r="1.306" gradientTransform="translate(-1.122) scale(3.244 1)" xlink:href="#c"/><radialGradient id="e" cx="0.593" cy="0.199" r="3.375" gradientTransform="translate(0.311) scale(0.379 1)" xlink:href="#c"/><radialGradient id="f" cx="-2.345" cy="-0.321" r="4.661" gradientTransform="translate(-0.248) scale(1.496 1)" xlink:href="#c"/><radialGradient id="g" cx="-7.733" cy="-1.681" r="6.439" gradientTransform="translate(-0.682) scale(2.364 1)" xlink:href="#c"/><radialGradient id="h" cx="0.548" cy="0.062" r="1.016" gradientTransform="translate(0.068) scale(0.864 1)" xlink:href="#b"/><radialGradient id="i" cx="0.548" cy="0.062" r="1.155" gradientTransform="translate(0.211) scale(0.578 1)" xlink:href="#b"/><radialGradient id="j" cx="0.214" cy="-0.465" r="1.964" gradientTransform="translate(0.262) scale(0.475 1)" xlink:href="#b"/><radialGradient id="k" cx="0.182" cy="-1.269" r="3.041" gradientTransform="translate(0.336) scale(0.329 1)" xlink:href="#b"/><radialGradient id="l" cx="0.786" cy="1.465" r="1.964" gradientTransform="matrix(-0.475, 0, 0, -1, -24.637, -59.451)" xlink:href="#b"/><radialGradient id="m" cx="2.257" cy="0.298" r="1.014" gradientTransform="matrix(-0.534, 0.981, -2.687, -0.195, -117.94, 31.429)" xlink:href="#b"/><radialGradient id="n" cx="0.786" cy="1.465" r="1.964" gradientTransform="matrix(-0.475, 0, 0, -1, -36.336, -6.363)" xlink:href="#b"/><radialGradient id="o" cx="0.855" cy="2.178" r="2.993" gradientTransform="matrix(-0.335, 0.062, -0.021, -0.998, -35.488, -8.03)" xlink:href="#b"/><radialGradient id="p" cx="-0.465" cy="0.786" r="0.933" gradientTransform="matrix(0, -1, 2.105, 0, -29.783, -16.667)" xlink:href="#b"/><radialGradient id="q" cx="0.214" cy="-0.465" r="1.522" gradientTransform="translate(0.056) scale(0.888 1)" xlink:href="#b"/><radialGradient id="r" cx="1.465" cy="0.214" r="0.933" gradientTransform="matrix(0, 1, -2.104, 0, 5.512, 1.166)" xlink:href="#b"/><radialGradient id="s" cx="1.018" cy="1.362" r="1.652" gradientTransform="matrix(-0.702, 0.347, -0.26, -0.938, -57.149, -2.668)" xlink:href="#b"/><radialGradient id="t" cx="0.786" cy="1.465" r="1.111" gradientTransform="matrix(-0.84, 0, 0, -1.768, -42.47, -6.982)" xlink:href="#b"/><radialGradient id="u" cx="-0.43" cy="0.523" r="1.479" gradientTransform="matrix(0.276, -0.956, 0.898, 0.294, -18.811, -0.445)" xlink:href="#b"/><radialGradient id="v" cx="0.214" cy="-0.465" r="1.964" gradientTransform="matrix(0.475, 0, 0, 1, -0.993, 0)" xlink:href="#b"/><radialGradient id="w" cx="-0.604" cy="0.395" r="1.213" gradientTransform="matrix(0.818, -0.807, 1.117, 0.591, -24.886, 5.675)" xlink:href="#b"/><radialGradient id="x" cx="-0.465" cy="0.786" r="0.933" gradientTransform="matrix(0, -1, 2.104, 0, -56.867, -20.079)" xlink:href="#b"/><radialGradient id="y" cx="-0.112" cy="1.173" r="1.181" gradientTransform="matrix(-0.774, -0.862, 1.314, -0.508, -71.702, -2.794)" xlink:href="#b"/><radialGradient id="z" cx="0.479" cy="-0.335" r="1.442" gradientTransform="matrix(0.624, 0.499, -0.359, 0.867, -8.55, -0.174)" xlink:href="#b"/><radialGradient id="aa" cx="0.516" cy="-0.762" r="1.904" gradientTransform="matrix(0.517, 0.499, -0.298, 0.867, -9.992, -0.802)" xlink:href="#b"/><radialGradient id="ab" cx="0.898" cy="1.22" r="1.791" gradientTransform="matrix(-0.518, 0.243, -0.13, -0.97, -70.069, -14.653)" xlink:href="#b"/><radialGradient id="ac" cx="0.968" cy="1.75" r="2.568" gradientTransform="matrix(-0.392, 0.243, -0.098, -0.97, -70.052, -24.819)" xlink:href="#b"/><radialGradient id="ad" cx="-0.465" cy="0.786" r="0.933" gradientTransform="matrix(0, -1, 2.104, 0, -100.939, -23.009)" xlink:href="#b"/><radialGradient id="ae" cx="-1.2" cy="0.848" r="1.003" gradientTransform="matrix(-0.148, -0.999, 2.996, -0.049, -165.966, -45.839)" xlink:href="#b"/><radialGradient id="af" cx="0.678" cy="1.492" r="1.81" gradientTransform="matrix(-0.512, -0.227, 0.12, -0.974, -79.313, 11.276)" xlink:href="#b"/><radialGradient id="ag" cx="0.681" cy="2.219" r="2.691" gradientTransform="matrix(-0.369, -0.227, 0.086, -0.974, -77.075, 21.627)" xlink:href="#b"/><radialGradient id="ah" cx="1.465" cy="0.214" r="0.933" gradientTransform="matrix(0, 1, -2.104, 0, -108.63, 13.887)" xlink:href="#b"/><radialGradient id="ai" cx="1.455" cy="-0.047" r="1.083" gradientTransform="matrix(0.732, 0.934, -1.917, 0.357, -81.562, 23.965)" xlink:href="#b"/><radialGradient id="aj" cx="1.229" cy="0.587" r="1.127" gradientTransform="matrix(-0.718, 0.771, -0.868, -0.637, -139.736, -0.337)" xlink:href="#b"/><radialGradient id="ak" cx="1.528" cy="0.659" r="1.267" gradientTransform="matrix(-0.794, 0.771, -0.96, -0.637, -179.917, 5.64)" xlink:href="#b"/><radialGradient id="al" cx="-0.465" cy="0.786" r="0.933" gradientTransform="matrix(0, -1, 2.104, 0, -174.689, -18.508)" xlink:href="#b"/><radialGradient id="am" cx="-0.574" cy="1.013" r="1.062" gradientTransform="matrix(-0.69, -0.951, 2.116, -0.31, -261.576, -4.081)" xlink:href="#b"/><radialGradient id="an" cx="-0.208" cy="-0.082" r="1.06" gradientTransform="matrix(0.776, -0.544, 0.875, 1.457, -23.383, -3.95)" xlink:href="#b"/><radialGradient id="ao" cx="-0.485" cy="-0.472" r="1.441" gradientTransform="matrix(0.702, -0.544, 0.791, 1.457, -26.751, -6.712)" xlink:href="#b"/><radialGradient id="ap" cx="0.398" cy="-0.424" r="1.621" gradientTransform="matrix(0.566, 0.369, -0.225, 0.929, 8.285, -7.002)" xlink:href="#b"/><radialGradient id="aq" cx="0.414" cy="-0.994" r="2.27" gradientTransform="matrix(0.435, 0.369, -0.173, 0.929, 11.517, -7.568)" xlink:href="#b"/><radialGradient id="ar" cx="1.504" cy="0.44" r="0.949" gradientTransform="matrix(-0.353, 0.958, -1.932, -0.469, -105.036, 35.791)" xlink:href="#b"/><radialGradient id="as" cx="2.272" cy="0.467" r="1.029" gradientTransform="matrix(-0.491, 0.958, -2.692, -0.469, -170.968, 62.601)" xlink:href="#b"/><radialGradient id="at" cx="0.214" cy="-0.465" r="1.964" gradientTransform="matrix(0.475, 0, 0, 1, -2.103, 0)" xlink:href="#b"/><radialGradient id="au" cx="-0.299" cy="0.106" r="1.536" gradientTransform="matrix(0.665, -0.623, 0.53, 0.782, -16.343, 2.235)" xlink:href="#b"/><radialGradient id="av" cx="-1.782" cy="-4.078" r="8.288" gradientTransform="matrix(0.664, -0.495, 0.315, 0.722, -18.146, 9.431)" xlink:href="#b"/><radialGradient id="aw" cx="-4.428" cy="-4.939" r="13.625" gradientTransform="matrix(0.664, -0.495, 0.315, 0.722, -30.892, 15.253)" xlink:href="#b"/><radialGradient id="ax" cx="5.374" cy="-1.563" r="6.229" gradientTransform="matrix(0.617, 0.893, -1.018, 0.374, -94.012, -1.083)" xlink:href="#b"/><radialGradient id="ay" cx="5.374" cy="-1.563" r="6.229" gradientTransform="matrix(0.617, 0.893, -1.018, 0.374, -154.009, -1.69)" xlink:href="#b"/><radialGradient id="az" cx="7.028" cy="-0.184" r="5.815" gradientTransform="matrix(0.206, 0.993, -1.428, 0.099, -355.831, 65.045)" xlink:href="#b"/><radialGradient id="ba" cx="7.028" cy="-0.184" r="5.815" gradientTransform="matrix(0.206, 0.993, -1.428, 0.099, -305.454, 60.56)" xlink:href="#b"/><radialGradient id="bb" cx="7.027" cy="-0.184" r="5.815" gradientTransform="matrix(0.206, 0.993, -1.427, 0.099, -462.349, 90.048)" xlink:href="#b"/><radialGradient id="bc" cx="3.056" cy="-3.584" r="7.569" gradientTransform="matrix(0.697, 0.623, -0.461, 0.65, -39.061, -15.823)" xlink:href="#b"/><radialGradient id="bd" cx="2.661" cy="-6.809" r="12.443" gradientTransform="matrix(0.697, 0.623, -0.461, 0.65, -65.36, -24.858)" xlink:href="#b"/><radialGradient id="be" cx="2.661" cy="-6.81" r="12.444" gradientTransform="matrix(0.697, 0.623, -0.461, 0.65, -64.331, -23.365)" xlink:href="#b"/><radialGradient id="bf" cx="0.313" cy="-1.295" r="5.119" gradientTransform="translate(0.348) scale(0.305 1)" xlink:href="#c"/><radialGradient id="bg" cx="0.545" cy="0.63" r="1.753" gradientTransform="matrix(0.623, -0.241, 0.12, 0.754, -0.051, 0.629)" gradientUnits="objectBoundingBox"><stop offset="0" stop-color="#d1e1ee"/><stop offset="0.337" stop-color="#8ee1ee"/><stop offset="0.944" stop-color="#732fa4"/></radialGradient><radialGradient id="bh" cx="0.502" cy="0.815" r="3.795" gradientTransform="matrix(0.252, 0.226, -0.046, 0.762, 0.354, -0.169)" xlink:href="#bg"/><radialGradient id="bi" cx="0.5" cy="0.5" r="1.032" gradientTransform="translate(0.318) scale(0.365 1)" xlink:href="#b"/><linearGradient id="bj" x1="-0.046" y1="-0.187" x2="-0.046" y2="-1.119" gradientUnits="objectBoundingBox"><stop offset="0.006" stop-color="#2f0063"/><stop offset="0.978" stop-color="#383e81"/></linearGradient><linearGradient id="bk" x1="-6.048" y1="-1.283" x2="-6.048" y2="-2.285" gradientUnits="objectBoundingBox"><stop offset="0" stop-color="#007cde"/><stop offset="1" stop-color="#0f4aa4"/></linearGradient><linearGradient id="bl" x1="0.5" y1="1" x2="0.5" gradientUnits="objectBoundingBox"><stop offset="0" stop-color="#a40540"/><stop offset="1" stop-color="#c7224a"/></linearGradient><linearGradient id="bm" x1="0.5" y1="1" x2="0.5" gradientUnits="objectBoundingBox"><stop offset="0" stop-color="#9795ff"/><stop offset="1" stop-color="#f4f1ff"/></linearGradient><linearGradient id="bn" x1="0.518" y1="1.017" x2="0.518" y2="0.017" xlink:href="#bj"/><linearGradient id="bo" x1="0.532" y1="1.02" x2="0.532" y2="0.02" xlink:href="#bk"/><linearGradient id="bq" y1="0.5" x2="1" y2="0.5" gradientUnits="objectBoundingBox"><stop offset="0" stop-color="#9579a7"/><stop offset="1" stop-color="#fff"/></linearGradient></defs><g transform="translate(-1098.5 -148)"><g transform="translate(20.757)"><g transform="translate(1077.743 366.35)"><g transform="translate(134.801)"><circle class="a" cx="205.413" cy="205.413" r="205.413"/><circle class="b" cx="183.911" cy="183.911" r="183.911" transform="translate(21.502 21.502)"/><path class="c" d="M294.525,374.406c-8.283-15.76-5.785-38.426-.747-53.723,10.661-32.376,38.428-55.659,67.295-71.758C451.3,198.61,550.454,260.9,558.894,300.539s-31.293,60.645-85.317,47.907-94.714,47.235-132.01,47.424c-14.233.074-28.849-2.295-39.919-12.212A32.757,32.757,0,0,1,294.525,374.406Z" transform="translate(-230.978 -192.287)"/><g class="d" transform="translate(31.438 30.395)"><path class="e" d="M337.89,292.2a368.042,368.042,0,0,1-10.638-39.018A173.941,173.941,0,0,0,294.493,459.49,174.07,174.07,0,0,1,337.89,292.2Z" transform="translate(-274.3 -204.218)"/><path class="f" d="M515,253.868A173.888,173.888,0,0,0,308.782,266.7a348.265,348.265,0,0,0,10.007,39.117,173.91,173.91,0,0,1,200.724-22.136A182.151,182.151,0,0,0,515,253.868Z" transform="translate(-246.675 -225.995)"/><path class="g" d="M467.131,302.919a183.365,183.365,0,0,0-1.056-19.456A175.022,175.022,0,0,0,428.5,245.118a205.711,205.711,0,0,1,3.159,28.049A174.972,174.972,0,0,1,467.131,302.919Z" transform="translate(-150.765 -210.675)"/><path class="h" d="M454.175,288.794a173.61,173.61,0,0,1,17.7,26.931,172.5,172.5,0,0,0-17.617-41.841Q454.489,281.338,454.175,288.794Z" transform="translate(-130.193 -187.629)"/></g><path class="i" d="M575.105,250.427A147.263,147.263,0,1,1,289.788,301.7c0-.313.022-.62.023-.931a180.652,180.652,0,1,0,285.294-50.34Z" transform="translate(-245.823 -176.027)"/><g transform="translate(29.248 178.433)"><path class="j" d="M620.957,308.186c0,.261.009.519.009.78,0,99.353-78.163,179.9-174.582,179.9-89.243,0-162.839-69-173.3-158.055.432,98.973,78.422,179.071,174.573,179.071,96.419,0,174.582-80.542,174.582-179.9A187.131,187.131,0,0,0,620.957,308.186Z" transform="translate(-273.084 -308.186)"/></g><g transform="translate(172.076 30.835)"><ellipse class="k" cx="43.229" cy="20.542" rx="43.229" ry="20.542"/><path class="l" d="M354.515,248.774c6.787,7.122,21.864,12.08,39.388,12.08,19.42,0,35.847-6.084,41.3-14.461-6.788-7.122-21.864-12.079-39.389-12.079C376.4,234.314,359.971,240.4,354.515,248.774Z" transform="translate(-350.673 -219.77)"/></g><g transform="translate(331.384 191.77)"><ellipse class="m" cx="43.229" cy="20.542" rx="43.229" ry="20.542" transform="translate(0 84.799) rotate(-78.753)"/><path class="n" d="M465.8,318.99c-8.309,5.268-16.111,19.09-19.53,36.277-3.788,19.047-1.023,36.344,6.128,43.329,8.309-5.268,16.111-19.089,19.53-36.275C475.71,343.273,472.947,325.975,465.8,318.99Z" transform="translate(-437.835 -312.868)"/></g><g transform="translate(172.453 307.73)"><ellipse class="o" cx="43.229" cy="20.542" rx="43.229" ry="20.542" transform="matrix(0.998, -0.062, 0.062, 0.998, 0, 5.371)"/><path class="p" d="M434.545,391.151c-7.217-6.686-22.574-10.7-40.063-9.609-19.382,1.207-35.4,8.3-40.324,17,7.217,6.688,22.574,10.7,40.063,9.609C413.6,406.943,429.621,399.849,434.545,391.151Z" transform="translate(-351.337 -378.856)"/></g><g transform="translate(84.063 189.739)"><g transform="translate(0 0)"><ellipse class="q" cx="43.542" cy="51.836" rx="43.542" ry="51.836" transform="matrix(0.556, -0.831, 0.831, 0.556, 0, 72.394)"/></g><path class="r" d="M383.628,334.935c-21.468-14.353-48.084-13.062-62.9,2-8.2,19.44.784,44.478,22.223,58.811,21.468,14.353,48.084,13.062,62.9-2C414.048,374.306,405.067,349.268,383.628,334.935Z" transform="translate(-292.136 -306.125)"/></g><g transform="translate(175.688 83.192)"><g transform="translate(0 0)"><ellipse class="s" cx="28.025" cy="33.364" rx="28.025" ry="33.364" transform="translate(0 54.507) rotate(-76.524)"/></g><path class="t" d="M384.218,310.742c16.165,3.874,31.943-2.846,37.527-15.249.611-13.564-10.4-26.675-26.542-30.544-16.165-3.873-31.943,2.846-37.527,15.249C357.065,293.764,368.076,306.875,384.218,310.742Z" transform="translate(-351.772 -248.46)"/></g><g transform="translate(224.966 197.365)"><g transform="translate(0 0)"><ellipse class="u" cx="41.871" cy="35.171" rx="41.871" ry="35.171" transform="translate(0 52.865) rotate(-39.145)"/></g><path class="v" d="M407.4,338.132c-16.18,13.17-21.5,34.026-13.384,49.042,13.062,10.944,34.526,9.953,50.681-3.2,16.18-13.17,21.5-34.026,13.384-49.042C445.016,323.991,423.552,324.982,407.4,338.132Z" transform="translate(-374.924 -311.7)"/></g><g transform="translate(65.86 80.596)"><ellipse class="w" cx="34.078" cy="16.193" rx="34.078" ry="16.193" transform="matrix(0.591, -0.807, 0.807, 0.591, 0, 54.99)"/><path class="x" d="M305.046,313.862c7.691-1,17.867-8.282,26.028-19.427,9.044-12.351,12.824-25.632,10.038-33-7.691,1-17.866,8.28-26.027,19.425C306.042,293.208,302.261,306.49,305.046,313.862Z" transform="translate(-284.811 -247.806)"/></g><g transform="translate(28.863 238.894)"><ellipse class="y" cx="20.542" cy="43.229" rx="20.542" ry="43.229" transform="matrix(0.862, -0.508, 0.508, 0.862, 0, 20.851)"/><path class="z" d="M329.554,415.068c2.693-9.463-.688-24.969-9.582-40.068-9.856-16.733-23.435-27.8-33.42-28.249-2.693,9.463.688,24.971,9.582,40.07C305.989,403.553,319.568,414.617,329.554,415.068Z" transform="translate(-262.633 -337.751)"/></g><g transform="translate(268.102 51.853)"><path class="aa" d="M448.889,265.957c-3.206,5.566-15.3,4.607-27.008-2.138s-18.6-16.726-15.4-22.289,15.3-4.607,27.008,2.138S452.1,260.393,448.889,265.957Z" transform="translate(-405.696 -237.909)"/><path class="ab" d="M405.851,243.352c1.317,5.411,7.311,12.1,15.906,17.053,9.526,5.486,19.3,7.143,24.344,4.577-1.317-5.411-7.311-12.1-15.906-17.053C420.669,242.441,410.892,240.783,405.851,243.352Z" transform="translate(-405.572 -234.495)"/></g><g transform="translate(232.777 350.377)"><path class="ac" d="M386.254,422.354c-1.562-6.228,7.8-13.943,20.908-17.228s25-.9,26.562,5.328-7.8,13.943-20.908,17.228S387.815,428.584,386.254,422.354Z" transform="translate(-386.084 -403.649)"/><path class="ad" d="M430.277,406.336c-4.708-2.977-13.667-3.624-23.289-1.21-10.663,2.673-18.846,8.275-20.688,13.624,4.708,2.975,13.669,3.622,23.291,1.21C420.252,417.287,428.434,411.685,430.277,406.336Z" transform="translate(-385.91 -403.649)"/></g><g transform="translate(30.044 189.497)"><ellipse class="ae" cx="11.628" cy="24.47" rx="11.628" ry="24.47" transform="matrix(0.999, -0.049, 0.049, 0.999, 0, 1.151)"/><path class="af" d="M288.094,360.711c3.836-4.036,6.218-12.7,5.726-22.608-.544-10.978-4.443-20.1-9.332-22.945-3.836,4.038-6.218,12.7-5.726,22.608C279.306,348.744,283.206,357.862,288.094,360.711Z" transform="translate(-269.383 -313.664)"/></g><g transform="translate(147.156 355.07)"><path class="ag" d="M338.7,413.312c1.459-6.254,13.312-8.833,26.471-5.762s22.646,10.632,21.187,16.886-13.312,8.833-26.473,5.762S337.234,419.565,338.7,413.312Z" transform="translate(-338.547 -406.255)"/><path class="ah" d="M384.439,419.277c-2.824-4.8-10.5-9.472-20.159-11.727-10.7-2.5-20.542-1.259-24.627,2.657,2.826,4.8,10.5,9.472,20.158,11.727C370.516,424.432,380.354,423.191,384.439,419.277Z" transform="translate(-337.66 -406.255)"/></g><g transform="translate(356.442 151.961)"><ellipse class="ai" cx="8.923" cy="18.779" rx="8.923" ry="18.779" transform="translate(0 6.363) rotate(-20.889)"/><path class="aj" d="M458.31,296.849c-1.841,3.856-1.517,10.744,1.2,17.855,3.008,7.882,8.022,13.606,12.266,14.523,1.839-3.858,1.515-10.744-1.2-17.857C467.568,303.49,462.553,297.766,458.31,296.849Z" transform="translate(-452.812 -290.797)"/></g><g transform="translate(325.398 288.645)"><path class="ak" d="M439.344,399.4c-3.8-3.141-1.518-12.167,5.09-20.158s15.047-11.926,18.844-8.784,1.518,12.165-5.09,20.157S443.141,402.539,439.344,399.4Z" transform="translate(-437.507 -369.376)"/><path class="al" d="M459.382,369.389c-4.262.3-10.1,3.975-14.948,9.841-5.375,6.5-7.885,13.683-6.592,17.83,4.263-.3,10.1-3.975,14.948-9.842C458.164,380.718,460.675,373.535,459.382,369.389Z" transform="translate(-437.506 -369.365)"/></g><g transform="translate(61.158 221.993)"><ellipse class="am" cx="6.082" cy="12.799" rx="6.082" ry="12.799" transform="translate(0 3.769) rotate(-18.054)"/><path class="an" d="M303.585,355.9c1.381-2.563,1.394-7.262-.214-12.2-1.781-5.466-5-9.532-7.86-10.3-1.382,2.565-1.394,7.264.214,12.2C297.506,351.07,300.727,355.135,303.585,355.9Z" transform="translate(-287.84 -331.539)"/></g><g transform="translate(152.084 122.019)"><path class="ao" d="M364.2,281.172c3.174,4.894.94,11.979-4.989,15.827s-13.311,3-16.486-1.9-.942-11.981,4.989-15.827S361.027,276.278,364.2,281.172Z" transform="translate(-341.283 -276.865)"/><path class="ap" d="M344.027,295.479c3.68,1.979,8.813,1.689,13.165-1.135,4.824-3.129,7.2-8.4,6.212-12.893-3.68-1.979-8.811-1.688-13.165,1.135C345.416,285.715,343.038,290.987,344.027,295.479Z" transform="translate(-339.261 -274.21)"/></g><g transform="translate(245.982 74.973)"><path class="aq" d="M417.415,262.842c-1.241,3.12-7.572,3.534-14.141.922s-10.888-7.257-9.647-10.378,7.572-3.536,14.141-.924S418.656,259.72,417.415,262.842Z" transform="translate(-393.415 -250.745)"/><path class="ar" d="M393.606,254.261c1.088,2.7,4.694,5.713,9.516,7.63,5.342,2.125,10.528,2.248,12.945.539-1.088-2.7-4.694-5.713-9.516-7.63C401.209,252.676,396.023,252.554,393.606,254.261Z" transform="translate(-393.262 -248.871)"/></g><g transform="translate(321.191 205.724)"><path class="as" d="M440.392,343.113c-4.195-1.254-6.29-6.639-4.678-12.026s6.318-8.741,10.513-7.486,6.288,6.639,4.678,12.026S444.587,344.368,440.392,343.113Z" transform="translate(-435.171 -323.338)"/><path class="at" d="M442.84,323.445c-3.092.746-5.942,3.6-7.125,7.556-1.311,4.382-.169,8.763,2.559,10.92,3.091-.746,5.942-3.6,7.125-7.556C446.709,329.983,445.569,325.6,442.84,323.445Z" transform="translate(-435.171 -323.252)"/></g><g transform="translate(76.305 47.837)"><ellipse class="au" cx="24.47" cy="11.628" rx="24.47" ry="11.628" transform="translate(0 30.493) rotate(-38.54)"/><path class="av" d="M305.851,272.163c5.517.758,13.941-2.363,21.7-8.545,8.6-6.848,13.725-15.335,13.186-20.967-5.517-.76-13.941,2.363-21.7,8.543C310.439,258.042,305.313,266.531,305.851,272.163Z" transform="translate(-293.921 -230.183)"/></g><path class="aw" d="M426.556,387.846c1.417,2.487-.992,6.531-5.382,9.033s-9.094,2.513-10.512.025.991-6.529,5.38-9.031S425.139,385.36,426.556,387.846Z" transform="translate(-133.94 -67.421)"/><path class="ax" d="M428.622,379.5c.861,1.513-.6,3.971-3.273,5.493s-5.533,1.527-6.394.016.6-3.973,3.273-5.493S427.759,377.991,428.622,379.5Z" transform="translate(-127.17 -73.522)"/><g transform="translate(88.235 263.163)"><path class="ay" d="M317.328,373.818c-2.851,1.435-7.215-1.481-9.75-6.513s-2.277-10.276.575-11.711,7.217,1.48,9.751,6.513S320.181,372.382,317.328,373.818Z" transform="translate(-305.834 -355.228)"/><path class="az" d="M320.7,376.9c-1.724.868-4.362-.893-5.893-3.936s-1.376-6.212.348-7.08,4.362.9,5.893,3.937S322.425,376.033,320.7,376.9Z" transform="translate(-299.489 -346.868)"/></g><path class="ba" d="M292.208,335.622c-1.562.187-3.094-1.893-3.424-4.647s.666-5.137,2.226-5.324,3.093,1.893,3.424,4.647S293.768,335.435,292.208,335.622Z" transform="translate(-231.309 -115.77)"/><path class="bb" d="M455.556,311.951c-2.269.274-4.5-2.754-4.982-6.762s.969-7.477,3.24-7.748,4.5,2.754,4.982,6.762S457.827,311.679,455.556,311.951Z" transform="translate(-101.714 -138.375)"/><path class="bc" d="M453.315,317.476c-1.488.178-2.948-1.8-3.264-4.429s.634-4.9,2.122-5.074,2.948,1.8,3.264,4.427S454.8,317.3,453.315,317.476Z" transform="translate(-102.107 -129.932)"/><g transform="translate(104.797 320.084)"><path class="bd" d="M334.068,408.122c-1.781,2.241-6.43,1.506-10.384-1.641s-5.712-7.513-3.928-9.751,6.432-1.5,10.384,1.643S335.851,405.883,334.068,408.122Z" transform="translate(-311.8 -379.938)"/><path class="be" d="M340.72,407.49c-1.084,1.362-3.912.915-6.315-1s-3.474-4.569-2.39-5.931,3.912-.915,6.317,1S341.8,406.126,340.72,407.49Z" transform="translate(-301.759 -376.463)"/><path class="bf" d="M324.157,394.548c-1.084,1.363-3.912.915-6.315-1s-3.474-4.57-2.39-5.931,3.912-.915,6.317,1S325.242,393.186,324.157,394.548Z" transform="translate(-315.029 -386.83)"/></g><path class="bg" d="M336.665,249.009c-.969-2.695,2.1-6.264,6.852-7.974s9.391-.915,10.36,1.778-2.1,6.263-6.85,7.974S337.634,251.7,336.665,249.009Zm-4.883,13.8c2.893-1.041,4.757-3.213,4.168-4.851s-3.411-2.122-6.3-1.082-4.757,3.213-4.168,4.85S328.892,263.845,331.783,262.8Zm35.5-13.145c2.891-1.041,4.757-3.213,4.168-4.85s-3.411-2.124-6.3-1.083-4.757,3.211-4.168,4.85S364.394,250.7,367.285,249.659ZM491.86,281.177c.814-2.743,5.4-3.8,10.243-2.369s8.109,4.825,7.295,7.57-5.4,3.8-10.241,2.368S491.046,283.922,491.86,281.177Zm24.288,18.658c2.945.874,5.735.229,6.23-1.441s-1.491-3.73-4.438-4.6-5.735-.229-6.23,1.441S513.2,298.962,516.148,299.836Z" transform="translate(-201.946 -184.273)"/></g><g class="bh" transform="translate(46.551 21.688)"><path class="bi" d="M794.96,236.8c-15.7-26.133-73.285-14.692-118.831-.5l-1.868.585c-19.75,6.234-40.915,14.107-63.046,23.4,3.015,1.9,5.98,3.849,8.8,5.974,19.928-8.217,39.017-15.238,56.918-20.888l1.841-.576c58.3-18.174,98.858-19.449,108.494-3.413s-10.645,51.065-54.253,93.694c-46.283,45.25-113.955,95.34-190.551,141.045S389.535,557.609,327.728,576.918c-58.3,18.175-98.856,19.451-108.492,3.411s10.645-51.063,54.251-93.694c14.2-13.88,30.414-28.217,48.278-42.741q-.6-2.974-.962-6-.413-2.032-.733-4.08c-19.649,15.794-37.423,31.4-52.848,46.479-34.065,33.305-71.378,78.489-55.677,104.622s73.287,14.694,118.833.5c.621-.195,1.241-.387,1.866-.585,62.2-19.627,138.388-55.47,214.807-101.07,77.187-46.055,145.457-96.6,192.233-142.336C773.35,308.119,810.662,262.934,794.96,236.8Z" transform="translate(-207.849 -221.161)"/></g><g class="bh" transform="translate(0 126.394)"><path class="bj" d="M863.439,341.812c-2.192-30.758-59.024-46.67-106.313-54.6-.647-.108-1.291-.216-1.94-.322-20.542-3.37-43.1-5.9-67.167-7.594,1.841,3.087,3.609,6.2,5.175,9.409,21.6,1.659,41.909,4.015,60.528,7.071q.959.157,1.915.317c60.531,10.153,97.475,27.486,98.82,46.362s-32.765,41.273-91.246,59.906c-62.073,19.78-145.526,34.184-234.98,40.56s-174.166,3.9-238.359-6.825c-60.533-10.151-97.475-27.484-98.82-46.36s32.767-41.273,91.246-59.908c19.042-6.066,40.1-11.626,62.72-16.6.546-1.972,1.173-3.925,1.866-5.856q.551-2.024,1.2-4.018c-24.8,5.312-47.83,11.308-68.518,17.9-45.686,14.559-99.687,38.368-97.495,69.128s59.024,46.67,106.313,54.6l1.94.322c64.69,10.616,149.3,12.963,238.548,6.6,90.146-6.425,174.341-20.971,237.075-40.96C811.631,396.383,865.633,372.572,863.439,341.812Z" transform="translate(-182.004 -279.294)"/></g></g><path class="bk" d="M102.1.85C77.879-2.262,19.229,2.1,2.235,32.122s67.574,16.31,97.03,21.409,66.276,40.785,105.929,16.994S163.842,8.779,102.1.85Z" transform="translate(1294.374 472.324) rotate(-16)"/><g transform="translate(1271.832 148)"><g transform="translate(155.421 214.933)"><g transform="translate(0 0)"><g transform="translate(1.656 1.908)"><path class="bl" d="M670.773,513.161S660.9,529,640.6,514.3l-4.712,1.78s7.3,42.475,45.905,26.372c40.176-16.755,16.684-67.535-8.474-63.011-24.416,4.391-14.9,32.121-5.019,33.549s10.564-6.61,10.564-6.61" transform="translate(-635.891 -479.159)"/></g><g transform="translate(1.874 1.312)"><path class="bm" d="M683.139,543.113c41.1-17.14,17.066-69.083-8.669-64.455-13.14,2.363-16.671,11.333-15.6,19.518.238-5.472,3.493-10.785,12.2-12.351,19.93-3.584,38.538,36.641,6.713,49.914-26.581,11.086-34.425-12.876-36.023-19.337q-1.126-.694-2.3-1.507l-3.288,1.242S643.645,559.584,683.139,543.113Z" transform="translate(-636.181 -478.368)"/></g><path class="bn" d="M671.631,513.409c-.147.228-.249.369-.373.539s-.24.32-.363.473c-.245.309-.5.6-.759.892a20.6,20.6,0,0,1-1.658,1.626,19.575,19.575,0,0,1-3.844,2.613,18.254,18.254,0,0,1-9.034,2,24.552,24.552,0,0,1-8.837-2.1,40.34,40.34,0,0,1-7.673-4.444l1.555.208L635.93,517l1.045-1.827h0c.184.971.449,2.048.734,3.067s.614,2.053.956,3.068a49.99,49.99,0,0,0,2.486,5.915,40.649,40.649,0,0,0,3.286,5.448c.319.419.606.868.95,1.264l1,1.217c.717.762,1.417,1.545,2.2,2.229a23.567,23.567,0,0,0,5.042,3.6c.227.123.448.256.679.369l.707.309.707.312a5.65,5.65,0,0,0,.716.287l1.467.486c.123.039.243.083.367.12l.377.085.755.172a23.8,23.8,0,0,0,3.059.5c.129.016.257.037.385.047l.39.013.78.027c.521.008,1.039.06,1.562.033a34.856,34.856,0,0,0,6.259-.757c1.032-.245,2.077-.428,3.09-.776l1.531-.467c.254-.08.512-.15.765-.238l.752-.288c1-.392,2.016-.744,3-1.167l1.462-.652,1.432-.707a35.02,35.02,0,0,0,10.039-7.565,28.373,28.373,0,0,0,3.642-5.058,27.5,27.5,0,0,0,2.391-5.742,30.554,30.554,0,0,0,.876-12.424,36.561,36.561,0,0,0-3.784-12,33.478,33.478,0,0,0-7.651-9.9,21.805,21.805,0,0,0-10.812-5.354,16.057,16.057,0,0,0-2.965-.184c-.5-.007-.986.068-1.478.1-.491.084-.969.127-1.479.26l-1.513.339-1.464.45a13.354,13.354,0,0,0-1.418.536l-.7.286-.661.345a14.266,14.266,0,0,0-4.542,3.576,13.168,13.168,0,0,0-2.556,5.088,17.007,17.007,0,0,0-.336,5.884,20.046,20.046,0,0,0,1.519,5.84,17.39,17.39,0,0,0,3.154,5.029,8.911,8.911,0,0,0,2.135,1.754,6,6,0,0,0,1.147.525q.288.064.573.144l.73.087.737.092c.245.026.479.015.721.026l.722.022.7-.059a9,9,0,0,0,1.36-.219c.223-.051.422-.145.641-.209l.324-.108.3-.154a6.535,6.535,0,0,0,2.216-1.7,9.845,9.845,0,0,0,1.582-2.66l.014-.035a.308.308,0,0,1,.592.087,6.437,6.437,0,0,1-.073,1.8,8.214,8.214,0,0,1-.513,1.765,7.436,7.436,0,0,1-2.361,3.014l-.4.3c-.139.086-.283.164-.426.246a8.457,8.457,0,0,1-.875.461,9.542,9.542,0,0,1-1.853.582l-.946.187-.937.06c-.311.011-.631.053-.938.036l-.916-.062c-.307-.024-.607-.037-.921-.071-.348-.069-.7-.144-1.046-.223a9.524,9.524,0,0,1-1.893-.784,12.523,12.523,0,0,1-3.053-2.34,20.237,20.237,0,0,1-4.029-6.05,23.981,23.981,0,0,1-1.923-6.929,20.745,20.745,0,0,1,.391-7.3,16.733,16.733,0,0,1,3.361-6.667,17.9,17.9,0,0,1,5.827-4.546l.817-.41c.278-.119.56-.225.84-.337a17,17,0,0,1,1.692-.616c.571-.169,1.141-.346,1.714-.5l1.73-.369c.563-.138,1.19-.2,1.792-.29.61-.042,1.22-.119,1.833-.108a19.755,19.755,0,0,1,3.647.269,22.845,22.845,0,0,1,3.52.884A25.7,25.7,0,0,1,686,479.2a28.982,28.982,0,0,1,5.823,4.023,34.875,34.875,0,0,1,4.742,5.138,39.259,39.259,0,0,1,3.7,5.884,40.127,40.127,0,0,1,4.122,13.206,34.142,34.142,0,0,1-1.024,13.872,31.043,31.043,0,0,1-2.719,6.478,31.809,31.809,0,0,1-4.112,5.683,38.512,38.512,0,0,1-11.061,8.307l-1.547.758-1.571.7c-1.052.449-2.127.821-3.191,1.234l-.8.3c-.27.092-.547.169-.82.253l-1.645.5c-1.084.366-2.225.57-3.346.83a38.3,38.3,0,0,1-6.9.811c-.582.026-1.169-.029-1.754-.041l-.878-.034-.439-.017c-.147-.012-.292-.036-.438-.054a27.1,27.1,0,0,1-3.484-.578l-.862-.2-.431-.1c-.141-.041-.281-.092-.422-.137l-1.683-.563a7.238,7.238,0,0,1-.823-.331l-.811-.359-.811-.361c-.264-.132-.518-.283-.778-.424a26.956,26.956,0,0,1-5.723-4.1c-.88-.777-1.658-1.645-2.451-2.5l-1.1-1.347c-.379-.443-.692-.929-1.041-1.391a44.016,44.016,0,0,1-3.548-5.916,53.315,53.315,0,0,1-2.638-6.322c-.362-1.082-.711-2.168-1.009-3.271s-.573-2.187-.8-3.39h0a1.637,1.637,0,0,1,1.032-1.821l.013-.005,4.712-1.78a1.653,1.653,0,0,1,1.54.2l.014.01a37.114,37.114,0,0,0,7.039,4.084,21.276,21.276,0,0,0,7.637,1.831,14.934,14.934,0,0,0,7.417-1.637,16.259,16.259,0,0,0,3.184-2.166,17,17,0,0,0,1.381-1.354c.216-.238.425-.482.621-.728.1-.124.195-.248.286-.372s.188-.264.234-.334l.035-.054a1.653,1.653,0,0,1,2.77,1.8Z" transform="translate(-633.69 -476.624)"/><g class="bo" transform="translate(4.251 40.699)"><path class="bn" d="M698.552,543.773s-42.118,22.581-37.018-10.986a16.246,16.246,0,0,1-14.074-2.077l-2.059.776-6.061,7.153S655.7,579.643,698.552,543.773Z" transform="translate(-639.34 -530.71)"/></g><g class="bo" transform="translate(24.959 11.988)"><path class="bn" d="M686.2,511.155s-19.745.768-18.739-18.6c0,0-4.744,23.334,12.378,23.813A9.233,9.233,0,0,0,686.2,511.155Z" transform="translate(-666.859 -492.555)"/></g></g></g><g transform="translate(57.305 156.072)"><g transform="translate(1.558 1.541)"><path class="bl" d="M674.9,561.336a12.659,12.659,0,0,1-11.651,17.65H646.727a22.331,22.331,0,0,1-20.057-12.709,54.291,54.291,0,0,0-5-8.326C605.678,536.063,578,532.642,578,532.642c-19.924,4.5-27.747,9.741-30.711,13.644a6.423,6.423,0,0,0-1.166,5.167,6.7,6.7,0,0,0,1.05,2.5,30.8,30.8,0,0,1,3.729,7.222,13.473,13.473,0,0,1-12.808,17.814h-23.68c-6.016,0-8.86-5.465-9.034-11.477a15.351,15.351,0,0,1,7.441-13.983c-9.443-17.6-10.489-30.328,5.243-45.632s3.881-29.608,3.881-29.608a96.274,96.274,0,0,1,6.386-8.438c.147-.182.3-.365.458-.547,16.336-19.082,39.246-32.144,53.238-38.935,7.494-3.636,12.429-5.474,12.429-5.474s13.849-7,30.427-13.515c6.306-2.479,13.008-4.882,19.492-6.8,8.879-2.63,17.352-4.352,23.84-4.1,5.75.214,9.942,1.976,11.49,6.021,7.468,19.537-16.661,31.3-20.4,32.985-.312.142-.481.214-.481.214-16.292,7.828-30.195,17.249-31.067,35.148v.009a47.289,47.289,0,0,0,1.887,14.877c4.57,16.6,13.36,32.2,19.763,42.157a54.092,54.092,0,0,0,10.69,12.051q1.622,1.369,3.342,2.626a34.794,34.794,0,0,1,10.587,12.879Q674.487,560.389,674.9,561.336Z" transform="translate(-505.371 -400.449)"/></g><g transform="translate(1.558 152.544)"><path class="bp" d="M538.092,628.656h-23.68c-6.016,0-8.86-5.465-9.034-11.477a15.351,15.351,0,0,1,7.441-13.983s16.661,3.213,33.3-2.074a6.7,6.7,0,0,0,1.05,2.5,30.8,30.8,0,0,1,3.729,7.222A13.473,13.473,0,0,1,538.092,628.656Z" transform="translate(-505.371 -601.122)"/></g><g transform="translate(117.855 144.944)"><path class="bp" d="M701.5,626.156H684.98a22.332,22.332,0,0,1-20.057-12.709,54.28,54.28,0,0,0-5-8.326c6.083-7.477,17.445-14.975,38.423-14.014q1.622,1.369,3.342,2.626a35.5,35.5,0,0,1,11.464,14.774A12.659,12.659,0,0,1,701.5,626.156Z" transform="translate(-659.921 -591.022)"/></g><g transform="translate(140.56 1.537)"><path class="bp" d="M705.02,439.479c-9.595-10.053-13.409-24.685-14.926-34.908,16.747-4.957,32.037-6.689,35.331,1.923C732.892,426.031,708.763,437.793,705.02,439.479Z" transform="translate(-690.094 -400.444)"/></g><g transform="translate(24.974 31.458)"><path class="bp" d="M583.269,534.471c-36.66,5.937-44.768-34.489-46.78-55.329,16.336-19.082,39.247-32.144,53.238-38.935C631.79,474.118,630.2,526.865,583.269,534.471Z" transform="translate(-536.489 -440.207)"/></g><g class="bo" transform="translate(24.516 12.469)"><path class="bn" d="M606.42,467.987c-23.76,12.14-48.013,14.516-65.747,7.627a46.1,46.1,0,0,1-4.793-2.172c.147-.182.3-.365.458-.547,16.336-19.082,39.246-32.144,53.238-38.935,7.494-3.636,12.429-5.473,12.429-5.473s13.849-7,30.427-13.515C638.578,426.632,643.433,449.078,606.42,467.987Z" transform="translate(-535.88 -414.972)"/></g><g class="bo" transform="translate(1.566 124.982)"><path class="bn" d="M663.248,619.589H646.729a22.331,22.331,0,0,1-20.057-12.709,54.289,54.289,0,0,0-5-8.326C605.68,576.667,578,573.245,578,573.245c-19.923,4.5-27.747,9.741-30.71,13.644a6.423,6.423,0,0,0-1.166,5.167,6.7,6.7,0,0,0,1.05,2.5,30.807,30.807,0,0,1,3.729,7.222,13.473,13.473,0,0,1-12.808,17.814h-23.68c-6.016,0-8.86-5.465-9.034-11.477,0,0,3.743,6.973,10.325.6a5.811,5.811,0,0,0,.463,2.167,5.017,5.017,0,0,0,8.584,1,9.8,9.8,0,0,1,4.78-3.164s4.7,5.857,11.348,2.75-13.016-30.23,16.5-40.942c35.415-12.852,52.782-1.85,57.958,2.616a.932.932,0,0,1-.594,1.636,32.52,32.52,0,0,0-4.236.357,1,1,0,0,0-.41,1.81c4.954,3.377,17.769,13,23.785,25.864,6.3,13.479,38.254,10.822,40.137-2.764q.467.948.877,1.9A12.659,12.659,0,0,1,663.248,619.589Z" transform="translate(-505.381 -564.494)"/></g><g class="bo" transform="translate(123.505 1.565)"><path class="bn" d="M699.41,439.489c-.312.142-.481.214-.481.214-16.292,7.828-30.2,17.249-31.067,35.148-.12-.588-5.648-29.323,26.466-41.863,19.376-7.57,21.125-23.177,14-32.505,5.75.214,9.942,1.976,11.49,6.021C727.282,426.04,703.153,437.8,699.41,439.489Z" transform="translate(-667.429 -400.482)"/></g><g class="bq" transform="translate(1.558 79.382)"><path class="bp" d="M522.067,534.388c-15.122,15.91-14.686,28.037-5.243,45.633A15.351,15.351,0,0,0,509.384,594c.133,4.562,1.8,8.8,5.225,10.587h-.2c-6.016,0-8.86-5.465-9.034-11.477a15.351,15.351,0,0,1,7.441-13.983c-9.443-17.6-10.489-30.328,5.243-45.632,15.527-15.1,4.188-29.229,3.885-29.6C522.321,504.131,540,515.524,522.067,534.388Z" transform="translate(-505.371 -503.895)"/></g><g transform="translate(7.475 0.764)"><g transform="translate(0 152.366)"><path class="bn" d="M516.217,602.826a12.7,12.7,0,0,1,.6,1.631c.173.561.326,1.13.47,1.7l.415,1.737c.139.583.266,1.169.435,1.774l0,.008a.192.192,0,0,1-.276.22,6.651,6.651,0,0,1-1.534-1.231,13.755,13.755,0,0,1-1.231-1.46,14.964,14.964,0,0,1-1.018-1.57,9.5,9.5,0,0,1-.771-1.693,1.56,1.56,0,0,1,2.9-1.145Z" transform="translate(-513.233 -601.901)"/></g><g transform="translate(65.148 130.113)"><path class="bn" d="M601.009,573.67c1.046-.248,2.017-.4,3.023-.562s2-.278,3-.382c2-.2,4-.322,6-.378,2-.026,4-.047,6,.082a42.543,42.543,0,0,1,5.954.746.2.2,0,0,1-.008.39h-.005c-.993.159-1.979.254-2.964.363l-2.944.3q-2.938.262-5.853.6t-5.8.813c-.962.148-1.918.321-2.871.488s-1.919.37-2.8.562l-.04.009a1.557,1.557,0,0,1-.69-3.037Z" transform="translate(-599.81 -572.328)"/></g><g transform="translate(0.678 168.175)"><path class="bn" d="M515.118,634.589a6.872,6.872,0,0,1-.367-.789c-.1-.252-.178-.508-.257-.763a9.971,9.971,0,0,1-.3-1.564,10.322,10.322,0,0,1,.156-3.185,10.746,10.746,0,0,1,.436-1.543c.1-.25.209-.495.321-.737a5.135,5.135,0,0,1,.377-.7,7.465,7.465,0,0,1,2.1-2.323.373.373,0,0,1,.587.358l-.006.035c-.156.993-.366,1.849-.421,2.729-.069.423-.055.862-.1,1.273,0,.425-.023.834,0,1.251.022.827.078,1.645.16,2.467l.134,1.233c.017.207.043.412.064.615a4.66,4.66,0,0,1,.038.567l-.04.481a1.535,1.535,0,0,1-1.658,1.4A1.553,1.553,0,0,1,515.118,634.589Z" transform="translate(-514.134 -622.911)"/></g><g transform="translate(14.505 168.175)"><path class="bn" d="M533.494,634.589a6.729,6.729,0,0,1-.367-.789c-.1-.252-.178-.508-.258-.763a9.976,9.976,0,0,1-.3-1.564,10.325,10.325,0,0,1,.156-3.185,10.726,10.726,0,0,1,.437-1.543c.1-.25.209-.495.321-.737a5.137,5.137,0,0,1,.376-.7,7.477,7.477,0,0,1,2.1-2.323.372.372,0,0,1,.52.083.368.368,0,0,1,.066.275l-.005.035c-.156.993-.366,1.849-.422,2.729-.068.423-.054.862-.1,1.273,0,.425-.023.834,0,1.251.021.827.078,1.645.159,2.467l.134,1.233c.016.207.043.412.064.615a4.6,4.6,0,0,1,.038.567l-.04.481a1.536,1.536,0,0,1-1.659,1.4A1.552,1.552,0,0,1,533.494,634.589Z" transform="translate(-532.509 -622.911)"/></g><g transform="translate(139.221 165.187)"><path class="bn" d="M698.344,632.481l.218-.744.217-.8c.137-.54.269-1.085.38-1.635a24.815,24.815,0,0,0,.46-3.334,21.82,21.82,0,0,0-.054-3.4,32.1,32.1,0,0,0-.534-3.568v0a.049.049,0,0,1,.041-.056.047.047,0,0,1,.041.013c.229.217.451.449.667.688l.321.366c.1.127.181.263.272.4.181.266.359.54.525.822.144.287.289.579.423.877a12.532,12.532,0,0,1,.959,3.789,16.51,16.51,0,0,1-.405,5.837c-.08.318-.166.634-.273.948a9.842,9.842,0,0,1-.371.976,1.556,1.556,0,0,1-2.919-1.06Z" transform="translate(-698.249 -618.94)"/></g><g transform="translate(151.929 165.187)"><path class="bn" d="M715.232,632.481l.218-.744.217-.8c.137-.54.269-1.085.38-1.635a24.933,24.933,0,0,0,.46-3.334,21.76,21.76,0,0,0-.054-3.4A32.176,32.176,0,0,0,715.92,619v0a.049.049,0,0,1,.041-.056.045.045,0,0,1,.041.013c.23.217.452.449.667.688l.321.366c.1.127.18.263.272.4.181.266.359.54.525.822.144.287.289.579.423.877a12.51,12.51,0,0,1,.959,3.789,16.931,16.931,0,0,1-.038,3.913,17.128,17.128,0,0,1-.367,1.924c-.079.318-.166.634-.273.948a9.981,9.981,0,0,1-.37.976,1.556,1.556,0,0,1-2.92-1.06Z" transform="translate(-715.137 -618.94)"/></g><g transform="translate(151.798)"><path class="bn" d="M725.434,402.521a22.869,22.869,0,0,1-2.457.585c-.835.163-1.677.3-2.522.439s-1.694.275-2.573.381-1.762.228-2.756.27h0a.152.152,0,0,1-.159-.146.154.154,0,0,1,.028-.095,8.616,8.616,0,0,1,2.093-2.025,12.865,12.865,0,0,1,2.5-1.358,16.043,16.043,0,0,1,2.686-.856,11.355,11.355,0,0,1,2.838-.293,1.571,1.571,0,0,1,.427,3.066Z" transform="translate(-714.962 -399.417)"/></g><g transform="translate(159.235 9.271)"><path class="bn" d="M735.218,414.892a24.388,24.388,0,0,1-2.439.445c-.829.12-1.661.221-2.5.324s-1.674.213-2.543.3-1.74.193-2.729.229H725a.153.153,0,0,1-.158-.147.157.157,0,0,1,.029-.094,8.109,8.109,0,0,1,2.105-2,12.055,12.055,0,0,1,2.541-1.288,14.959,14.959,0,0,1,2.72-.742,10.758,10.758,0,0,1,2.855-.136,1.569,1.569,0,0,1,.245,3.081Z" transform="translate(-724.846 -411.738)"/></g></g><path class="bn" d="M662.733,580.037H646.212a23.75,23.75,0,0,1-21.456-13.588c-7.138-14.721-19.619-22.838-28.831-27.054a72.8,72.8,0,0,0-18.373-5.679c-19.641,4.471-26.905,9.536-29.54,13.005a4.979,4.979,0,0,0-.07,5.838,32.52,32.52,0,0,1,3.916,7.592,14.66,14.66,0,0,1-1.919,13.488,15.173,15.173,0,0,1-12.359,6.4H513.9c-6.207,0-10.364-5.1-10.59-12.992a16.913,16.913,0,0,1,6.952-14.564c-8.593-16.5-10.339-30.119,6.2-46.211,6.131-5.964,8.619-12.407,7.394-19.15a19.87,19.87,0,0,0-3.628-8.35,1.558,1.558,0,0,1-.094-1.862c12.363-18.421,31.63-32.118,45.614-40.366a197.152,197.152,0,0,1,27.561-13.587c3.419-1.724,61.719-30.865,81.281-23.306a9.938,9.938,0,0,1,6.051,5.779c3.556,9.3.852,18.377-7.818,26.245a53.935,53.935,0,0,1-13.883,8.934c-22.049,10.6-35.3,22.859-28.318,48.2,4.5,16.328,13.127,31.705,19.574,41.73a53.89,53.89,0,0,0,13.642,14.26,36.841,36.841,0,0,1,11.971,15.415,14.215,14.215,0,0,1-13.078,19.826Zm-85.247-49.461a1.611,1.611,0,0,1,.191.011,73.216,73.216,0,0,1,19.449,5.932c9.71,4.428,22.872,12.979,30.432,28.57a20.658,20.658,0,0,0,18.653,11.834h16.522a11.1,11.1,0,0,0,10.219-15.473A33.776,33.776,0,0,0,662,547.31a56.952,56.952,0,0,1-14.421-15.088c-6.564-10.207-15.354-25.88-19.957-42.587-3.685-13.374-2.27-24.236,4.324-33.206,6.313-8.587,16.526-14.243,25.684-18.644l.076-.034a51.614,51.614,0,0,0,13.08-8.431c7.7-7.018,10.041-14.681,6.947-22.777a6.863,6.863,0,0,0-4.264-3.985c-18.434-7.125-78.225,22.913-78.827,23.218-.052.026-.1.049-.159.069-.481.179-47.871,18.133-71.157,51.913,2.414,3.642,9.5,16.946-4.69,30.746-15.634,15.208-13.657,27.567-4.959,43.777a1.557,1.557,0,0,1-.655,2.12,13.714,13.714,0,0,0-6.6,12.557c.137,4.817,2.173,9.964,7.475,9.964H537.58a11.9,11.9,0,0,0,9.818-5.085,11.584,11.584,0,0,0,1.522-10.654,29.454,29.454,0,0,0-3.546-6.86,8.088,8.088,0,0,1,.157-9.485c4.306-5.669,14.941-10.455,31.611-14.223A1.5,1.5,0,0,1,577.486,530.577Z" transform="translate(-503.3 -398.402)"/></g><g transform="translate(82.536 201.907)"><g transform="translate(0.891 0.891)"><path class="br" d="M608.386,461.441l-2.024-.7a4.28,4.28,0,0,0-3.284.192,4.268,4.268,0,0,0-2.19,2.456l-1.66,4.775a4.31,4.31,0,0,0,1.82,5.078c-.33.756-.681,1.464-1.01,2.083a4.3,4.3,0,0,0-5.163,2.741l-1.66,4.775a4.288,4.288,0,0,0,2.115,5.237c-.209.49-.427.957-.646,1.4l-.08-.031a4.293,4.293,0,0,0-5.47,2.652l-1.66,4.775a4.307,4.307,0,0,0,1.883,5.118c-.089.191-.183.378-.272.556l-.3-.1a4.3,4.3,0,0,0-5.474,2.652l-1.655,4.77a4.279,4.279,0,0,0,.64,4.01,4.2,4.2,0,0,0,.753.77c-.3.267-.6.521-.886.761a4.371,4.371,0,0,0-3.022-2.291l-4.966-.957a4.291,4.291,0,0,0-4.739,2.483c-.312-.133-.61-.267-.9-.4a4.3,4.3,0,0,0-1.437-4.464l-3.925-3.186a4.289,4.289,0,0,0-5.643.2c-.053.049-.107.1-.156.151-.427-.36-.823-.721-1.193-1.068a4.395,4.395,0,0,0,.3-.5,4.3,4.3,0,0,0-.495-4.721l-3.217-3.9a4.3,4.3,0,0,0-5.221-1.108q-.293-.554-.547-1.081a4.264,4.264,0,0,0,1.491-1.219,4.358,4.358,0,0,0,.428-.676,4.246,4.246,0,0,0,.427-2.5l-.65-5.011a4.3,4.3,0,0,0-4.81-3.711h0l-2.127.275a4.305,4.305,0,0,0-3.711,4.82l.649,5.011a4.3,4.3,0,0,0,4.468,3.738,3.36,3.36,0,0,0,.351-.031l.348-.044c.333.725.73,1.526,1.188,2.345a4.3,4.3,0,0,0-.561,6.039l3.217,3.9a4.273,4.273,0,0,0,2.911,1.54,4.2,4.2,0,0,0,.623.013,4.254,4.254,0,0,0,2.519-.979l.111-.089c.472.449.993.926,1.558,1.4a4.3,4.3,0,0,0,.97,5.55l3.926,3.186a4.309,4.309,0,0,0,6.048-.628l.481-.591c.151.071.307.147.467.218.445.2.921.414,1.41.61a4.294,4.294,0,0,0,3.413,4.988l4.966.957a4.3,4.3,0,0,0,5.033-3.413l.2-1.064a32.684,32.684,0,0,0,3.827-3.2l.151.054a4.256,4.256,0,0,0,1.616.236A4.314,4.314,0,0,0,591.8,513.4l1.66-4.775a4.3,4.3,0,0,0-1.5-4.864c.107-.218.213-.441.324-.668a4.293,4.293,0,0,0,5.331-2.692l1.66-4.774a4.3,4.3,0,0,0-1.691-4.993c.231-.476.458-.979.681-1.5a4.371,4.371,0,0,0,1.242.125,4.422,4.422,0,0,0,1.664-.427,4.288,4.288,0,0,0,2.189-2.461l1.655-4.775a4.3,4.3,0,0,0-2.029-5.194c.32-.618.654-1.309.97-2.038a4.3,4.3,0,0,0,5.416-2.665l1.66-4.775A4.311,4.311,0,0,0,608.386,461.441Zm-62.356,30a1.108,1.108,0,0,1-.258.241c-.134-.351-.2-.561-.2-.57a1.556,1.556,0,1,0-2.955.979.179.179,0,0,0,.009.035,1.186,1.186,0,0,1-.832-.979l-.65-5.015a1.179,1.179,0,0,1,.236-.872,1.16,1.16,0,0,1,.788-.454l2.126-.276c.032,0,.063,0,.1-.009a1.163,1.163,0,0,1,.774.245,1.3,1.3,0,0,1,.138.125,1.159,1.159,0,0,1,.316.663l.013.1.636,4.913A1.189,1.189,0,0,1,546.029,491.44Zm7.792,11.958a1.558,1.558,0,0,0-2.4,1.99c.022.027.124.147.28.33a1.153,1.153,0,0,1-.788.214,1.174,1.174,0,0,1-.8-.423l-3.218-3.9a1.179,1.179,0,0,1-.111-1.344c.111.147.223.293.338.44a1.558,1.558,0,0,0,2.443-1.935q-.173-.22-.333-.441a1.1,1.1,0,0,1,.169-.022,1.175,1.175,0,0,1,.97.427l3.222,3.9a1.156,1.156,0,0,1,.263.815C553.84,503.42,553.821,503.4,553.821,503.4Zm10.138,12.127a1.187,1.187,0,0,1-1.669.169l-3.921-3.182a1.181,1.181,0,0,1-.4-1.228c.258.169.521.334.783.49a1.582,1.582,0,0,0,.859.209,1.563,1.563,0,0,0,1.273-.77,1.442,1.442,0,0,0,.129-.294,1.551,1.551,0,0,0-.689-1.838c-.12-.072-.241-.147-.361-.223a1.094,1.094,0,0,1,.378-.111c.023,0,.044,0,.067,0a1.193,1.193,0,0,1,.8.263l3.925,3.187a1.139,1.139,0,0,1,.321.422c-.254-.156-.4-.249-.41-.254a1.554,1.554,0,0,0-2.123.432.387.387,0,0,0-.026.035,1.56,1.56,0,0,0,.463,2.154c.04.026.294.182.695.423Zm14.877,2.279a1.557,1.557,0,0,0-.525,2.136,1.492,1.492,0,0,0,.365.414c-.031.023-.058.049-.089.072a1.158,1.158,0,0,1-.886.182l-4.962-.953a1.166,1.166,0,0,1-.756-.5,1.124,1.124,0,0,1-.178-.414c.16.04.316.084.476.12a1.481,1.481,0,0,0,.418.035,1.545,1.545,0,0,0,1.419-1.135.37.37,0,0,0,.022-.076,1.559,1.559,0,0,0-1.175-1.865c-.183-.04-.365-.089-.552-.138a1.155,1.155,0,0,1,.29-.28,1.173,1.173,0,0,1,.6-.2,1.2,1.2,0,0,1,.285.022l4.962.953a1.128,1.128,0,0,1,.409.16,1.188,1.188,0,0,1,.547,1.037C579.1,517.643,578.845,517.8,578.836,517.8Zm11.686-10.2-1.659,4.775a1.175,1.175,0,0,1-.676.7,1.555,1.555,0,0,0-2.764-.868c-.044.058-.093.111-.142.169a1.185,1.185,0,0,1-.73-.907,1.168,1.168,0,0,1,.049-.579l1.66-4.775a1.17,1.17,0,0,1,.6-.677,1.121,1.121,0,0,1,.458-.116.927.927,0,0,1,.192.009c-.1.156-.165.249-.165.254a1.555,1.555,0,0,0,.075,1.838,1.438,1.438,0,0,0,.348.324,1.579,1.579,0,0,0,.943.263,1.563,1.563,0,0,0,1.22-.685c.026-.045.2-.311.472-.743a.921.921,0,0,1,.066.111A1.177,1.177,0,0,1,590.522,507.6Zm5.817-13-1.66,4.775a1.169,1.169,0,0,1-1.2.788c.187-.552.356-1.113.494-1.678a1.557,1.557,0,0,0-1.135-1.886h0a1.559,1.559,0,0,0-1.883,1.139c-.1.418-.231.841-.37,1.255a1.187,1.187,0,0,1-.169-1.1l1.659-4.771a1.183,1.183,0,0,1,1.029-.792c-.187.3-.307.485-.312.494a1.555,1.555,0,0,0,.422,2.158,1.367,1.367,0,0,0,.276.147,1.5,1.5,0,0,0,.667.116,1.557,1.557,0,0,0,1.22-.686c.035-.053.316-.472.712-1.144A1.18,1.18,0,0,1,596.339,494.6Zm5.741-14.032-1.66,4.771a1.166,1.166,0,0,1-.6.681,1.183,1.183,0,0,1-.507.111c.04-.138.08-.276.115-.414a1.557,1.557,0,0,0-1.139-1.883.852.852,0,0,0-.1-.017,1.546,1.546,0,0,0-1.789,1.157c0,.013-.009.032-.013.049a1.437,1.437,0,0,1-.178-.258,1.177,1.177,0,0,1-.053-.9l1.66-4.775a1.182,1.182,0,0,1,.543-.645,1.561,1.561,0,0,0,.667,1.491,1.643,1.643,0,0,0,.552.227,1.437,1.437,0,0,0,.391.036,1.547,1.547,0,0,0,1.219-.69c.018-.026.116-.174.258-.4a1.174,1.174,0,0,1,.632,1.464Zm6.017-14.676-1.66,4.775a1.178,1.178,0,0,1-1.4.752c.072-.249.142-.5.2-.752a1.558,1.558,0,1,0-3.026-.748.7.7,0,0,1-.023.084,1.179,1.179,0,0,1-.018-.819l1.656-4.775a1.2,1.2,0,0,1,.432-.574,1.2,1.2,0,0,1,1.077-.156l2.025.7A1.189,1.189,0,0,1,608.1,465.892Z" transform="translate(-538.014 -460.497)"/></g><g class="bo" transform="translate(6.766 21.798)"><path class="bn" d="M551.286,497.04a4.246,4.246,0,0,1-.427,2.5c-1.353-2.671-2.465-5.1-3.3-7.014-.116-.263-.227-.516-.33-.761-.917-2.132-1.411-3.449-1.411-3.449h0a4.3,4.3,0,0,1,4.811,3.711Z" transform="translate(-545.821 -488.282)"/></g><g class="bo" transform="translate(13.161 35.665)"><path class="bn" d="M560.029,512.086a4.3,4.3,0,0,1,.494,4.721,91.977,91.977,0,0,1-6.2-10.1,4.3,4.3,0,0,1,2.492,1.478Z" transform="translate(-554.32 -506.71)"/></g><g class="bo" transform="translate(20.411 46.02)"><path class="bn" d="M587.989,529.372a15.75,15.75,0,0,1-2.607,1.807,1.13,1.13,0,0,0-.409-.16l-4.962-.953a1.2,1.2,0,0,0-.285-.022,1.175,1.175,0,0,0-.6.2,1.151,1.151,0,0,0-.29.28c.187.049.37.1.552.138a1.559,1.559,0,0,1,1.175,1.865.365.365,0,0,1-.023.076,12.429,12.429,0,0,1-6.395-1.535c-.125-.067-.254-.134-.378-.2a23.522,23.522,0,0,1-4.419-3.231,1.554,1.554,0,0,1,2.123-.432c.009,0,.156.1.41.254a1.141,1.141,0,0,0-.32-.422l-3.925-3.187a1.193,1.193,0,0,0-.8-.263c-.023,0-.044,0-.067,0a1.092,1.092,0,0,0-.378.111c.12.076.24.151.36.223a1.551,1.551,0,0,1,.689,1.838,48.457,48.457,0,0,1-3.484-4.13,4.289,4.289,0,0,1,5.643-.2l3.925,3.186a4.3,4.3,0,0,1,1.437,4.464c.289.138.588.272.9.4A4.291,4.291,0,0,1,580.6,527l4.966.957A4.239,4.239,0,0,1,587.989,529.372Z" transform="translate(-563.954 -520.47)"/></g><g class="bo" transform="translate(44.295 0.905)"><path class="bn" d="M618.893,460.516a29.837,29.837,0,0,1-.356,3.324c-.227,1.473-.574,3.128-1.055,4.988-.364,1.429-.805,2.973-1.335,4.65-.636,2.034-1.4,4.255-2.291,6.684a1.64,1.64,0,0,1-.552-.226,1.562,1.562,0,0,1-.667-1.491,1.184,1.184,0,0,0-.542.645l-1.66,4.775a1.176,1.176,0,0,0,.054.9,1.418,1.418,0,0,0,.177.258c0-.017.009-.035.013-.049a1.546,1.546,0,0,1,1.789-1.157q-.867,2.229-1.873,4.664-1.3,3.144-2.826,6.648a1.375,1.375,0,0,1-.276-.147,1.555,1.555,0,0,1-.422-2.158c0-.009.124-.192.312-.494a1.183,1.183,0,0,0-1.029.792l-1.659,4.771a1.186,1.186,0,0,0,.169,1.1c.138-.414.267-.837.369-1.255a1.559,1.559,0,0,1,1.883-1.139h0c-.512,1.157-1.046,2.349-1.6,3.569q-.668,1.469-1.331,2.795c-.828,1.642-1.66,3.124-2.492,4.464a1.555,1.555,0,0,1-.075-1.838s.062-.1.165-.254a.925.925,0,0,0-.192-.009,1.121,1.121,0,0,0-.458.116,1.17,1.17,0,0,0-.6.676l-1.66,4.775a1.167,1.167,0,0,0-.049.579,24.929,24.929,0,0,1-2.252,2.407,4.279,4.279,0,0,1-.641-4.01l1.655-4.77a4.29,4.29,0,0,1,2.189-2.461,4.279,4.279,0,0,1,3.285-.191l.3.1c.089-.178.183-.365.272-.556a4.307,4.307,0,0,1-1.883-5.119l1.66-4.775a4.273,4.273,0,0,1,2.185-2.461,4.279,4.279,0,0,1,3.285-.191l.08.031c.218-.445.437-.912.646-1.4a4.287,4.287,0,0,1-2.114-5.237l1.66-4.775a4.3,4.3,0,0,1,5.163-2.741c.329-.619.68-1.327,1.01-2.083a4.31,4.31,0,0,1-1.82-5.078l1.66-4.775a4.269,4.269,0,0,1,2.19-2.456A4.21,4.21,0,0,1,618.893,460.516Z" transform="translate(-595.694 -460.516)"/></g><path class="bn" d="M577.64,524.343a5.272,5.272,0,0,1-.989-.094l-4.963-.955a5.186,5.186,0,0,1-4.2-5.3q-.336-.143-.667-.294l-.044.053a5.193,5.193,0,0,1-7.3.758l-3.924-3.186a5.188,5.188,0,0,1-1.519-6.021q-.257-.227-.516-.465a5.118,5.118,0,0,1-2.521.8,5.237,5.237,0,0,1-.753-.017,5.15,5.15,0,0,1-3.508-1.861l-3.22-3.895a5.2,5.2,0,0,1,.141-6.774q-.313-.592-.615-1.219l-.121.007a5.228,5.228,0,0,1-5.4-4.516l-.651-5.012a5.189,5.189,0,0,1,4.479-5.814l2.127-.276a5.189,5.189,0,0,1,5.814,4.477l.651,5.012a5.161,5.161,0,0,1-1.035,3.835,5.4,5.4,0,0,1-.4.459,5.165,5.165,0,0,1,4.656,1.841l3.221,3.9a5.2,5.2,0,0,1,.636,5.626l.059.053a5.187,5.187,0,0,1,6.363.138l3.923,3.185a5.192,5.192,0,0,1,1.908,3.765A5.177,5.177,0,0,1,574.054,511l4.963.954a5.184,5.184,0,0,1,1.433.5,5.168,5.168,0,0,1,.074-3.165l1.658-4.774a5.2,5.2,0,0,1,4.851-3.489,5.2,5.2,0,0,1-.694-4.736l1.66-4.774a5.191,5.191,0,0,1,5.893-3.391,5.185,5.185,0,0,1-1.809-5.87l1.658-4.774a5.211,5.211,0,0,1,5.518-3.445q.2-.4.387-.795a5.222,5.222,0,0,1-1.549-5.662l1.659-4.774a5.186,5.186,0,0,1,6.6-3.2l2.026.7a5.193,5.193,0,0,1,3.2,6.6l-1.659,4.774a5.171,5.171,0,0,1-5.747,3.416c-.1.229-.214.458-.325.687a5.157,5.157,0,0,1,1.719,5.8l-1.659,4.774a5.184,5.184,0,0,1-5.4,3.464c-.037.082-.074.165-.112.247a5.18,5.18,0,0,1,1.425,5.55l-1.659,4.774a5.195,5.195,0,0,1-4.649,3.482c-.066,0-.133.005-.2.006a5.233,5.233,0,0,1,.46.771,5.155,5.155,0,0,1,.231,3.966l-1.658,4.774a5.188,5.188,0,0,1-6.228,3.313,34.821,34.821,0,0,1-3.258,2.7l-.138.72a5.195,5.195,0,0,1-4.837,4.2C577.808,524.341,577.724,524.343,577.64,524.343Zm-11.076-8.63a.9.9,0,0,1,.384.087c.591.283,1.2.554,1.826.805a.891.891,0,0,1,.542.984,3.4,3.4,0,0,0,2.708,3.957l4.963.955a3.41,3.41,0,0,0,3.992-2.7l.2-1.065a.888.888,0,0,1,.354-.555,32.681,32.681,0,0,0,3.726-3.111.888.888,0,0,1,.917-.206l.151.053a3.409,3.409,0,0,0,4.339-2.1l1.659-4.774a3.41,3.41,0,0,0-1.188-3.858.89.89,0,0,1-.267-1.112q.158-.316.316-.652a.89.89,0,0,1,1.069-.47,3.4,3.4,0,0,0,4.228-2.133l1.659-4.774a3.407,3.407,0,0,0-1.343-3.96.89.89,0,0,1-.311-1.13c.235-.486.457-.979.662-1.464a.892.892,0,0,1,1.036-.518,3.316,3.316,0,0,0,.983.1,3.418,3.418,0,0,0,3.054-2.288l1.66-4.774a3.433,3.433,0,0,0-1.61-4.118.89.89,0,0,1-.37-1.193c.34-.66.657-1.328.942-1.986a.891.891,0,0,1,1.1-.491,3.4,3.4,0,0,0,4.294-2.114l1.66-4.774a3.415,3.415,0,0,0-2.1-4.34l-2.027-.7a3.407,3.407,0,0,0-4.339,2.1l-1.659,4.774a3.427,3.427,0,0,0,1.443,4.026.891.891,0,0,1,.351,1.118c-.313.71-.663,1.431-1.04,2.142a.887.887,0,0,1-1.015.443,3.422,3.422,0,0,0-4.094,2.172l-1.658,4.774a3.4,3.4,0,0,0,1.674,4.154.89.89,0,0,1,.416,1.145c-.208.484-.432.969-.666,1.442a.89.89,0,0,1-1.089.447L594.02,490a3.412,3.412,0,0,0-4.341,2.1l-1.659,4.774a3.416,3.416,0,0,0,1.5,4.058.89.89,0,0,1,.351,1.155c-.095.2-.189.389-.284.574a.889.889,0,0,1-1.085.439l-.295-.1a3.41,3.41,0,0,0-4.341,2.1l-1.659,4.773a3.414,3.414,0,0,0,1.108,3.791.891.891,0,0,1,.038,1.363c-.308.272-.615.534-.916.78a.891.891,0,0,1-1.358-.288,3.39,3.39,0,0,0-2.4-1.818l-4.963-.954a3.4,3.4,0,0,0-3.757,1.966.89.89,0,0,1-1.163.46c-.321-.137-.629-.276-.929-.416a.891.891,0,0,1-.483-1.039,3.416,3.416,0,0,0-1.137-3.543l-3.923-3.185a3.406,3.406,0,0,0-4.6.279.889.889,0,0,1-1.219.061c-.406-.346-.817-.716-1.225-1.1a.889.889,0,0,1-.114-1.161,3.415,3.415,0,0,0-.149-4.142l-3.22-3.9a3.394,3.394,0,0,0-4.138-.88.89.89,0,0,1-1.179-.379c-.2-.377-.39-.749-.564-1.108a.891.891,0,0,1,.4-1.186,3.4,3.4,0,0,0,1.861-3.488l-.651-5.011a3.408,3.408,0,0,0-3.82-2.941l-2.127.276a3.409,3.409,0,0,0-2.942,3.82l.651,5.012a3.416,3.416,0,0,0,3.543,2.966c.091,0,.183-.013.276-.025l.35-.045a.891.891,0,0,1,.924.511c.369.8.758,1.573,1.154,2.284a.891.891,0,0,1-.208,1.117,3.417,3.417,0,0,0-.443,4.788l3.22,3.895a3.381,3.381,0,0,0,2.3,1.223,3.234,3.234,0,0,0,.5.011,3.364,3.364,0,0,0,2-.777l.108-.089a.89.89,0,0,1,1.184.042c.5.483,1.015.943,1.517,1.367a.891.891,0,0,1,.188,1.139,3.4,3.4,0,0,0,.771,4.4l3.923,3.186a3.377,3.377,0,0,0,2.312.756,3.411,3.411,0,0,0,2.483-1.254l.48-.592A.892.892,0,0,1,566.564,515.712Zm11.072,5.514a2.08,2.08,0,0,1-.4-.038l-4.963-.955a2.074,2.074,0,0,1-1.634-1.594.89.89,0,0,1,1.09-1.052l.123.032c.11.028.219.056.329.081a.679.679,0,0,0,.178.017.668.668,0,0,0,.534-1.023.662.662,0,0,0-.418-.295c-.194-.044-.39-.1-.585-.147a.89.89,0,0,1-.488-1.388,2.059,2.059,0,0,1,1.564-.845,2.046,2.046,0,0,1,.5.036l4.963.954a2.064,2.064,0,0,1,1.678,2.091.887.887,0,0,1-.4.717c-.428.285-.693.447-.7.453a.661.661,0,0,0-.071,1.093.889.889,0,0,1,.017,1.38,1.383,1.383,0,0,1-.16.127A2.06,2.06,0,0,1,577.636,521.227Zm-3.562-2.459,2.876.553a2.452,2.452,0,0,1,1.126-2.567l-3.5-.673a2.447,2.447,0,0,1-.506,2.686Zm-11.332-2.21a2.058,2.058,0,0,1-1.3-.464l-3.923-3.185a2.064,2.064,0,0,1-.694-2.146.89.89,0,0,1,1.344-.516c.247.16.5.317.75.464a.622.622,0,0,0,.368.09.667.667,0,0,0,.3-1.243c-.1-.057-.194-.117-.291-.179l-.092-.057a.89.89,0,0,1,.093-1.561,2.031,2.031,0,0,1,.665-.189c.026,0,.065-.007.1-.008a2.068,2.068,0,0,1,1.418.461l3.923,3.186a2.037,2.037,0,0,1,.569.739.889.889,0,0,1-1.265,1.136c-.272-.163-.427-.261-.435-.266a.667.667,0,0,0-.722,1.123c.036.023.278.177.662.4a.89.89,0,0,1,.239,1.327l-.1.12a2.058,2.058,0,0,1-1.4.755A1.977,1.977,0,0,1,562.741,516.558Zm-2.9-4.05,1.672,1.357a2.441,2.441,0,0,1,1.147-2.59l-.99-.8a2.449,2.449,0,0,1-1.829,2.036Zm28.048,1.168a.889.889,0,0,1-.888-.828.663.663,0,0,0-1.181-.372c-.031.038-.064.077-.1.116l-.05.06a.89.89,0,0,1-1.016.261,2.068,2.068,0,0,1-1.2-2.6l1.659-4.774a2.048,2.048,0,0,1,2.189-1.379.89.89,0,0,1,.654,1.361l-.161.25a.677.677,0,0,0,.165.952.644.644,0,0,0,.4.112.661.661,0,0,0,.523-.294c.025-.037.2-.3.451-.711a.894.894,0,0,1,.753-.424.857.857,0,0,1,.758.413,1.762,1.762,0,0,1,.119.2,2.06,2.06,0,0,1,.092,1.583l-1.659,4.775a2.071,2.071,0,0,1-1.182,1.236A.888.888,0,0,1,587.893,513.675Zm-1.547-3.229a2.436,2.436,0,0,1,1.532.539c.034.027.067.056.1.085l.874-2.514a2.325,2.325,0,0,1-.391.051,2.446,2.446,0,0,1-2.146-1.077l-1.111,3.2A2.456,2.456,0,0,1,586.346,510.447Zm-35.616-3.913a1.871,1.871,0,0,1-.195-.01,2.062,2.062,0,0,1-1.4-.744l-3.219-3.895a2.084,2.084,0,0,1-.192-2.361.89.89,0,0,1,1.484-.086c.106.141.213.283.322.421a.642.642,0,0,0,.557.251.655.655,0,0,0,.381-.144.668.668,0,0,0,.108-.938c-.12-.151-.237-.306-.353-.463a.89.89,0,0,1,.543-1.4,2.062,2.062,0,0,1,2,.711l3.22,3.9a2.06,2.06,0,0,1,.468,1.427.889.889,0,0,1-1.565.532l-.032-.038a.668.668,0,1,0-1.043.834c.02.024.117.14.268.312a.89.89,0,0,1-.157,1.312A2.078,2.078,0,0,1,550.731,506.534Zm-2.5-4.649,1.663,2.013,0-.026a2.448,2.448,0,0,1,1.767-2.126l-1.277-1.546a2.45,2.45,0,0,1-2.155,1.684Zm45.047-1.121c-.048,0-.1,0-.144,0a.89.89,0,0,1-.783-1.175c.19-.558.35-1.1.474-1.606a.667.667,0,0,0-.992-.731.658.658,0,0,0-.3.411c-.1.4-.226.837-.386,1.321a.891.891,0,0,1-1.559.254,2.075,2.075,0,0,1-.3-1.923l1.66-4.774a2.074,2.074,0,0,1,1.8-1.385.889.889,0,0,1,.824,1.356c-.208.336-.342.536-.348.545a.664.664,0,0,0,.2.9.641.641,0,0,0,.4.113.663.663,0,0,0,.523-.294c0-.005.275-.409.686-1.1a.889.889,0,0,1,1.423-.144,2.071,2.071,0,0,1,.432,2.075h0l-1.659,4.773a2.057,2.057,0,0,1-1.953,1.389Zm.342-4.924a2.441,2.441,0,0,1,.652.713c.012.02.024.04.035.061l.318-.914a2.434,2.434,0,0,1-.711.143A2.554,2.554,0,0,1,593.615,495.839Zm-1.655-.817-.129.371a2.4,2.4,0,0,1,.519-.017A2.447,2.447,0,0,1,591.961,495.022Zm-49.633-2.3a.905.905,0,0,1-.26-.038,2.08,2.08,0,0,1-1.455-1.716l-.65-5.012a2.074,2.074,0,0,1,1.789-2.324l2.128-.276c.056-.008.116-.013.176-.015a2.041,2.041,0,0,1,1.357.429,2.061,2.061,0,0,1,.791,1.376l.651,5.012a2.057,2.057,0,0,1-.414,1.532,2.035,2.035,0,0,1-.45.425.89.89,0,0,1-1.347-.415c-.12-.322-.192-.529-.209-.58a.668.668,0,1,0-1.274.4l.015.046a.889.889,0,0,1-.849,1.157Zm1.822-7.6h-.014l-2.153.279a.294.294,0,0,0-.253.329l.482,3.718a2.44,2.44,0,0,1,2.717-.3l-.489-3.767a.282.282,0,0,0-.112-.2A.287.287,0,0,0,544.149,485.117Zm54.871,1.613a.89.89,0,0,1-.858-1.125l.035-.13c.025-.087.05-.175.071-.263a.668.668,0,0,0-1.3-.319c0,.01-.013.05-.016.06a.908.908,0,0,1-.667.636.891.891,0,0,1-.868-.275,2.041,2.041,0,0,1-.4-2.039l1.658-4.774a2.078,2.078,0,0,1,.947-1.128.89.89,0,0,1,1.318.887.666.666,0,0,0,.284.639.635.635,0,0,0,.4.112.661.661,0,0,0,.524-.294c.018-.027.109-.165.246-.381a.89.89,0,0,1,1.118-.335,2.071,2.071,0,0,1,1.013.98l0,0a2.063,2.063,0,0,1,.091,1.584l-1.659,4.774a2.066,2.066,0,0,1-1.943,1.39Zm-1.4-4.125a2.444,2.444,0,0,1,2.034,1.091l1.112-3.2a2.44,2.44,0,0,1-2.53-.119,2.54,2.54,0,0,1-.255-.2l-.861,2.477A2.41,2.41,0,0,1,597.623,482.6Zm7.411-10.551a2.135,2.135,0,0,1-.506-.062.89.89,0,0,1-.642-1.112c.07-.241.136-.481.2-.722a.668.668,0,0,0-1.3-.319l-.019.075a.915.915,0,0,1-.819.665.885.885,0,0,1-.878-.547,2.076,2.076,0,0,1-.032-1.434l1.659-4.774a2.077,2.077,0,0,1,2.639-1.279l2.029.706a2.077,2.077,0,0,1,1.278,2.64h0l-1.659,4.774A2.059,2.059,0,0,1,605.034,472.054Zm-1.6-4.5a2.443,2.443,0,0,1,2.236,1.461l1.288-3.705a.3.3,0,0,0-.182-.375l-2.026-.7a.31.31,0,0,0-.108-.016.3.3,0,0,0-.267.2l-1.093,3.146C603.335,467.553,603.386,467.551,603.437,467.551Z" transform="translate(-536.83 -459.313)"/></g><g transform="translate(101.565 259.128)"><g transform="translate(17.419 1.991)"><path class="bn" d="M587,544.873a1.554,1.554,0,0,1-1.512-1.2,9.162,9.162,0,0,1,.166-4.621,1.557,1.557,0,0,1,2.947,1.01,6.134,6.134,0,0,0-.081,2.9,1.561,1.561,0,0,1-1.163,1.868A1.582,1.582,0,0,1,587,544.873Z" transform="translate(-585.267 -538.004)"/></g><g transform="translate(1.064 1.064)"><path class="br" d="M599.8,551.493a3.783,3.783,0,0,1-4.237-3.262L572,551.292a3.784,3.784,0,1,1-5.278-2.964,3.781,3.781,0,1,1,4.339-4.223q.02.14.027.28l23.586-3.07a1.991,1.991,0,0,1-.049-.276,3.192,3.192,0,0,1-.022-.681,3.779,3.779,0,1,1,5.3,3.654,3.779,3.779,0,0,1-.1,7.48Z" transform="translate(-563.533 -536.771)"/></g><g class="bo" transform="translate(1.999 1.064)"><path class="bn" d="M600.106,551.493a3.783,3.783,0,0,1-4.236-3.262l-23.559,3.062a3.783,3.783,0,1,1-7.468-.209c1.18.725,5.536,3.022,5.786-2.915l22.1-3.119a3.076,3.076,0,0,0,2.225-4.626l-.04-.065a3.779,3.779,0,1,1,5.3,3.654,3.779,3.779,0,0,1-.1,7.48Z" transform="translate(-564.776 -536.771)"/></g><path class="bn" d="M567.9,556.279a4.841,4.841,0,0,1-3.647-8.025,4.845,4.845,0,1,1,7.357-5.407l21.574-2.807a4.847,4.847,0,0,1,9.651-.462,4.866,4.866,0,0,1-1.157,3.808,4.86,4.86,0,0,1,2.093,3.381h0a4.847,4.847,0,0,1-9.359,2.291l-21.68,2.82a4.857,4.857,0,0,1-4.831,4.4Zm-.929-14.751a2.651,2.651,0,0,0-.352.023,2.716,2.716,0,0,0-.078,5.375,1.064,1.064,0,0,1,.264,2.027,2.714,2.714,0,1,0,3.793,2.129,1.065,1.065,0,0,1,.919-1.193l23.561-3.065a1.065,1.065,0,0,1,1.193.919,2.716,2.716,0,0,0,5.387-.7h0a2.727,2.727,0,0,0-2.267-2.329,1.064,1.064,0,0,1-.263-2.026,2.716,2.716,0,0,0-1.448-5.177,2.715,2.715,0,0,0-2.343,3.044,1.522,1.522,0,0,0,.028.163,1.065,1.065,0,0,1-.9,1.3l-23.586,3.069a1.077,1.077,0,0,1-.831-.248,1.065,1.065,0,0,1-.371-.783,1.546,1.546,0,0,0-.015-.166A2.719,2.719,0,0,0,566.967,541.527Z" transform="translate(-562.119 -535.357)"/></g><g transform="translate(54.545 96.313)"><g transform="translate(1.54 1.56)"><path class="bl" d="M594.395,441.183c-23.76,12.14-48.014,14.516-65.748,7.627-9.884-3.832-17.743-10.542-22.367-20.039-4.588-9.4-6-21.539-3.066-36.322q.855-4.306,2.207-8.909s7.152-27.516,46.439-33.425c0,0,6.568-14.78,26.866-28.032a6.227,6.227,0,0,1,8.789,2.065c2.941,5.033,7.008,14.4,10.026,30.783,0,0,10.583,6.434,17.449,25.317C614.99,380.246,647.032,414.29,594.395,441.183Z" transform="translate(-501.679 -321.06)"/></g><g transform="translate(6.141 60.746)"><path class="bp" d="M595.908,460.651c-37,18.9-75.187,14.134-88.114-12.412,1.206.628,2.394,1.171,3.551,1.643a22.288,22.288,0,0,0,22.145-3.32,77.668,77.668,0,0,1,13.649-8.073c23.279-7.081,37.4-9.037,48.339-8.735,8.74.245,15.375-7.522,16.919-16.124,1.638-9.128,4.108-13.916,4.108-13.916S648.545,433.758,595.908,460.651Z" transform="translate(-507.794 -399.714)"/></g><g class="bo" transform="translate(3.075 3.013)"><path class="bn" d="M594.9,441.661c-23.76,12.14-48.014,14.516-65.748,7.627l-.187-.312S606.532,452.1,607.5,403.8c.846-42.059-56.5-65.9-103.783-10.872q.854-4.306,2.207-8.909s7.152-27.516,46.439-33.425c0,0,41.373,13.818,34.275-27.6a6.245,6.245,0,0,1,1.38,1.633c2.941,5.033,7.009,14.4,10.026,30.783,0,0,10.583,6.434,17.449,25.317C615.5,380.724,647.537,414.768,594.9,441.661Z" transform="translate(-503.719 -322.991)"/></g><g transform="translate(62.491 10.436)"><path class="bs" d="M606,357.413a72.728,72.728,0,0,0-21.486-3.773,1.881,1.881,0,0,1-1.524-2.917c3.045-4.622,9.691-13.518,18.2-17.868a65.728,65.728,0,0,1,7.3,22.544A1.884,1.884,0,0,1,606,357.413Z" transform="translate(-582.679 -332.855)"/></g><g class="bo" transform="translate(62.491 10.436)"><path class="bn" d="M584.236,353.612a57.485,57.485,0,0,1,12.311-12.825,4.238,4.238,0,0,1,6.349,1.748A68.217,68.217,0,0,1,607.5,357.3a1.87,1.87,0,0,0,.989-1.9,65.726,65.726,0,0,0-7.3-22.544c-8.51,4.349-15.156,13.245-18.2,17.868A1.882,1.882,0,0,0,584.236,353.612Z" transform="translate(-582.679 -332.855)"/></g><g transform="translate(39.109 8.689)"><g transform="translate(56.72 25.109)"><path class="bn" d="M630.09,365.269a11.753,11.753,0,0,1,.069,1.564c-.01.521-.039,1.043-.093,1.567a9.708,9.708,0,0,1-.752,3.136.1.1,0,0,1-.181.007,13.894,13.894,0,0,1-.7-1.453c-.207-.48-.373-.959-.543-1.437s-.329-.956-.479-1.433-.288-.962-.388-1.425v0a1.559,1.559,0,1,1,3.048-.66C630.076,365.177,630.084,365.224,630.09,365.269Z" transform="translate(-626.983 -363.902)"/></g><g transform="translate(10.314 20.3)"><path class="bn" d="M568.966,359.9a10.315,10.315,0,0,1-.664.9q-.362.442-.754.873a11.676,11.676,0,0,1-1.776,1.659l-.007.005a.233.233,0,0,1-.325-.048.243.243,0,0,1-.041-.093,4.97,4.97,0,0,1-.072-1.316,8.431,8.431,0,0,1,.184-1.23c.082-.4.187-.79.305-1.174a7.722,7.722,0,0,1,.441-1.118,1.559,1.559,0,1,1,2.781,1.41A1.316,1.316,0,0,1,568.966,359.9Z" transform="translate(-565.313 -357.511)"/></g><g transform="translate(22.266 0.634)"><path class="bn" d="M606.26,358.266a3.019,3.019,0,0,1-.991-.169h0a71.878,71.878,0,0,0-21.146-3.711,2.993,2.993,0,0,1-2.427-4.641c3.237-4.914,9.961-13.819,18.625-18.246a1.111,1.111,0,0,1,1.466.428,66.193,66.193,0,0,1,7.44,22.965,3,3,0,0,1-2.966,3.374Zm-5.883-24.274c-7.754,4.348-13.829,12.432-16.823,16.978a.768.768,0,0,0,.622,1.193A74.172,74.172,0,0,1,606,356a.772.772,0,0,0,1.02-.822A66.252,66.252,0,0,0,600.378,333.992Z" transform="translate(-581.196 -331.376)"/></g><g transform="translate(40.907)"><path class="bn" d="M606.44,331.4a5.936,5.936,0,0,1,1.516-.64,5.481,5.481,0,0,1,.837-.188,3.741,3.741,0,0,1,.937-.019.094.094,0,0,1,.081.1.115.115,0,0,1-.007.023,3.689,3.689,0,0,1-.467.812,5.644,5.644,0,0,1-.567.643,5.953,5.953,0,0,1-1.291,1.021,1.021,1.021,0,0,1-1.038-1.756Z" transform="translate(-605.968 -330.534)"/></g><g transform="translate(0 87.087)"><path class="bn" d="M563.656,458.934c5.307-1.82,8.906-8.021,6.553-11.2s-10.457-.179-10.457-.179-8.24,2.6-8.145,6.559S558.35,460.754,563.656,458.934Z" transform="translate(-551.606 -446.267)"/></g><g transform="translate(1.871 89.286)"><ellipse class="bp" cx="4.766" cy="1.083" rx="4.766" ry="1.083" transform="translate(0 3.092) rotate(-18.933)"/></g><g transform="translate(5.619 99.417)"><path class="bn" d="M559.073,473.974a6.348,6.348,0,0,1,.99-3.221c.147-.238.3-.475.458-.705s.352-.43.53-.646a12.024,12.024,0,0,1,1.188-1.172,20.682,20.682,0,0,1,5.623-3.513c.512-.2,1.023-.416,1.54-.612.523-.172,1.054-.309,1.582-.464a24.8,24.8,0,0,1,3.209-.682c1.076-.168,2.161-.21,3.24-.3,1.078,0,2.156.02,3.228.069a1.556,1.556,0,0,1,.073,3.1l-.125.011c-.995.093-1.985.146-2.974.2l-1.465.177c-.485.073-.984.074-1.46.178a32.536,32.536,0,0,0-5.641,1.388,22.172,22.172,0,0,0-5.112,2.6c-.384.284-.785.554-1.148.865-.193.144-.383.293-.584.433-.184.155-.378.3-.576.451-.79.6-1.582,1.2-2.51,1.877l0,0a.039.039,0,0,1-.055-.009A.036.036,0,0,1,559.073,473.974Z" transform="translate(-559.073 -462.653)"/></g><g transform="translate(25.351 93.263)"><path class="bn" d="M588.229,454.805c-.025,1.382-.079,2.641-.034,3.827a14.456,14.456,0,0,0,.452,3.313,9.685,9.685,0,0,0,1.428,2.934,26.221,26.221,0,0,0,2.481,2.841l0,0a.349.349,0,0,1-.29.589,7.89,7.89,0,0,1-6.6-5.471,8.286,8.286,0,0,1-.11-4.539,7.524,7.524,0,0,1,2.177-3.754.3.3,0,0,1,.417.023.292.292,0,0,1,.075.2Z" transform="translate(-585.296 -454.474)"/></g><g transform="translate(8.815 94.367)"><path class="bn" d="M567.851,466.86a1.556,1.556,0,0,1-1.325-.737,23.429,23.429,0,0,1-3.192-8.42,1.557,1.557,0,0,1,3.087-.412,20.635,20.635,0,0,0,2.753,7.191,1.558,1.558,0,0,1-1.323,2.379Z" transform="translate(-563.32 -455.941)"/></g></g><path class="bn" d="M549.985,453.7c-13.726,0-25.98-3.756-35.041-11.275-15.111-12.541-19.207-33.783-11.531-59.816.152-.567,2.1-7.465,8.817-15.1,6.2-7.051,17.82-16.077,38.078-19.315,1.671-3.291,9.02-16.142,27.057-27.922a7.781,7.781,0,0,1,10.986,2.585c2.927,5,7.035,14.363,10.092,30.637,2.4,1.687,11.283,8.809,17.4,25.425,1.727,1.933,12.125,14.33,9.416,29.953-2.213,12.762-12.53,23.93-30.663,33.194C579.415,449.812,563.939,453.694,549.985,453.7ZM581.626,322.1a4.654,4.654,0,0,0-2.556.769c-19.618,12.811-26.228,27.217-26.292,27.361a1.557,1.557,0,0,1-1.19.905c-19.737,2.971-30.96,11.584-36.9,18.287-6.437,7.264-8.249,13.926-8.266,13.992l-.013.046c-7.309,24.773-3.57,44.859,10.527,56.558,17.313,14.367,47.24,14.077,76.243-.74,17.214-8.794,26.974-19.208,29.011-30.952,2.625-15.142-8.723-27.408-8.838-27.53a1.556,1.556,0,0,1-.329-.535c-6.568-18.06-16.7-24.46-16.8-24.523a1.568,1.568,0,0,1-.719-1.047c-2.987-16.228-7-25.421-9.837-30.275a4.628,4.628,0,0,0-2.957-2.191A4.687,4.687,0,0,0,581.626,322.1Z" transform="translate(-499.633 -318.987)"/></g><g transform="translate(49.467 125.695)"><g transform="translate(1.555 1.557)"><path class="bt" d="M500.615,407.8s.756,4.807,39.282-7.018,48.444-14.494,48.444-14.494l15.639-24.413s3.984-2.07,7.177-1.736a2.426,2.426,0,0,1,.518,4.718l-3.4,1.118L592.012,393.2s9.584,32.471-20.026,36.19c0,0-15.682,2.742-24.833-9.347a2.009,2.009,0,0,0-3.6.9c-1,6.962-4.993,16.975-19.339,19.618-20.012,3.687-27.351-17.786-29.141-24.511a3.553,3.553,0,0,1,.873-3.368Z" transform="translate(-494.951 -360.101)"/></g><g transform="translate(7.944 50.864)"><path class="bn" d="M507.016,432.19l25.56-6.419a4.732,4.732,0,0,1,5.673,3.187c2.02,6.5,3.492,18.653-11.8,22.515-13.207,3.337-19.774-6.324-22.606-12.764A4.739,4.739,0,0,1,507.016,432.19Z" transform="translate(-503.441 -425.628)"/></g><g transform="translate(55.503 37.334)"><path class="bn" d="M570.284,415.691l27.031-7.842a5.053,5.053,0,0,1,6.178,3.181c2.409,6.858,4.451,19.771-11.714,24.488-13.966,4.074-21.35-5.982-24.623-12.746A5.061,5.061,0,0,1,570.284,415.691Z" transform="translate(-566.644 -407.647)"/></g><g class="bu" transform="translate(1.555 49.255)"><path class="bp" d="M498.629,432.185a3.551,3.551,0,0,1,.873-3.367l4.188-4.376c-2.941-.118-3.075-.952-3.075-.952l-4.673,4.883a3.553,3.553,0,0,0-.873,3.368c1.624,6.1,7.811,24.326,23.874,24.919C505.509,453.754,500.127,437.811,498.629,432.185Z" transform="translate(-494.951 -423.489)"/></g><g class="bu" transform="translate(10.572 57.256)"><path class="bp" d="M512.49,448.03a21.508,21.508,0,0,1-5.471-8.385,1.822,1.822,0,0,1,.992-2.212c1.69-.759,5.31-1.995,12.728-3.312C520.739,434.122,506.435,437.365,512.49,448.03Z" transform="translate(-506.934 -434.122)"/></g><g class="bu" transform="translate(58.803 44.786)"><path class="bp" d="M576.586,431.458a21.505,21.505,0,0,1-5.471-8.385,1.822,1.822,0,0,1,.992-2.212c1.69-.759,5.309-1.995,12.727-3.312C584.835,417.55,570.531,420.792,576.586,431.458Z" transform="translate(-571.03 -417.55)"/></g><g class="bu" transform="translate(21.259 48.615)"><path class="bp" d="M521.21,426.83a20.107,20.107,0,0,1,3.506-1.752,33.117,33.117,0,0,1,3.654-1.207c1.236-.337,2.486-.624,3.753-.844a24.475,24.475,0,0,1,3.876-.388.347.347,0,0,1,.175.648,24.421,24.421,0,0,1-3.543,1.62c-1.2.449-2.428.832-3.666,1.165a33.193,33.193,0,0,1-3.764.8,20.116,20.116,0,0,1-3.911.257.163.163,0,0,1-.081-.3Z" transform="translate(-521.136 -422.639)"/></g><path class="bn" d="M519.173,442.037c-17.7,0-24.4-19.644-26.12-26.1a5.139,5.139,0,0,1,1.252-4.845l4.674-4.883a1.558,1.558,0,0,1,2.408.193c.792.336,6.687,1.847,37.542-7.623,33.2-10.189,45.281-13.617,47.911-14.349l15.317-23.91a1.556,1.556,0,0,1,.593-.542c.18-.093,4.441-2.281,8.058-1.9a3.984,3.984,0,0,1,.841,7.748l-2.85.936-15.622,26.159c.826,3.217,3.789,16.961-2.832,27.08-3.817,5.833-10.089,9.339-18.642,10.42-1.107.186-16.829,2.567-26.3-9.948a.454.454,0,0,0-.5-.181.405.405,0,0,0-.32.363c-.946,6.573-4.88,18.032-20.6,20.928A26.5,26.5,0,0,1,519.173,442.037Zm-18.86-32.717-3.758,3.927a2.006,2.006,0,0,0-.493,1.889c1.562,5.868,7.628,23.766,23.259,23.768a22.58,22.58,0,0,0,4.1-.388c13.112-2.415,17.069-11.289,18.078-18.308a3.5,3.5,0,0,1,2.625-2.936,3.587,3.587,0,0,1,3.763,1.318c8.448,11.161,23.176,8.778,23.325,8.752l.072-.011c7.617-.956,13.151-3.993,16.451-9.028,6.6-10.07,2.319-25.027,2.276-25.177a1.561,1.561,0,0,1,.157-1.239l16.259-27.226a1.556,1.556,0,0,1,.851-.681l3.4-1.118a.814.814,0,0,0,.591-.911.827.827,0,0,0-.784-.779,13.249,13.249,0,0,0-5.939,1.394l-15.4,24.046a1.555,1.555,0,0,1-.907.664c-.1.027-10.364,2.808-48.392,14.48C524.69,406.409,505.885,411.372,500.313,409.321Zm1.327-2.281h0Zm0,0Zm0,0Z" transform="translate(-492.884 -358.033)"/></g><g transform="translate(44.804 178.373)"><g transform="translate(1.632 1.759)"><path class="bl" d="M563.563,448.69c-2.625,6.124-9.617,11.825-17.574,16.631a157.658,157.658,0,0,1-20.7,10.235l.027,1.589-1.513,6.639s-20.693,10.49-32.9-9.345c-9.693-15.75,16.929-33.185,41.387-40.653a92,92,0,0,1,14.134-3.2,21.822,21.822,0,0,1,10.636,1.112C562.33,433.7,568.027,438.276,563.563,448.69Z" transform="translate(-488.857 -430.376)"/></g><g transform="translate(41.786 1.759)"><path class="bp" d="M576.771,448.69c-2.625,6.124-9.617,11.825-17.574,16.631-13.323-4.179-18.975-19.323-16.354-30.685a132.212,132.212,0,0,1,16.785-4.045,21.822,21.822,0,0,1,10.636,1.112C575.538,433.7,581.234,438.276,576.771,448.69Z" transform="translate(-542.218 -430.376)"/></g><g class="bo" transform="translate(25.922 1.761)"><path class="bn" d="M557.518,430.379s19.569,16.447-7.188,30.4a66.215,66.215,0,0,0-6.007,3.513l-23.186,15.387a103.786,103.786,0,0,0,33.945-15.039C572.507,452.888,586.07,432.77,557.518,430.379Z" transform="translate(-521.136 -430.379)"/></g><g class="bq" transform="translate(1.632 1.759)"><path class="bp" d="M534.512,437.346a92,92,0,0,1,14.134-3.2,21.814,21.814,0,0,1,10.636,1.113,14.885,14.885,0,0,1,5.368,3.319c-1.237-3.631-4.488-5.7-7.593-6.88a21.822,21.822,0,0,0-10.636-1.112,92,92,0,0,0-14.134,3.2c-24.458,7.468-51.079,24.9-41.387,40.653.482.783.979,1.514,1.485,2.206C484.956,461.261,510.753,444.6,534.512,437.346Z" transform="translate(-488.857 -430.376)"/></g><g transform="translate(0 0)"><path class="bn" d="M523.3,483.276a14.02,14.02,0,0,1-2.832,1.865,20.559,20.559,0,0,1-3.139,1.29A22.567,22.567,0,0,1,514,487.2c-.568.066-1.134.161-1.709.18l-.86.051-.863,0a23.866,23.866,0,0,1-13.191-3.879,25.835,25.835,0,0,1-5.2-4.583l-.57-.649c-.188-.218-.353-.453-.531-.678-.34-.46-.715-.9-1.026-1.378l-.95-1.426c-.16-.233-.3-.512-.457-.767a8.776,8.776,0,0,1-.424-.8,14.463,14.463,0,0,1-1.221-3.451,14.126,14.126,0,0,1-.286-3.679,17.047,17.047,0,0,1,1.966-6.907,28.217,28.217,0,0,1,3.95-5.705,44,44,0,0,1,4.869-4.738,75.167,75.167,0,0,1,11.034-7.566,108.343,108.343,0,0,1,11.938-5.842,115.967,115.967,0,0,1,12.522-4.42,88.968,88.968,0,0,1,13.066-2.756,22.743,22.743,0,0,1,13.72,2.519,17.123,17.123,0,0,1,1.548.972c.251.178.489.381.733.572l.362.294.342.327a11.22,11.22,0,0,1,2.317,3.038l.419.877c.12.3.21.612.313.918l.148.461c.047.154.065.313.1.47l.173.944c.054.315.047.628.072.943s.046.631.032.94l-.061.923a6.993,6.993,0,0,1-.093.913c-.115.591-.193,1.2-.347,1.774s-.322,1.142-.494,1.707l-.629,1.631a6.64,6.64,0,0,1-.365.808l-.4.8a27.268,27.268,0,0,1-4.108,5.62,49.606,49.606,0,0,1-5.013,4.556q-2.648,2.064-5.442,3.882a118.546,118.546,0,0,1-11.533,6.519c-3.943,1.96-7.955,3.758-12.017,5.425a57.425,57.425,0,0,1-6.189,2.247,29.4,29.4,0,0,1-6.544,1.205.118.118,0,0,1-.123-.112.12.12,0,0,1,.053-.1,65.578,65.578,0,0,1,11.724-5.823q5.98-2.537,11.761-5.477a115.473,115.473,0,0,0,11.155-6.479c1.784-1.185,3.5-2.449,5.161-3.772a46.5,46.5,0,0,0,4.61-4.288,23.979,23.979,0,0,0,3.537-4.943l.323-.664a4.987,4.987,0,0,0,.3-.684l.539-1.423.406-1.437c.126-.479.176-.958.273-1.436a4.816,4.816,0,0,0,.068-.712l.046-.709c.012-.235-.023-.461-.031-.692s-.009-.465-.052-.686l-.128-.664a3.2,3.2,0,0,0-.068-.33l-.108-.315c-.074-.208-.132-.424-.214-.629l-.292-.6a7.764,7.764,0,0,0-1.644-2.12l-.247-.24-.276-.217c-.187-.142-.363-.3-.556-.432a14.007,14.007,0,0,0-1.226-.758,19.264,19.264,0,0,0-11.612-2.035,86.69,86.69,0,0,0-12.494,2.707,112.28,112.28,0,0,0-12.149,4.244,104.737,104.737,0,0,0-11.566,5.612,71.716,71.716,0,0,0-10.541,7.171,44.242,44.242,0,0,0-4.531,4.343,24.805,24.805,0,0,0-3.537,4.98,13.735,13.735,0,0,0-1.667,5.554,10.839,10.839,0,0,0,1.117,5.531,6.61,6.61,0,0,0,.334.648c.126.213.226.423.372.641l.849,1.3c.278.439.611.833.914,1.253.157.2.3.419.47.616l.5.584A22.736,22.736,0,0,0,499.081,481a20.834,20.834,0,0,0,11.514,3.5c1.029.031,2.06-.039,3.1-.087,1.035-.079,2.075-.174,3.124-.295,2.094-.261,4.205-.6,6.41-.983h0a.081.081,0,0,1,.068.141Z" transform="translate(-486.687 -428.038)"/></g><g transform="translate(65.951 1.851)"><path class="bn" d="M580.554,431.87l.044.266.026.205c.017.136.017.259.022.386a4.927,4.927,0,0,1-.035.735,5.99,5.99,0,0,1-.317,1.383,7.65,7.65,0,0,1-1.353,2.363,7.43,7.43,0,0,1-1.989,1.682,7.923,7.923,0,0,1-1.17.527,6.338,6.338,0,0,1-1.274.27.161.161,0,0,1-.175-.145.156.156,0,0,1,.01-.073l0-.011a9.026,9.026,0,0,1,.549-1.118c.17-.362.363-.683.532-1.007s.351-.624.5-.937c.167-.3.309-.6.45-.892a14.71,14.71,0,0,0,.669-1.734c.086-.283.165-.565.232-.838.039-.137.059-.275.093-.4l.042-.187.022-.081c.007-.014.013-.064.028-.02a1.558,1.558,0,1,1,3.093-.372Z" transform="translate(-574.332 -430.498)"/></g><g transform="translate(71.836 9.368)"><path class="bn" d="M589.569,442.131c0,.125-.008.178-.014.251l-.02.2c-.013.129-.038.249-.061.366a5.624,5.624,0,0,1-.179.689,7.01,7.01,0,0,1-.557,1.267,8.125,8.125,0,0,1-1.706,2.078,7.551,7.551,0,0,1-2.216,1.321,3.51,3.51,0,0,1-.607.184c-.2.051-.407.1-.614.134a6.193,6.193,0,0,1-1.261.045.193.193,0,0,1-.181-.2.188.188,0,0,1,.042-.108l.011-.014a10.575,10.575,0,0,1,.81-.876c.248-.3.52-.53.749-.8a16.465,16.465,0,0,0,1.293-1.536,8.941,8.941,0,0,0,.891-1.622,7.992,7.992,0,0,0,.309-.826c.038-.137.083-.276.115-.406l.047-.19.022-.084c0-.021.014-.062.016-.032a1.557,1.557,0,1,1,3.11.172Z" transform="translate(-582.152 -440.488)"/></g></g><g transform="translate(1.308 1.31)"><path class="bv" d="M527.458,289.514l.011.032c12.368-4.155,31.463,2.655,47,15.138,17.092,13.731,27.526,37,26.611,40.487-3.637,13.868-45.859,26.971-45.859,26.971l-.011-.032s-41.567,15.05-52.841,6.192c-2.835-2.227-8.568-27.076-3.236-48.342C503.981,310.629,515.09,293.671,527.458,289.514Z" transform="translate(-445.73 -216.395)"/><path class="bw" d="M570.485,293.087c.941,8.205,5.566,43.217,16.345,47.475,5.392,2.13,19.123-8.044,23.667-11.59,1.216,2.076,2.283,4.07,3.186,5.916-5.2,3.8-22.845,16.1-29.983,13.278-13.8-5.453-20.432-49.547-21.571-57.912A62.06,62.06,0,0,1,570.485,293.087Z" transform="translate(-461.864 -216.872)"/><path class="bx" d="M568.494,292.345s4.613,45.27,16.892,50.272c6.537,2.663,25.133-12.863,25.133-12.863,1.245,2.18,2.32,4.254,3.207,6.148,0,0-22.97,17.891-31.428,14.446-15.333-6.246-22.186-60.58-22.186-60.58A58.7,58.7,0,0,1,568.494,292.345Z" transform="translate(-461.365 -216.751)"/><path class="bw" d="M521.514,363.031c4.717-9.66-11.106-38.279-15.375-46.125a56.021,56.021,0,0,1,4.291-7.27c4.913,9.494,23.421,45.929,17.523,58.009-3.4,6.966-25.009,6.112-28.682,5.916a30.147,30.147,0,0,1-.636-3.847C501.785,370,518.894,368.4,521.514,363.031Z" transform="translate(-446.148 -221.669)"/><path class="bx" d="M520.463,361.929c5.224-10.363-15.177-43.649-15.177-43.649a59.776,59.776,0,0,1,4.011-7.187c3.665,6.744,22.134,45.446,17.269,55.1-3.6,7.138-27.887,5.705-27.887,5.705-.438-1.92-.853-4.078-1.215-6.407C497.464,365.489,517.683,367.445,520.463,361.929Z" transform="translate(-445.858 -222.03)"/><path class="by" d="M578.131,342.486c1.032-11.414-23.767-38.181-37.207-42.048s-21.556-.761-21.556-.761c4.155-4.926,8.8-8.535,13.64-10.162l.011.032c12.368-4.155,31.463,2.655,47,15.138,12.018,9.655,20.737,24.017,24.541,32.911,4.262,10.86-19.747,24.976-33.994,31.126-2.975,1.122-5.492,2-7.234,2.584-15.25,4.322-39.639,6.03-39.639,6.03S577.1,353.9,578.131,342.486Z" transform="translate(-451.28 -216.395)"/><path class="bw" d="M546.656,313.157A4.376,4.376,0,1,1,543.9,318.7,4.376,4.376,0,0,1,546.656,313.157Z" transform="translate(-460.806 -221.237)"/><path class="bw" d="M554.422,335.129a4.376,4.376,0,1,1-2.755,5.543A4.376,4.376,0,0,1,554.422,335.129Z" transform="translate(-462.728 -226.675)"/><path class="bw" d="M562.19,357.1a4.376,4.376,0,1,1-2.755,5.542A4.376,4.376,0,0,1,562.19,357.1Z" transform="translate(-464.65 -232.114)"/><path class="bx" d="M544.585,313.853a4.376,4.376,0,1,1-2.755,5.542A4.376,4.376,0,0,1,544.585,313.853Z" transform="translate(-460.293 -221.409)"/><path class="bx" d="M552.352,335.825a4.376,4.376,0,1,1-2.755,5.543A4.376,4.376,0,0,1,552.352,335.825Z" transform="translate(-462.215 -226.848)"/><path class="bx" d="M560.119,357.8a4.376,4.376,0,1,1-2.755,5.542A4.376,4.376,0,0,1,560.119,357.8Z" transform="translate(-464.138 -232.286)"/><path class="bx" d="M499.848,387.208a4.119,4.119,0,0,0,.917,1.316c11.274,8.858,52.841-6.192,52.841-6.192l.011.032s42.221-13.1,45.859-26.971a4.1,4.1,0,0,0-.064-1.6c2.227-.424,4.52,3.37,3.845,6.62-2.917,14.037-47.633,27.928-47.633,27.928l-.011-.032s-44.032,15.929-54.833,6.5C498.28,392.623,497.816,388.214,499.848,387.208Z" transform="translate(-446.133 -232.59)"/><path class="bp" d="M524.632,252.627l.011.032c2.337-.786,20.343,26.956,20.343,26.956l-10.141,3.407-.011-.032L524.693,286.4S522.294,253.412,524.632,252.627Z" transform="translate(-452.329 -207.558)"/><path class="bp" d="M610.2,255.867c7.936-15.1-1.318-43.5-3.321-47.735s-9.735-12.627-6.535-15.148,26.116,14.061,32.355,50.7-16.484,59.939-16.484,59.939-6.992-1.542-17.014-11.094c-9.83-9.369-11.07-17.663-11.07-17.663A39.22,39.22,0,0,0,610.2,255.867Z" transform="translate(-468.298 -192.734)"/><path class="bp" d="M433.9,265.842c3.647.069,2.662,10.236,3.526,14.347s9.615,29.385,23.443,35.87a35.121,35.121,0,0,0,26.026,1.627s3.6,6.591,1.649,18.595c-1.989,12.238-6.146,17.119-6.146,17.119s-28.821-4.345-44.178-33.872S430.248,265.773,433.9,265.842Z" transform="translate(-428.883 -210.829)"/><path class="bz" d="M539.444,281.654s-11.04-27.348-14.017-28.928c3.336,1.23,20.009,26.915,20.009,26.915Z" transform="translate(-452.779 -207.583)"/><path class="bx" d="M523.556,292.138l20.779-6.982a2.192,2.192,0,1,1,1.4,4.156l-20.778,6.982a2.192,2.192,0,1,1-1.4-4.155Z" transform="translate(-451.947 -215.582)"/><path class="bz" d="M630.877,242.074c-4.66-27.361-18.617-43.531-26.721-48.918a1.814,1.814,0,0,1,.152-.172c3.2-2.52,26.115,14.061,32.355,50.7s-16.484,59.939-16.484,59.939a22.961,22.961,0,0,1-5.221-2.224A72.747,72.747,0,0,0,630.877,242.074Z" transform="translate(-472.266 -192.734)"/><path class="bz" d="M439.559,280.72c.863,4.11,9.615,29.385,23.443,35.87a35.121,35.121,0,0,0,26.026,1.627s3.6,6.591,1.649,18.595a59.27,59.27,0,0,1-1.639,7.282,65.35,65.35,0,0,1-42.19-33.465c-9.007-17.316-10.186-32.8-8.888-42.641C439.307,271.032,438.905,277.607,439.559,280.72Z" transform="translate(-431.021 -211.36)"/></g><g transform="translate(0 0)"><path class="bn" d="M494.949,358.826c-5.4,0-9.969-.918-12.713-3.314a8.044,8.044,0,0,1-2.607-6.707,4.194,4.194,0,0,1,1.059-2.4c-.206-.878-.4-1.778-.577-2.686-.087-.388-.134-.655-.167-.9-.159-.852-.319-1.807-.469-2.8-.263-1.318-.507-2.7-.717-4.047a1.331,1.331,0,0,1,.007-.441,66.777,66.777,0,0,1-42.148-33.915c-13.383-25.731-9.763-47.494-6.057-53.471.892-1.44,1.854-2.175,2.931-2.139,3.793.072,4.1,5.758,4.367,10.774.026.469.05.93.077,1.377l.1,1.439c.017.187.035.372.054.552.029.264.054.449.08.63l.02.131c.027.174.055.339.087.491.672,3.2,9.262,28.64,22.713,34.949q.624.291,1.243.554a34.483,34.483,0,0,0,20.291,1.991,86.47,86.47,0,0,1,4.064-10.066,1.316,1.316,0,0,1,.123-.877c.271-.518.548-1.062.829-1.615a42.329,42.329,0,0,1,3.291-5.745,1.365,1.365,0,0,1,.195-.211c.248-.361.467-.659.676-.923a1.32,1.32,0,0,1,.521-.394,53.741,53.741,0,0,1,5.361-6.626,3.222,3.222,0,0,1-.152-.375,3.514,3.514,0,0,1,1.835-4.3c-1.964-30.616-.143-31.231,1.066-31.637a1.3,1.3,0,0,1,.7-.038,2.13,2.13,0,0,1,.522.126c.74.273,2.475.914,11.872,14.39l.008.011.854,1.229.013.02c.561.812,1.111,1.613,1.645,2.394l4.164,6.194.058.087.1.146.155-.053a3.516,3.516,0,0,1,4.443,2.209,3.384,3.384,0,0,1,.155.689,55.415,55.415,0,0,1,8.788,2.316l.125.043a77.454,77.454,0,0,1,14.673,7.06,38.3,38.3,0,0,0,20.577-18.124c7.748-14.739-1.782-43.249-3.346-46.56a39.77,39.77,0,0,0-2.75-4.418c-3.105-4.59-6.625-9.794-3.409-12.326a2.391,2.391,0,0,1,.791-.407c3.4-1.019,11.039,4.661,17.405,12.937q.662.861,1.326,1.783c1.373,1.91,2.692,3.944,3.917,6.044a92.208,92.208,0,0,1,11.03,31.154,74.462,74.462,0,0,1-16.154,60.324l.009.015c.572.966,1.128,1.944,1.652,2.9l.017.031.565,1.05.035.067.474.906c.172.337.336.668.5,1l-1.119.708,1.178-.588.15.3c.4.813.78,1.634,1.141,2.45a4.192,4.192,0,0,1,2.3,1.275,8.05,8.05,0,0,1,1.973,6.921c-2.859,13.755-40.686,26.426-48.24,28.826l-.128.04-.037.012-.133.042a1.4,1.4,0,0,1-.238.049C532.433,351.365,510.332,358.824,494.949,358.826Zm-13.475-22.55c.178,1.084.376,2.184.594,3.283.156,1.022.311,1.95.476,2.841.035.253.072.456.145.776q.349,1.787.758,3.428a1.316,1.316,0,0,1-.693,1.5c-.364.181-.48.789-.512,1.041a5.422,5.422,0,0,0,1.727,4.385c7.867,6.868,37.176-.951,53.256-6.653l.227-.081a1.364,1.364,0,0,1,.351-.077c16.309-5.184,44.366-16.647,46.488-26.861a5.427,5.427,0,0,0-1.272-4.538c-.179-.181-.634-.6-1.038-.52a1.319,1.319,0,0,1-1.457-.776c-.442-1.032-.924-2.083-1.433-3.124l-.053-.107-.05-.1-.035-.069-.049-.1c-.173-.348-.332-.668-.5-1l-1.046-1.969c-.518-.95-1.061-1.9-1.621-2.85l-.5-.837a1.32,1.32,0,0,1,.184-1.6c.223-.229,22.177-23.286,16.128-58.8A89.586,89.586,0,0,0,580.845,213.2c-1.184-2.029-2.457-3.992-3.782-5.834q-.637-.885-1.276-1.715c-7.026-9.135-13.244-12.319-14.52-12.031-1.168,1.1,2.189,6.064,4,8.746a41.006,41.006,0,0,1,2.951,4.768c1.711,3.622,11.656,33,3.3,48.91a40.84,40.84,0,0,1-22.7,19.6,1.319,1.319,0,0,1-1.08-.141,75.093,75.093,0,0,0-14.643-7.122l-.146-.05a51.474,51.474,0,0,0-9.526-2.393,1.317,1.317,0,0,1-1.062-1.717.87.87,0,0,0-1.1-1.1l-1.115.375a1.318,1.318,0,0,1-1.518-.524l-.652-.988-.042-.062-4.148-6.171c-.544-.8-1.094-1.6-1.656-2.411l-.011-.016-.835-1.2-.009-.012c-6.065-8.7-8.763-11.774-9.906-12.861-.5,3.1-.492,12.734.593,29.322a1.316,1.316,0,0,1-.894,1.334l-.586.2a.888.888,0,0,0-.551,1.109.846.846,0,0,0,.25.36,1.317,1.317,0,0,1,.051,1.92,50.682,50.682,0,0,0-6.293,7.722,1.317,1.317,0,0,1-.64.5c-.09.129-.185.269-.288.421a1.327,1.327,0,0,1-.263.29,44.641,44.641,0,0,0-2.856,5.088c-.184.363-.367.722-.547,1.072a1.316,1.316,0,0,1-.113.819,83.741,83.741,0,0,0-4.434,11.007,1.316,1.316,0,0,1-.955.876,37.118,37.118,0,0,1-22.629-1.972q-.666-.281-1.338-.6c-14.618-6.856-23.433-33.273-24.172-36.792-.041-.2-.077-.406-.112-.625l-.024-.159c-.03-.208-.059-.419-.084-.643l-.009-.084c-.021-.195-.041-.4-.059-.6l-.11-1.507c-.027-.456-.053-.923-.078-1.4-.141-2.623-.43-8.021-1.7-8.273-.275.181-1.041,1.052-1.852,3.349-2.687,7.612-4.179,26.373,7.28,48.4a64.005,64.005,0,0,0,41.469,32.824,1.317,1.317,0,0,1,1.014,1.158c.041.424.082.847.127,1.262A1.312,1.312,0,0,1,481.474,336.276Z" transform="translate(-427.146 -190.993)"/></g></g></g><g transform="matrix(-0.788, 0.616, -0.616, -0.788, 2017.499, 595.904)"><path class="ca" d="M480,225.383,500.49,269.9H499.1l-24.406-44.52Z" transform="translate(-59.631 -47.334)"/><path class="ca" d="M468.995,195.888l-.727,3.261-4.849.183.466-3.09Z" transform="translate(-53.937 -32.432)"/><path class="cb" d="M460.511,198.9h-2.425l-.423-3.746,2.182-.122.063.852,1.068-.074Z" transform="translate(-51.029 -31.999)"/><path class="ca" d="M462.656,202.721l.378,3.763h2.942l.418-3.89Z" transform="translate(-53.551 -35.82)"/><path class="cb" d="M443.729,207.763l13.625-.082v3.874H443.729Z" transform="translate(-43.988 -38.39)"/><path class="ca" d="M471.269,207.681l8.353.695,1.263,3.179h-9.616Z" transform="translate(-57.903 -38.39)"/><path class="ca" d="M446.963,215.511l.778,5.389,18.253-.505,1.179-4.884Z" transform="translate(-45.622 -42.346)"/><path class="cb" d="M426.27,219.668l-20.849,47.347h1.11L429.006,223Z" transform="translate(-24.632 -44.447)"/><path class="cb" d="M467.388,222.743l2.142-3.074,3.334,2.923,10.462,44.424h-1.771Z" transform="translate(-55.942 -44.447)"/><path class="ca" d="M471.717,219.668l13.052,47.347h.744l-10.462-44.424Z" transform="translate(-58.13 -44.447)"/><path class="ca" d="M428.813,224.324l-22.1,45.043h.472l22.476-44.014Z" transform="translate(-25.284 -46.8)"/><path class="cb" d="M453.3,284.4l-31.69.5-.437,1.048,32.545-.238Z" transform="translate(-32.591 -77.152)"/><path class="ca" d="M492.191,283.9h9.3l1.062,1.019-10.359.467Z" transform="translate(-68.474 -76.899)"/><path class="cc" d="M427.971,149.957v-1.882l9.043,1.673-.366,1.464Z" transform="translate(-36.026 -8.273)"/><path class="cd" d="M425.26,131.7l16.148,3.449c1.2,1.134.773,6.174-1.83,7.306l-14.985-2.1A10.8,10.8,0,0,0,425.26,131.7Z" transform="translate(-34.319 0)"/><path class="ce" d="M423.806,131.7c-1.735.573-3.344,6.377-.667,8.66,0,0,1.483-1.057,1.646-4.265C424.954,132.774,423.806,131.7,423.806,131.7Z" transform="translate(-32.865 0)"/><path class="ca" d="M424.836,137.524a4.081,4.081,0,0,1-.848,2.5,1.217,1.217,0,0,1-.248.224c-1.093-.539-1.507-4.278.294-5.906a2.264,2.264,0,0,1,.282.414A4.932,4.932,0,0,1,424.836,137.524Z" transform="translate(-33.414 -1.337)"/><path class="cf" d="M425.425,137.947a4.081,4.081,0,0,1-.848,2.5c-1.066-1.107-.6-4.512.328-5.268A4.932,4.932,0,0,1,425.425,137.947Z" transform="translate(-34.002 -1.759)"/><path class="cg" d="M500.583,167.39l4.8,1.08c1.634,1.1,2.574,8-.353,9.937l-5.425,1.116Z" transform="translate(-72.219 -18.032)"/><path class="ch" d="M376.673,141.725l61,10.673c2.734.647,4.2,11.985-.975,15.157l-59.944,4.529S379.743,159.611,376.673,141.725Z" transform="translate(-10.107 -5.065)"/><path class="ci" d="M373.621,139.44l18.02,2.832c5.923,4.078,8.416,23.431-2.129,28.749l-17.587,1.512S382.155,158.343,373.621,139.44Z" transform="translate(-7.708 -3.91)"/><path class="ce" d="M365.913,139.44c-9.765,3.386-13.935,24.733-1.7,33.093,0,0,6.907-5.045,7.134-16.929C371.587,143.295,365.913,139.44,365.913,139.44Z" transform="translate(0 -3.91)"/><path class="ca" d="M371.589,157.4c-.307,7.2-3.066,11.883-4.862,13.542a7.333,7.333,0,0,1-1.544,1.145c-7.143-2.531-10.665-22.039.525-30.359a12.141,12.141,0,0,1,1.9,2.015A20.4,20.4,0,0,1,371.589,157.4Z" transform="translate(-0.938 -5.065)"/><path class="cj" d="M375.423,159.454c-.307,7.2-3.066,11.883-4.862,13.542-7.1-5.355-4.87-23.323.886-27.2A20.4,20.4,0,0,1,375.423,159.454Z" transform="translate(-4.771 -7.122)"/><path class="bp" d="M370.967,155.232a8.231,8.231,0,0,0-1.064,3.379l1.824.033,1.125-3.378Z" transform="translate(-6.686 -11.889)"/><path class="ck" d="M459.261,155.724l1.015-.5c1.881,0,4.979,13.708.272,21.578l-1.62-.966,1.348-.1s4.979-9.721-.106-19.834Z" transform="translate(-51.667 -11.885)"/><path class="cg" d="M461.652,155.224c2.771,1.645,3.879,15.781.272,21.578l6.6-.514c3.32-2.7,4.539-15.15.724-19.9Z" transform="translate(-53.044 -11.885)"/><path class="cl" d="M480.581,270.241l2.513-1.641.977,3.282-2.621,1.177Z" transform="translate(-62.608 -69.171)"/><path class="cb" d="M488.891,271.829l-2.254.052-.977-3.282,2.5.375Z" transform="translate(-65.174 -69.171)"/><path class="ca" d="M487.213,275.128l-.925.412h-1.527l-1.629.818h-.794l2.621-1.177Z" transform="translate(-63.496 -72.469)"/><path class="cl" d="M423.209,269.577l1.466.774-1.312,2.5-1.289-.537Z" transform="translate(-33.046 -69.664)"/><path class="cb" d="M425.991,271.142l1.5,1.038-1.172,1.984-1.64-.525Z" transform="translate(-34.363 -70.455)"/><path class="cb" d="M498.949,269.978l3.7-1.378.914,2.533-3.328,1.161Z" transform="translate(-71.889 -69.171)"/><ellipse class="cm" cx="3.968" cy="6.811" rx="3.968" ry="6.811" transform="translate(415.447 166.353)"/><path class="cl" d="M480.777,201.57a6.046,6.046,0,0,1,3.832,0l-.572,13.551a5.233,5.233,0,0,1-3.259-.072S477.338,206.888,480.777,201.57Z" transform="translate(-61.935 -35.145)"/><ellipse class="cn" cx="3.968" cy="6.811" rx="3.968" ry="6.811" transform="translate(418.133 166.353)"/><path class="ca" d="M490.674,212.733c0,1.459-.689,2.642-1.54,2.642s-1.539-1.183-1.539-2.642.689-2.642,1.539-2.642S490.674,211.274,490.674,212.733Z" transform="translate(-66.152 -39.608)"/><path class="cl" d="M489.832,213.551c0,1.06-.5,1.92-1.118,1.92s-1.119-.859-1.119-1.92.5-1.92,1.119-1.92S489.832,212.49,489.832,213.551Z" transform="translate(-66.152 -40.386)"/><path class="co" d="M379.835,144.477s11.39,2.322,12.015,3.009-9.907,1.405-9.907,1.405A43.983,43.983,0,0,0,379.835,144.477Z" transform="translate(-11.704 -6.455)"/><g transform="translate(388.463 157.704)"><rect class="cp" width="0.124" height="21.893" transform="matrix(0.027, -1, 1, 0.027, 0, 0.124)"/></g><g transform="translate(417.84 147.836)"><rect class="cp" width="0.123" height="11.365" transform="translate(0 0.123) rotate(-83.689)"/></g><path class="cq" d="M413.276,148.448l.92.135s5.909,10.6.989,24.583l21.394-.819-.272-.036-24.815,1.875S421.438,164.567,413.276,148.448Z" transform="translate(-27.7 -8.462)"/><path class="ch" d="M440.829,143.553s3.607-2,2.12-7.756l4.143.885a7.149,7.149,0,0,1-1.146,7.587Z" transform="translate(-42.523 -2.07)"/><path class="co" d="M374.914,190.141a67.953,67.953,0,0,1,4.059-8.908S377.91,187.476,374.914,190.141Z" transform="translate(-9.216 -25.027)"/><path class="cr" d="M422.5,153.63l5.749.788.857.849-6.455-.444Z" transform="translate(-33.26 -11.08)"/><path class="cr" d="M480.732,162.053l2.56.59.338.59-2.378-.337Z" transform="translate(-62.684 -15.336)"/><path class="cr" d="M477.535,204.158a3.322,3.322,0,0,0,2.245-.33c1.057-.62-.143-1.767-.143-1.767A3.388,3.388,0,0,0,477.535,204.158Z" transform="translate(-61.069 -35.55)"/></g></g></svg>