<svg xmlns="http://www.w3.org/2000/svg" width="125.359" height="117.524" viewBox="0 0 125.359 117.524"><defs><style>.a{fill:#ffb900;}</style></defs><g transform="translate(0 -16)"><path class="a" d="M110.669,26.21l11.9-3.012L120.8,16.146,71.861,28.266a10.964,10.964,0,0,0-5.509-4.26V16H59.007v8.006a11.026,11.026,0,0,0-7.272,9.329L2.791,45.528l1.763,7.052,10.136-2.5v5.435L0,84.9v.881a18.363,18.363,0,1,0,36.726,0V84.9L22.036,55.517V48.246L53.5,40.459a10.962,10.962,0,0,0,5.509,4.26V60.072H51.662v7.345h7.345V89.453H51.662v36.726H29.626v7.345H95.733v-7.345H73.7V89.453H66.352V67.417H73.7V60.072H66.352V44.72a11.026,11.026,0,0,0,7.272-9.328l29.7-7.345v5.435L88.633,62.863v.881a18.363,18.363,0,0,0,36.726,0v-.881L110.669,33.482ZM27.1,82.107H9.622l8.741-17.482Zm88.633-22.036H98.255L107,42.59Z" transform="translate(0)"/></g></svg>