<svg xmlns="http://www.w3.org/2000/svg" width="88.143" height="117.524" viewBox="0 0 88.143 117.524"><defs><style>.a{fill:#ffb900;}</style></defs><path class="a" d="M80.125,44.072H76.453V29.381a29.381,29.381,0,1,0-58.762,0V44.072H14.018A11.031,11.031,0,0,0,3,55.089v51.417a11.031,11.031,0,0,0,11.018,11.018H80.125a11.031,11.031,0,0,0,11.018-11.018V55.089A11.031,11.031,0,0,0,80.125,44.072ZM27.484,29.381a19.587,19.587,0,1,1,39.175,0V44.072H27.484Zm24.484,52.5V93.04a4.9,4.9,0,1,1-9.794,0V81.885a9.794,9.794,0,1,1,9.794,0Z" transform="translate(-3)"/></svg>