<svg xmlns="http://www.w3.org/2000/svg" xmlns:xlink="http://www.w3.org/1999/xlink" width="937.718" height="873.5" viewBox="0 0 937.718 873.5"><defs><style>.a,.j{fill:#fff;}.b{opacity:0.65;fill:url(#a);}.b,.s{mix-blend-mode:multiply;}.b,.e,.f,.g,.h,.i,.j,.k,.l,.m,.n,.o,.p,.q,.s{isolation:isolate;}.c,.j{opacity:0.5;}.c{fill:url(#b);}.d{fill:url(#c);}.e,.f,.l,.m,.n,.o,.p,.q{opacity:0.1;}.e,.f,.k,.l,.m,.n,.o,.p,.q{mix-blend-mode:color-burn;}.e{fill:url(#d);}.f{fill:url(#e);}.g,.h,.i{opacity:0.2;mix-blend-mode:screen;}.g{fill:url(#f);}.h{fill:url(#g);}.i{fill:url(#h);}.j{mix-blend-mode:overlay;}.l{fill:url(#i);}.m{fill:url(#j);}.n{fill:url(#k);}.o{fill:url(#l);}.p{fill:url(#m);}.q{fill:url(#n);}.r{fill:url(#o);}.t{fill:url(#p);}.u{fill:url(#q);}.v{fill:url(#r);}.w{fill:url(#s);}.x{fill:url(#t);}.y{fill:url(#u);}.z{fill:url(#v);}.aa{fill:url(#w);}.ab{fill:url(#x);}.ac{fill:url(#y);}.ad{fill:url(#z);}.ae{fill:url(#aa);}.af{fill:url(#ab);}.ag{fill:url(#ac);}.ah{fill:url(#ad);}.ai{fill:url(#ae);}.aj{fill:url(#af);}.ak{fill:url(#ag);}.al{fill:url(#ah);}.am{fill:url(#ai);}.an{fill:url(#aj);}.ao{fill:url(#ak);}.ap{fill:url(#al);}.aq{fill:url(#am);}.ar{fill:url(#an);}.as{fill:url(#ao);}.at{fill:url(#ap);}.au{fill:url(#aq);}.av{fill:url(#ar);}.aw{fill:url(#as);}.ax{fill:url(#at);}.ay{fill:url(#au);}.az{fill:url(#av);}.ba{fill:url(#aw);}.bb{fill:url(#ax);}.bc{fill:url(#ay);}.bd{fill:url(#az);}.be{fill:url(#ba);}.bf{fill:url(#bb);}.bg{fill:url(#bc);}.bh{fill:url(#bd);}.bi{fill:url(#be);}.bj{fill:url(#bf);}.bk{fill:url(#bg);}.bl{fill:url(#bh);}.bm{fill:url(#bi);}.bn{fill:url(#bj);}.bo{fill:url(#bk);}.bp{fill:url(#bl);}.bq{fill:url(#bm);}.br{fill:url(#bn);}.bs{fill:url(#bo);}.bt{fill:url(#bp);}.bu{fill:url(#bq);}.bv{fill:url(#br);}.bw{fill:url(#bs);}.bx{fill:url(#bt);}.by{fill:url(#bu);}.bz{fill:url(#bv);}.ca{fill:url(#bw);}.cb{fill:url(#bx);}.cc{fill:url(#by);}.cd{fill:url(#bz);}.ce{fill:url(#ca);}.cf{fill:url(#cb);}.cg{fill:url(#cc);}.ch{fill:url(#cd);}.ci{fill:url(#ce);}.cj{fill:url(#cf);}.ck{fill:url(#cg);}.cl{fill:url(#ch);}.cm{fill:url(#ci);}.cn{fill:url(#cj);}</style><linearGradient id="a" x1="0.662" y1="3.084" x2="0.313" y2="1.332" gradientUnits="objectBoundingBox"><stop offset="0" stop-color="#fff"/><stop offset="0.16" stop-color="#ece9f9"/><stop offset="0.538" stop-color="#c5bcee"/><stop offset="0.831" stop-color="#ada0e7"/><stop offset="1" stop-color="#a496e5"/></linearGradient><radialGradient id="b" cx="0.5" cy="0.5" r="0.481" gradientTransform="matrix(0.883, 0.47, -0.47, 0.883, 0.406, -0.083)" gradientUnits="objectBoundingBox"><stop offset="0" stop-color="#fff"/><stop offset="0.235" stop-color="#fcfcfc" stop-opacity="0.561"/><stop offset="0.371" stop-color="#f4f4f4" stop-opacity="0.369"/><stop offset="0.483" stop-color="#e6e6e6" stop-opacity="0.549"/><stop offset="0.581" stop-color="#d2d2d2" stop-opacity="0.31"/><stop offset="0.67" stop-color="#b8b8b8" stop-opacity="0.71"/><stop offset="0.752" stop-color="#989898" stop-opacity="0.169"/><stop offset="0.83" stop-color="#727272" stop-opacity="0.141"/><stop offset="0.904" stop-color="#464646" stop-opacity="0.071"/><stop offset="0.972" stop-color="#161616" stop-opacity="0"/><stop offset="1" stop-opacity="0"/></radialGradient><radialGradient id="c" cx="0.603" cy="0.266" r="0.734" gradientTransform="matrix(-0.437, 0.899, -0.737, -0.359, 0.22, -0.092)" gradientUnits="objectBoundingBox"><stop offset="0" stop-color="#ff5731"/><stop offset="0.698" stop-color="#ba005e"/><stop offset="0.948" stop-color="#5e1377"/><stop offset="0.997" stop-color="#8160ff"/></radialGradient><linearGradient id="d" x1="0.022" y1="0.294" x2="1.034" y2="0.294" gradientUnits="objectBoundingBox"><stop offset="0" stop-color="#1c0067"/><stop offset="0.102" stop-color="#1c007f"/><stop offset="0.287" stop-color="#1c00a4"/><stop offset="0.472" stop-color="#1c00c2"/><stop offset="0.653" stop-color="#1c00d7"/><stop offset="0.831" stop-color="#1c00e3"/><stop offset="1" stop-color="#1c00e8"/></linearGradient><linearGradient id="e" x1="0.127" y1="0.29" x2="1.043" y2="0.29" xlink:href="#d"/><radialGradient id="f" cx="0.248" cy="0.32" r="1.265" gradientTransform="matrix(0.47, 0.582, -0.336, 0.814, -0.007, 0.167)" gradientUnits="objectBoundingBox"><stop offset="0" stop-color="#ffff29"/><stop offset="0.89" stop-color="#ff7e59"/><stop offset="1" stop-color="#ffff29"/></radialGradient><radialGradient id="g" cx="0.024" cy="0.388" r="1.535" gradientTransform="matrix(0.504, 0.582, -0.361, 0.814, -0.149, 0.386)" xlink:href="#f"/><radialGradient id="h" cx="0.5" cy="0.5" r="0.5" gradientTransform="matrix(0.814, 0.582, -0.582, 0.814, 0.129, 0.087)" xlink:href="#f"/><linearGradient id="i" x1="-0.29" y1="-0.143" x2="0.592" y2="-0.143" xlink:href="#d"/><linearGradient id="j" x1="-0.153" y1="-0.963" x2="0.439" y2="-0.963" xlink:href="#d"/><linearGradient id="k" x1="-2.063" y1="0.105" x2="-0.651" y2="0.105" xlink:href="#d"/><linearGradient id="l" x1="-0.288" y1="-0.689" x2="0.78" y2="-0.689" xlink:href="#d"/><linearGradient id="m" x1="-0.943" y1="-0.264" x2="0.088" y2="-0.264" xlink:href="#d"/><linearGradient id="n" x1="-4.057" y1="0.71" x2="-2.696" y2="0.71" xlink:href="#d"/><radialGradient id="o" cx="0.649" cy="0.009" r="1.202" gradientTransform="matrix(0.72, 0.582, -0.515, 0.814, -0.102, -0.076)" xlink:href="#f"/><radialGradient id="p" cx="0.764" cy="0.181" r="0.768" gradientTransform="matrix(2.946, 0.582, -2.106, 0.814, 473.323, 168.812)" xlink:href="#f"/><radialGradient id="q" cx="0.433" cy="0.25" r="0.807" gradientTransform="matrix(1.08, 0.582, -0.772, 0.814, -36.314, 55.781)" xlink:href="#f"/><radialGradient id="r" cx="2.925" cy="0.142" r="0.812" gradientTransform="matrix(16.054, 0.582, -11.476, 0.814, 7305.095, 286.956)" xlink:href="#f"/><radialGradient id="s" cx="0.585" cy="0.202" r="0.764" gradientTransform="matrix(1.932, 0.582, -1.381, 0.814, 109.381, 92.039)" xlink:href="#f"/><radialGradient id="t" cx="0.421" cy="0.257" r="0.819" gradientTransform="matrix(1.015, 0.582, -0.726, 0.814, -27.669, 54.422)" xlink:href="#f"/><radialGradient id="u" cx="0.544" cy="0.21" r="0.766" gradientTransform="matrix(1.705, 0.582, -1.219, 0.814, 26.932, 47.578)" xlink:href="#f"/><radialGradient id="v" cx="0.483" cy="0.227" r="0.778" gradientTransform="matrix(1.367, 0.582, -0.977, 0.814, 11.426, 70.494)" xlink:href="#f"/><radialGradient id="w" cx="0.377" cy="0.293" r="0.902" gradientTransform="matrix(0.771, 0.582, -0.551, 0.814, -47.322, 46.678)" xlink:href="#f"/><radialGradient id="x" cx="0.455" cy="-0.014" r="1.471" gradientTransform="matrix(0.437, 0.582, -0.312, 0.814, -0.541, 0.235)" xlink:href="#f"/><radialGradient id="y" cx="0.603" cy="-1.457" r="4.551" gradientTransform="matrix(0.14, 0.582, -0.1, 0.814, -96.872, 50.955)" xlink:href="#f"/><radialGradient id="z" cx="0.412" cy="0.263" r="0.832" gradientTransform="matrix(0.961, 0.582, -0.687, 0.814, -0.195, 9.448)" xlink:href="#f"/><radialGradient id="aa" cx="0.456" cy="-0.137" r="2.062" gradientTransform="matrix(0.268, 0.582, -0.191, 0.814, -100.293, 65.664)" xlink:href="#f"/><radialGradient id="ab" cx="0.461" cy="0.237" r="0.788" gradientTransform="matrix(1.235, 0.582, -0.883, 0.814, -23.573, 69.343)" xlink:href="#f"/><radialGradient id="ac" cx="0.513" cy="-1.385" r="5.06" gradientTransform="matrix(0.111, 0.582, -0.08, 0.814, -108.038, 50.243)" xlink:href="#f"/><radialGradient id="ad" cx="0.558" cy="-9.667" r="25.305" gradientTransform="matrix(0.023, 0.582, -0.017, 0.814, -110.178, -6.259)" xlink:href="#f"/><radialGradient id="ae" cx="0.353" cy="0.326" r="1.049" gradientTransform="matrix(0.588, 0.582, -0.42, 0.814, -52.391, 36.164)" xlink:href="#f"/><radialGradient id="af" cx="0.365" cy="0.301" r="1.108" gradientTransform="matrix(0.542, 0.582, -0.388, 0.814, -175.11, 12.64)" xlink:href="#f"/><radialGradient id="ag" cx="0.384" cy="0.287" r="0.883" gradientTransform="matrix(0.805, 0.582, -0.575, 0.814, -289.361, 62.683)" xlink:href="#f"/><radialGradient id="ah" cx="1.213" cy="0.094" r="0.922" gradientTransform="matrix(2.545, 0.582, -1.819, 0.814, 63.552, 34.336)" xlink:href="#f"/><radialGradient id="ai" cx="0.451" cy="0.241" r="0.794" gradientTransform="matrix(1.176, 0.582, -0.841, 0.814, -270.26, 117.349)" xlink:href="#f"/><radialGradient id="aj" cx="0.389" cy="0.282" r="0.87" gradientTransform="matrix(0.84, 0.582, -0.6, 0.814, -27.47, 124.288)" xlink:href="#f"/><radialGradient id="ak" cx="1.029" cy="0.051" r="1.035" gradientTransform="matrix(1.511, 0.582, -1.08, 0.814, 705.5, 864.682)" xlink:href="#f"/><radialGradient id="al" cx="0.713" cy="0.184" r="0.768" gradientTransform="matrix(2.657, 0.582, -1.899, 0.814, 303.157, 227.646)" xlink:href="#f"/><radialGradient id="am" cx="0.546" cy="0.208" r="0.767" gradientTransform="matrix(1.707, 0.582, -1.22, 0.814, -110.429, 156.204)" xlink:href="#f"/><radialGradient id="an" cx="1.04" cy="0.168" r="0.778" gradientTransform="matrix(4.488, 0.582, -3.208, 0.814, 1651.779, 349.714)" xlink:href="#f"/><radialGradient id="ao" cx="0.838" cy="0.176" r="0.771" gradientTransform="matrix(3.358, 0.582, -2.4, 0.814, 351.676, 88.731)" xlink:href="#f"/><radialGradient id="ap" cx="0.614" cy="0.197" r="0.764" gradientTransform="matrix(2.094, 0.582, -1.497, 0.814, 108.019, 60.362)" xlink:href="#f"/><radialGradient id="aq" cx="1.329" cy="0.112" r="0.908" gradientTransform="matrix(2.992, 0.582, -2.139, 0.814, 6899.197, 2044.798)" xlink:href="#f"/><radialGradient id="ar" cx="0.394" cy="0.215" r="1.294" gradientTransform="matrix(0.443, 0.582, -0.317, 0.814, -54.142, 28.736)" xlink:href="#f"/><radialGradient id="as" cx="0.522" cy="0.215" r="0.769" gradientTransform="matrix(1.581, 0.582, -1.13, 0.814, 43.473, 47.758)" xlink:href="#f"/><radialGradient id="at" cx="0.403" cy="0.242" r="0.876" gradientTransform="matrix(0.973, 0.582, -0.696, 0.814, -0.128, 0.925)" xlink:href="#f"/><radialGradient id="au" cx="0.475" cy="0.23" r="0.781" gradientTransform="matrix(1.317, 0.582, -0.942, 0.814, 18.76, 40.406)" xlink:href="#f"/><radialGradient id="av" cx="0.462" cy="-0.191" r="2.189" gradientTransform="matrix(0.252, 0.582, -0.18, 0.814, -42.889, 53.556)" xlink:href="#f"/><radialGradient id="aw" cx="0.587" cy="-2.324" r="6.686" gradientTransform="matrix(0.093, 0.582, -0.066, 0.814, -104.915, -152.233)" xlink:href="#f"/><radialGradient id="ax" cx="0.597" cy="-0.986" r="3.125" gradientTransform="matrix(0.21, 0.582, -0.15, 0.814, -0.19, -0.39)" xlink:href="#f"/><radialGradient id="ay" cx="0.592" cy="-1.977" r="5.822" gradientTransform="matrix(0.107, 0.582, -0.077, 0.814, -78.687, -96.726)" xlink:href="#f"/><radialGradient id="az" cx="0.582" cy="-2.672" r="7.533" gradientTransform="matrix(0.082, 0.582, -0.058, 0.814, -97.461, -163.062)" xlink:href="#f"/><radialGradient id="ba" cx="0.58" cy="-2.955" r="8.222" gradientTransform="matrix(0.074, 0.582, -0.053, 0.814, -71.742, -133.228)" xlink:href="#f"/><radialGradient id="bb" cx="0.497" cy="-0.796" r="3.624" gradientTransform="matrix(0.154, 0.582, -0.11, 0.814, -22.619, -14.5)" xlink:href="#f"/><radialGradient id="bc" cx="0.379" cy="0.263" r="1.203" gradientTransform="matrix(0.485, 0.582, -0.347, 0.814, -83.241, 21.816)" xlink:href="#f"/><radialGradient id="bd" cx="0.485" cy="-0.503" r="2.924" gradientTransform="matrix(0.189, 0.582, -0.135, 0.814, -17.948, -8.213)" xlink:href="#f"/><radialGradient id="be" cx="0.674" cy="-0.371" r="1.856" gradientTransform="matrix(0.415, 0.582, -0.296, 0.814, -0.557, -0.391)" xlink:href="#f"/><radialGradient id="bf" cx="0.845" cy="-0.048" r="1.267" gradientTransform="matrix(0.811, 0.582, -0.58, 0.814, -12.963, 0.178)" xlink:href="#f"/><radialGradient id="bg" cx="0.369" cy="0.286" r="1.155" gradientTransform="matrix(0.51, 0.582, -0.364, 0.814, -52.345, 15.664)" xlink:href="#f"/><radialGradient id="bh" cx="2.056" cy="0.153" r="0.796" gradientTransform="matrix(10.146, 0.582, -7.253, 0.814, 10496.218, 717.745)" xlink:href="#f"/><radialGradient id="bi" cx="0.591" cy="-2.019" r="5.93" gradientTransform="matrix(0.105, 0.582, -0.075, 0.814, -3.425, -5.127)" xlink:href="#f"/><radialGradient id="bj" cx="0.402" cy="0.269" r="0.841" gradientTransform="matrix(0.924, 0.582, -0.66, 0.814, -16.455, 237.042)" xlink:href="#f"/><radialGradient id="bk" cx="0.749" cy="-0.189" r="1.56" gradientTransform="matrix(0.546, 0.582, -0.391, 0.814, -52.05, -4.162)" xlink:href="#f"/><radialGradient id="bl" cx="0.725" cy="-0.255" r="1.704" gradientTransform="matrix(0.476, 0.582, -0.34, 0.814, -51.741, -6.496)" xlink:href="#f"/><radialGradient id="bm" cx="0.658" cy="-0.573" r="2.43" gradientTransform="matrix(0.291, 0.582, -0.208, 0.814, -6.474, -2.547)" xlink:href="#f"/><radialGradient id="bn" cx="0.722" cy="-0.26" r="1.712" gradientTransform="matrix(0.472, 0.582, -0.337, 0.814, -32.195, 60.292)" xlink:href="#f"/><radialGradient id="bo" cx="0.459" cy="-0.012" r="1.445" gradientTransform="matrix(0.417, 0.582, -0.298, 0.814, -0.194, -0.185)" xlink:href="#f"/><radialGradient id="bp" cx="0.815" cy="-0.082" r="1.336" gradientTransform="matrix(0.725, 0.582, -0.518, 0.814, -12.226, 77.18)" xlink:href="#f"/><radialGradient id="bq" cx="0.54" cy="-8.961" r="23.174" gradientTransform="matrix(0.025, 0.582, -0.018, 0.814, -799.889, 443.673)" xlink:href="#f"/><radialGradient id="br" cx="0.635" cy="-0.805" r="2.978" gradientTransform="matrix(0.227, 0.582, -0.162, 0.814, -56.702, 71.587)" xlink:href="#f"/><radialGradient id="bs" cx="0.503" cy="0.199" r="0.876" gradientTransform="matrix(0.984, 0.582, -0.704, 0.814, 0.293, 2.253)" xlink:href="#f"/><radialGradient id="bt" cx="0.547" cy="-7.284" r="19.938" gradientTransform="matrix(0.029, 0.582, -0.021, 0.814, -86.968, 213.239)" xlink:href="#f"/><radialGradient id="bu" cx="0.537" cy="0.219" r="0.774" gradientTransform="matrix(1.235, 0.582, -0.883, 0.814, 0.767, 0.985)" xlink:href="#f"/><radialGradient id="bv" cx="0.536" cy="-3.183" r="9.365" gradientTransform="matrix(0.061, 0.582, -0.044, 0.814, -260.932, 171.083)" xlink:href="#f"/><radialGradient id="bw" cx="0.852" cy="-0.039" r="1.251" gradientTransform="matrix(0.833, 0.582, -0.596, 0.814, 4.329, 56.88)" xlink:href="#f"/><radialGradient id="bx" cx="0.943" cy="0.026" r="1.121" gradientTransform="matrix(1.095, 0.582, -0.783, 0.814, 25.447, 50.698)" xlink:href="#f"/><radialGradient id="by" cx="0.762" cy="-0.165" r="1.506" gradientTransform="matrix(0.58, 0.582, -0.414, 0.814, -22.778, 72.319)" xlink:href="#f"/><radialGradient id="bz" cx="0.52" cy="-1.779" r="6.013" gradientTransform="matrix(0.094, 0.582, -0.067, 0.814, -132.783, 94.667)" xlink:href="#f"/><radialGradient id="ca" cx="0.495" cy="-0.729" r="3.467" gradientTransform="matrix(0.161, 0.582, -0.115, 0.814, -23.582, 19.514)" xlink:href="#f"/><radialGradient id="cb" cx="0.504" cy="-1.013" r="4.139" gradientTransform="matrix(0.135, 0.582, -0.097, 0.814, -61.433, 47.269)" xlink:href="#f"/><linearGradient id="cc" x1="-8.072" y1="-34.57" x2="-0.665" y2="-11.54" xlink:href="#a"/><linearGradient id="cd" x1="0.706" y1="-9.596" x2="2.689" y2="0.307" xlink:href="#a"/><linearGradient id="ce" x1="1.59" y1="-24.221" x2="7.436" y2="1.108" xlink:href="#a"/><linearGradient id="cf" x1="-6.342" y1="-33.959" x2="-1.44" y2="-11.76" xlink:href="#a"/><linearGradient id="cg" x1="-1.485" y1="-27.773" x2="3.641" y2="-3.319" xlink:href="#a"/><linearGradient id="ch" x1="-2.759" y1="-15.356" x2="0.127" y2="-4.757" xlink:href="#a"/><linearGradient id="ci" x1="-2.636" y1="-18.565" x2="-0.513" y2="-6.632" xlink:href="#a"/><linearGradient id="cj" x1="-0.249" y1="-16.542" x2="1.926" y2="-1.794" xlink:href="#a"/></defs><g transform="translate(-877.835 -3649.645)"><g transform="translate(35.553 -1240)"><g transform="matrix(-0.788, -0.616, 0.616, -0.788, 1164.427, 5706.289)"><path class="a" d="M87.818,199.662c12.876-5.379-.869-25.3-.869-25.3s47.508,15.094,68.172-.111,27.518-43,27.518-43,33.14,23.387,64.086,6.074,55.119-55.581,55.119-55.581,21.979,19.357,34.1,16.555c-7.931,11.05-19.482,28.665-19.482,28.665l.834,28.964s109.313-49.959,88.993-112.821S316.938-7.18,297.47,38.091c0,0-77.407-32.222-111.583,58,0,0-29.051-29.583-46.833-9.221S123.7,122.286,123.7,122.286,68.9,103.461,58.058,126.458s-1.238,37.907-1.238,37.907S2.494,150.51.056,176.876,74.939,205.041,87.818,199.662Z" transform="translate(0 0)"/><path class="b" d="M15.275,194.324c.038-.171.056-.334.1-.5,3.985-15.776,18.436-24.552,34.263-21.92,8.947,1.492,18.87,5.233,25.188,12.02a46.967,46.967,0,0,1,9.861,15.908c.139.215.268.431.407.647a17.933,17.933,0,0,0,2.726-.821c12.876-5.379-.869-25.3-.869-25.3a169.228,169.228,0,0,0,24.416,5.379,38.778,38.778,0,0,1,.129-15.772c1.551-6.909,4.378-11.833,8.627-17.361A35.031,35.031,0,0,1,136.3,135.582c7.827-2.472,18.293-2.514,25.456,2.093,5.758,3.71,8.7,5.675,12.671,11.468.223.32.41.664.622.994a92.258,92.258,0,0,0,7.587-18.888A78.917,78.917,0,0,0,211.015,142.7a35.388,35.388,0,0,1-6.262-14.044c-3.571-17.8,1.547-33.147,12.1-47.612a40.321,40.321,0,0,1,14.68-12.246c6.965-5.125,14.646-8.776,23.9-8.783C265.324,60,276.144,63.506,282.966,71a49.489,49.489,0,0,1,11.485,21.276c4.7-6.287,7.392-10.532,7.392-10.532s21.419,18.835,33.627,16.61a54,54,0,0,1-3.922-8.136A49.5,49.5,0,0,1,328.7,84.16c-8.244-21.711,4.3-49.114,27.027-55.6,20.522-5.852,39,5.483,51.465,20.957.292.358.577.751.862,1.123a52.823,52.823,0,0,0-1.77-7.531C385.965-19.754,316.938-7.18,297.469,38.091c0,0-77.407-32.222-111.583,58,0,0-29.051-29.583-46.833-9.221S123.7,122.286,123.7,122.286,68.9,103.461,58.057,126.458s-1.238,37.907-1.238,37.907S2.493,150.51.056,176.876C-.667,184.717,5.685,190.371,15.275,194.324Z" transform="translate(0 0)"/></g><g transform="translate(405.505 4926.436)"><path class="c" d="M1323.246,605.058c-113.27,212.909-377.7,293.676-590.6,180.393s-293.667-377.7-180.385-590.6,377.7-293.663,590.6-180.38S1436.512,392.162,1323.246,605.058Z" transform="translate(0 0)"/><g transform="translate(629.291 98.431)"><path class="d" d="M1088.272,480.833c-98.67,138.04-290.565,169.959-428.614,71.28S489.7,261.548,588.37,123.507,878.939-46.455,1016.984,52.215,1186.943,342.784,1088.272,480.833Z" transform="translate(-531.061 5.143)"/><g transform="translate(0.036 0)"><path class="e" d="M895.342,192.64c-69.474,16.674-140.332,20.413-211.057,10.209-51.192-7.388-104.261-18.232-151.492-40.5,24.7,110.317,109.519,202.8,226.775,231.521,164.807,40.369,331.143-60.508,371.511-225.32a306.608,306.608,0,0,0,6.572-110.385C1070.614,123.165,987,170.644,895.342,192.64Z" transform="translate(-525.435 211.856)"/><path class="f" d="M654.676,330.153c-30.706,4.716-62.424,8.42-94.069,9.013a306,306,0,0,0,108.076,50.2c164.807,40.369,331.142-60.508,371.511-225.32a306.367,306.367,0,0,0,7.532-100.706c-.533-1.259-1.029-2.552-1.583-3.8-45.161,81.727-111.294,151.522-192.552,199.3C791.995,295.043,725.311,319.283,654.676,330.153Z" transform="translate(-434.55 216.356)"/><path class="g" d="M1144.924,320.785c8.979-145.513-86.942-281.095-233.539-317C746.573-36.582,580.246,64.3,539.878,229.11a307.988,307.988,0,0,0-8.809,71.933C575.616,268.5,656.8,232.319,779.5,262.373,954.715,305.289,1068.719,397.345,1144.924,320.785Z" transform="translate(-531.069 5.107)"/><path class="h" d="M564.148,43.8c43.659,3.986,94.872,19.384,150.826,56.266,149.068,98.252,225.5,221.671,321.57,179.126C1026.882,150.131,935.8,36.233,803.291,3.777A306.255,306.255,0,0,0,564.148,43.8Z" transform="translate(-422.975 5.116)"/><path class="i" d="M947.333,250.507C920.706,359.2,811.008,425.723,702.317,399.1S527.1,262.789,553.723,154.094s136.307-175.229,245-148.607S973.951,141.812,947.333,250.507Z" transform="translate(-476.212 20.562)"/><path class="j" d="M655.6,102.816c-24.322,17.984-55.639,26.78-77.076,9.88C522.95,68.883,619.379,5.883,663.537,15.737,712.711,26.7,680.19,84.657,655.6,102.816Z" transform="translate(-430.882 69.852)"/><path class="j" d="M631.519,11.384c15.991-.871,32.388,4.353,36.954,18.048,11.822,35.546-49.121,35.354-65.783,18.146C584.147,28.433,615.383,12.263,631.519,11.384Z" transform="translate(-315.663 58.691)"/></g></g><g transform="translate(610.414 104.019)"><g class="k" transform="translate(23.587 12.735)"><path class="l" d="M575,266.635c13.61,1.716,27.416,2.249,41.034.346,19.521-2.723,38.533-14.476,54.559-25.2,11.83-7.917,24.386-17.361,38.734-20.549,17.485-3.879,36.779,7.072,50.688,16.61,24.147,16.555,49.9,30.8,78.8,36.225,31.415,5.894,63.338-1.7,93.109-11.322,24.608-7.951,48.166-16.883,73.115-23.69,23.763-6.483,43.693-16.183,64.345-29.46,30.659-19.713,62.253-46.9,75.129-81.77a308.619,308.619,0,0,0-11.916-74.3c-2.518.1-4.772,1.895-7.49,3.675,1.664-.811,3.337-1.716,4.972-2.62-3.884,2.253-6.466,5.744-9.133,9.248-3.683,4.835-3.76,11.8-5.087,17.412-2.036,8.523-5.335,16.516-8.344,24.723-9.261,25.2-28.735,46.847-53.244,57.875-20.144,9.06-45.17,3.171-66.85,4.349-29.008,1.575-54.623,9.065-81.817,18.88-26.588,9.6-51.247,8.19-78.8,7.686-28.355-.529-53.718-18.1-79.854-26.836-13.332-4.46-26.994-4.84-40.881-5.237-16.137-.461-23.024-12.018-34.377-22.342-22.517-20.489-53.244-27.693-77.139-46.2-19.073-14.775-41.444-23.571-47.611-48.981a12.294,12.294,0,0,0-1.831-.632A305.471,305.471,0,0,0,532.164,105.4c9.509,14.8,25.09,27.1,38.247,36.417,12.9,9.133,31.133,19.606,34.415,36.532,5.489,28.291-17.579,27.668-37.445,23.43-7.87-1.677-17.929-1.921-24.885-6.175-3.41-2.087-5.612-5.8-8.322-8.365a308.706,308.706,0,0,0,22.879,76.986C562.431,265.935,569.788,265.974,575,266.635Zm31.027-76.482.038-.141-.034.132Zm-.231.854.021-.064.077-.107-.017.055C605.855,190.925,605.821,190.968,605.8,191.006Z" transform="translate(-532.164 148.981)"/><path class="m" d="M869.267,100.158c-26.217,15.155-45.183,37.607-66.782,58.246-25.112,24-58.745,29.388-91.927,34.159-29.528,4.242-107.035,2.3-110.876,43.471-4.571,48.985,65.3,26.161,91.116,22.508,37.808-5.352,75.94-9.658,110.778-26.426a115.167,115.167,0,0,0,18.317-11.1,307.561,307.561,0,0,0,47.671-52.557A307.259,307.259,0,0,0,907.886,90.47C895.07,88.8,879.642,94.162,869.267,100.158Z" transform="translate(-312.233 298.092)"/><path class="n" d="M686.73,125.9c-13.6-6.346-29.174-9.509-43.4-14.485-14.058-4.916-35.175-4.438-42.421-19.363-5.514-11.365-6.282-25.32-8.3-37.629-1.886-11.484-7.738-22.022-14.28-31.47-2.121-3.064-7.661-.632-6.7,3.017,3.99,15.116,3.781,31.325,5.39,46.868,1.592,15.347,6.918,27.318,12.078,41.529,12.432,34.227,46.851,66.747,85.265,66.449C706.776,180.567,716.617,139.853,686.73,125.9Z" transform="translate(-403.591 73.929)"/><path class="o" d="M618.583,173.156c14.954,3.389,33.83,5.608,46.318-5.416a8.785,8.785,0,0,0,1.268-12.1c-13.256-18.723-45.076-17.011-65.215-22.273A243.328,243.328,0,0,1,560.4,119.181c-2.031-.935-7.575-4.767-13.46-8.279a306.988,306.988,0,0,0,61.835,59.689C612.019,171.5,615.267,172.409,618.583,173.156Z" transform="translate(-483.88 365.87)"/><path class="p" d="M582.788,15.427c3.239,5.51,10.742,10.14,15.377,14.391,7.358,6.752,14.685,13.674,19.828,22.333,9.987,16.819,3.7,41.909,10.345,60.875,17.869,50.974,65.331,69.5,114.943,76.218,26.02,3.521,51.857-2.74,77.246-7.49,24.983-4.673,51.149-.393,75.676-7.306,20.942-5.9,32.17-19.777,37.556-40.057a54.3,54.3,0,0,0,2.125-14.9,304.811,304.811,0,0,0-42.566-52.007c-6.654-3.115-13.554-4.046-17.826,2.872-2.966,4.818-5.51,9.649-8.574,14.271-3.329,5-1.844,9.666-3.811,15.108-5.245,14.523-22.013,8.8-34.291,10.085-16.038,1.681-31.812,5.138-47.556,8.544-19.892,4.31-40.36,3.056-60.585,2.125-20.5-.939-38.12-4.088-50.722-21.147-8.544-11.566-13.14-30.792-17.267-44.355C645.741,32.152,625.406,10.494,603.772.712,593.841-3.778,574.773,1.8,582.788,15.427Z" transform="translate(-373.007 0.813)"/><path class="q" d="M558.665,60.612c9.069,14.348,21.206,35.738,40.271,35.234,5.27-.137,10.917-4.157,9.491-10.208-3.512-14.916-17.31-23.426-26.588-35.209A202.677,202.677,0,0,1,567.469,28.8c-2.962-4.934-7.119-9.585-12.863-7.844q-4.161,5.012-8.134,10.251C545.777,41.2,554.88,54.633,558.665,60.612Z" transform="translate(-485.533 70.717)"/></g><path class="r" d="M1151.165,415.612c-4.784,10.324-12.735,20.814-23.067,25.978-9.671,4.844-15.074,11.945-22.107,20.208-20.848,24.5-39.78,50.287-69.56,64.618-34.838,16.768-72.97,21.07-110.778,26.422-25.816,3.653-95.687,26.477-91.121-22.508,3.845-41.167,81.352-39.225,110.884-43.471,33.173-4.771,66.816-10.157,91.923-34.159,21.595-20.639,40.569-43.087,66.782-58.242,11.51-6.658,29.281-12.615,42.763-8.941a11.557,11.557,0,0,1,2.437.96C1158.561,391.448,1154.921,407.525,1151.165,415.612ZM619.75,323.532c-3.278-16.926-21.514-27.4-34.415-36.532-23.174-16.4-53.936-42.054-45.622-74.361,2.394-9.312,9.581-28,22.162-22.295,6.171,25.41,28.538,34.206,47.615,48.981,23.886,18.509,54.622,25.717,77.139,46.207,11.344,10.319,18.232,21.881,34.372,22.337,13.887.4,27.548.777,40.885,5.237,26.136,8.74,51.495,26.311,79.849,26.836,27.548.508,52.207,1.912,78.8-7.686,27.194-9.816,52.813-17.3,81.821-18.88,21.676-1.178,46.7,4.712,66.846-4.349,24.51-11.028,43.983-32.674,53.245-57.875,3.008-8.2,6.312-16.2,8.339-24.719,1.332-5.612,1.408-12.577,5.091-17.417,2.667-3.5,5.249-6.995,9.133-9.248-1.635.9-3.307,1.81-4.976,2.62,4.046-2.642,7.025-5.4,11.433-2.458,4.959,3.308,7.609,13.162,9.189,18.552a123.18,123.18,0,0,1,4,21.236,61.6,61.6,0,0,1-.508,16.034c-7.409,43.283-44.286,76.171-79.832,99.029-20.651,13.277-40.582,22.978-64.349,29.465-24.949,6.8-48.511,15.739-73.115,23.686-29.771,9.624-61.69,17.22-93.114,11.322-28.9-5.429-54.653-19.67-78.8-36.225-13.909-9.538-33.2-20.485-50.692-16.606-14.348,3.184-26.9,12.628-38.734,20.545-16.025,10.725-35.034,22.474-54.55,25.2-13.623,1.9-27.433,1.374-41.039-.346-5.911-.747-14.6-.691-20-3.192-5.271-2.437-12.342-8.011-17.254-11.621a61.618,61.618,0,0,1-15.47-17.118c-4.814-7.908-11.587-18.962-10.426-28.3.986-7.853,5.245-19.038,13.1-21.458,9.048-2.787,11.2,6.777,17.553,10.661,6.956,4.255,17.015,4.5,24.885,6.18C602.171,351.2,625.234,351.822,619.75,323.532Zm1.2,11.8.03-.137-.039.141Zm-.154.743.013-.051-.072.1-.021.064ZM802.422,110.042c17.86,50.974,65.326,69.5,114.939,76.218,26.02,3.525,51.861-2.74,77.25-7.49,24.979-4.673,51.145-.393,75.671-7.3,20.946-5.9,32.17-19.781,37.556-40.061,4.75-17.865,1.617-27.949-9.935-42.532a82.349,82.349,0,0,0-18.116-16.721c-8.348-5.851-23.016-16.444-30.212-4.784-2.97,4.818-5.514,9.649-8.582,14.271-3.324,5.006-1.839,9.666-3.8,15.108-5.245,14.523-22.022,8.8-34.3,10.089-16.034,1.682-31.812,5.134-47.547,8.54-19.892,4.31-40.36,3.056-60.589,2.13-20.5-.943-38.12-4.089-50.722-21.147C835.489,84.79,830.892,65.568,826.765,52c-6.943-22.832-27.279-44.487-48.913-54.273-9.931-4.49-29,1.084-20.984,14.715,3.239,5.51,10.746,10.14,15.377,14.391,7.353,6.752,14.685,13.674,19.828,22.333C802.064,65.986,795.773,91.08,802.422,110.042Zm-74.31,419.775a8.8,8.8,0,0,0,1.268-12.1C716.12,499,684.3,500.7,664.16,495.441A242.965,242.965,0,0,1,623.6,481.259c-4.5-2.078-26.289-18.424-30.766-13.823-3.226,3.316,5.578,12.7,7.545,15.266,6.192,8.083,10.277,13.763,18.641,19.179,5.941,3.854,10.738,8.642,15.9,13.166,7.866,6.884,11.758,12.769,22.222,14.22,8.382,1.165,16.3,4.076,24.642,5.962C696.744,538.617,715.621,540.836,728.112,529.817ZM620.22,127.536c9.069,14.344,21.2,35.734,40.275,35.234,5.266-.141,10.912-4.161,9.487-10.213-3.517-14.916-17.31-23.426-26.592-35.209a202.566,202.566,0,0,1-14.361-21.633c-3.243-5.4-7.887-10.546-14.5-7.264C599.077,96.121,614.919,119.158,620.22,127.536Zm210.007,68.5c-13.6-6.342-29.17-9.509-43.4-14.485-14.058-4.912-35.179-4.438-42.421-19.363-5.518-11.365-6.282-25.316-8.305-37.629-1.886-11.48-7.737-22.022-14.28-31.47-2.117-3.064-7.661-.632-6.7,3.017,3.99,15.116,3.781,31.329,5.394,46.868,1.592,15.351,6.914,27.318,12.073,41.529,12.432,34.232,46.856,66.748,85.265,66.449C850.276,250.7,860.114,209.984,830.227,196.033Z" transform="translate(-526.637 3.797)"/><g class="s" transform="translate(0 0.015)"><path class="t" d="M662.883,21.925A33.543,33.543,0,0,1,664,25.975,32.983,32.983,0,0,0,662.883,21.925Z" transform="translate(-81.421 87.837)"/><path class="u" d="M660.494,17.917c1.118,1.408,2.125,2.761,3.085,4.1C662.619,20.678,661.612,19.325,660.494,17.917Z" transform="translate(-89.228 74.74)"/><path class="v" d="M663.326,36.474a38.444,38.444,0,0,0-.171-13.55A38.351,38.351,0,0,1,663.326,36.474Z" transform="translate(-80.532 91.102)"/><path class="w" d="M602.683,49.621a26.446,26.446,0,0,0-1.4-3.325A26.446,26.446,0,0,1,602.683,49.621Z" transform="translate(-282.714 167.475)"/><path class="x" d="M600.283,44.846a28.757,28.757,0,0,1,2.253,2.812A28.757,28.757,0,0,0,600.283,44.846Z" transform="translate(-285.982 162.737)"/><path class="y" d="M661.986,20.044a42.949,42.949,0,0,1,3.807,7.976A43.234,43.234,0,0,0,661.986,20.044Z" transform="translate(-84.352 81.69)"/><path class="z" d="M600.845,45.557a27.278,27.278,0,0,1,1.788,3A26.991,26.991,0,0,0,600.845,45.557Z" transform="translate(-284.146 165.06)"/><path class="aa" d="M602.126,46.582a29.574,29.574,0,0,0-2.535-2.4A30.253,30.253,0,0,1,602.126,46.582Z" transform="translate(-288.243 160.557)"/><path class="ab" d="M582.051,11.9c3.239,5.51,10.746,10.14,15.377,14.391,7.353,6.752,14.685,13.674,19.828,22.333,9.991,16.819,3.7,41.913,10.349,60.875,17.86,50.974,65.326,69.5,114.939,76.218,26.02,3.525,51.861-2.74,77.25-7.49,24.979-4.673,51.145-.393,75.671-7.3,20.946-5.9,32.17-19.781,37.556-40.061a68.377,68.377,0,0,0,1.583-7.58c-6.273,14.382-16.853,24.386-33.8,29.161-24.527,6.909-50.692,2.629-75.671,7.3-25.389,4.754-51.23,11.015-77.255,7.494C698.27,160.527,650.809,142,632.94,91.022c-6.645-18.962-.354-44.056-10.345-60.871-5.142-8.659-12.47-15.586-19.828-22.337-3.781-3.47-9.436-7.2-13.166-11.446C582.457-1.814,577.118,3.512,582.051,11.9Z" transform="translate(-351.82 4.323)"/><path class="ac" d="M585.625-3.764a22.257,22.257,0,0,0-3.269.563A22.837,22.837,0,0,1,585.625-3.764Z" transform="translate(-344.563 3.892)"/><path class="ad" d="M571.054,44.586c-3.751-6.73-9.521-12.227-15.155-17.9C561.528,32.363,567.3,37.856,571.054,44.586Z" transform="translate(-431.017 103.385)"/><path class="ae" d="M584.854-3.653a15.978,15.978,0,0,1,2.761.909A15.978,15.978,0,0,0,584.854-3.653Z" transform="translate(-336.4 4.255)"/><path class="af" d="M661.322,19.023q1.376,1.952,2.522,3.828Q662.7,20.976,661.322,19.023Z" transform="translate(-86.522 78.354)"/><path class="ag" d="M583.986-3.787a20.987,20.987,0,0,1,3.056.418A21.589,21.589,0,0,0,583.986-3.787Z" transform="translate(-339.236 3.817)"/><path class="ah" d="M583.214-3.7a23.8,23.8,0,0,1,3.261-.064A23.8,23.8,0,0,0,583.214-3.7Z" transform="translate(-341.759 3.794)"/><path class="ai" d="M598.805,43.6a32.8,32.8,0,0,1,3.111,2.249A32.8,32.8,0,0,0,598.805,43.6Z" transform="translate(-290.812 158.669)"/><path class="aj" d="M672.542,87.65a10.079,10.079,0,0,1,1.588,1.058A10.079,10.079,0,0,0,672.542,87.65Z" transform="translate(-49.858 302.609)"/><path class="ak" d="M673.034,88.018a9.088,9.088,0,0,1,.79.781A9.088,9.088,0,0,0,673.034,88.018Z" transform="translate(-48.25 303.812)"/><path class="al" d="M668.388,59.652a137.706,137.706,0,0,0,4.272-13.46,1.183,1.183,0,0,0,.077-.124c-2.9,3.807-3.568,8.928-4.37,13.67Z" transform="translate(-63.501 166.73)"/><path class="am" d="M673.325,88.354c.2.277.414.546.584.845C673.739,88.9,673.521,88.631,673.325,88.354Z" transform="translate(-47.299 304.91)"/><path class="an" d="M555.346,26.116c.4.414.794.819,1.195,1.233C556.14,26.94,555.743,26.53,555.346,26.116Z" transform="translate(-432.824 101.532)"/><path class="ao" d="M549.934,71.664l.077-.115.013-.051-.073.1Z" transform="translate(-450.509 249.829)"/><path class="ap" d="M673.685,89.064c.145.431.294.858.4,1.31C673.98,89.922,673.83,89.5,673.685,89.064Z" transform="translate(-46.123 307.23)"/><path class="aq" d="M673.526,88.688c.179.354.371.713.521,1.093C673.9,89.4,673.705,89.042,673.526,88.688Z" transform="translate(-46.643 306.001)"/><path class="ar" d="M674.078,91.016c-.064-.529-.171-1.041-.282-1.553C673.907,89.975,674.014,90.487,674.078,91.016Z" transform="translate(-45.76 308.534)"/><path class="as" d="M575.307,24.586a54.27,54.27,0,0,1,1.75,7.221A54.27,54.27,0,0,0,575.307,24.586Z" transform="translate(-367.597 96.533)"/><path class="at" d="M574.65,22.855a66.434,66.434,0,0,1,2.595,6.679A67.52,67.52,0,0,0,574.65,22.855Z" transform="translate(-369.744 90.876)"/><path class="au" d="M549.995,71.436l.03-.132-.038.141Z" transform="translate(-450.339 249.195)"/><path class="av" d="M601.409,45.006a36.736,36.736,0,0,0-3.636-1.98A36.736,36.736,0,0,1,601.409,45.006Z" transform="translate(-294.184 156.79)"/><path class="aw" d="M577.1,27.588c-1.012-2.189-2.121-4.332-3.312-6.436C574.978,23.252,576.087,25.4,577.1,27.588Z" transform="translate(-372.564 85.311)"/><path class="ax" d="M570.886,22.988c3.99,15.116,3.781,31.329,5.394,46.868,1.592,15.351,6.914,27.318,12.073,41.529,12.432,34.232,46.856,66.747,85.265,66.449,22.978-.179,34.59-20.664,28.782-37.56a27.133,27.133,0,0,1,1.417,7.025c-5.1,7.016-13.618,11.967-24.859,12.056-38.41.3-72.833-32.217-85.265-66.449-5.16-14.207-10.481-26.183-12.078-41.525-.982-9.5-1.293-19.239-2.3-28.829-.568-.866-1.144-1.737-1.733-2.582C575.469,16.907,569.926,19.339,570.886,22.988Z" transform="translate(-382.406 76.898)"/><path class="ay" d="M576.736,25.918q-1.875-3.271-3.956-6.406Q574.854,22.642,576.736,25.918Z" transform="translate(-375.854 79.952)"/><path class="az" d="M534.258,41.5a11.95,11.95,0,0,1,2.714.841A11.95,11.95,0,0,0,534.258,41.5Z" transform="translate(-501.735 151.79)"/><path class="ba" d="M623.418,111.515c.708-.077,1.387-.154,2.061-.235C624.8,111.361,624.126,111.438,623.418,111.515Z" transform="translate(-210.383 379.826)"/><path class="bb" d="M1019.966,184.836c23.767-6.487,43.7-16.188,64.349-29.464,35.3-22.7,71.882-55.3,79.641-98.145-13.354,33.852-44.269,60.354-74.3,79.666-20.651,13.281-40.582,22.978-64.349,29.46-24.949,6.807-48.507,15.744-73.111,23.69-29.776,9.624-61.694,17.22-93.118,11.322-28.9-5.429-54.653-19.67-78.8-36.225-13.9-9.538-33.2-20.485-50.692-16.606-14.344,3.188-26.9,12.628-38.734,20.545-16.026,10.725-35.034,22.478-54.55,25.2-13.623,1.9-27.433,1.37-41.039-.35-5.911-.747-14.6-.691-20-3.192-5.271-2.437-12.342-8.011-17.255-11.621A61.55,61.55,0,0,1,542.538,162c-4.208-6.905-9.905-16.213-10.511-24.689a37.137,37.137,0,0,0-5.258,14.865c-1.161,9.342,5.612,20.4,10.426,28.3a61.618,61.618,0,0,0,15.47,17.118c4.912,3.611,11.984,9.184,17.254,11.621,5.407,2.5,14.092,2.445,20,3.192,13.605,1.72,27.416,2.249,41.039.346,19.517-2.723,38.525-14.472,54.55-25.2,11.835-7.917,24.386-17.361,38.734-20.545,17.489-3.879,36.784,7.067,50.692,16.606,24.147,16.555,49.9,30.8,78.8,36.225,31.424,5.9,63.342-1.7,93.114-11.322C971.455,200.575,995.017,191.639,1019.966,184.836Z" transform="translate(-526.637 203.192)"/><path class="bc" d="M624.119,111.534c.956-.115,1.878-.235,2.752-.363C626,111.3,625.075,111.419,624.119,111.534Z" transform="translate(-208.092 379.47)"/><path class="bd" d="M622.639,111.583c.751-.077,1.485-.149,2.211-.222C624.124,111.434,623.394,111.51,622.639,111.583Z" transform="translate(-212.928 380.091)"/><path class="be" d="M621.713,111.707c1.016-.094,2.014-.179,2.983-.273Z" transform="translate(-215.954 380.329)"/><path class="bf" d="M563.185,114.041c-1.093-.188-2.151-.4-3.205-.606C561.034,113.644,562.093,113.853,563.185,114.041Z" transform="translate(-417.682 386.868)"/><path class="bg" d="M549.466,109.939c-.154-.09-.337-.2-.508-.3C549.129,109.738,549.312,109.849,549.466,109.939Z" transform="translate(-453.699 374.454)"/><path class="bh" d="M562.71,114.078c-1.323-.273-2.612-.572-3.849-.9C560.1,113.506,561.387,113.805,562.71,114.078Z" transform="translate(-421.338 386.041)"/><path class="bi" d="M915.578,108.077c2.1-4.528,4.169-11.57,3.956-17.762.021.679.021,1.366-.009,2.057-4.869,9.385-12.27,18.5-21.676,23.2-9.671,4.844-15.074,11.945-22.1,20.208-20.848,24.5-39.779,50.287-69.56,64.618-34.842,16.768-72.974,21.074-110.778,26.422-25.022,3.542-91.42,25.086-91.334-18.181a29.222,29.222,0,0,0-5.13,14.152c-4.567,48.985,65.3,26.161,91.121,22.508,37.808-5.352,75.94-9.654,110.778-26.422,29.78-14.331,48.712-40.117,69.56-64.618,7.033-8.262,12.436-15.364,22.107-20.208C902.843,128.891,910.794,118.4,915.578,108.077Z" transform="translate(-291.05 311.318)"/><path class="bj" d="M599.993,124.642A36.531,36.531,0,0,1,608.661,116,36.454,36.454,0,0,0,599.993,124.642Z" transform="translate(-286.93 395.263)"/><path class="bk" d="M549.285,109.846c-.252-.158-.508-.316-.777-.487C548.768,109.525,549.042,109.7,549.285,109.846Z" transform="translate(-455.169 373.549)"/><path class="bl" d="M674.011,91.69c-.017-.615-.073-1.212-.145-1.81C673.938,90.477,673.994,91.075,674.011,91.69Z" transform="translate(-45.531 309.896)"/><path class="bm" d="M663.081,111.5c-15.458,1.353-35.875,2.719-54.064,6.991C627.21,114.213,647.627,112.856,663.081,111.5Z" transform="translate(-257.441 380.542)"/><path class="bn" d="M554.6,25.311c.209.239.418.478.631.717C555.021,25.789,554.812,25.55,554.6,25.311Z" transform="translate(-435.252 98.902)"/><path class="bo" d="M602.046,117.291c.811-.585,1.664-1.152,2.535-1.7C603.71,116.139,602.857,116.706,602.046,117.291Z" transform="translate(-280.221 393.904)"/><path class="bp" d="M602.706,116.743c.862-.542,1.758-1.058,2.671-1.562C604.464,115.685,603.572,116.2,602.706,116.743Z" transform="translate(-278.064 392.574)"/><path class="bq" d="M603.391,121.72c6.935-3.76,15.2-6.513,24-8.582C618.593,115.2,610.331,117.961,603.391,121.72Z" transform="translate(-275.826 385.898)"/><path class="br" d="M532.426,42.892a11.86,11.86,0,0,1,2.172-1.259A11.626,11.626,0,0,0,532.426,42.892Z" transform="translate(-507.721 152.238)"/><path class="bs" d="M679.23,157.522c-11.51-16.247-36.988-17.109-56.688-20.494,18.689,3.222,42.55,4.2,54.772,18.168-12.052,6.252-27.6,4.251-40.334,1.366-8.339-1.891-16.26-4.8-24.642-5.966-10.464-1.451-14.357-7.336-22.218-14.22-5.168-4.52-9.965-9.312-15.906-13.162a49.581,49.581,0,0,1-8.484-6.884c1.037.661,1.993,1.268,2.9,1.848-8.091-5.151-22.4-14.57-25.939-10.934-3.226,3.316,5.578,12.7,7.545,15.266,6.192,8.083,10.277,13.763,18.641,19.179,5.941,3.854,10.738,8.642,15.9,13.166,7.866,6.884,11.758,12.769,22.222,14.22,8.382,1.165,16.3,4.076,24.642,5.962,14.954,3.389,33.83,5.608,46.322-5.411A8.8,8.8,0,0,0,679.23,157.522Z" transform="translate(-476.487 363.975)"/><path class="bt" d="M531.944,43.444a16.785,16.785,0,0,1,1.609-1.434A16.785,16.785,0,0,0,531.944,43.444Z" transform="translate(-509.296 153.47)"/><path class="bu" d="M543.85,78.891c.039,0,.086,0,.137,0C543.936,78.9,543.889,78.891,543.85,78.891Z" transform="translate(-470.39 273.987)"/><path class="bv" d="M535.081,41.481a9.715,9.715,0,0,0-2.1.585A9.715,9.715,0,0,1,535.081,41.481Z" transform="translate(-505.907 151.741)"/><path class="bw" d="M598.247,92.925c5.266-.141,10.913-4.161,9.487-10.213a32.284,32.284,0,0,0-3.307-8.365c-.277.03-.563.09-.841.1-19.073.5-31.21-20.886-40.279-35.234-2.744-4.345-8.292-12.62-10.879-20.656,5.719-2.736,9.957.819,13.076,5.335-3.15-4.562-7.43-8.16-13.226-5.283-15.449,7.669.392,30.706,5.693,39.084C567.041,72.034,579.175,93.424,598.247,92.925Z" transform="translate(-464.39 73.628)"/><path class="bx" d="M533.646,41.485a9.428,9.428,0,0,1,1.831.038A9.428,9.428,0,0,0,533.646,41.485Z" transform="translate(-503.734 151.664)"/><path class="by" d="M610.8,172.433c.2,1.067.294,2.014.427,3,4.763-3.717,7.076-10.328,4.912-21.48-3.277-16.926-21.514-27.395-34.411-36.532-21.48-15.2-49.412-38.354-46.783-67.379a31.715,31.715,0,0,1,4.993-7.6c-4.754,5.117-7.784,13.682-9.176,19.1-8.314,32.307,22.448,57.96,45.622,74.361C589.288,145.034,607.524,155.507,610.8,172.433Z" transform="translate(-517.689 154.881)"/><path class="bz" d="M542.981,78.869c.132,0,.265.021.4.03C543.246,78.89,543.113,78.873,542.981,78.869Z" transform="translate(-473.23 273.915)"/><path class="ca" d="M528.35,76.374a17.348,17.348,0,0,1,1.233-1.263A15.078,15.078,0,0,0,528.35,76.374Z" transform="translate(-521.04 261.635)"/><path class="cb" d="M529.235,75.567c-.465.576-.914,1.161-1.332,1.792C528.321,76.728,528.77,76.139,529.235,75.567Z" transform="translate(-522.501 263.125)"/><path class="cc" d="M528.907,75.452c.337-.252.67-.512,1.024-.73C529.573,74.935,529.244,75.2,528.907,75.452Z" transform="translate(-519.22 260.364)"/><path class="cd" d="M542.067,78.79c.243.021.5.064.738.085C542.562,78.854,542.31,78.811,542.067,78.79Z" transform="translate(-476.217 273.657)"/><path class="ce" d="M539.681,78.392c1.212.256,2.428.5,3.653.721C542.109,78.891,540.893,78.648,539.681,78.392Z" transform="translate(-484.013 272.357)"/><path class="cf" d="M541.044,78.646c.5.081.99.171,1.49.248C542.034,78.817,541.543,78.727,541.044,78.646Z" transform="translate(-479.56 273.187)"/></g></g></g></g><g transform="matrix(0.996, 0.087, -0.087, 0.996, 415.372, 40.769)"><path class="a" d="M304.929,383.585c-1.857,8.62-11.1,13.589-19.041,15.174-9.638,1.923-19.36.9-27.16-5.556-5.984-4.948-4.551-14.364,1.391-18.349a10.262,10.262,0,0,1,6.4-4.621c6.972-1.492,13.408-4.892,20.525-5.716C297.69,363.289,307.235,372.889,304.929,383.585Zm21.464-5.4a7.38,7.38,0,0,1,.664-8.922c.316-.334.643-.619.963-.907.2-.605.383-1.134.337-1,.8-2.163,2.823-3.414,4.816-4.273,2.994-1.29,6.4-.567,9.193.824,4.677,2.319,5.48,8.4,2.284,12.246a10.924,10.924,0,0,1-6.061,3.578c-.563.122-1.147.216-1.7.386-.09.031-.118.031-.181.052-.063.038-.08.059-.153.111A7.391,7.391,0,0,1,326.393,378.189Zm9.52-.977c.059,0,.115.014.174.01C337.729,376.885,337.611,376.9,335.914,377.211ZM213.4,554.467a12.04,12.04,0,0,0-6.572-.174c-15.247,3.88-22.4,19.75-22.973,34.242-.362,9.117,10.1,11.787,16.662,8.519a32.049,32.049,0,0,0,11.756-10.591,67.558,67.558,0,0,0,4.312-7c.64-1.2,1.2-2.448,1.766-3.682-.125.271,1.77-3.39.789-2.264C224.515,567.339,221.33,556.049,213.4,554.467Zm-79.073,45.307a6.276,6.276,0,0,1,1.6,6.9,7.718,7.718,0,0,1-1.3,2.378c-.946,1.933-1.794,3.919-2.9,5.772a5.378,5.378,0,1,1-9.576-4.9c.045-.1.059-.143.08-.195l.014-.038c.139-.417.275-.838.407-1.259.3-.984.591-1.968.883-2.949.956-3.164,1.676-5.393,4.927-6.947C130.331,597.645,132.869,598.529,134.326,599.773Zm-10.014,5.365c-.028-.466-.136-.549,0,0Zm310-47.212c-12.323,1.919-23.4,6.613-32.518,15.282-.16.153-.278.316-.424.469a24.071,24.071,0,0,0-4.927,7.139c-2.253,4.979-.831,11.666,4.548,14.068a33.1,33.1,0,0,0,21.266,1.947,30.481,30.481,0,0,0,9.423-2.67c4.524-2.135,7.98-5.17,9.367-9.541a31.911,31.911,0,0,0,5.682-11.93C448.4,565.659,442.122,556.709,434.312,557.926ZM468.718,538.1c-2.754-2.455-6.078-2.8-9.534-2.013a13.26,13.26,0,0,0-8.734,7.472,9.415,9.415,0,0,0-.793,5.64,6.518,6.518,0,0,0,5.626,7.09,6.74,6.74,0,0,0,3.7.56,20.7,20.7,0,0,0,6.739-1.874,6.35,6.35,0,0,0,1.617-1.2,8.4,8.4,0,0,0,4.405-6.168l.014-.1C472.188,543.938,471.524,540.6,468.718,538.1ZM49.488,366.578c4.482-9.155-2.462-17.65-11.718-18.255-22.514-1.467-46.784,14.91-41.478,39.528,1.3,6.029,9.865,10.612,15.563,7.959a73.456,73.456,0,0,0,15.536-9.691C36.727,382.577,44.745,376.276,49.488,366.578Zm1.85-29.781c-3.488,3.908-2.858,9.531.734,13.084a8.836,8.836,0,0,0,7.166,2.552c2.493-.431,4.534-1.019,6.29-2.983a9.282,9.282,0,0,0,2.267-6.359,9.052,9.052,0,0,0-3.376-7.027C60.424,332.993,54.885,332.816,51.338,336.8Z" transform="translate(942.284 3676.582)"/><path class="cg" d="M39.339,409.989c-.685,1.453-1.373,2.91-2.194,4.294a6.093,6.093,0,0,1-2.587,2.378l.007.076a.448.448,0,0,0-.017-.073,5.089,5.089,0,0,1-.716.3c-.014.042-.024.077-.042.122-.292.981-.584,1.965-.883,2.949-.132.421-.268.842-.407,1.259l-.014.038c-.021.052-.035.1-.08.195a5.378,5.378,0,1,0,9.576,4.9c1.1-1.853,1.951-3.839,2.9-5.772a7.718,7.718,0,0,0,1.3-2.378,6.276,6.276,0,0,0-1.6-6.9A6.175,6.175,0,0,0,39.339,409.989Z" transform="translate(1032.03 3864.982)"/><path class="ch" d="M45.719,338.792a13.912,13.912,0,0,1-1.123,3.237c-4.743,9.7-12.761,15.991-22.1,19.541a73.434,73.434,0,0,1-15.532,9.691c-3.5,1.627-8.074.515-11.387-1.972a31.594,31.594,0,0,0,.661,6.151c1.3,6.029,9.865,10.612,15.563,7.959a73.454,73.454,0,0,0,15.536-9.691c9.336-3.543,17.354-9.844,22.1-19.541A11.876,11.876,0,0,0,45.719,338.792Z" transform="translate(942.339 3688.993)"/><path class="ci" d="M24.108,334.067a8.628,8.628,0,0,1-1.537,2.538c-1.756,1.965-3.8,2.552-6.29,2.98a7.839,7.839,0,0,1-4.67-.866,9.623,9.623,0,0,0,2.344,10.456,8.836,8.836,0,0,0,7.166,2.552c2.493-.431,4.534-1.019,6.29-2.983a9.282,9.282,0,0,0,2.267-6.359,9.052,9.052,0,0,0-3.376-7.027A11.234,11.234,0,0,0,24.108,334.067Z" transform="translate(980.4 3677.289)"/><path class="cj" d="M145.3,393.561a9.279,9.279,0,0,0-2.128-1.429,8.7,8.7,0,0,1-4.086,4.965,6.479,6.479,0,0,1-1.617,1.2,20.553,20.553,0,0,1-6.742,1.874,6.682,6.682,0,0,1-3.7-.556c-.073-.01-.139-.038-.212-.049a9.466,9.466,0,0,0-.581,5.1,6.518,6.518,0,0,0,5.626,7.09,6.74,6.74,0,0,0,3.7.56,20.7,20.7,0,0,0,6.739-1.874,6.349,6.349,0,0,0,1.617-1.2,8.4,8.4,0,0,0,4.405-6.168l.014-.1C148.77,399.4,148.106,396.065,145.3,393.561Z" transform="translate(1265.701 3821.121)"/><path class="ck" d="M101.713,359.39c.073-.052.09-.073.153-.111.063-.021.09-.021.181-.052.553-.17,1.137-.264,1.7-.386a10.924,10.924,0,0,0,6.061-3.578c3.2-3.849,2.392-9.927-2.284-12.246a16.142,16.142,0,0,0-1.958-.8,6.891,6.891,0,0,1-.6.9,10.929,10.929,0,0,1-6.061,3.581c-.563.122-1.147.216-1.7.386-.087.031-.115.031-.181.052-.056.038-.077.056-.153.111a6.835,6.835,0,0,1-4.67,1.13,7.336,7.336,0,0,0,9.51,11.009Zm-.469-3.063c-.059,0-.115-.01-.174-.01C102.767,356,102.885,355.99,101.244,356.327Z" transform="translate(1177.127 3697.477)"/><path class="cl" d="M80.163,403.068c.981-1.123-.918,2.538-.793,2.267-.567,1.234-1.127,2.479-1.766,3.679A68.2,68.2,0,0,1,73.3,416.02a32.059,32.059,0,0,1-11.76,10.591A13.585,13.585,0,0,1,50,426.7c-.132,1.182-.236,2.361-.285,3.533-.362,9.117,10.1,11.787,16.662,8.519a32.048,32.048,0,0,0,11.756-10.591,67.558,67.558,0,0,0,4.312-7c.64-1.2,1.2-2.448,1.766-3.682-.125.271,1.77-3.39.789-2.264,4.51-5.184,2.942-13.9-2.351-17.521A10.919,10.919,0,0,1,80.163,403.068Z" transform="translate(1076.423 3834.886)"/><path class="cm" d="M157.017,399.324a31.937,31.937,0,0,1-5.682,11.93c-1.384,4.371-4.837,7.4-9.36,9.541a30.4,30.4,0,0,1-9.426,2.667,33.1,33.1,0,0,1-21.266-1.944c-.122-.052-.205-.129-.316-.188-1.266,4.691.379,10.195,5.153,12.326a33.1,33.1,0,0,0,21.266,1.947,30.482,30.482,0,0,0,9.423-2.67c4.524-2.135,7.98-5.17,9.367-9.541a31.911,31.911,0,0,0,5.682-11.93c1.06-4.454-1.074-9.67-4.767-12.594C157.069,399.022,157.052,399.175,157.017,399.324Z" transform="translate(1227.155 3837.81)"/><path class="cn" d="M115.332,346.244c-1.86,8.616-11.1,13.588-19.044,15.174-9.1,1.815-18.244.946-25.807-4.579A10.92,10.92,0,0,0,73.968,368c7.8,6.457,17.521,7.479,27.16,5.556,7.938-1.586,17.184-6.554,19.041-15.174a15.44,15.44,0,0,0-4.534-14.427A15.887,15.887,0,0,1,115.332,346.244Z" transform="translate(1127.045 3701.785)"/></g></g></svg>