<svg xmlns="http://www.w3.org/2000/svg" xmlns:xlink="http://www.w3.org/1999/xlink" width="140.935" height="153.751" viewBox="0 0 140.935 153.751"><defs><style>.a,.b,.c,.d,.e{fill-rule:evenodd;}.a{fill:url(#a);}.b{fill:#ff7c25;}.c{fill:#a67c4c;opacity:0.5;mix-blend-mode:multiply;isolation:isolate;}.d{fill:#e05f25;}.e{fill:url(#b);}</style><linearGradient id="a" x1="0.5" y1="1" x2="0.5" gradientUnits="objectBoundingBox"><stop offset="0" stop-color="#a43440"/><stop offset="1" stop-color="#c75225"/></linearGradient><linearGradient id="b" y1="0.5" x2="1" y2="0.5" gradientUnits="objectBoundingBox"><stop offset="0" stop-color="#c75225"/><stop offset="1" stop-color="#a43440"/></linearGradient></defs><g transform="translate(-741.203 -154.045)"><path class="a" d="M752.989,227.392,741.2,208.631l21.607-25.646,36.83.3,14.241,35.257h4.42l8.348-12.555,19.151-.8,14.732,28.832-38.3,36.237-43.7.912-30.937-27.614Z" transform="translate(0 8.562)"/><path class="b" d="M741.2,208.631l21.361,21.205,17.924-2.1,19.151-44.454-36.83-.3Z" transform="translate(0 8.562)"/><path class="b" d="M812.036,200.917l-21.443,34.99,6.22,2.578,30.446-10.778,3.928-27.588Z" transform="translate(14.612 13.632)"/><path class="b" d="M783.266,241.5l11.458-7.781,9-2.128v7.98l-18.006,7.079Z" transform="translate(12.445 22.942)"/><path class="b" d="M746.13,233.416l25.372,6.039,14.732-6.039-34.7-16.163Z" transform="translate(1.457 18.701)"/><path class="b" d="M777.077,225.4l3.11-13.281,2.783,3.2.818,7.464Z" transform="translate(10.614 17.182)"/><path class="b" d="M765.941,237.346l1.637-1.717h9.494l-1.309,3.266L761.6,240.3Z" transform="translate(6.036 24.138)"/><path class="c" d="M757.688,229.768l.916,2.443,24.21,11.276-14.732,6.039.655,1.611h9.494l-1.309,3.266,7.53,14.5-3.928-12.276,3.928-7.289,13.267,1.8,4.575-3.107,9-2.128v7.98L817.72,268.9l38.794-34.947-22.957,18.9-19.52-11.208-7.489,1.841-6.22-2.578,13.095-22.435H809l-14.241-35.257-3.928,16.2,5.156,10.19-11.049,9.821.982,1.246,2.783,3.2.818,7.464-6.711,2.621.98-4.184-8.182-2.1Z" transform="translate(4.877 8.631)"/><path class="c" d="M818.888,227.707l12.277,2.082-1.206,6.119,8.449-6.956-15.591-28.832Z" transform="translate(22.984 13.632)"/><path class="b" d="M785.733,195.716l-10.8,24.89,15.96-14.7Z" transform="translate(9.978 12.329)"/><path class="c" d="M801.922,218.473l-6.384,15.479-13.1-2.621-.818-7.464,10.148,3.457-2.865-17.72-5.156-10.19,3.928-16.2Z" transform="translate(11.959 8.631)"/><path class="d" d="M815.589,223.987l4.938-6.178,1.9,5.1Z" transform="translate(22.008 18.865)"/><path class="d" d="M766.606,219.654l8.985-6.824.287,6.824Z" transform="translate(7.516 17.392)"/><path class="d" d="M763.143,234.041l8.094-1.164-4.115,3.566Z" transform="translate(6.491 23.323)"/><path class="d" d="M807.89,226.109l2.793-3.532L814.7,223.7Z" transform="translate(19.73 20.276)"/><path class="e" d="M748.466,221.685l-1.485-6.85,29.039-23.005,19.724-4.694,6.557,5.738-6.988-5.177L783.2,191.829l-22.343,12.809-13.422,10.353Z" transform="translate(1.709 9.79)"/><path class="b" d="M762.993,198.665l8.164-7.059,1.135-.614,5.34-.89.583.368-6.783,3.913Z" transform="translate(6.447 10.668)"/><path class="d" d="M744.451,206.3,753.468,205l-5.74,4.547.734,3.382Z" transform="translate(0.961 15.076)"/><path class="a" d="M747.606,164.974l5.522-8.354,14.776-2.575,5.831,23.427-5.831,4.253Z" transform="translate(1.894)"/><path class="a" d="M833.667,269.446l4.174-9.638,8.1-1.645,8.839,11.283-10.558,7.546Z" transform="translate(27.356 30.804)"/><path class="a" d="M820.865,186.968l1.366-14.03,7.857-3.415,3.438,6.095-6.33,11.35Z" transform="translate(23.569 4.579)"/><path class="b" d="M747.606,164.974l12.095,2.91,5.42-4.865,2.783-8.975-14.776,1.429Z" transform="translate(1.894)"/><path class="b" d="M833.667,269.446l8.1,3.348,7.693-6.748-3.519-7.883-8.1,1.645Z" transform="translate(27.356 30.804)"/><path class="b" d="M830.088,169.523l1.228,6.811-5.647,8.471-4.8,2.163,1.366-14.03Z" transform="translate(23.569 4.579)"/><path class="c" d="M846.659,266.046l5.32,3.4-8.839-11.283Z" transform="translate(30.159 30.804)"/><path class="c" d="M830.219,174.943l-5.647,8.471,1.527,2.163,6.33-11.35Z" transform="translate(24.665 5.971)"/><path class="c" d="M759.7,165.389l8.2,13.84-20.3-16.75Z" transform="translate(1.894 2.495)"/></g></svg>