<svg xmlns="http://www.w3.org/2000/svg" width="14.68" height="11.95" viewBox="0 0 14.68 11.95"><path d="M16.68,5.281h0a6.232,6.232,0,0,1-1.732.47h0a3.031,3.031,0,0,0,1.329-1.666h0a6.026,6.026,0,0,1-1.916.734h0A3.009,3.009,0,0,0,9.223,7.564h0a8.544,8.544,0,0,1-6.2-3.149h0a3.053,3.053,0,0,0-.4,1.519h0a3,3,0,0,0,1.336,2.5h0a2.973,2.973,0,0,1-1.365-.374V8.1h0a3.009,3.009,0,0,0,2.422,2.936h0a2.885,2.885,0,0,1-.807.125h0a3.6,3.6,0,0,1-.565-.051h0a3.017,3.017,0,0,0,2.811,2.085h0a6.033,6.033,0,0,1-3.714,1.292h0A5.821,5.821,0,0,1,2,14.441H2A8.492,8.492,0,0,0,6.617,15.8h0a8.507,8.507,0,0,0,8.595-8.418q0-.077,0-.155V6.837h0A6.188,6.188,0,0,0,16.68,5.281Z" transform="translate(-2 -3.85)" fill="#fff"/></svg>