<svg xmlns="http://www.w3.org/2000/svg" xmlns:xlink="http://www.w3.org/1999/xlink" width="539.957" height="505.324" viewBox="0 0 539.957 505.324"><defs><style>.a,.b,.c,.e,.f,.g,.h,.i,.j,.k,.l,.m,.p,.q,.s{fill-rule:evenodd;}.a{fill:url(#a);}.b{fill:url(#b);}.c{fill:url(#c);}.d{fill:#3c107b;}.e{fill:#31165f;}.f{fill:#0054b5;}.g{fill:#31c7ff;}.h{fill:url(#d);}.i,.o,.r{fill:#fff;}.j{fill:url(#e);}.k{fill:url(#f);}.l{fill:url(#g);}.m{fill:url(#h);}.n{fill:#77439f;}.p{fill:#ff935f;}.q{fill:url(#i);}.r,.w{mix-blend-mode:soft-light;}.ab,.r,.t,.u,.v,.w,.x,.y,.z{isolation:isolate;}.s{fill:url(#j);}.ab,.t,.u,.v,.x,.y,.z{mix-blend-mode:screen;}.t{fill:url(#k);}.u{fill:url(#m);}.v{fill:url(#o);}.x{fill:url(#p);}.y{fill:url(#q);}.z{fill:url(#r);}.aa{fill:url(#s);}.ab{fill:url(#t);}</style><linearGradient id="a" x1="0.5" y1="1" x2="0.5" gradientUnits="objectBoundingBox"><stop offset="0" stop-color="#ffff29"/><stop offset="1" stop-color="#ff7e59"/></linearGradient><radialGradient id="b" cx="0.487" cy="0.019" r="2.147" gradientTransform="translate(0.425 52.725) scale(0.128 1.404)" gradientUnits="objectBoundingBox"><stop offset="0.022" stop-color="#8343b0"/><stop offset="0.398" stop-color="#7836a9"/><stop offset="0.994" stop-color="#611b9c"/></radialGradient><radialGradient id="c" cx="0.467" cy="0.144" r="3.01" gradientTransform="translate(0.402 20.962) scale(0.14 0.661)" gradientUnits="objectBoundingBox"><stop offset="0" stop-color="#d4cfff"/><stop offset="1" stop-color="#8d6fc7"/></radialGradient><linearGradient id="d" x1="0.5" y1="1" x2="0.5" y2="0" xlink:href="#a"/><linearGradient id="e" x1="0.5" y1="1" x2="0.5" y2="0" xlink:href="#a"/><linearGradient id="f" x1="0.5" y1="1" x2="0.5" y2="0" xlink:href="#a"/><linearGradient id="g" x1="7.091" y1="1" x2="7.091" y2="0" xlink:href="#a"/><linearGradient id="h" x1="16.071" y1="1" x2="16.071" y2="0" xlink:href="#a"/><radialGradient id="i" cx="0.487" cy="0.019" r="2.682" gradientTransform="translate(0.438 139.445) scale(0.1 1.508)" gradientUnits="objectBoundingBox"><stop offset="0.022" stop-color="#725eb0"/><stop offset="0.383" stop-color="#6d51aa"/><stop offset="0.994" stop-color="#61349c"/></radialGradient><linearGradient id="j" x1="0.5" y1="1" x2="0.5" gradientUnits="objectBoundingBox"><stop offset="0" stop-color="#8dc7ff"/><stop offset="0.316" stop-color="#5c4d86"/></linearGradient><radialGradient id="k" cx="0.5" cy="0.5" r="0.597" gradientTransform="matrix(0.747, -0.409, 0.29, 0.788, 12.146, 0.16)" gradientUnits="objectBoundingBox"><stop offset="0" stop-color="#003cee"/><stop offset="0.056" stop-color="#0035d5"/><stop offset="0.198" stop-color="#00279d"/><stop offset="0.341" stop-color="#001b6d"/><stop offset="0.481" stop-color="#001146"/><stop offset="0.619" stop-color="#000927"/><stop offset="0.753" stop-color="#000411"/><stop offset="0.882" stop-color="#000104"/><stop offset="1"/></radialGradient><radialGradient id="m" cx="0.5" cy="0.5" r="0.597" gradientTransform="matrix(0.747, -0.409, 0.29, 0.788, 11.241, -0.309)" xlink:href="#k"/><radialGradient id="o" cx="0.5" cy="0.5" r="0.597" gradientTransform="matrix(0.747, -0.409, 0.29, 0.788, 13.011, 0.541)" xlink:href="#k"/><radialGradient id="p" cx="0.5" cy="0.5" r="0.909" gradientTransform="translate(3.676 -9.314) scale(0.55 0.55)" gradientUnits="objectBoundingBox"><stop offset="0" stop-color="#ff9a00"/><stop offset="0.091" stop-color="#d58100"/><stop offset="0.227" stop-color="#9d5f00"/><stop offset="0.365" stop-color="#6d4200"/><stop offset="0.5" stop-color="#462a00"/><stop offset="0.633" stop-color="#271700"/><stop offset="0.762" stop-color="#110a00"/><stop offset="0.886" stop-color="#040200"/><stop offset="1"/></radialGradient><radialGradient id="q" cx="0.5" cy="0.5" r="0.909" gradientTransform="translate(10.581 -26.357) scale(0.55 0.55)" xlink:href="#p"/><radialGradient id="r" cx="0.5" cy="0.5" r="0.909" gradientTransform="translate(8.519 -26.429) scale(0.55 0.55)" xlink:href="#p"/><linearGradient id="s" x1="0.5" y1="1" x2="0.5" gradientUnits="objectBoundingBox"><stop offset="0" stop-opacity="0"/><stop offset="0.155" stop-color="#05afe8" stop-opacity="0"/><stop offset="0.323" stop-color="#089dcf" stop-opacity="0.2"/><stop offset="0.499" stop-color="#039ddb" stop-opacity="0.271"/><stop offset="0.679" stop-color="#00aaeb" stop-opacity="0.329"/><stop offset="0.86" stop-color="#00baff" stop-opacity="0.42"/><stop offset="1" stop-color="#00b9ff" stop-opacity="0.471"/></linearGradient><linearGradient id="t" x1="0.5" y1="1" x2="0.5" gradientUnits="objectBoundingBox"><stop offset="0"/><stop offset="0.155" stop-color="#000304"/><stop offset="0.323" stop-color="#010d11"/><stop offset="0.499" stop-color="#041d27"/><stop offset="0.679" stop-color="#073445"/><stop offset="0.86" stop-color="#0c526c"/><stop offset="1" stop-color="#106d90"/></linearGradient></defs><g transform="matrix(0.839, 0.545, -0.545, 0.839, 306.451, -278.91)"><path class="a" d="M196.658,266.79s38.274-66.006,85.1-68.528c48.591-2.616,91.478,71.1,91.478,71.1Z" transform="translate(11.74 0.548)"/><path class="b" d="M443.669,276.038c-.738,2.458-53.968,25.3-144.548,25.3-83.663,0-145.378-21.5-144.547-25.3.582-2.662,64.716-11.629,144.547-11.629S444.222,274.2,443.669,276.038Z" transform="translate(0.013 18.997)"/><path class="c" d="M154.573,282.342s42-40.558,138.909-40.558,150.185,40.558,150.185,40.558-39.757-9.206-150.185-9.206C205.3,273.136,154.573,282.342,154.573,282.342Z" transform="translate(0.015 12.693)"/><g transform="translate(181.593 293.726)"><path class="d" d="M409.114,284.953l-.61-.187c.537-1.747-2.623-3.176-5.369-4.066-18.628-6.045-77.8-8.1-124.888-7.468-58.916.8-99.886,5.4-101.948,11.449l-.6-.207c2.649-7.766,54.708-11.229,102.544-11.881,47.143-.643,106.4,1.43,125.094,7.5C407.785,281.538,409.676,283.128,409.114,284.953Z" transform="translate(-175.694 -272.48)"/></g><path class="e" d="M221.358,291.1s49.2-6.471,114.915.528C336.273,291.632,277.438,298.071,221.358,291.1Z" transform="translate(18.622 25.675)"/><path class="f" d="M225.915,291.455s46.271-5.892,103.053.637C328.968,292.091,275.632,298.18,225.915,291.455Z" transform="translate(19.892 25.853)"/><path class="g" d="M234.323,290.264s53.4,4.332,79.819.23C314.142,290.494,265.541,287.553,234.323,290.264Z" transform="translate(22.235 25.881)"/><path class="h" d="M279.5,281.586c0,1.161-4.37,2.1-9.762,2.1s-9.758-.94-9.758-2.1a.658.658,0,0,1,.248-.471c.986-.937,4.872-1.634,9.51-1.634,4.035,0,7.5.527,8.987,1.281C279.227,281.015,279.5,281.3,279.5,281.586Z" transform="translate(29.384 23.196)"/><path class="i" d="M278.681,280.781c0,.995-4.178,1.8-9.331,1.8-4.561,0-8.361-.634-9.172-1.468.986-.937,4.872-1.634,9.51-1.634,4.035,0,7.5.527,8.987,1.281A.027.027,0,0,1,278.681,280.781Z" transform="translate(29.438 23.196)"/><g transform="translate(342.33 303.993)"><path class="j" d="M313.879,282.451c0,1.068-2.792,1.936-6.237,1.936-2.846,0-5.245-.593-5.994-1.4h0a.784.784,0,0,1-.239-.533.708.708,0,0,1,.161-.435c.626-.864,3.108-1.506,6.076-1.506a15.012,15.012,0,0,1,4.6.63,4.185,4.185,0,0,1,1.139.55A1,1,0,0,1,313.879,282.451Z" transform="translate(-301.405 -280.51)"/><path class="i" d="M312.5,281.685c0,1.068-2.792,1.933-6.241,1.933a14.932,14.932,0,0,1-4.608-.634h0a.784.784,0,0,1-.239-.533.708.708,0,0,1,.161-.435c.626-.864,3.108-1.506,6.076-1.506a15.012,15.012,0,0,1,4.6.63A.791.791,0,0,1,312.5,281.685Z" transform="translate(-301.405 -280.51)"/></g><g transform="translate(375.381 310.282)"><path class="k" d="M337.363,286.671c0,.683-2.263,1.238-5.054,1.238-2.307,0-4.25-.38-4.857-.9h0a.464.464,0,0,1-.193-.341.4.4,0,0,1,.13-.277c.509-.554,2.519-.964,4.924-.964a15.258,15.258,0,0,1,3.73.4,3.863,3.863,0,0,1,.923.352C337.221,286.334,337.363,286.5,337.363,286.671Z" transform="translate(-327.254 -285.429)"/><path class="i" d="M336.244,286.181c0,.683-2.263,1.236-5.06,1.236a15.167,15.167,0,0,1-3.734-.405h0a.464.464,0,0,1-.193-.341.4.4,0,0,1,.13-.277c.509-.554,2.519-.964,4.924-.964a15.258,15.258,0,0,1,3.73.4A.473.473,0,0,1,336.244,286.181Z" transform="translate(-327.254 -285.429)"/></g><g transform="translate(248.155 303.841)"><path class="l" d="M227.751,282.331c0,1.069,2.792,1.937,6.237,1.937,2.845,0,5.244-.593,5.993-1.4h.005a.782.782,0,0,0,.238-.534.713.713,0,0,0-.16-.433c-.628-.864-3.11-1.506-6.076-1.506a15.069,15.069,0,0,0-4.6.629,4.216,4.216,0,0,0-1.138.55A1,1,0,0,0,227.751,282.331Z" transform="translate(-227.751 -280.391)"/><path class="i" d="M228.831,281.566c0,1.068,2.793,1.933,6.242,1.933a14.955,14.955,0,0,0,4.607-.634h.005a.782.782,0,0,0,.238-.534.713.713,0,0,0-.16-.433c-.628-.864-3.11-1.506-6.076-1.506a15.069,15.069,0,0,0-4.6.629A.8.8,0,0,0,228.831,281.566Z" transform="translate(-227.45 -280.391)"/></g><g transform="translate(211.737 310.037)"><path class="m" d="M199.269,286.479c0,.683,2.263,1.238,5.054,1.238,2.307,0,4.25-.38,4.857-.9h0a.464.464,0,0,0,.193-.341.4.4,0,0,0-.13-.279c-.509-.552-2.519-.963-4.924-.963a15.266,15.266,0,0,0-3.73.4,3.811,3.811,0,0,0-.923.352C199.411,286.141,199.269,286.307,199.269,286.479Z" transform="translate(-199.269 -285.237)"/><path class="i" d="M200.145,285.989c0,.683,2.262,1.235,5.058,1.235a15.174,15.174,0,0,0,3.734-.4h0a.465.465,0,0,0,.193-.341.4.4,0,0,0-.13-.279c-.509-.552-2.519-.963-4.924-.963a15.265,15.265,0,0,0-3.73.4A.467.467,0,0,0,200.145,285.989Z" transform="translate(-199.025 -285.237)"/></g><g transform="translate(174.855 258.607)"><path class="n" d="M416.64,268.86c-62.633-26.71-126.172-25.58-168.445-19.927-45.814,6.125-77.218,18.731-77.53,18.857l-.24-.592c.312-.127,31.776-12.759,77.667-18.9,42.358-5.663,106.028-6.8,168.8,19.972Z" transform="translate(-170.424 -245.014)"/></g><g transform="translate(154.52 285.596)"><path class="d" d="M154.656,275.873l-.136-.624c.424-.091,43.557-9.127,146.828-9.127s142.03,9.037,142.41,9.128l-.15.621c-.38-.091-39.084-9.11-142.26-9.11S155.079,275.782,154.656,275.873Z" transform="translate(-154.52 -266.122)"/></g><g transform="translate(186.19 268.35)"><path class="n" d="M179.725,275.229l-.436-.467c.175-.165,17.609-16.332,30.688-22.128l.258.584C197.256,258.971,179.9,275.067,179.725,275.229Z" transform="translate(-179.289 -252.634)"/></g><g transform="translate(366.902 265.007)"><path class="n" d="M370.672,276.429c-19.989-16.416-49.75-25.708-50.049-25.8l.189-.611c.3.092,30.178,9.418,50.265,25.915Z" transform="translate(-320.623 -250.019)"/></g><path class="o" d="M281.854,205.3s3.794,4.285,11.17,12.321l6.989.088s-3.844-6.576-14.367-12.409Z" transform="translate(35.478 2.528)"/><path class="o" d="M197.862,264.811s42.037-66.718,88.115-65.227,83.746,65.227,83.746,65.227-41.335-68.539-82.664-68.584C239.462,196.176,197.862,264.811,197.862,264.811Z" transform="translate(12.076)"/><path class="p" d="M221.6,247.691s24.461-15.613,59.109-17.307S340.425,247.2,340.425,247.2,279.523,234.226,221.6,247.691Z" transform="translate(18.69 9.486)"/><path class="o" d="M204.436,250.445s9.274-14.15,20.627-24.507l4-.931s-11.57,14.685-15.558,22.921Z" transform="translate(13.908 8.019)"/><path class="q" d="M196.658,255.548l1.992-3.17s105.816-31.546,171.408.642L372,256.081s-29.5-12.029-89.193-12.029S196.658,255.548,196.658,255.548Z" transform="translate(11.74 11.791)"/><path class="r" d="M206.047,269.416s71.3-6.9,179.839,1.261C385.886,270.676,310.008,265.13,206.047,269.416Z" transform="translate(14.356 19.633)"/><g transform="translate(296.108 284.665)"><path class="s" d="M269.307,267.054a2.066,2.066,0,1,1-2.025-1.66A1.87,1.87,0,0,1,269.307,267.054Z" transform="translate(-265.255 -265.394)"/><path class="i" d="M268.782,266.977a1.627,1.627,0,1,1-1.594-1.307A1.472,1.472,0,0,1,268.782,266.977Z" transform="translate(-265.161 -265.317)"/></g><path class="t" d="M280.9,265.308c2.35,4.97-.662,10.559-6.729,12.483s-12.891-.542-15.242-5.511.662-10.559,6.729-12.483S278.548,260.34,280.9,265.308Z" transform="translate(28.867 17.53)"/><g transform="translate(415.113 289.052)"><path class="s" d="M362.38,270.483a2.067,2.067,0,1,1-2.025-1.658A1.87,1.87,0,0,1,362.38,270.483Z" transform="translate(-358.328 -268.825)"/><path class="i" d="M361.855,270.406a1.627,1.627,0,1,1-1.594-1.305A1.472,1.472,0,0,1,361.855,270.406Z" transform="translate(-358.234 -268.748)"/></g><path class="u" d="M373.971,268.739c2.35,4.969-.662,10.559-6.729,12.483S354.35,280.68,352,275.712s.662-10.559,6.729-12.483S371.621,263.771,373.971,268.739Z" transform="translate(54.799 18.486)"/><g transform="translate(182.959 289.052)"><path class="s" d="M180.814,270.483a2.067,2.067,0,1,1-2.025-1.658A1.871,1.871,0,0,1,180.814,270.483Z" transform="translate(-176.762 -268.825)"/><path class="i" d="M180.289,270.406a1.627,1.627,0,1,1-1.594-1.305A1.472,1.472,0,0,1,180.289,270.406Z" transform="translate(-176.668 -268.748)"/></g><ellipse class="v" cx="11.781" cy="9.649" rx="11.781" ry="9.649" transform="translate(173.849 281.062)"/><g class="w" transform="translate(207.961 262.235)"><path class="i" d="M262.584,256.141a1.474,1.474,0,0,0,.941.3c.212-.017.393-.066.6-.092.179-.022.366-.037.552-.043a3.445,3.445,0,0,0,.845-.132c.15-.055-.006-.111-.146-.147a2.053,2.053,0,0,0-.5-.084c-.243-.005-.482-.009-.717-.033-.089-.009-.173-.037-.267-.045-.127-.01-.265-.008-.394-.006C263.217,255.865,262.689,255.946,262.584,256.141Z" transform="translate(-177.852 -245.62)"/><path class="i" d="M265.613,256.493a.619.619,0,0,1-.309-.027c.01-.174.891-.235,1.063-.072.2.189-.465.212-.753.155Z" transform="translate(-177.094 -245.498)"/><path class="i" d="M270.036,259.1c-.113-.091-.267-.166-.207-.267a.641.641,0,0,1,.344-.211,3.7,3.7,0,0,1,.729-.129,1.627,1.627,0,0,1,.38-.026,1.6,1.6,0,0,1,1.047.474.884.884,0,0,1,.211.32,1.137,1.137,0,0,0,.078.23c.028.065.1.124.052.189a.711.711,0,0,1-.212.148,2.178,2.178,0,0,1-.986.2,2.586,2.586,0,0,1-1.509-.547C269.735,259.3,269.453,259.017,270.036,259.1Z" transform="translate(-175.872 -244.895)"/><path class="i" d="M269.377,258.378c.2.026.254.049.362-.013a.094.094,0,0,0,.033-.156.873.873,0,0,0-.687-.141c-.124.036-.345.118-.361.176-.029.114.39.258.652.246Z" transform="translate(-176.141 -245.01)"/><path class="i" d="M274.733,255.7a2.25,2.25,0,0,0,.311.014h.8c.5,0,1,.028,1.5.029.364,0,.725-.024,1.083-.045.183-.012.378-.026.557-.042-.014-.018-.1-.02-.144-.028-.139-.024-.293-.038-.426-.066-.3-.064-.611-.128-.922-.183a1.746,1.746,0,0,1-.176-.029c-.064-.018-.127-.047-.187-.068a2.373,2.373,0,0,0-.366-.095,6.043,6.043,0,0,0-1.028-.045c-.114,0-.223.014-.339.015s-.243,0-.367.009a4.371,4.371,0,0,0-.733.115c-.266.06-.73.129-.806.262-.037.065.147.089.283.1.171.013.347.013.518.022C274.516,255.677,274.789,255.708,274.733,255.7Z" transform="translate(-174.815 -245.821)"/><path class="i" d="M272.686,255.515c-.127-.029-.359-.069-.317-.143s.306-.075.453-.066c.347.019-.015.193-.243.182Z" transform="translate(-175.127 -245.775)"/><path class="i" d="M274.415,254.511a1.529,1.529,0,0,0,.409.036c.215-.017.3-.081.307-.162.013-.124-.068-.208-.4-.234a1.777,1.777,0,0,0-.644.095c-.065.028-.1.064-.107.1-.015.077.138.113.288.15Z" transform="translate(-174.676 -246.097)"/><path class="i" d="M282.381,252.912a2.2,2.2,0,0,1-.54-.579,2.032,2.032,0,0,1-.092-.54,2.94,2.94,0,0,0-.432-.734.566.566,0,0,1-.075-.646,1.212,1.212,0,0,1,.783-.423,5.775,5.775,0,0,1,.8-.09l.381-.017c.083,0,.137-.015.231-.014.123,0,.125.02.125.065a.246.246,0,0,1-.143.226.851.851,0,0,0-.321.39,3.124,3.124,0,0,0-.18.389c-.04.129-.078.258-.124.387-.04.111-.088.223-.128.334a2.1,2.1,0,0,0-.061.331c-.018.092.008.184-.015.276a.661.661,0,0,0-.028.171.294.294,0,0,1-.028.134c-.018.043,0,.086-.005.129A.626.626,0,0,1,282.381,252.912Z" transform="translate(-172.674 -247.289)"/><path class="i" d="M280.864,251.5a.533.533,0,0,0,.206.073,1.115,1.115,0,0,0,.146,0c.212-.018.224-.156.225-.224,0-.187-.146-.4-.49-.536a2.338,2.338,0,0,0-.928-.141.972.972,0,0,0-.788.382c-.087.15-.107.362.2.477a1.23,1.23,0,0,0,.4.083c.118,0,.23-.014.349-.014a2.311,2.311,0,0,0,.451,0A.557.557,0,0,0,280.864,251.5Z" transform="translate(-173.228 -247.066)"/><path class="i" d="M280.6,250.5a.5.5,0,0,1-.251-.024c-.092-.027-.132-.056-.1-.1a.518.518,0,0,1,.427-.084.21.21,0,0,1,.178.121c.013.054-.086.1-.215.116Z" transform="translate(-172.933 -247.176)"/><path class="i" d="M272.586,249.466a.516.516,0,0,0,.293.144.552.552,0,0,0,.248.013,1.146,1.146,0,0,0,.572-.256.141.141,0,0,0-.045-.222,1.887,1.887,0,0,0-.379-.146c-.115-.04-.237-.075-.361-.11a1.359,1.359,0,0,0-.706-.045c-.22.054-.4.17-.377.274.015.084.086.134.183.2S272.166,249.451,272.586,249.466Z" transform="translate(-175.276 -247.583)"/><path class="i" d="M273.259,249.659a.284.284,0,0,1,.111-.16c.065,0,.1-.031.175-.019.107.014.075.084.072.116s-.05.084-.125.113c-.028.01-.151.056-.161.02Z" transform="translate(-174.878 -247.398)"/><path class="i" d="M279.985,253.637a.967.967,0,0,0,.523.013c.166-.057.129-.166.049-.235a.288.288,0,0,0-.2-.086c-.111-.005-.233,0-.345,0-.268,0-.46-.107-.717-.013-.106.04-.192.123-.162.179.052.106.336.159.566.2Z" transform="translate(-173.243 -246.339)"/><path class="i" d="M287.632,260.338a.862.862,0,0,0,.437.312l.119,0a1.9,1.9,0,0,0,.625-.006c.609-.125.536-.373.533-.6,0-.242.065-.549-.79-.439a4.759,4.759,0,0,0-1.275.263c-.13.074-.069.113,0,.185a.962.962,0,0,0,.35.286Z" transform="translate(-170.992 -244.583)"/><path class="i" d="M335.184,272.355a.864.864,0,0,0,.437.313l.119,0a1.9,1.9,0,0,0,.625-.006c.61-.125.536-.373.533-.6,0-.242.065-.549-.79-.439a4.812,4.812,0,0,0-1.275.262c-.13.075-.069.114,0,.187a.958.958,0,0,0,.35.285Z" transform="translate(-157.743 -241.235)"/><path class="i" d="M288.406,258.124c-.167-.037-.491-.092-.518-.187-.022-.077.092-.1.194-.159a1.118,1.118,0,0,1,.919-.118c.178.054.3.183.254.274a.623.623,0,0,1-.528.189Z" transform="translate(-170.802 -245.132)"/><path class="i" d="M246.956,249.288a2.269,2.269,0,0,0,.972.046,4.8,4.8,0,0,0,1.038-.17c.368-.139.279-.329.375-.5.074-.137.1-.215-.138-.334a4.316,4.316,0,0,0-.913-.3,10.865,10.865,0,0,0-3.7-.035,3.367,3.367,0,0,0-1.759.625c-.19.266-.036.57.487.758a5.094,5.094,0,0,0,1.978.18l.485-.052c.21-.01.421-.011.63-.005A.686.686,0,0,0,246.956,249.288Z" transform="translate(-183.378 -247.851)"/><path class="i" d="M200.522,273.488a2.268,2.268,0,0,0,.972.046,4.787,4.787,0,0,0,1.037-.17c.37-.139.28-.329.375-.5.075-.137.1-.215-.137-.334a4.341,4.341,0,0,0-.913-.3,10.867,10.867,0,0,0-3.7-.035,3.362,3.362,0,0,0-1.759.625c-.19.266-.036.57.486.758a5.123,5.123,0,0,0,1.979.182c.161-.019.322-.036.485-.054.21-.01.419-.012.63-.005A.688.688,0,0,0,200.522,273.488Z" transform="translate(-196.316 -241.109)"/><path class="i" d="M247.466,249.413a1.213,1.213,0,0,1,.749-.176,2.269,2.269,0,0,1,.431-.026c.229.02.459.152.437.245-.017.075-.377.189-.522.22a1.218,1.218,0,0,1-.56-.012Z" transform="translate(-182.064 -247.474)"/><path class="i" d="M247.736,263.325a1.989,1.989,0,0,0,1.116-.081c.18-.115,0-.292-.2-.393a4.74,4.74,0,0,0-1.453-.321c-.5-.026-1.024.207-1.082.386-.115.361,1.354.554,2.047.575Z" transform="translate(-182.442 -243.762)"/><path class="i" d="M245.7,280.355a1.978,1.978,0,0,0,1.116-.082c.18-.115,0-.292-.2-.391a4.741,4.741,0,0,0-1.453-.321c-.5-.026-1.024.207-1.082.385-.115.362,1.354.555,2.047.575Z" transform="translate(-183.009 -239.017)"/><path class="i" d="M250.974,263.476a2.731,2.731,0,0,1-.563.093c-.065-.006-.077-.037-.127-.049-.187-.045-.353-.095-.39-.179-.078-.179.088-.322.49-.412a1.318,1.318,0,0,1,.752.027c.239.093.348.3.052.394Z" transform="translate(-181.393 -243.662)"/><path class="i" d="M290.3,251.059a8.246,8.246,0,0,0,2.1.052,2.718,2.718,0,0,0,1.261-.249c.476-.448-1.984-.791-2.77-.877a12.718,12.718,0,0,0-2.1-.05,4.3,4.3,0,0,0-1.441.311c-.272.2.06.43.469.552a21.482,21.482,0,0,0,3.229.344Z" transform="translate(-170.979 -247.277)"/><path class="i" d="M289.544,251c.02.046.063.251.18.32a.89.89,0,0,0,.364.142,1.23,1.23,0,0,0,.554-.093c.087-.037.179-.107.127-.16a.961.961,0,0,0-.275-.1,4.842,4.842,0,0,0-.524-.11,2.49,2.49,0,0,0-.265-.043,1.2,1.2,0,0,0-.322.043Z" transform="translate(-170.385 -246.987)"/><path class="i" d="M294.216,251.218l.179-.151a1.136,1.136,0,0,1,.426.046.131.131,0,0,1,.028.189.505.505,0,0,1-.366.1c-.2,0-.286-.074-.321-.147Z" transform="translate(-169.054 -246.955)"/><path class="i" d="M300.8,256.746a.944.944,0,0,0,.486-.027c.221-.086.269-.211.078-.307a2.929,2.929,0,0,0-1.3-.239c-.285.024-.616.168-.445.28a1.714,1.714,0,0,0,.325.179,2.837,2.837,0,0,0,.8.114Z" transform="translate(-167.547 -245.534)"/><path class="i" d="M226.742,252.5a.8.8,0,0,0,.339.091,1.751,1.751,0,0,0,.563-.022,1.112,1.112,0,0,0,.675-.456c.083-.141.036-.251-.179-.368a2.211,2.211,0,0,0-.956-.235,1.8,1.8,0,0,0-1,.153,1.221,1.221,0,0,0-.5.416c-.054.132.04.223.256.322A1.119,1.119,0,0,0,226.742,252.5Z" transform="translate(-188.139 -246.834)"/><path class="i" d="M227.616,251.434c-.113,0-.243.006-.274-.042s.107-.173.216-.212a1.332,1.332,0,0,1,.424-.061.592.592,0,0,1,.244.075c.1.054.118.116.033.169a.514.514,0,0,1-.323.114Z" transform="translate(-187.673 -246.941)"/><path class="i" d="M216.669,254.376a1.755,1.755,0,0,0,.482-.042,2.227,2.227,0,0,0,.638-.251c.208-.125.371-.286.336-.44-.024-.11-.34-.214-.6-.23a3.628,3.628,0,0,0-1.029.1c-.495.143-.9.4-.845.651C215.71,254.452,216.8,254.463,216.669,254.376Z" transform="translate(-190.93 -246.303)"/><path class="i" d="M218.566,253.258a.935.935,0,0,1-.265.064c-.049-.041-.168-.055-.21-.1s-.012-.1.042-.138a.67.67,0,0,1,.38-.1.381.381,0,0,1,.307.083c.059.044.083.054.018.1a1.159,1.159,0,0,1-.165.088Z" transform="translate(-190.254 -246.421)"/></g><ellipse class="x" cx="23.858" cy="13.122" rx="23.858" ry="13.122" transform="translate(276.301 291.106)"/><path class="y" d="M243.069,283.55c0,2.6-3.838,4.714-8.572,4.714s-8.573-2.111-8.573-4.714,3.838-4.716,8.573-4.716S243.069,280.945,243.069,283.55Z" transform="translate(19.895 23.016)"/><path class="z" d="M341.21,287.235c0,2.6-3.838,4.714-8.573,4.714s-8.572-2.111-8.572-4.714,3.838-4.716,8.572-4.716S341.21,284.63,341.21,287.235Z" transform="translate(47.238 24.043)"/><path class="aa" d="M234.323,290.189,44.132,608.24l349.746,30.67-79.736-348.49S255.909,288.254,234.323,290.189Z" transform="translate(22.235 25.956)"/><path class="ab" d="M243.231,379.075l-3.9-89.587,25.177-.473V377.94Z" transform="translate(23.631 25.852)"/><path class="ab" d="M269.871,289.015l.7,90.385h2.386l.7-90.064Z" transform="translate(32.139 25.852)"/><path class="ab" d="M283.743,289.6v89.831L291.3,378.2l-1.641-88.192Z" transform="translate(36.004 26.017)"/></g></svg>