<svg xmlns="http://www.w3.org/2000/svg" xmlns:xlink="http://www.w3.org/1999/xlink" width="1921" height="759.008" viewBox="0 0 1921 759.008"><defs><style>.a{opacity:0.13;fill:url(#a);}</style><radialGradient id="a" cx="0.5" cy="0.5" r="0.974" gradientTransform="translate(0.28 0.04) scale(0.395 0.921)" gradientUnits="objectBoundingBox"><stop offset="0" stop-color="#ea28f1"/><stop offset="0.081" stop-color="#ea28f1"/><stop offset="1" stop-color="#961bc1"/></radialGradient></defs><path class="a" d="M1500.929,444.26c81.253-93.914,235.595-153.052,319.673-179.793l-.414-47.5s-371.5,113.176-461.637,329.469-120.19,274.139-292.278,326.954S752.141,810.514,645.61,644.522s-519-231.383-666.505-103.116S-59.138,795.423-59.138,795.423,214.02,619.372,399.768,674.7s177.553,256.534,447.98,296.775q10.962,1.632,21.834,3c-36.052-15.131-57.009-36.537-58.039-53.6-2.452-40.66,53.974-15.811,53.974-15.811s191.359,49.694,304.214-31.626,184-221.366,218.346-167.155-130.028,212.331-294.4,266.545c-3.409,1.125-6.765,2.12-10.133,3.144,166.455-21.526,303.66-100.418,387-243.426,120.188-206.233,352.373-203.718,352.373-203.718l-1.052-119.937C1651.378,441.056,1393.255,568.708,1500.929,444.26ZM318.423,595.6c-147.2,6.777-397.441,94.873-250.24-67.764,0,0,309.119-88.094,466.132,67.764S465.622,588.827,318.423,595.6ZM631.685,810.137c-12.457,7.813-41.107-10.926-63.994-41.856s-31.345-62.337-18.89-70.15,41.107,10.926,63.994,41.856S644.139,802.324,631.685,810.137Zm984.551-264.23c-98.134,60.99-176.641,67.766-122.667,9.036s127.573-58.73,127.573-58.73S1714.368,484.92,1616.236,545.907Z" transform="translate(98.081 -216.966)"/></svg>